<?xml version="1.0" encoding="utf-8"?>
<!-- Generator: Adobe Illustrator 22.0.1, SVG Export Plug-In . SVG Version: 6.00 Build 0)  -->
<svg version="1.1" id="Layer_1" xmlns="http://www.w3.org/2000/svg" xmlns:xlink="http://www.w3.org/1999/xlink" x="0px" y="0px"
	 viewBox="0 0 321 500" style="enable-background:new 0 0 321 500;" xml:space="preserve">
<style type="text/css">
	.st0{clip-path:url(#SVGID_2_);}
	.st1{clip-path:url(#SVGID_4_);}
	.st2{clip-path:url(#SVGID_6_);}
	.st3{fill:#FFFFFF;}
	.st4{fill:#A8C4E5;}
	.st5{fill:#CE3A77;}
	.st6{fill:#DD4078;}
	.st7{fill:#E1EAF4;}
	.st8{fill:none;stroke:#BACED8;stroke-width:1.66;stroke-miterlimit:10;}
	.st9{fill:#6271F0;}
	.st10{fill:#EF487C;}
	.st11{fill:#F1A32F;}
	.st12{fill:#BBD6F2;}
	.st13{fill:url(#Path_31_1_);}
	.st14{fill:#F0F6FC;}
	.st15{fill:#45446C;}
	.st16{fill:#97CBFF;}
	.st17{opacity:0.5;fill:#A8C4E5;enable-background:new    ;}
	.st18{fill:#5265DB;}
	.st19{fill:#B3B3FF;}
	.st20{fill:#A1A1E5;}
	.st21{fill:#565682;}
	.st22{fill:#6B6B9B;}
	.st23{fill:#98BDE2;}
	.st24{fill:#8DB0DA;}
	.st25{fill:#FFD22D;}
	.st26{fill:#D84177;}
	.st27{opacity:0.45;fill:#45446C;enable-background:new    ;}
	.st28{fill:#A7D1E8;}
	.st29{fill:#FFAA82;}
	.st30{fill:#91B8DB;}
	.st31{fill:none;stroke:#BACED8;stroke-width:0.36;stroke-miterlimit:10;}
	.st32{fill:#8585FF;}
	.st33{fill:#51517A;}
	.st34{fill:#5B5B84;}
	.st35{opacity:0.33;fill:#A8C4E5;enable-background:new    ;}
	.st36{fill:#15253D;}
	.st37{fill:url(#Path_163_1_);}
	.st38{opacity:0.46;fill:#FFFFFF;enable-background:new    ;}
	.st39{fill:#513554;}
	.st40{fill:#FCFEFF;}
	.st41{fill:url(#Path_174_1_);}
	.st42{fill:#616191;}
	.st43{fill:#915151;}
	.st44{fill:#7070A0;}
	.st45{fill:#FFDE73;}
	.st46{fill:#AA6868;}
	.st47{fill:#39395B;}
	.st48{fill:url(#Path_197_1_);}
	.st49{fill:#BA366C;}
	.st50{fill:#3C3C60;}
	.st51{fill:#EF9A78;}
	.st52{fill:#514677;}
	.st53{fill:#423A66;}
	.st54{fill:#46466B;}
	.st55{fill:#BC4073;}
	.st56{fill:#D0E7F4;}
	.st57{fill:#492817;}
	.st58{fill:#EA8A6C;}
	.st59{fill:#3A3A5E;}
	.st60{fill:url(#Path_256_1_);}
	.st61{fill:#F8FCFF;}
	.st62{fill:url(#Path_258_1_);}
	.st63{opacity:0.32;fill:#7474A3;enable-background:new    ;}
	.st64{fill:#7474A3;}
	.st65{fill:#7373EA;}
	.st66{fill:#424268;}
	.st67{fill:url(#градиент_1_);}
</style>
<title>4</title>
<g>
	<defs>
		<rect id="SVGID_1_" x="2.1" y="3.1" width="320" height="500"/>
	</defs>
	<clipPath id="SVGID_2_">
		<use xlink:href="#SVGID_1_"  style="overflow:visible;"/>
	</clipPath>
	<g class="st0">
		<defs>
			<rect id="SVGID_3_" x="-334.3" width="1052.6" height="500"/>
		</defs>
		<clipPath id="SVGID_4_">
			<use xlink:href="#SVGID_3_"  style="overflow:visible;"/>
		</clipPath>
		<g class="st1">
			<g>
				<defs>
					<rect id="SVGID_5_" x="-334.3" y="-92.1" width="1052.6" height="592.1"/>
				</defs>
				<clipPath id="SVGID_6_">
					<use xlink:href="#SVGID_5_"  style="overflow:visible;"/>
				</clipPath>
				<g class="st2">
					<g id="Слайд_4">
						<rect x="-334.3" y="-92.1" class="st3" width="1052.6" height="592.1"/>
						<g id="эксперт">
							<g id="image">
								<path id="Path_16" class="st4" d="M380.7,168.1l-80-47.1c-0.5-0.3-1-0.3-1.5,0l-110.9,62.6c-0.1,0-0.2,0.1-0.2,0.2l-6.5,3.6
									c-0.7,0.4-1,1.3-0.6,2c0.1,0.2,0.3,0.4,0.5,0.5l80,47.2c0.5,0.3,1,0.3,1.5,0l110.8-62.6c0.1,0,0.2-0.1,0.2-0.2l6.5-3.6
									c0.7-0.4,1-1.3,0.6-2.1c0,0,0,0,0,0C381.1,168.5,380.9,168.3,380.7,168.1z"/>
								<path id="Path_17" class="st4" d="M653.7,354.7v-5.2l0,0c0-1.1-0.6-2-1.9-2.8l-47.3-27.3c-2.8-1.6-7.8-1.4-11,0.5
									l-85.6,49.4c-1.7,1-2.6,2.2-2.7,3.4l0,0v0.3l0.1,4.4l0,0c-0.4,1.3,0.1,2.7,1.8,3.6l47.3,27.3c1.7,0.9,3.5,1.2,5.4,1.1
									c0.5,0,1,0,1.5-0.1c1-0.2,1.9-0.4,2.9-0.8c0.4-0.2,0.9-0.4,1.3-0.6l85.6-49.4c1.7-1,2.6-2.3,2.7-3.5l0,0L653.7,354.7z"/>
								<g id="Group_20">
									<path id="Path_18" class="st5" d="M177.8,184.5l111.7-63.9l0.2-21.8L178,159.8L177.8,184.5z"/>
									<g id="Group_18">
										<path id="Path_19" class="st6" d="M258.5,234.1l-80-47.8c-1-0.6-1-3,0-3.6L289.4,120c0.5-0.2,1-0.2,1.5,0l80,47.2
											c0.7,0.4,1,1.3,0.6,2c0,0,0,0,0,0c-0.1,0.2-0.3,0.4-0.5,0.5l-110.9,64.3C259.5,234.3,258.9,234.3,258.5,234.1z"/>
										
											<rect id="Rectangle_20" x="177.6" y="181.1" transform="matrix(9.424655e-03 -1 1 9.424655e-03 -4.9988 359.2826)" class="st6" width="2.5" height="2.1"/>
										
											<rect id="Rectangle_21" x="368.7" y="165.6" transform="matrix(9.424655e-03 -1 1 9.424655e-03 199.404 535.7735)" class="st6" width="2.9" height="3.3"/>
									</g>
									<path id="Path_20" class="st5" d="M258.5,229.7l-80-47.2c-0.7-0.4-0.9-1.3-0.5-2.1c0.1-0.2,0.3-0.4,0.6-0.5l110.9-62.6
										c0.5-0.2,1-0.2,1.5,0l80,47.2c0.7,0.4,1,1.3,0.6,2c0,0,0,0,0,0c-0.1,0.2-0.3,0.4-0.5,0.5L260,229.7
										C259.5,230,259,230,258.5,229.7z"/>
									<path id="Path_21" class="st7" d="M259.9,229.9l-75.5-43l0.2-24.6l75.8,45.4L259.9,229.9z"/>
									<line id="Line_35" class="st8" x1="184.7" y1="178" x2="259.4" y2="221.6"/>
									<line id="Line_36" class="st8" x1="184.8" y1="170.8" x2="260.5" y2="214.3"/>
									<line id="Line_37" class="st8" x1="184.7" y1="182.8" x2="259.3" y2="226.4"/>
									<path id="Path_22" class="st9" d="M191.9,182.3c0,0-9.9,7.6-10.6,15.4l7.1,3.8c0,0,6-13,10.2-15.4L191.9,182.3z"/>
									<path id="Path_23" class="st3" d="M259.8,229.9l106.5-61.3l0.2-21.8L260,205.7L259.8,229.9z"/>
									<g id="Group_19">
										<path id="Path_24" class="st6" d="M258.7,210.6l-80-47.2c-0.7-0.4-1-1.3-0.6-2c0,0,0,0,0,0c0.1-0.2,0.3-0.4,0.5-0.5
											l110.9-62.6c0.5-0.2,1-0.2,1.5,0l79.9,47.2c0.7,0.4,1,1.3,0.6,2c0,0,0,0,0,0c-0.1,0.2-0.3,0.4-0.5,0.5l-110.9,62.6
											C259.7,210.9,259.2,210.9,258.7,210.6z"/>
										
											<rect id="Rectangle_22" x="177.8" y="159.7" transform="matrix(9.424655e-03 -1 1 9.424655e-03 16.6288 338.2218)" class="st6" width="2.5" height="2.1"/>
										
											<rect id="Rectangle_23" x="368.9" y="143.7" transform="matrix(9.424655e-03 -1 1 9.424655e-03 221.4687 514.2906)" class="st6" width="2.9" height="3.3"/>
									</g>
									<path id="Path_25" class="st10" d="M258.7,207.9l-80-47.2c-0.7-0.4-0.9-1.3-0.5-2c0.1-0.2,0.3-0.4,0.6-0.6l110.9-62.6
										c0.5-0.2,1-0.2,1.5,0l80,47.2c0.7,0.4,1,1.3,0.6,2c0,0,0,0,0,0c-0.1,0.2-0.3,0.4-0.5,0.5l-110.9,62.6
										C259.7,208.2,259.2,208.2,258.7,207.9z"/>
									<line id="Line_38" class="st8" x1="365.1" y1="155.9" x2="260.5" y2="214.3"/>
									<line id="Line_39" class="st8" x1="365" y1="160.9" x2="260.5" y2="219.4"/>
									<line id="Line_40" class="st8" x1="365" y1="166" x2="260.4" y2="224.5"/>
								</g>
								<g id="Group_21">
									<path id="Path_26" class="st3" d="M300.8,153.9l-33.4-19.7c-1.4-0.9-1.2-2.4,0.4-3.3l15.6-8.8c1.7-1,4.3-1.1,5.7-0.2
										l33.4,19.7c1.4,0.9,1.3,2.4-0.4,3.3l-15.6,8.8C304.9,154.7,302.3,154.8,300.8,153.9z"/>
									<path id="Path_27" class="st11" d="M314.7,144.2l-30.1-17.7c-0.4-0.3-0.4-0.7,0.1-1l0,0c0.5-0.3,1.2-0.3,1.8,0l30.1,17.8
										c0.4,0.3,0.4,0.7-0.1,1l0,0C316,144.4,315.3,144.5,314.7,144.2z"/>
									<path id="Path_28" class="st11" d="M309.7,147.1l-30.1-17.7c-0.4-0.3-0.4-0.7,0.1-1l0,0c0.5-0.3,1.2-0.3,1.8,0l30.1,17.8
										c0.4,0.3,0.4,0.7-0.1,1l0,0C310.9,147.3,310.2,147.4,309.7,147.1z"/>
									<path id="Path_29" class="st11" d="M304.5,150l-30.1-17.8c-0.4-0.3-0.4-0.7,0.1-1l0,0c0.5-0.3,1.2-0.3,1.8,0l30.1,17.7
										c0.4,0.3,0.4,0.7-0.1,1l0,0C305.7,150.2,305.1,150.3,304.5,150z"/>
								</g>
								<path id="Path_30" class="st12" d="M617.2,157.2L617.2,157.2v-1.1c0-0.1,0-0.1,0-0.2c0,0,0-0.1,0-0.2l0,0c0,0,0-0.1,0-0.2
									c0,0,0-0.1,0-0.2v-0.1c0,0,0-0.1,0-0.1c0,0,0-0.1,0-0.2c0,0,0-0.1,0-0.1l0,0c0,0,0-0.1,0-0.2c0-0.1,0-0.1-0.1-0.2
									c0,0,0,0,0-0.1v0c0,0,0,0,0,0l0,0c0,0,0-0.1-0.1-0.2c0,0,0-0.1-0.1-0.2l0,0v0c0,0,0-0.1-0.1-0.2c0,0,0-0.1-0.1-0.2
									c0,0,0-0.1,0-0.1s0,0,0,0l0,0c0-0.1-0.1-0.2-0.2-0.3c0,0,0,0,0-0.1l0,0c-0.1-0.1-0.1-0.2-0.2-0.3l0,0c0,0,0,0,0,0l0,0
									c0,0,0-0.1-0.1-0.1c0,0-0.1-0.1-0.1-0.2l0,0c0,0,0,0,0,0l0,0l0,0c-0.1-0.1-0.1-0.1-0.1-0.2l-0.1-0.1l0,0l-0.2-0.2
									c-0.1-0.1-0.1-0.1-0.2-0.2l0,0c-0.1-0.1-0.1-0.1-0.2-0.1c0,0-0.1-0.1-0.2-0.1h0c0,0-0.1-0.1-0.1-0.1c0,0-0.1-0.1-0.2-0.1
									l0,0l0,0c0,0-0.1,0-0.1-0.1c0,0-0.1-0.1-0.2-0.1l-1.1-0.6l-5.8,3.2c0,0,1.4,0.8,1.5,0.9s0.1,0.1,0.2,0.1
									c0,0,0.1,0.1,0.2,0.1c0,0,0.1,0.1,0.2,0.1s0,0,0.1,0c0.1,0.1,0.2,0.1,0.3,0.2l0,0l0.3,0.3c0,0,0,0,0,0l0,0l0.3,0.3l0,0
									c0.1,0.1,0.1,0.2,0.2,0.3l0,0c0.1,0.1,0.1,0.2,0.2,0.3c0.1,0.1,0.1,0.1,0.1,0.1s0.1,0.1,0.1,0.2c0,0,0.1,0.1,0.1,0.2
									s0,0.1,0.1,0.1s0,0.1,0.1,0.1c0,0,0.1,0.1,0.1,0.2c0,0,0,0,0,0c0,0,0,0,0,0l0,0c0,0.1,0.1,0.2,0.2,0.3v0
									c0,0.1,0.1,0.2,0.1,0.4v0c0.1,0.1,0.1,0.3,0.1,0.4v0c0.1,0.1,0.1,0.2,0.1,0.3v0c0,0.1,0,0.2,0.1,0.3v0.1
									c0,0.1,0,0.2,0.1,0.4v0c0,0.1,0,0.2,0,0.4v0c0,0.1,0,0.2,0,0.4v0.9c0,0.1,0,0.2,0,0.2c0,0.1,0,0.1,0,0.2c0,0.1,0,0.2,0,0.3
									l-20.2,124.9c-0.1,0.5-2.4,4.4-1.9,4.1l5.5-4.7c1.2-1,1.9-2.4,2.2-3.9l19.8-122.6c0.1-0.5,0.2-1.5,0.2-1.5
									c0-0.1,0-0.1,0-0.2v-0.1l0,0v-0.3C617.2,157.3,617.2,157.3,617.2,157.2L617.2,157.2z"/>
								<g id="Group_22">
									
										<linearGradient id="Path_31_1_" gradientUnits="userSpaceOnUse" x1="-215.6971" y1="-206.027" x2="-215.149" y2="-206.027" gradientTransform="matrix(409.09 0 0 456.62 88627.0703 94241.9531)">
										<stop  offset="0" style="stop-color:#E1EAF4"/>
										<stop  offset="0.56" style="stop-color:#ABC6E6"/>
										<stop  offset="0.65" style="stop-color:#A8C4E5"/>
									</linearGradient>
									<path id="Path_31" class="st13" d="M607.7,153.5c2.6,1.5,4.4,5,3.9,7.8l-20.5,126.7c-0.4,2.8-3,3.8-5.6,2.3L391.5,178.3
										c-2.6-1.5-4.4-5-3.9-7.8l20.5-126.7c0.4-2.8,3-3.8,5.6-2.3L607.7,153.5z"/>
								</g>
								<path id="Path_32" class="st14" d="M614.5,134.9L422.1,23.8l0,0l-0.3-0.1l0,0c-0.2-0.1-0.4-0.2-0.5-0.3c0,0-0.1,0-0.2-0.1
									c0,0-0.1,0-0.2-0.1c0,0-0.1,0-0.2-0.1c0,0-0.1,0-0.2-0.1c-0.1,0-0.1-0.1-0.2,0c-0.1,0-0.1,0-0.2,0l0,0c0,0-0.1,0-0.2,0h-1.2
									c-0.1,0-0.1,0-0.2,0h0c-0.1,0-0.2,0-0.4,0.1H418c-0.1,0-0.3,0.1-0.5,0.2l-5.7,3.3c0.1-0.1,0.3-0.1,0.4-0.2c0,0,0.1,0,0.2,0
									c0,0,0.1,0,0.2,0c0.1,0,0.2,0,0.3,0h0.5c0.1,0,0.3,0,0.4,0h0c0.1,0,0.3,0,0.4,0.1h0l0.4,0.1h0c0.1,0,0.3,0.1,0.5,0.2
									c0,0,0.1,0,0.2,0.1c0,0,0.1,0,0.1,0.1l1.1,0.6l0,0l192.7,111.3c0.2,0.1,0.5,0.1,0.7,0l4.2-2.5c0.4-0.2,0.5-0.7,0.2-1
									C614.7,135,614.6,134.9,614.5,134.9z"/>
								<path id="Path_33" class="st12" d="M619.6,142.4L619.6,142.4v-1.1c0-0.1,0-0.1,0-0.2c0,0,0-0.1,0-0.2l0,0c0,0,0-0.1,0-0.2
									c0,0,0-0.1,0-0.2v-0.1c0,0,0-0.1,0-0.1s0-0.1,0-0.2s0-0.1,0-0.1l0,0c0,0,0-0.1,0-0.2c0-0.1,0-0.1-0.1-0.2c0,0,0,0,0-0.1v0
									c0,0,0,0,0,0l0,0c0,0,0-0.1-0.1-0.2s0-0.1-0.1-0.2l0,0v0c0,0,0-0.1-0.1-0.2c0,0,0-0.1-0.1-0.2s0-0.1,0-0.1c0,0,0,0,0,0
									c0,0,0,0,0,0l0,0c0-0.1-0.1-0.2-0.2-0.3c0,0,0,0,0-0.1l0,0c-0.1-0.1-0.1-0.2-0.2-0.3l0,0c0,0,0,0,0,0l0,0c0,0,0-0.1-0.1-0.1
									c0,0-0.1-0.1-0.1-0.2l0,0c0,0,0,0,0,0l0,0l0,0c-0.1-0.1-0.1-0.1-0.1-0.2l-0.1-0.1l0,0l-0.2-0.2c0,0-0.1-0.1-0.2-0.2l0,0
									c-0.1-0.1-0.1-0.1-0.2-0.1c0,0-0.1-0.1-0.2-0.1h0c0,0-0.1-0.1-0.1-0.1c0,0-0.1-0.1-0.2-0.1l0,0l0,0c0,0-0.1,0-0.1-0.1
									c0,0-0.1-0.1-0.2-0.1c0,0-4.7-2.7-4.7-2.7l-5.8,3.5l5,2.6c0,0,0.1,0.1,0.2,0.1c0,0,0.1,0.1,0.2,0.1s0.1,0.1,0.2,0.1
									c0,0,0,0,0.1,0c0.1,0.1,0.2,0.1,0.3,0.2l0,0l0.3,0.3c0,0,0,0,0,0l0,0l0.3,0.3l0,0c0.1,0.1,0.1,0.2,0.2,0.3l0,0
									c0.1,0.1,0.1,0.2,0.2,0.3c0.1,0.1,0.1,0.1,0.1,0.1c0,0,0.1,0.1,0.1,0.2c0,0,0.1,0.1,0.1,0.2s0,0.1,0.1,0.1
									c0,0,0,0.1,0.1,0.1c0,0,0.1,0.1,0.1,0.2c0,0,0,0,0,0l0,0c0,0.1,0.1,0.2,0.2,0.3v0c0,0.1,0.1,0.2,0.1,0.4v0
									c0.1,0.1,0.1,0.3,0.1,0.4v0c0.1,0.1,0.1,0.2,0.1,0.3v0c0,0.1,0,0.2,0.1,0.3v0c0,0.1,0,0.2,0.1,0.4v0c0,0.1,0,0.2,0,0.4v0
									c0,0.1,0,0.2,0,0.4v0.9c0,0.1,0,0.2,0,0.2c0,0.1,0,0.1,0,0.2c0,0.1,0,0.2,0,0.3l-20.2,124.9c-0.1,0.6-2.4,4.4-1.9,4.1
									l5.5-4.7c1.2-1,1.9-2.4,2.2-3.9L619.5,145c0.1-0.5,0.2-1.5,0.2-1.5c0-0.1,0-0.1,0-0.2v-0.1l0,0v-0.3
									C619.6,142.6,619.6,142.5,619.6,142.4L619.6,142.4z"/>
								<g id="Group_24">
									<g id="Group_23">
										<path id="Path_34" class="st15" d="M609.9,138.7c2.6,1.5,4.4,5,3.9,7.8l-20.5,126.7c-0.4,2.8-3,3.8-5.6,2.3L393.7,163.5
											c-2.6-1.5-4.4-5-3.9-7.8L410.2,29c0.4-2.8,3-3.8,5.6-2.3L609.9,138.7z"/>
									</g>
								</g>
								<g id="Group_26">
									<g id="Group_25">
										<path id="Path_35" class="st16" d="M603,146.9c2.5,1.4,4.2,4.5,3.8,6.8l-18.6,106.4c-0.4,2.3-2.8,3.1-5.3,1.7L398.8,157.4
											c-2.5-1.4-4.2-4.5-3.8-6.8l18.6-106.4c0.4-2.4,2.8-3.1,5.3-1.7L603,146.9z"/>
									</g>
								</g>
								<path id="Path_36" class="st3" d="M514.8,91.1c0,1.2-0.9,1.7-1.9,1.1c-1.1-0.7-1.8-2-1.9-3.3c0-1.2,0.9-1.7,1.9-1.1
									C514,88.5,514.7,89.8,514.8,91.1z"/>
								<g id="Group_29">
									<path id="Path_37" class="st4" d="M588,297.7l0-5.9l-7.6,2.9l-1.6-3.7L388.8,181.3c-2.3-1.3-6.3-1.2-9,0.4l-81.7,47.2v-1.3
										l-15.1,6.1v6.3h0.1c0.3,0.7,0.8,1.3,1.4,1.6l197.6,114.1c2.3,1.3,6.3,1.2,9-0.4l94.7-54.7
										C587.2,299.8,587.9,298.7,588,297.7z"/>
									<path id="Path_38" class="st3" d="M482,349.4L284.4,235.3c-2.3-1.3-2-3.6,0.6-5.2l94.7-54.7c2.6-1.5,6.7-1.7,9-0.4
										l197.6,114.1c2.3,1.3,2,3.6-0.6,5.2L491,349C488.3,350.6,484.3,350.7,482,349.4z"/>
									<path id="Path_39" class="st4" d="M408.4,294.3l-47.8-27.6c-0.5-0.3-0.5-0.9,0.1-1.2l22.9-13.2c0.7-0.4,1.5-0.4,2.2-0.1
										l47.8,27.6c0.6,0.3,0.5,0.9-0.1,1.3l-22.9,13.3C409.9,294.6,409.1,294.6,408.4,294.3z"/>
									<g id="Group_28">
										<g id="Group_27">
											<path id="Path_40" class="st15" d="M391.6,196.2c-0.4,0.1-0.9,0.1-1.3-0.1l-12-6.9c-0.4-0.2-0.5-0.6-0.3-0.8l8-4.6
												c0.4-0.1,0.9-0.1,1.3,0.1l12,6.9c0.4,0.2,0.5,0.6,0.2,0.8L391.6,196.2z"/>
											<path id="Path_41" class="st15" d="M405.5,216.9c-0.4,0.1-0.9,0.1-1.3-0.1l-12-6.9c-0.4-0.2-0.5-0.6-0.2-0.8l8-4.6
												c0.4-0.1,0.9-0.1,1.3,0.1l12,6.9c0.4,0.2,0.5,0.5,0.3,0.8L405.5,216.9z"/>
											<path id="Path_42" class="st15" d="M398.5,225.5c-0.4,0.1-0.9,0.1-1.3-0.1l-12-6.9c-0.4-0.2-0.5-0.6-0.3-0.8l8-4.6
												c0.4-0.1,0.9-0.1,1.3,0.1l12,6.9c0.4,0.2,0.5,0.6,0.3,0.8L398.5,225.5z"/>
											<path id="Path_43" class="st15" d="M379.4,227.1c-0.4,0.1-0.9,0.1-1.3-0.1l-12-6.9c-0.4-0.2-0.5-0.6-0.2-0.8l8-4.6
												c0.4-0.1,0.9-0.1,1.3,0.1l12,6.9c0.4,0.2,0.5,0.6,0.2,0.8L379.4,227.1z"/>
											<path id="Path_44" class="st15" d="M346.4,222.3c-0.4,0.1-0.9,0.1-1.3-0.1l-12-6.9c-0.4-0.2-0.5-0.6-0.3-0.8l9.4-5.4
												c0.4-0.1,0.9-0.1,1.3,0.1l12,6.9c0.4,0.2,0.5,0.6,0.3,0.8L346.4,222.3z"/>
											<path id="Path_45" class="st15" d="M367.1,234.2c-0.5,0.1-1.1,0-1.5-0.3l-15.7-9.1c-0.5-0.3-0.8-0.7-0.5-0.9l9.4-5.4
												c0.5-0.1,1.1,0,1.5,0.3l15.7,9.1c0.6,0.3,0.8,0.7,0.5,0.9L367.1,234.2z"/>
											<path id="Path_46" class="st15" d="M470.4,293.9c-0.4,0.1-0.8,0-1.2-0.2l-12-6.9c-0.4-0.2-0.5-0.5-0.4-0.7l3.5-2
												c0.4-0.1,0.9,0,1.2,0.2l12,6.9c0.4,0.2,0.5,0.5,0.3,0.7L470.4,293.9z"/>
											<path id="Path_47" class="st15" d="M486.4,303.4c-0.4,0.1-0.8,0-1.2-0.2l-12-6.9c-0.4-0.2-0.5-0.5-0.4-0.7l3.5-2
												c0.4-0.1,0.9,0,1.3,0.2l12,6.9c0.4,0.2,0.5,0.5,0.3,0.7L486.4,303.4z"/>
											<path id="Path_48" class="st15" d="M503.4,313c-0.4,0.1-0.8,0-1.2-0.2l-12-6.9c-0.4-0.2-0.6-0.5-0.4-0.7l3.3-1.9
												c0.4-0.1,0.8,0,1.2,0.2l12,6.9c0.4,0.2,0.5,0.5,0.4,0.7L503.4,313z"/>
											<path id="Path_49" class="st15" d="M492.9,299.8c-0.4,0.1-0.8,0-1.2-0.2l-12-6.9c-0.4-0.2-0.6-0.6-0.4-0.7l3.3-1.9
												c0.4-0.1,0.8,0,1.2,0.2l12,6.9c0.4,0.2,0.6,0.5,0.4,0.7L492.9,299.8z"/>
											<path id="Path_50" class="st15" d="M449.6,281.9c-0.4,0.1-0.9,0.1-1.3-0.1l-78.1-45c-0.4-0.2-0.5-0.6-0.3-0.8l9.4-5.4
												c0.4-0.1,0.9-0.1,1.3,0.1l78.1,45c0.4,0.2,0.5,0.6,0.3,0.8L449.6,281.9z"/>
											<path id="Path_51" class="st15" d="M441.6,275.1c-0.2-0.1-0.4-0.2-0.7-0.3l-62.1-35.8c-0.2-0.1-0.4-0.2-0.5-0.4l0.5-0.3
												c0.2,0.1,0.4,0.2,0.7,0.3l62.1,35.8c0.2,0.1,0.4,0.2,0.5,0.4L441.6,275.1z"/>
											<path id="Path_52" class="st15" d="M365,231.3c-0.1,0-0.1,0-0.1,0l-9.2-5.3c0,0-0.1,0,0,0l0.6-0.3c0.1,0,0.1,0,0.1,0
												l9.2,5.3c0,0,0.1,0,0,0.1L365,231.3z"/>
											<path id="Path_53" class="st15" d="M341.4,216.7L341.4,216.7l-3.9-2.3c0,0,0,0,0,0l0.5-0.3h0l3.9,2.3c0,0,0,0,0,0
												L341.4,216.7z"/>
											<path id="Path_54" class="st15" d="M395.9,236.6c-0.4,0.1-0.9,0.1-1.3-0.1l-12-6.9c-0.4-0.2-0.5-0.5-0.3-0.8l8-4.6
												c0.4-0.1,0.9-0.1,1.3,0.1l12,6.9c0.4,0.2,0.5,0.6,0.3,0.8L395.9,236.6z"/>
											<path id="Path_55" class="st15" d="M412.4,246.2c-0.4,0.1-0.9,0.1-1.3-0.1l-12-6.9c-0.4-0.2-0.5-0.6-0.3-0.8l8-4.6
												c0.4-0.1,0.9-0.1,1.3,0.1l12,6.9c0.4,0.2,0.5,0.5,0.2,0.8L412.4,246.2z"/>
											<path id="Path_56" class="st15" d="M428.9,255.7c-0.4,0.1-0.9,0.1-1.3-0.1l-12-6.9c-0.4-0.2-0.5-0.6-0.2-0.8l8-4.6
												c0.4-0.1,0.9-0.1,1.3,0.1l12,6.9c0.4,0.2,0.5,0.6,0.2,0.8L428.9,255.7z"/>
											<path id="Path_57" class="st15" d="M445.4,265.2c-0.4,0.1-0.9,0.1-1.3-0.1l-12-6.9c-0.4-0.2-0.5-0.6-0.3-0.8l8-4.6
												c0.4-0.1,0.9-0.1,1.3,0.1l12,6.9c0.4,0.2,0.5,0.5,0.2,0.8L445.4,265.2z"/>
											<path id="Path_58" class="st15" d="M462,274.7c-0.4,0.1-0.9,0.1-1.3-0.1l-12-6.9c-0.4-0.2-0.5-0.6-0.2-0.8l8-4.6
												c0.4-0.1,0.9-0.1,1.3,0.1l12,6.9c0.4,0.2,0.5,0.6,0.3,0.8L462,274.7z"/>
											<path id="Path_59" class="st15" d="M478.5,284.3c-0.4,0.1-0.9,0.1-1.3-0.1l-12-6.9c-0.4-0.2-0.5-0.6-0.3-0.8l8-4.6
												c0.4-0.1,0.9-0.1,1.3,0.1l12,6.9c0.4,0.2,0.5,0.5,0.2,0.8L478.5,284.3z"/>
											<path id="Path_60" class="st15" d="M515.7,305.8c-0.4,0.1-0.9,0.1-1.3-0.1l-32.7-18.9c-0.4-0.2-0.5-0.6-0.3-0.8l8-4.6
												c0.4-0.1,0.9-0.1,1.3,0.1l32.7,18.9c0.4,0.2,0.5,0.6,0.2,0.8L515.7,305.8z"/>
											<path id="Path_61" class="st15" d="M414.9,235c-0.4,0.1-0.9,0.1-1.3-0.1l-12-6.9c-0.4-0.2-0.5-0.5-0.2-0.8l8-4.6
												c0.4-0.1,0.9-0.1,1.3,0.1l12,6.9c0.4,0.2,0.5,0.6,0.2,0.8L414.9,235z"/>
											<path id="Path_62" class="st15" d="M431.4,244.5c-0.4,0.1-0.9,0.1-1.3-0.1l-12-6.9c-0.4-0.2-0.5-0.6-0.2-0.8l8-4.6
												c0.4-0.1,0.9-0.1,1.3,0.1l12,6.9c0.4,0.2,0.5,0.5,0.3,0.8L431.4,244.5z"/>
											<path id="Path_63" class="st15" d="M448,254c-0.4,0.1-0.9,0.1-1.3-0.1l-12-6.9c-0.4-0.2-0.5-0.6-0.3-0.8l8-4.6
												c0.4-0.1,0.9-0.1,1.3,0.1l12,6.9c0.4,0.2,0.5,0.6,0.3,0.8L448,254z"/>
											<path id="Path_64" class="st15" d="M464.5,263.6c-0.4,0.1-0.9,0.1-1.3-0.1l-12-6.9c-0.4-0.2-0.6-0.6-0.3-0.8l8-4.6
												c0.4-0.1,0.9-0.1,1.3,0.1l12,6.9c0.4,0.2,0.5,0.6,0.3,0.8L464.5,263.6z"/>
											<path id="Path_65" class="st15" d="M481,273.1c-0.4,0.1-0.9,0.1-1.3-0.1l-12-6.9c-0.4-0.2-0.5-0.5-0.2-0.8l8-4.6
												c0.4-0.1,0.9-0.1,1.3,0.1l12,6.9c0.4,0.2,0.5,0.6,0.3,0.8L481,273.1z"/>
											<path id="Path_66" class="st15" d="M497.5,282.6c-0.4,0.1-0.9,0.1-1.3-0.1l-12-6.9c-0.4-0.2-0.6-0.6-0.3-0.8l8-4.6
												c0.4-0.1,0.9-0.1,1.3,0.1l12,6.9c0.4,0.2,0.5,0.5,0.3,0.8L497.5,282.6z"/>
											<path id="Path_67" class="st15" d="M514,292.1c-0.4,0.1-0.9,0.1-1.3-0.1l-12-6.9c-0.4-0.2-0.5-0.5-0.2-0.8l8-4.6
												c0.4-0.1,0.9-0.1,1.3,0.1l12,6.9c0.4,0.2,0.5,0.5,0.3,0.8L514,292.1z"/>
											<path id="Path_68" class="st15" d="M422,226.4c-0.4,0.1-0.9,0.1-1.3-0.1l-12.1-6.9c-0.4-0.2-0.5-0.6-0.2-0.8l8-4.6
												c0.4-0.1,0.9-0.1,1.3,0.1l12,6.9c0.4,0.2,0.5,0.6,0.3,0.8L422,226.4z"/>
											<path id="Path_69" class="st15" d="M438.5,235.9c-0.4,0.1-0.9,0.1-1.3-0.1l-12-6.9c-0.4-0.2-0.5-0.5-0.2-0.8l8-4.6
												c0.4-0.1,0.9-0.1,1.3,0.1l12,6.9c0.4,0.2,0.5,0.6,0.2,0.8L438.5,235.9z"/>
											<path id="Path_70" class="st15" d="M455,245.5c-0.4,0.1-0.9,0.1-1.3-0.1l-12-6.9c-0.4-0.2-0.5-0.6-0.2-0.8l8-4.6
												c0.4-0.1,0.9-0.1,1.3,0.1l12,6.9c0.4,0.2,0.5,0.6,0.3,0.8L455,245.5z"/>
											<path id="Path_71" class="st15" d="M471.5,255c-0.4,0.1-0.9,0.1-1.3-0.1l-12-6.9c-0.4-0.2-0.5-0.6-0.2-0.8l8-4.6
												c0.4-0.1,0.9-0.1,1.3,0.1l12,6.9c0.4,0.2,0.5,0.6,0.2,0.8L471.5,255z"/>
											<path id="Path_72" class="st15" d="M488,264.5c-0.4,0.1-0.9,0.1-1.3-0.1l-12-6.9c-0.4-0.2-0.5-0.6-0.2-0.8l8-4.6
												c0.4-0.1,0.9-0.1,1.3,0.1l12,6.9c0.4,0.2,0.5,0.6,0.2,0.8L488,264.5z"/>
											<path id="Path_73" class="st15" d="M504.5,274.1c-0.4,0.1-0.9,0.1-1.3-0.1l-12-6.9c-0.4-0.2-0.5-0.5-0.2-0.8l8-4.6
												c0.4-0.1,0.9-0.1,1.3,0.1l12,6.9c0.4,0.2,0.5,0.6,0.3,0.8L504.5,274.1z"/>
											<path id="Path_74" class="st15" d="M521.1,283.6c-0.4,0.1-0.9,0.1-1.3-0.1l-12-6.9c-0.4-0.2-0.5-0.6-0.2-0.8l8-4.6
												c0.4-0.1,0.9-0.1,1.3,0.1l12,6.9c0.4,0.2,0.5,0.5,0.2,0.8L521.1,283.6z"/>
											<path id="Path_75" class="st15" d="M388.9,207.4c-0.4,0.1-0.9,0.1-1.3-0.1l-20.3-11.8c-0.4-0.2-0.5-0.6-0.2-0.8l8-4.6
												c0.4-0.1,0.9-0.1,1.3,0.1l20.3,11.8c0.4,0.2,0.5,0.6,0.3,0.8L388.9,207.4z"/>
											<path id="Path_76" class="st15" d="M548.5,286.8c-0.4,0.1-0.9,0.1-1.3-0.1l-20.3-11.8c-0.4-0.2-0.5-0.6-0.2-0.8l8-4.6
												c0.4-0.1,0.9-0.1,1.3,0.1l20.3,11.8c0.4,0.2,0.5,0.6,0.2,0.8L548.5,286.8z"/>
											<path id="Path_77" class="st15" d="M381.9,216c-0.4,0.1-0.9,0.1-1.3-0.1l-24.3-14c-0.4-0.2-0.5-0.6-0.3-0.8l8-4.6
												c0.4-0.1,0.9-0.1,1.3,0.1l24.3,14c0.4,0.2,0.5,0.6,0.3,0.8L381.9,216z"/>
											<path id="Path_78" class="st15" d="M362.9,217.6c-0.4,0.1-0.9,0.1-1.3-0.1l-16.2-9.4c-0.4-0.2-0.5-0.6-0.3-0.8l8-4.6
												c0.4-0.1,0.9-0.1,1.3,0.1l16.2,9.4c0.4,0.2,0.5,0.6,0.2,0.8L362.9,217.6z"/>
											<path id="Path_79" class="st15" d="M408.1,205.7c-0.4,0.1-0.9,0.1-1.3-0.1l-12-6.9c-0.4-0.2-0.5-0.6-0.3-0.8l8-4.6
												c0.4-0.1,0.9-0.1,1.3,0.1l12,6.9c0.4,0.2,0.5,0.6,0.3,0.8L408.1,205.7z"/>
											<path id="Path_80" class="st15" d="M424.5,215.2c-0.4,0.1-0.9,0.1-1.3-0.1l-12-6.9c-0.4-0.2-0.5-0.6-0.2-0.8l8-4.6
												c0.4-0.1,0.9-0.1,1.3,0.1l12,6.9c0.4,0.2,0.5,0.6,0.3,0.8L424.5,215.2z"/>
											<path id="Path_81" class="st15" d="M441,224.8c-0.4,0.1-0.9,0.1-1.3-0.1l-12-6.9c-0.4-0.2-0.5-0.6-0.2-0.8l8-4.6
												c0.4-0.1,0.9-0.1,1.3,0.1l12,6.9c0.4,0.2,0.5,0.5,0.2,0.8L441,224.8z"/>
											<path id="Path_82" class="st15" d="M457.6,234.3c-0.4,0.1-0.9,0.1-1.3-0.1l-12-6.9c-0.4-0.2-0.5-0.5-0.3-0.8l8-4.6
												c0.4-0.1,0.9-0.1,1.3,0.1l12,6.9c0.4,0.2,0.6,0.6,0.3,0.8L457.6,234.3z"/>
											<path id="Path_83" class="st15" d="M474.1,243.8c-0.4,0.1-0.9,0.1-1.3-0.1l-12-6.9c-0.4-0.2-0.5-0.5-0.3-0.8l8-4.6
												c0.4-0.1,0.9-0.1,1.3,0.1l12,6.9c0.4,0.2,0.5,0.6,0.2,0.8L474.1,243.8z"/>
											<path id="Path_84" class="st15" d="M490.6,253.4c-0.4,0.1-0.9,0.1-1.3-0.1l-12-6.9c-0.4-0.2-0.5-0.6-0.2-0.8l8-4.6
												c0.4-0.1,0.9-0.1,1.3,0.1l12,6.9c0.4,0.2,0.5,0.6,0.2,0.8L490.6,253.4z"/>
											<path id="Path_85" class="st15" d="M507.2,262.9c-0.4,0.1-0.9,0.1-1.3-0.1l-12-6.9c-0.4-0.2-0.5-0.6-0.3-0.8l8-4.6
												c0.4-0.1,0.9-0.1,1.3,0.1l12,6.9c0.4,0.2,0.5,0.6,0.2,0.8L507.2,262.9z"/>
											<path id="Path_86" class="st15" d="M523.7,272.4c-0.4,0.1-0.9,0.1-1.3-0.1l-12-6.9c-0.4-0.2-0.5-0.6-0.2-0.8l8-4.6
												c0.4-0.1,0.9-0.1,1.3,0.1l12,6.9c0.4,0.2,0.5,0.6,0.2,0.8L523.7,272.4z"/>
											<path id="Path_87" class="st15" d="M533.2,280.8c-0.2-0.1-0.5-0.2-0.7-0.2c-0.2,0-0.4,0-0.5,0.1l-8,4.6
												c-0.1,0.1-0.2,0.2-0.1,0.3c0.1,0.2,0.2,0.3,0.4,0.4l3.1,1.8l-10.4,6c-0.1,0.1-0.2,0.2-0.1,0.3c0.1,0.2,0.2,0.3,0.4,0.4
												l8.1,4.6c0.2,0.1,0.5,0.2,0.7,0.2c0.2,0,0.4,0,0.5-0.1l18.9-11c0.1-0.1,0.2-0.2,0.1-0.3c-0.1-0.2-0.2-0.3-0.4-0.4
												L533.2,280.8z"/>
											<path id="Path_88" class="st15" d="M360.7,213.7c-0.1,0-0.1,0-0.1,0l-9.2-5.3c0,0-0.1,0,0,0l0.5-0.3c0.1,0,0.1,0,0.1,0
												l9.2,5.3c0,0,0.1,0,0,0.1L360.7,213.7z"/>
										</g>
									</g>
								</g>
								<path id="Path_89" class="st17" d="M676.5,322.7c-11.3,6.5-29.7,6.5-41.1-0.1c-11.4-6.6-11.5-17.2-0.1-23.7
									c11.3-6.5,29.7-6.5,41.1,0.1C687.8,305.5,687.9,316.1,676.5,322.7z"/>
								<g id="Group_32">
									<path id="Path_90" class="st9" d="M666.2,318.3c-11.3,6.5-29.7,6.5-41.1-0.1c-11.4-6.6-11.5-17.2-0.1-23.7
										s29.7-6.5,41.1,0.1C677.4,301.2,677.5,311.8,666.2,318.3z"/>
									<rect id="Rectangle_24" x="616.3" y="259.6" class="st9" width="58.5" height="47"/>
									<path id="Path_91" class="st18" d="M657.6,259.6v46.5h-0.1c0,4.3-2.8,8.6-8.4,11.9c-3.7,2-7.6,3.4-11.8,4.1
										c10,1.8,21.3,0.4,29.2-4.1c5.7-3.3,8.5-7.6,8.4-11.9h0v-46.5H657.6z"/>
									<path id="Path_92" class="st19" d="M666.2,271.7c-11.3,6.5-29.7,6.5-41.1-0.1c-11.4-6.6-11.5-17.2-0.1-23.8
										s29.7-6.5,41.1,0.1S677.5,265.1,666.2,271.7z"/>
									<path id="Path_93" class="st20" d="M662.8,269.3c-9.4,5.4-24.6,5.4-34,0c-9.4-5.4-9.4-14.3-0.1-19.6c9.4-5.4,24.6-5.4,34,0
										C672.1,255.1,672.1,263.9,662.8,269.3z"/>
									<path id="Path_94" class="st21" d="M662.7,258.2c-9.4-5.4-24.7-5.5-34,0c-2.4,1.3-4.4,3.2-5.9,5.5c1.2,2.1,3.1,4,5.9,5.6
										c9.4,5.4,24.7,5.5,34,0c2.4-1.3,4.4-3.2,5.9-5.5C667.5,261.7,665.5,259.8,662.7,258.2z"/>
									<path id="Path_95" class="st22" d="M628.7,269.3c-2.4-1.3-4.4-3.2-5.9-5.5c0.7-1.3,1.7-2.4,2.8-3.4
										c8.2-1.3,17.3-0.2,23.6,3.5c2.4,1.3,4.4,3.2,5.9,5.5c0.5,0.8,0.8,1.7,1,2.6c-1.3,0.3-2.5,0.6-3.8,0.8
										C644.2,274.2,635,273,628.7,269.3z"/>
									<g id="Group_31">
										<g id="Group_30">
											<path id="Path_96" class="st15" d="M663.6,281.2c2.2,1.2,4.4,2.2,6.5,3.5c1.1,0.6,2.5,1.3,2.8,2.6
												c0.5,1.9,0.2,4.4,0.2,6.4c0,2.3,0.1,4.6,0,7c0,2.1,0,4.2-0.1,6.2c-0.1,0.7-0.1,1.5,0,2.3c0.1,0.8-0.2,0.2,0.6,0
												c0.5-0.1,0.7,0,0.5-0.1s-1.3-0.4-1.5-0.5c-0.8-0.3-1.5-0.7-2.2-1.1c-1.2-0.5-2.3-1.2-3.5-1.8c-4.3-2.2-8.1,4.2-3.7,6.4
												c3.2,1.6,7.1,4.4,10.8,4.4c6.8,0.1,6.5-8.2,6.6-12.9c0.1-5.9,0.5-12.2-0.5-17.9c-1-5.9-8.3-8.4-12.9-10.9
												C663.2,272.5,659.4,278.9,663.6,281.2L663.6,281.2z"/>
										</g>
									</g>
								</g>
								<g id="Group_33">
									<path id="Path_97" class="st4" d="M501.4,373.7l-0.1-4.7l6.1,3.9c0,0-1.7,4.3-1.9,4.1C505.3,377,501.4,373.7,501.4,373.7z"
										/>
									<path id="Path_98" class="st12" d="M550.5,404.7l-47.3-27.3c-2.8-1.6-2.5-4.5,0.8-6.4l85.6-49.4c3.3-1.9,8.2-2.1,11-0.5
										l47.3,27.3c2.8,1.6,2.5,4.5-0.8,6.4l-85.6,49.4C558.2,406.1,553.3,406.3,550.5,404.7z"/>
									<path id="Path_99" class="st23" d="M555.6,378.4l34-56.9c3.3-1.9,8.2-2.1,11-0.5l47.3,27.3c2.8,1.6,2.5,4.5-0.8,6.4
										l-85.6,49.4c-1.7,1-3.7,1.5-5.7,1.5L555.6,378.4z"/>
									<path id="Path_100" class="st24" d="M592.9,359.5l8.7-11.8l48.3-2.1l0,5.5l-52.8,16.8L592.9,359.5z"/>
									<path id="Path_101" class="st15" d="M508,377c0,0.8-0.5,1.2-1.3,0.7c-0.8-0.5-1.3-1.3-1.3-2.3c0-0.8,0.5-1.2,1.3-0.7
										C507.4,375.2,507.9,376,508,377z"/>
									<path id="Path_102" class="st15" d="M550.5,399.3L503.2,372c-2.8-1.6-2.5-4.5,0.8-6.4l85.6-49.4c3.3-1.9,8.2-2.1,11-0.5
										l47.3,27.3c2.8,1.6,2.5,4.5-0.8,6.4l-85.6,49.4C558.2,400.7,553.3,400.9,550.5,399.3z"/>
									<path id="Path_103" class="st21" d="M625.9,334.9l-13-7.5c-0.5-0.3-0.5-0.9,0.1-1.2l0,0c0.7-0.3,1.4-0.4,2.1-0.1l13,7.5
										c0.5,0.3,0.5,0.9-0.1,1.2l0,0C627.3,335.2,626.6,335.3,625.9,334.9z"/>
									<path id="Path_104" class="st15" d="M531,391.7l-10.5-6c-0.5-0.4-0.8-0.9-0.8-1.5l0,0c0-0.6,0.4-0.9,0.8-0.6l10.5,6
										c0.5,0.4,0.8,0.9,0.8,1.5l0,0C531.9,391.7,531.5,392,531,391.7z"/>
									<path id="Path_105" class="st21" d="M634.9,359.4l5.2-3c0.3-0.3,0.5-0.6,0.5-1.1l0,0c0-0.4-0.2-0.6-0.5-0.4l-5.2,3
										c-0.3,0.3-0.5,0.6-0.5,1.1l0,0C634.4,359.4,634.7,359.5,634.9,359.4z"/>
									<path id="Path_106" class="st21" d="M627.6,364l5.2-3c0.3-0.3,0.5-0.6,0.5-1.1l0,0c0-0.4-0.2-0.5-0.5-0.4l-5.2,3
										c-0.3,0.3-0.5,0.6-0.5,1.1l0,0C627.1,364,627.3,364.2,627.6,364z"/>
									<path id="Path_107" class="st21" d="M536.8,382.1c-2.5,1.2-5.5,1.2-8,0c-2.2-1.3-2.2-3.3,0-4.6c2.5-1.2,5.5-1.2,8,0
										C539,378.8,539,380.8,536.8,382.1z"/>
									<path id="Path_108" class="st16" d="M592.3,319l-72,41.6c-1.2,0.7-1.6,2.2-0.9,3.4c0.2,0.4,0.5,0.7,0.9,0.9l43.7,25.2
										c0.8,0.4,1.7,0.4,2.5,0l72-41.6c1.2-0.7,1.6-2.2,0.9-3.4c-0.2-0.4-0.5-0.7-0.9-0.9L594.8,319
										C594,318.5,593,318.5,592.3,319z"/>
								</g>
								<g id="Group_34">
									<path id="Path_109" class="st3" d="M565.6,239.8l-148.8-85.9c-2.4-1.4-4-5.2-3.5-8.5L426.3,66c0.5-3.3,3-4.8,5.4-3.4
										l148.8,85.9c2.4,1.4,4,5.2,3.5,8.5l-13,79.3C570.5,239.6,568.1,241.2,565.6,239.8z"/>
									<path id="Path_110" class="st15" d="M582.6,165.8l1.6-9.7c0.5-2.8-1.5-6.5-4.3-8.2L432.5,62.9c-2.9-1.6-5.6-0.7-6,2.2
										l-1.6,9.7L582.6,165.8z"/>
									<path id="Path_111" class="st25" d="M437.8,75c-0.2,1.3-1.4,1.7-2.7,1s-2.2-2.4-2-3.7c0.2-1.3,1.4-1.7,2.7-1
										C437.1,72.1,437.9,73.5,437.8,75z"/>
									<path id="Path_112" class="st26" d="M447.2,80.4c-0.2,1.3-1.4,1.7-2.7,1c-1.3-0.8-2.2-2.4-2-3.7c0.2-1.3,1.4-1.7,2.7-1
										C446.5,77.5,447.4,79.2,447.2,80.4z"/>
									<path id="Path_113" class="st9" d="M456.6,85.9c-0.2,1.3-1.4,1.7-2.7,1c-1.3-0.8-2.2-2.4-2-3.7c0.2-1.3,1.4-1.7,2.7-1
										C456,83,456.9,84.6,456.6,85.9z"/>
								</g>
								<g id="Group_36">
									<path id="Path_114" class="st27" d="M425.6,68l-31-17.9c-1.6-0.9-3.2,0.1-3.5,2.2l-9.2,56.1c-0.3,2.1,0.7,4.6,2.3,5.5
										l31,17.9c1.6,0.9,3.2-0.1,3.5-2.2l9.2-56.1C428.2,71.4,427.3,68.9,425.6,68z"/>
									<g id="Group_35">
										<path id="Path_115" class="st25" d="M407.8,134.8l-31-17.9c-1.6-0.9-2.6-3.4-2.3-5.5l9.2-56.1c0.3-2.1,1.9-3.1,3.5-2.2
											l31,17.9c1.6,0.9,2.6,3.4,2.3,5.5l-9.2,56.1C410.9,134.7,409.3,135.7,407.8,134.8z"/>
										<path id="Path_116" class="st26" d="M412.3,83.5l-24.1-13.9c-1.2-0.7-1.9-2.4-1.6-4l0,0c0.2-1.5,1.4-2.3,2.5-1.6
											l24.1,13.9c1.2,0.7,1.9,2.5,1.6,4l0,0C414.6,83.5,413.5,84.2,412.3,83.5z"/>
										<path id="Path_117" class="st3" d="M412.8,94.5l-27.5-15.9l0.7-4.4L413.5,90L412.8,94.5z"/>
										<path id="Path_118" class="st3" d="M411.2,104.6l-27.5-15.8l0.7-4.5l27.5,15.9L411.2,104.6z"/>
										<path id="Path_119" class="st3" d="M409.5,114.7L382,98.8l0.7-4.4l27.5,15.8L409.5,114.7z"/>
										<path id="Path_120" class="st3" d="M393.8,116.2l-13.3-7.7l0.7-4.4l13.3,7.7L393.8,116.2z"/>
									</g>
								</g>
								<g id="Group_37">
									<path id="Path_121" class="st15" d="M457.5,161.3c-3.6,0-7.5-1.2-11.3-3.5c-6.1-3.7-11.5-9.9-15.1-17.5
										c-3.6-7.6-5.2-15.8-4.4-23.1c0.9-8,4.5-14,10.2-16.7c5.5-2.7,12-2,18.4,1.9c6.1,3.7,11.5,9.9,15.1,17.5
										c3.6,7.6,5.2,15.8,4.4,23.1c-0.9,8-4.5,14-10.2,16.7C462.4,160.7,460,161.3,457.5,161.3z M443.9,105.6
										c-1.4,0-2.8,0.3-4,0.9c-3.5,1.7-5.8,5.8-6.4,11.4c-1.3,12.3,6.1,27.9,16.3,34c4.4,2.6,8.5,3.2,11.8,1.6
										c3.5-1.7,5.8-5.8,6.4-11.4l0,0c1.3-12.3-6.1-27.9-16.3-34C449,106.4,446.3,105.6,443.9,105.6L443.9,105.6z"/>
								</g>
								<path id="Path_122" class="st10" d="M449.6,116.6l11.7,19.7c0.7,1.2,0.4,2.6-0.7,2.6l-14.6-0.8c-1,0-1.9-1.4-1.7-2.6l2.9-19
									C447.4,115.3,448.8,115.3,449.6,116.6z"/>
								<g id="Group_39">
									<path id="Path_123" class="st28" d="M562.8,232.3l-83.7-48.4c-1.6-0.9-2.6-3.4-2.3-5.5l9.2-56.1c0.3-2.1,1.9-3.1,3.5-2.2
										l83.7,48.4c1.6,0.9,2.6,3.4,2.3,5.5l-9.2,56.1C566,232.2,564.4,233.2,562.8,232.3z"/>
									<g id="Group_38">
										<path id="Path_124" class="st26" d="M566.3,180.4l-74.6-43c-1.2-0.7-1.9-2.4-1.6-4l0,0c0.2-1.5,1.4-2.3,2.5-1.6l74.6,43
											c1.2,0.7,1.9,2.4,1.6,4l0,0C568.6,180.3,567.5,181,566.3,180.4z"/>
										<path id="Path_125" class="st15" d="M564.1,189.8L535.1,173c-1-0.7-1.5-1.9-1.3-3.2l0,0c0.2-1.2,1.1-1.8,2-1.3l29.1,16.8
											c1,0.7,1.5,1.9,1.3,3.2l0,0C566,189.8,565.1,190.3,564.1,189.8z"/>
										<path id="Path_126" class="st15" d="M520,164.3l-29.1-16.8c-1-0.7-1.5-1.9-1.3-3.2l0,0c0.2-1.2,1.1-1.8,2-1.3l29.1,16.8
											c1,0.7,1.5,1.9,1.3,3.2l0,0C521.7,164.2,520.9,164.8,520,164.3z"/>
										<path id="Path_127" class="st3" d="M564.1,200.9l-32.3-18.7l0.7-4.4l32.3,18.7L564.1,200.9z"/>
										<path id="Path_128" class="st3" d="M519.9,175.4l-32.3-18.7l0.7-4.4l32.4,18.6L519.9,175.4z"/>
										<path id="Path_129" class="st3" d="M562.5,211l-32.4-18.6l0.7-4.4l32.4,18.6L562.5,211z"/>
										<path id="Path_130" class="st3" d="M518.3,185.5l-32.4-18.6l0.7-4.5l32.4,18.7L518.3,185.5z"/>
										<path id="Path_131" class="st3" d="M497.7,184.1l-13.3-7.7l0.7-4.5l13.3,7.7L497.7,184.1z"/>
										<path id="Path_132" class="st3" d="M541.9,209.7l-13.3-7.7l0.7-4.4l13.3,7.7L541.9,209.7z"/>
									</g>
								</g>
								<path id="Path_133" class="st4" d="M246.1,258.1c-1.4-3.1-5.1-4.2-8.2-2.4c0,0,0,0-0.1,0l0,0l-5.7,3.3
									c-0.2,0.1-0.5,0.2-0.7,0.3c0,0,0,0-0.1,0l0,0l-2.1,1.2l0,0L168.1,296c-0.2,0-0.4,0.1-0.5,0.2l-4.8,7.7l0,0l-4.6,6.5l9-1.9
									l0,0l7-1.2c0.2-0.2,0.4-0.5,0.5-0.9l0.2,0.2l57.2-33.1c-0.2,0.2-0.5,0.4-0.7,0.6c0,0-0.1,0-0.1,0l0,0l2.8-1.6l0,0
									c0,0,0.1,0,0.1,0c0.2-0.1,0.5-0.3,0.7-0.5l2-1.1l0,0c0,0,0.1,0,0.1,0c0.4-0.3,0.8-0.6,1.1-1l5.1-2.9l0,0c0,0,0.1,0,0.1,0
									C246.3,265.2,247.6,261.2,246.1,258.1z"/>
								<g id="Group_40">
									<path id="Path_134" class="st10" d="M230.3,253.8C230.2,253.8,230.2,253.8,230.3,253.8L230.3,253.8l-11.1,6.4
										c-3.1,1.8-4.3,5.6-2.9,8.9c1.4,3.1,5.1,4.2,8.2,2.4l11-6.3l0,0c0,0,0.1,0,0.1,0c3.1-1.8,4.3-5.6,2.9-8.9
										C237,253.1,233.3,252,230.3,253.8z"/>
									<path id="Path_135" class="st15" d="M229.8,268.5L167,304.8l-4.1-5.8l66.7-38.6L229.8,268.5z"/>
									<path id="Path_136" class="st21" d="M162.9,299c-0.9-3-2.8-0.7-2.7-4.8l62.5-36.1c4.7-1.3,6.5,0,7.1,2.2L162.9,299z"/>
									<path id="Path_137" class="st7" d="M223.8,257.5C223.7,257.5,223.7,257.5,223.8,257.5L223.8,257.5l-2.2,1.3
										c2.9-1.3,6.3-0.1,7.6,2.8c0,0,0,0,0,0l0,0.1c1.5,3.3,0.2,7.2-2.9,9c0,0-0.1,0-0.1,0l0,0l2.8-1.6l0,0c0,0,0.1,0,0.1,0
										C234.8,265.7,229.4,254.1,223.8,257.5z"/>
									<path id="Path_138" class="st7" d="M229.2,261.7c-1.5-3.2-4-5.1-7.1-3.3c0,0-1.2,0.8-1.3,0.8l0,0l-2.1,1.2
										c4-2.1,10.4,8.3,4.7,11.9c0,0-0.1,0-0.1,0l0,0l2.8-1.6l0,0c0,0,0.1,0,0.1,0C229.4,268.9,230.6,265,229.2,261.7z"/>
									<path id="Path_139" class="st7" d="M159.8,294.4l-8.6,13.8l15.1-2.7C169.4,301.9,163,292.3,159.8,294.4z"/>
									<path id="Path_140" class="st21" d="M150.4,308.5l4.6-6.5c0,0,0.7-0.7,1.6,0.6c0.9,1.3,1.3,0.2,2.2,1.8
										c0.8,1.6,0.5,2.1,0.5,2.1L150.4,308.5z"/>
								</g>
								<g id="Group_42">
									<g id="Group_41">
										<path id="Path_141" class="st29" d="M242.9,142c-0.5,3.4-1.2,6.9-2.7,10c-1.4,2.8-3.3,5.3-4.7,8.1
											c-1.1,2.2-1.9,4.3-1.5,6.8c0.5,2.9,1.5,5.6,1.8,8.5c0.3,3.3,5.6,3.4,5.3,0c-0.4-3-1-6-1.8-9c-0.2-0.5-0.2-1-0.1-1.5
											c0.3-1.3,1.1-2.6,1.8-3.7c1.4-2.4,3-4.7,4.1-7.2c1.4-3.3,2.4-6.8,2.8-10.4C248.5,140.1,243.4,138.7,242.9,142L242.9,142z"
											/>
									</g>
								</g>
								<g id="Group_44">
									<g id="Group_43">
										<path id="Path_142" class="st30" d="M242.4,141.7c-2.2,6.1-5,11.8-7.4,17.8c-0.7,1.8,0.8,3.8,2.4,4.3
											c2,0.6,3.6-0.7,4.3-2.5c2.4-6,5.3-11.7,7.4-17.8C250.7,139.3,243.9,137.5,242.4,141.7z"/>
									</g>
								</g>
								<g id="Group_66">
									<g id="Group_46">
										<g id="Group_45">
											<path id="Path_143" class="st29" d="M465.9,207.2c-3,4.4-4.7,9.6-6.3,14.7c-1.4,4.5-2.6,9-3.6,13.5
												c-0.2,0.9-0.4,1.7-0.6,2.5c-0.2,1.3,0.3,2.2,0.7,3.4c2.2,6.2,3.7,12.6,4.4,19.1c0.4,3.5,5.9,3.6,5.6,0
												c-0.7-6.6-2.1-13.2-4.2-19.5c-0.2-0.8-0.5-1.5-0.8-2.3c-0.7-1.3,0.4-0.2-0.3,0.7c0.4-0.4,0.4-1.9,0.5-2.4
												c1-4.4,2.1-8.8,3.5-13.2c1.5-4.8,3.1-9.7,5.9-13.9C472.7,207,467.9,204.2,465.9,207.2L465.9,207.2z"/>
										</g>
									</g>
									<path id="Path_144" class="st11" d="M464.3,209.4c-3.6,6.4-6.3,17.2-8.7,25.9c-0.9,2.4-0.3,4.6,1.2,4.5l5.1,0.7
										c1.3-0.1,3.6-2.8,4.2-4.8l6.5-22.3c1.1-3.6,0.3-6.7-1.8-7.2l-0.5,0C470,204.9,467.1,204.9,464.3,209.4z"/>
									<g id="Group_49">
										<g id="Group_47">
											<path id="Path_145" class="st6" d="M450.9,241l1.8,20.2c0,0.2,0.2,0.3,0.3,0.3c0,0,0,0,0,0c0.1,0,0.1,0,0.2-0.1l22.8-16
												c0.1-0.1,0.1-0.2,0.1-0.3l-1.8-20.2c0-0.2-0.2-0.3-0.4-0.3c-0.1,0-0.1,0-0.2,0.1l-22.8,16
												C451,240.8,450.9,240.9,450.9,241z"/>
											
												<rect id="Rectangle_25" x="452.9" y="260.8" transform="matrix(0.4221 -0.9065 0.9065 0.4221 25.1251 561.8339)" class="st6" width="0.7" height="0.7"/>
											
												<rect id="Rectangle_26" x="474" y="224.7" transform="matrix(0.4221 -0.9065 0.9065 0.4221 70.0266 560.0524)" class="st6" width="0.7" height="0.7"/>
										</g>
										<path id="Path_146" class="st5" d="M451.5,241.2l1.8,20.2c0,0.2,0.2,0.3,0.4,0.3c0,0,0,0,0,0c0.1,0,0.1,0,0.2-0.1l22.8-16
											c0.1-0.1,0.1-0.2,0.1-0.3l-1.8-20.2c0-0.2-0.2-0.3-0.4-0.3c-0.1,0-0.1,0-0.2,0.1l-22.8,16
											C451.5,241,451.4,241.1,451.5,241.2z"/>
										<path id="Path_147" class="st7" d="M451.4,242.2l1.5,17.7l4.9,2.3l-1.5-17.7L451.4,242.2z"/>
										<g id="Group_48">
											<path id="Path_148" class="st6" d="M455.2,243l1.8,20.2c0,0.2,0.2,0.3,0.4,0.3c0.1,0,0.1,0,0.2-0.1l22.8-16
												c0.1-0.1,0.1-0.2,0.1-0.3l-1.8-20.2c0-0.2-0.2-0.3-0.4-0.3c-0.1,0-0.1,0-0.2,0.1l-22.8,16
												C455.3,242.8,455.3,242.9,455.2,243z"/>
											
												<rect id="Rectangle_27" x="457.3" y="262.9" transform="matrix(0.4221 -0.9065 0.9065 0.4221 25.8131 566.9957)" class="st6" width="0.7" height="0.7"/>
											
												<rect id="Rectangle_28" x="478.2" y="226.8" transform="matrix(0.4221 -0.9065 0.9065 0.4221 70.7065 565.0654)" class="st6" width="0.7" height="0.5"/>
										</g>
										<path id="Path_149" class="st10" d="M455.8,243.3l1.8,20.2c0,0.2,0.2,0.3,0.4,0.3c0,0,0,0,0,0c0.1,0,0.1,0,0.2-0.1
											l22.8-16c0.1-0.1,0.1-0.2,0.1-0.3l-1.8-20.2c0-0.2-0.2-0.3-0.4-0.3c-0.1,0-0.1,0-0.2,0.1l-22.8,16
											C455.8,243,455.8,243.1,455.8,243.3z"/>
										<path id="Path_150" class="st6" d="M451,240.7l23.1-16l4.3,2L455.9,243L451,240.7z"/>
										<line id="Line_41" class="st31" x1="454.7" y1="260.7" x2="453.3" y2="243.6"/>
										<line id="Line_42" class="st31" x1="456.2" y1="261.3" x2="454.7" y2="244.2"/>
										<line id="Line_43" class="st31" x1="453.8" y1="260.2" x2="452.3" y2="243.1"/>
										<path id="Path_151" class="st32" d="M454.1,253.7c0,0-2.4,1.2-4,0.7l-0.1-1.8c0,0,3.1,0,4-0.5L454.1,253.7z"/>
									</g>
									<path id="Path_152" class="st29" d="M509.1,229.9l1.9,2.3c1.2,1.5,3.4,1.8,4.9,0.6l0,0c1.5-1.2,1.8-3.4,0.6-4.9l-1.9-2.4
										c-1.2-1.5-3.4-1.8-4.9-0.6l0,0C508.1,226.2,507.9,228.4,509.1,229.9z"/>
									<g id="Group_50">
										<path id="Path_153" class="st10" d="M501.1,264.3c0,0,0-0.1,0-0.1l0,0l4.3-12.2c1.2-3.4-0.4-7.2-3.6-8.8
											c-2.9-1.4-6.3-0.1-7.6,2.7c0,0,0,0,0,0c-0.1,0.3-0.2,0.5-0.3,0.8l-4.3,12.2l0,0c0,0,0,0.1,0,0.1c-1.2,3.4,0.4,7.2,3.6,8.8
											C496.3,269.3,499.9,267.7,501.1,264.3z"/>
										<path id="Path_154" class="st33" d="M491.6,252.7l24.5-69.7l7,1.8l-25.9,74L491.6,252.7z"/>
										<path id="Path_155" class="st34" d="M523.1,184.8c2.6,1.8,2.6-1.3,5.2,1.9L504,256.1c-2.8,4.1-5,4.4-6.9,3L523.1,184.8z"
											/>
										<path id="Path_156" class="st7" d="M503.6,257.2c0,0,0-0.1,0-0.1l0,0l0.8-2.4c-1.4,2.9-4.8,4.2-7.7,2.8c0,0,0,0,0,0
											l-0.1,0c-3.3-1.6-4.9-5.4-3.7-8.9c0,0,0-0.1,0-0.1l0,0l-1.2,3.1l0,0c0,0,0,0.1,0,0.1C489.7,258.1,501.5,263.6,503.6,257.2
											z"/>
										<path id="Path_157" class="st7" d="M496.6,257.5c3.3,1.5,6.5,1.3,7.6-2.1c0,0,0.5-1.4,0.5-1.4l0,0l0.8-2.3
											c-1.7,4.3-13.5,0.4-11.6-6c0,0,0-0.1,0-0.1l0,0l-1.2,3.1l0,0c0,0,0,0.1,0,0.1C491.7,252.2,493.3,255.9,496.6,257.5z"/>
										<path id="Path_158" class="st3" d="M528.5,186.3l-2.4-16.4l-9.8,12.1C516.1,186.8,527.5,190,528.5,186.3z"/>
										<path id="Path_159" class="st25" d="M526.4,169.1l0.7,8.1c0,0,0,1-1.6,0.6s-1.2,0.7-2.9,0c-1.7-0.7-1.9-1.2-1.9-1.2
											L526.4,169.1z"/>
									</g>
									<path id="Path_160" class="st35" d="M501.4,338.3c-9.1,5.2-23.7,5.2-32.9,0c-9.1-5.2-9.2-13.8-0.1-18.9
										c9.1-5.2,23.7-5.2,32.9,0C510.4,324.6,510.4,333.1,501.4,338.3z"/>
									<path id="Path_161" class="st29" d="M467.6,261.4l-1.9,0.9c-1.4,0.6-3.1,0-3.8-1.4l0,0l0,0c-0.6-1.4,0-3.1,1.4-3.8l0,0
										l1.9-0.9c1.4-0.7,3.1,0,3.8,1.4c0,0,0,0,0,0l0,0l0,0C469.7,259.1,469,260.8,467.6,261.4z"/>
									<path id="Path_162" class="st36" d="M479.7,324.7c-0.2,0.1-2.7,1.4-2.8,1.5c-0.2,0.2-1,0.8-1.4,1.1c-0.9,0.7-2.9,3.2-6,1.4
										c-4.7-2.6,6.4-10,6.4-10l4.9-2.5c0.6-0.3,1.3-0.3,1.9,0l0,0c1.1,0.5,1.6,1.9,1,3l0,0.1
										C482.5,321.1,482.5,322.2,479.7,324.7z"/>
									
										<linearGradient id="Path_163_1_" gradientUnits="userSpaceOnUse" x1="-235.9084" y1="-220.8277" x2="-235.3602" y2="-220.8277" gradientTransform="matrix(28.49 0 0 24.37 7343.8389 5702.8198)">
										<stop  offset="0" style="stop-color:#E1EAF4"/>
										<stop  offset="0.56" style="stop-color:#ABC6E6"/>
										<stop  offset="0.65" style="stop-color:#A8C4E5"/>
									</linearGradient>
									<path id="Path_163" class="st37" d="M479.1,323.3c-0.2,0.1-2.7,1.4-2.8,1.5c-0.2,0.2-1,0.8-1.4,1.1c-0.9,0.7-2.9,3.2-6,1.4
										c-4.6-2.6,6.4-10,6.4-10l4.9-2.5c0.6-0.3,1.3-0.3,1.9,0l0,0c1.1,0.5,1.6,1.9,1,3c0,0,0,0,0,0l0,0.1
										C482,319.7,482,320.8,479.1,323.3z"/>
									<g id="Group_52">
										<path id="Path_164" class="st38" d="M489.2,189.2l0,1.1c0,0,0.1,3.2-3,1.5s-3-5.6-3-5.6S485.6,186,489.2,189.2z"/>
										<path id="Path_165" class="st39" d="M486.2,191.9c4.1,2.1,3.9-1.6,3.9-1.6h0l-0.1-1.3c-4.5-3.9-7.4-3.7-7.4-3.7
											S482.2,189.8,486.2,191.9z M483.4,186.4c0,0,2.3-0.1,5.8,2.9l0,0.9c0,0,0.1,2.7-2.9,1.2S483.4,186.4,483.4,186.4
											L483.4,186.4z"/>
										<path id="Path_166" class="st39" d="M491.7,191.1l-2.4-1.1l-0.1-1.4l2.4,1.1L491.7,191.1z"/>
										<path id="Path_167" class="st39" d="M482.9,186.5l-0.4-0.2c-0.3-0.2-0.4-0.4-0.5-0.7l0,0c0-0.3,0.1-0.4,0.4-0.3l0.4,0.2
											c0.3,0.2,0.4,0.4,0.5,0.7l0,0C483.3,186.4,483.1,186.6,482.9,186.5z"/>
										<path id="Path_168" class="st39" d="M498.5,193.6l-0.4-0.2c-0.3-0.2-0.4-0.4-0.5-0.7l0,0c0-0.3,0.1-0.4,0.4-0.3l0.4,0.2
											c0.3,0.2,0.4,0.4,0.5,0.7l0,0C498.9,193.5,498.7,193.7,498.5,193.6z"/>
										<g id="Group_51">
											<path id="Path_169" class="st38" d="M491.8,190.5l0.1,1.1c0,0,0.5,3.2,3.5,4.4c3,1.2,2.1-3.1,2.1-3.1
												S494.9,190.4,491.8,190.5z"/>
											<path id="Path_170" class="st39" d="M498.1,192.5c0,0-3.2-2.9-7.3-3l0.1,1.2h0c0.5,2.5,2.2,4.6,4.6,5.5
												C499.5,197.7,498.1,192.5,498.1,192.5z M495.4,195.5c-1.8-0.7-3-2.2-3.4-4l-0.1-1c3.2,0,5.7,2.4,5.7,2.4
												S498.3,196.7,495.4,195.5z"/>
											<path id="Path_171" class="st40" d="M492.5,192.2L492.5,192.2c-0.1-0.1-0.1-0.3,0-0.3l0.7-0.8c0,0,0.2,0,0.3,0.1l0,0
												c0.1,0.1,0.1,0.3,0,0.3l-0.7,0.8C492.7,192.3,492.6,192.3,492.5,192.2z"/>
										</g>
										<path id="Path_172" class="st40" d="M483.9,188L483.9,188c-0.1-0.1-0.1-0.3,0-0.3l0.7-0.8c0,0,0.2,0,0.3,0.1l0,0
											c0.1,0.1,0.1,0.3,0,0.3l-0.7,0.8C484.1,188.2,484,188.2,483.9,188z"/>
									</g>
									<path id="Path_173" class="st36" d="M496.9,335.2c-0.2,0.1-2.9,0.9-3.1,1c-0.3,0.1-1.1,0.5-1.6,0.8
										c-1.1,0.5-3.5,2.5-6.2,0.2c-4-3.5,8.3-8.5,8.3-8.5l5.3-1.5c0.7-0.2,1.4,0,1.9,0.4l0,0c1,0.8,1.1,2.2,0.4,3.1c0,0,0,0,0,0
										l0,0.1C500.5,332.3,500.2,333.4,496.9,335.2z"/>
									
										<linearGradient id="Path_174_1_" gradientUnits="userSpaceOnUse" x1="-235.4887" y1="-224.22" x2="-234.9404" y2="-224.22" gradientTransform="matrix(31.4 0 0 20.44 7998.7051 4914.3091)">
										<stop  offset="0" style="stop-color:#E1EAF4"/>
										<stop  offset="0.56" style="stop-color:#ABC6E6"/>
										<stop  offset="0.65" style="stop-color:#A8C4E5"/>
									</linearGradient>
									<path id="Path_174" class="st41" d="M496.7,333.8c-0.2,0.1-2.9,0.9-3.1,1c-0.3,0.1-1.1,0.5-1.6,0.8
										c-1.1,0.5-3.5,2.5-6.2,0.2c-4-3.5,8.3-8.5,8.3-8.5l5.3-1.5c0.7-0.2,1.4,0,1.9,0.4l0,0c1,0.8,1.2,2.2,0.4,3.2c0,0,0,0,0,0
										c0,0,0,0,0,0.1C500.2,330.9,500,331.9,496.7,333.8z"/>
									<g id="Group_54">
										<g id="Group_53">
											<path id="Path_175" class="st42" d="M483,269.7c3.7,10.8,4,22.5,3.7,33.8c-0.2,8.4-1.6,16.9-1.4,25.4
												c0.1,5.5,8.8,5.6,8.6,0c-0.2-8.7,1.2-17.4,1.4-26.1c0.3-11.8-0.1-24.1-4-35.4C489.5,262.2,481.1,264.4,483,269.7
												L483,269.7z"/>
										</g>
									</g>
									<g id="Group_56">
										<g id="Group_55">
											<path id="Path_176" class="st42" d="M465.6,260c1.9,6.8,2.8,13.9,3.5,20.9c0.4,4.4,1,8.6,0.5,13
												c-0.9,8.6-2.5,17.5-2.5,26.1c0,5.6,8.6,5.6,8.6,0c0-8.8,1.6-17.7,2.5-26.5c0.5-4.5-0.2-9-0.7-13.4
												c-0.8-7.5-1.7-15.1-3.7-22.4C472.5,252.3,464.2,254.6,465.6,260L465.6,260z"/>
										</g>
									</g>
									<g id="Group_58">
										<g id="Group_57">
											<path id="Path_177" class="st7" d="M492.9,328.2c-1.8,1.6-5.6,1.4-7.1-0.6c0,1.1,0,2.2,0,3.4c0.1,4.5,7.1,4.6,7.1,0
												V328.2z"/>
										</g>
									</g>
									<g id="Group_59">
										<path id="Path_178" class="st42" d="M472.7,271.4L472.7,271.4c0.8,0.9-2.6-3.5-1.6-2.8c2.1,1.3,14.1,9.4,16.6,9.5
											c3,0,1.3-2.9,3.5-4.8c2.1-1.9,2.6-5,2.8-7.9c0.1-0.8,0-1.6-0.2-2.3c-0.4-0.8-1-1.4-1.7-1.9c-5.3-4-15.8-14-23.2-10.8
											C460.3,254,468.9,267.1,472.7,271.4z"/>
									</g>
									<path id="Path_179" class="st25" d="M466.5,207.7c-1.6,2-1.4,3.3-1.3,6c0.1,2.7,1.9,5,4.5,5.8l26.6,7.5
										c0,0,1.5-10.3-3.7-13.3c-2.8-1.7-7.2-4.3-10.7-6.4C476.8,204.2,470.1,203,466.5,207.7z"/>
									<path id="Path_180" class="st29" d="M478.6,207.3l2.3-10l6.1,4.1l-1.8,9.2C484.9,212,478.2,210.7,478.6,207.3z"/>
									<path id="Path_181" class="st29" d="M482.3,182.7c0,0-6.1-4.3-6.2,6.1c0,7,4,13.3,10.3,16.3c3.7,1.8,8.2-0.5,8.4-4.1
										c0.9-5.2,0.9-10.2-0.8-14.4c0.2-4.3-2.7-2.8-7.9-3.1L482.3,182.7z"/>
									<path id="Path_182" class="st43" d="M478.8,202.9c0,0-7.1-2.6-6.4-12.6c0.7-10.8,10.7-9.9,16.2-10.4
										c2.4-0.2,1.9-0.9,4.4,1.4c2.3,2,2.4,6.9-0.9,7.1c-1.3,0.1-0.7,3.6-1,4.8c-0.5,2.1-1.8,3.2-2.3,5.2c-0.5,2-3.4,5-5.2,5.2
										C480.3,204,478.8,202.9,478.8,202.9z"/>
									<path id="Path_183" class="st25" d="M465,255.8c-1.7-0.7-1.3-29.8,0.2-45.9l30,14.3c-0.1,13.7-1.9,24.5-0.2,41.2L465,255.8
										z"/>
									<path id="Path_184" class="st25" d="M485,268.4c-7.4-2.7-14.5-5.7-18.6-10.7c-2-1.2-1.8-3.3,0.5-4.6l0,0
										c2.4-1.3,5.9-1.5,8-0.3l18.6,10.7c2,1.2,1.8,3.3-0.5,4.6l0,0C490.6,269.4,487.1,269.6,485,268.4z"/>
									<path id="Path_185" class="st11" d="M495.2,224.2l-4.9-2.3c-0.2,13.3-1.8,24.1-0.2,40.5l-0.1,0c0,0.9-0.6,1.9-2,2.7l0,0
										c-2.4,1.3-5.9,1.5-8,0.3c-3.5-1.2-6.8-2.6-10.1-4.3c4.1,3.1,9.5,5.3,15.1,7.3c2,1.2,5.6,1,8-0.3l0,0c1.3-0.8,2-1.7,2-2.7
										l0.1,0C493.4,248.7,495.1,237.9,495.2,224.2z"/>
									<path id="Path_186" class="st44" d="M484,326.9l0.1,3.1c0,0.1,0.1,0.3,0.1,0.4c1.3,1.8,3.5,2.6,5.7,2.2
										c3-0.5,4.6-1.4,5.2-1.9c0.2-0.1,0.3-0.3,0.3-0.5l-0.3-3.2c0-0.4-0.3-0.6-0.7-0.6c-0.1,0-0.2,0-0.3,0.1
										c-1.5,0.9-4.8,2.2-9.1-0.1c-0.4-0.2-0.8-0.1-1,0.3C484,326.7,484,326.8,484,326.9z"/>
									<g id="Group_61">
										<g id="Group_60">
											<path id="Path_187" class="st7" d="M475,319c-1.8,1.6-5.6,1.4-7.1-0.6c0,1.1,0,2.2,0,3.4c0.1,4.5,7.1,4.6,7.1,0
												C474.9,320.8,474.9,319.9,475,319z"/>
										</g>
									</g>
									<path id="Path_188" class="st44" d="M466.1,317.7l0.1,3.1c0,0.1,0.1,0.3,0.1,0.4c1.3,1.8,3.5,2.6,5.7,2.2
										c3-0.5,4.6-1.4,5.2-1.9c0.2-0.1,0.3-0.3,0.3-0.6l-0.3-3.2c0-0.4-0.3-0.6-0.7-0.6c-0.1,0-0.2,0-0.3,0.1
										c-1.5,0.9-4.8,2.2-9.1-0.1c-0.3-0.2-0.8-0.1-1,0.2C466.1,317.4,466.1,317.5,466.1,317.7L466.1,317.7z"/>
									<path id="Path_189" class="st39" d="M498.3,193.9l-9.2,0.9c-0.3,0-0.6-0.2-0.7-0.5c0,0,0,0,0,0l0,0l0,0
										c0-0.3,0.2-0.6,0.5-0.7l0,0l9.2-0.9c0.3,0,0.6,0.2,0.7,0.5l0,0l0,0c0.1,0.3-0.1,0.6-0.4,0.7
										C498.4,193.9,498.3,193.9,498.3,193.9L498.3,193.9z"/>
									<path id="Path_190" class="st45" d="M489.1,211.6c-6.9-1.1-11.5,3.3-13.2-6.6l0,0c1-0.6,2.3-0.3,3,0.7
										c1.2,1.7,3.7,2.8,6.5,2.4c0.8-0.1,1.7,0.3,2.1,1L489.1,211.6z"/>
									<g id="Group_63">
										<g id="Group_62">
											<path id="Path_191" class="st29" d="M490.2,220.6c0.4,5.2,1.2,10.2,3.2,15c1.1,2.4,2.3,4.8,3.4,7.1
												c0.9,1.8,1.9,3.7,3.5,5c8.7,7.7,14.8-9,16.6-14.6c1.1-3.4-4.3-4.8-5.3-1.5c-1.2,3.7-2.5,8.4-5.4,11.3
												c-0.4,0.4-0.8,0.7-1.2,0.9c0,0-0.3,0-0.1,0c-0.7-0.3-1.3-0.8-1.7-1.5c-2.1-3-3.7-6.9-5.1-10.3c-1.5-3.7-2-7.7-2.3-11.7
												C495.5,217.1,490,217,490.2,220.6L490.2,220.6z"/>
										</g>
									</g>
									<path id="Path_192" class="st25" d="M487.4,220.5c1.7,14.2,6.1,23.2,12.3,27.8c3.3,1.8,6.3-3.4,5-6.4
										c-6.2-5.5-8.3-14.1-8.9-23.8c-0.9-2-3.1-3.1-5.3-2.5l0,0C488.4,216.1,487,218.2,487.4,220.5z"/>
									<path id="Path_193" class="st46" d="M485.3,199.3c-0.3,0.2-1.1,7.5,5,6.3c6.1-1.2,4.8-7.2,4.8-7.2s-4.8,1.2-6.1-4.7
										C487.7,187.6,485.3,199.3,485.3,199.3z"/>
									<path id="Path_194" class="st29" d="M490.5,196.3c0.1,1.7-0.7,3.2-2,3.3h-0.4c-1.1-0.2-2-1.4-2.1-2.9
										c-0.1-1.7,0.7-3.2,2-3.3C489.3,193.3,490.4,194.6,490.5,196.3z"/>
									<g id="Group_65">
										<path id="Path_195" class="st26" d="M470.8,181.7l-0.2,9.8h-1l0.1-9L470.8,181.7z"/>
										<path id="Path_196" class="st47" d="M494.8,181.2l-0.3,7.9l0,0c0,2-2.9,6.4-10.4,6.4c-6.7,0-11.4-5.2-11.4-7.1l0.1-4.5
											l1.3-4L494.8,181.2z"/>
										
											<linearGradient id="Path_197_1_" gradientUnits="userSpaceOnUse" x1="-233.6711" y1="-214.6461" x2="-233.1226" y2="-214.6461" gradientTransform="matrix(39.81 0 0 28.35 9775.001 6271.25)">
											<stop  offset="0" style="stop-color:#2E303A"/>
											<stop  offset="0.86" style="stop-color:#2C2E3A"/>
										</linearGradient>
										<path id="Path_197" class="st48" d="M476.6,178.3l-3.7,2v6.7l12.4,6.9l9.3-5.5l0.1-7.5l-3.7-2.2L476.6,178.3z"/>
										<path id="Path_198" class="st49" d="M470.8,183.7l-1.1-0.6l0,1l1.1,0.6L470.8,183.7z"/>
										
											<ellipse id="Ellipse_5" transform="matrix(0.9999 -1.727790e-02 1.727790e-02 0.9999 -3.2548 8.1493)" class="st26" cx="470" cy="192.4" rx="1.6" ry="1.7"/>
										<g id="Group_64">
											<path id="Path_199" class="st21" d="M499.9,183.3L485,192l-0.1-1.1l15-8.8L499.9,183.3z"/>
											<path id="Path_200" class="st50" d="M499.8,182.1l-16.5-9.6l-15.2,8.7l16.7,9.7L499.8,182.1z"/>
											<path id="Path_201" class="st21" d="M485,192l-16.6-9.7l-0.2-1.1l16.7,9.7L485,192z"/>
										</g>
									</g>
								</g>
								<path id="Path_202" class="st4" d="M302.2,448.6c-9.1,5.2-23.7,5.2-32.9,0c-9.1-5.2-9.2-13.8-0.1-18.9
									c9.1-5.2,23.7-5.2,32.9,0S311.2,443.4,302.2,448.6z"/>
								<path id="Path_203" class="st4" d="M259.6,178.1c-1.1-1.9-3.3-2.2-5.1-1.3c-1.8,0.8-3.4,1.7-5,2.8c-0.3,0-0.6,0-1,0
									c-3.7,0.7-7.7,1.6-11.1,3.5c-4.4,2.5-7.3,6.3-9.5,10.7c-3.1,6.3-6.2,12.6-9.4,18.8c0,0.1-0.1,0.2-0.1,0.3
									c-1.3,0.7-2.7,1.4-3.7,2c-3.2,0.6-6.3,1.7-9.1,3.2c-9.1,5.2-9,13.7,0.1,19c9.1,5.2,23.8,5.3,32.9,0c7.9-4.6,8.9-11.6,3-16.8
									l-0.7-13.1c-0.2-3.5-0.4-6.9,1.2-10.2c1.5-3.1,4.3-5.5,6.9-7.8c2.8-2.5,6-4.5,9.5-6.1C260.1,182.3,260.5,179.6,259.6,178.1z
									 M226.8,212.7c2.3-4.6,4.6-9.2,6.9-13.7c-0.4,2.3-0.5,4.7-0.4,7.1c0.2,3.4,0.4,6.7,0.5,10.1c-2.2-0.7-4.5-1.3-6.9-1.6
									c0-0.1,0-0.2,0-0.3c0-0.4-0.1-0.8-0.1-1.3C226.8,212.9,226.8,212.8,226.8,212.7L226.8,212.7z"/>
								<g id="Group_68">
									<g id="Group_67">
										<path id="Path_204" class="st51" d="M247.4,175.1c-3.7,1.8-7.2,4-10.3,6.8c-2.9,2.4-5.9,5.2-8,8.4c-2.6,4.3-3.3,9.1-3,14
											c0.4,7,0.8,14,1.1,21c0.2,4.7,7.7,4.8,7.4,0c-0.3-6.6-0.7-13.2-1.1-19.7c-0.2-3.5-0.4-6.9,1.2-10.2
											c1.5-3.1,4.3-5.5,6.9-7.8c2.8-2.5,6-4.5,9.5-6.1c1.8-0.8,2.3-3.5,1.3-5.1C251.3,174.5,249.2,174.3,247.4,175.1
											L247.4,175.1z"/>
									</g>
								</g>
								<g id="Group_70">
									<g id="Group_69">
										<path id="Path_205" class="st29" d="M211.2,214.2c5.6-5.9,8.9-12.3,15-17.7c1-0.9,2.1-1.7,3.4-2.2c0.4-0.1,1.1-0.3,1-0.3
											c0,0-0.6-0.2,0.1,0c1.8,0.6,3.6,1.1,5.4,1.5c6.1,1.4,12.5,0.1,17.7-3.4c3.9-2.7,0.2-9.1-3.7-6.4
											c-4.9,3.4-9.7,3.5-15.2,1.8c-1.4-0.4-3-1-4.6-1c-3.3,0.1-6.2,2-8.6,4.1c-6.2,5.4-10.1,12.4-15.6,18.3
											C202.6,212.5,207.9,217.7,211.2,214.2L211.2,214.2z"/>
									</g>
								</g>
								<path id="Path_206" class="st52" d="M206.9,218.9l-0.2-0.5c-0.1-0.3,0-0.6,0.2-0.7l0,0c0.3-0.1,0.6,0,0.7,0.2l0.2,0.5
									c0.1,0.3,0,0.6-0.2,0.7l0,0C207.4,219.3,207.1,219.2,206.9,218.9C207,219,207,219,206.9,218.9
									C207,218.9,207,218.9,206.9,218.9z"/>
								<path id="Path_207" class="st53" d="M206.8,217.8l1.5-2c0.2-0.2,0.5-0.3,0.8-0.1l0,0c0.2,0.2,0.3,0.5,0.1,0.8l0,0l-1.5,2
									c-0.2,0.2-0.5,0.3-0.8,0.1l0,0l0,0C206.7,218.4,206.6,218.1,206.8,217.8z"/>
								<g id="Group_71">
									<path id="Path_208" class="st54" d="M214.1,211.7c0.2-1.3-0.3-3.3-1.2-3.5l-4,1.6l-0.3-0.1c-1.9,0.5-11,2.2-13.8,3.1
										c-1.4,0.5-0.2,2.3-0.2,2.3c3,3.2,7.5,4.2,7.5,4.2c2.2,0.1,2.3-2,5.4-3.1c0.5-0.2,1.4-0.1,1.3,0.3l-1.9,2.3l0.9,0.4
										c0,0,3-3,5.1-4.9C213.8,213.3,214.2,212.4,214.1,211.7z"/>
									<path id="Path_209" class="st29" d="M212.7,207.5l-2.5,0.1l-9.9,3.8c-1.9,0.8,1.4,6.9,10.9,1.3
										C217,210.3,212.7,207.5,212.7,207.5z"/>
								</g>
								<path id="Path_210" class="st55" d="M242.2,170.1c-12.7,8.1-20.5,15.4-20,18.9c0,0,6.3-3.5,11.3-0.6c5,2.9,3.8,5.3,2.6,6.6
									c-0.4,0.4,2.2,3.2,2.7,3.2c5.9,0.2,24.2-2,24.5-13.1c0.3-9.5-1-10.6-1-10.6S249.1,179.2,242.2,170.1z"/>
								<g id="Group_73">
									<g id="Group_72">
										<path id="Path_211" class="st55" d="M266.4,142.2c-2.8-3.2-8-4.7-12.1-4.8c-1.2,0-1.2,1.8,0,1.9c3.6,0.1,8.3,1.5,10.8,4.3
											C266,144.4,267.2,143.1,266.4,142.2L266.4,142.2z"/>
									</g>
								</g>
								<path id="Path_212" class="st56" d="M245.9,143.6c0,0-4.8,6.8-4.6,11c0.2,2.7,1.9,5.9,2.2,6.7c1.9,7.2,0.5,9.2,0.6,11.2
									c0,0,1.2,6.8,18,1.4l7.5-19.8L245.9,143.6z"/>
								<path id="Path_213" class="st56" d="M267.8,158.8c0.1-0.2,1.7-2.8,1.8-3.1c0.7-3.4,2.7-5.9-0.9-10.3c-0.8-0.9-9-6-15.4-7.6
									c-3.1-0.7-6.4,0.8-7.8,3.7c-0.7,1.6-1.3,3.3-1.8,5c-0.7,6.7,2.8-1.9,3,1.8c0-0.1,0-0.2,0-0.3c0,0,0.4,6.3,0.8,11.1
									c0.2,3,0.3,5.2,0.3,5.5v0l10.7,9.6l6.6-10.4l0,0L267.8,158.8z"/>
								<path id="Path_214" class="st29" d="M253.7,137.7c0,0-6,5.5-1.3,9.9s13.5-4.3,13.5-4.3C261.7,140.3,257.6,138.2,253.7,137.7
									z"/>
								<path id="Path_215" class="st4" d="M269.6,155.7c-0.7,0.3-2.7,3-4.4,4.4c-3.1,2.7-7.6,4.3-11.5,3.1c-4-1.3-7.9-3-11.6-5.1
									c0,0,2.1,8.3,0.9,13c-0.5,2.2-0.2,1.8-0.2,1.8c0,2.1,3.5,1.7,3.5,1.7c7.3,2.7,15.8-0.9,15.8-0.9l5.6-13.8L269.6,155.7z"/>
								<path id="Path_216" class="st54" d="M241.1,170.9L241.1,170.9c-0.2,0.5-0.1,1,0.2,1.3c1.2,1.3,4.5,4.3,10.4,4.7
									c5.1,0.4,8.2-0.1,9.7-0.6c0.7-0.2,1.1-0.8,1-1.5l0-0.4c-0.1-0.7-0.8-1.2-1.5-1.1h0c-2.8,0.6-9.5,1.7-13.6-0.4
									c-1.4-0.7-2.7-1.5-3.8-2.6c-0.5-0.5-1.4-0.5-1.9,0c0,0,0,0,0,0C241.3,170.6,241.2,170.8,241.1,170.9z"/>
								<path id="Path_217" class="st3" d="M248.6,176.9l-2.7-1.1c-0.9-0.4-1.5-1.4-1.3-2.3l0,0c0.1-0.8,0.9-1.3,1.6-1.2
									c0.1,0,0.2,0,0.3,0.1l2.7,1.1c0.9,0.4,1.5,1.4,1.3,2.3l0,0c-0.1,0.8-0.8,1.3-1.6,1.2c0,0,0,0,0,0
									C248.9,177,248.8,177,248.6,176.9z"/>
								<path id="Path_218" class="st54" d="M248.1,176l-1.6-0.6c-0.5-0.2-0.8-0.8-0.8-1.3l0,0c0.1-0.5,0.5-0.8,1-0.7
									c0.1,0,0.1,0,0.2,0l1.6,0.6c0.5,0.2,0.8,0.8,0.8,1.3l0,0c-0.1,0.4-0.5,0.8-0.9,0.7C248.3,176.1,248.2,176,248.1,176z"/>
								<g id="Group_75">
									<g id="Group_74">
										<path id="Path_219" class="st55" d="M251.6,138.4c-0.5,3.8-3.6,7.6,1,10c4.9,2.6,10.1-1.5,13.7-4.6
											c0.9-0.8-0.4-2.1-1.3-1.3c-3,2.5-8,6.6-12,3.9c-1.7-1.2-0.8-2.8-0.4-4.5c0.4-1.2,0.7-2.3,0.9-3.6
											C253.6,137.3,251.8,137.3,251.6,138.4z"/>
									</g>
								</g>
								<path id="Path_220" class="st52" d="M233.9,232.7l-0.5-0.2c-0.2-0.1-0.4-0.4-0.3-0.7v0l0,0c0.1-0.2,0.4-0.4,0.7-0.3h0
									l0.5,0.2c0.3,0.1,0.4,0.4,0.3,0.7c0,0,0,0,0,0v0l0,0C234.5,232.7,234.2,232.8,233.9,232.7
									C233.9,232.7,233.9,232.7,233.9,232.7C233.9,232.7,233.9,232.7,233.9,232.7z"/>
								<path id="Path_221" class="st53" d="M233.1,231.9v-2.5c0-0.3,0.2-0.5,0.5-0.5l0,0c0.3,0,0.5,0.2,0.5,0.5v2.5
									c0,0.3-0.2,0.5-0.5,0.5l0,0c-0.3,0-0.5-0.2-0.5-0.4C233.1,232,233.1,232,233.1,231.9L233.1,231.9z"/>
								<g id="Group_76">
									<path id="Path_222" class="st54" d="M235.4,222.7c-0.6-1.2-2.2-2.4-3.1-2.2l-2.3,3.6l-0.3,0.1c-1.3,1.6-7.5,8.3-9.3,10.7
										c-0.9,1.3,1.2,2,1.2,2c4.3,0.8,8.5-1.2,8.5-1.2c1.8-1.2,0.6-3,2.5-5.7c0.3-0.5,1.1-0.9,1.2-0.5l-0.1,2.9l1-0.2
										c0,0,0.6-4.2,1.2-7C236.1,224.4,235.9,223.4,235.4,222.7z"/>
									<path id="Path_223" class="st51" d="M231.7,220.1l-1.9,1.6c0,0-4.7,7.4-5.7,8.9c-1.1,1.7,5.2,4.7,9.5-5.5
										C236.8,219.8,231.7,220.1,231.7,220.1z"/>
								</g>
								<g id="Group_77">
									<path id="Path_224" class="st57" d="M242,126.9c-0.9,2.5-1.1,5.4,0.5,7.4c0.3,0.4,0.6,0.7,1,1.1c0.8,0.9,1.6,1.9,2.2,3
										c0.1,0.2,0.2,0.4,0.4,0.5c0.4,0.2,1,0.1,1.3-0.2c0.3-0.4,0.6-0.8,0.8-1.2c0.8-1.3,17.6,8.5,18.4,7.3
										c1.1-1.6-3-20.2-3.5-22.2c-0.5-2.5-12.8,0.8-14.8-0.7c-0.4-0.3-0.8-0.6-1.2-0.9l0,0c-0.5-0.5-1-1.6-1.8-1.3
										c-0.7,0.3-0.9,1.5-1.2,2.1C243.5,123.5,242.6,125.2,242,126.9z"/>
								</g>
								<path id="Path_225" class="st29" d="M254.6,141.5l-2.9-11.3l7.1,2.3l2.4,9.3C261.6,143.1,256.6,147.3,254.6,141.5z"/>
								<path id="Path_226" class="st58" d="M253.8,139.2c0,0,3.2-1.6,3.2-1.7s-1.1,2.3-2.7,3.2L253.8,139.2z"/>
								<path id="Path_227" class="st29" d="M254.2,139.2l-2.2,0.1c-3.4,0.1-6.2-2.6-6.4-5.9l-0.4-11.2c-0.1-3.4,2.6-6.2,5.9-6.4
									l2.2-0.1c3.4-0.1,6.2,2.6,6.4,5.9l0.4,11.2C260.3,136.2,257.7,139.1,254.2,139.2C254.3,139.2,254.3,139.2,254.2,139.2
									L254.2,139.2z"/>
								<path id="Path_228" class="st57" d="M255.8,124.9c-2.5-3.2-7.3,0.6-9.9-0.4c-2.8-1.1-1.8-3.9,0-6.2c1-1.3,2.3-2.3,4.8-3.3
									c7.2-2.7,14.4,0.3,14.7,8.4c0,0,0.7,11.1-5.8,12.8l-0.4-1.6c0,0,3.7-4.1-0.2-6.5c-0.9-0.6-1-0.6-0.9-1.9
									C258.2,124.8,256.7,126,255.8,124.9z"/>
								<path id="Path_229" class="st3" d="M247.6,132.9l3.8,1.6c0.1,0.1,0.2,0.2,0.2,0.4c-0.1,0.6-0.5,1.9-2.6,1.2
									c-1.1-0.5-1.9-1.6-2-2.8C247,133,247.3,132.8,247.6,132.9z"/>
								<ellipse id="Ellipse_6" class="st57" cx="247.2" cy="128.6" rx="0.4" ry="0.9"/>
								<ellipse id="Ellipse_7" class="st57" cx="252.3" cy="130.6" rx="0.4" ry="0.9"/>
								<g id="Group_79">
									<g id="Group_78">
										<path id="Path_230" class="st57" d="M252.2,128.2c0.9,0.1,1.8,0.4,2.5,1.1c0.4,0.4,1.1-0.2,0.7-0.7
											c-0.9-0.8-2-1.3-3.2-1.4c-0.3,0-0.5,0.3-0.4,0.5C251.8,128,252,128.2,252.2,128.2L252.2,128.2z"/>
									</g>
								</g>
								<g id="Group_81">
									<g id="Group_80">
										<path id="Path_231" class="st57" d="M246,125.8c0.9,0,1.9,0.3,2.6,0.9c0.4,0.4,1.1-0.2,0.7-0.7c-0.9-0.8-2.1-1.2-3.3-1.2
											C245.4,124.9,245.4,125.9,246,125.8z"/>
									</g>
								</g>
								<path id="Path_232" class="st29" d="M261.4,133.1c-1,0.8-2.1,0.5-2.5-0.6c-0.4-1.3,0-2.7,1.1-3.6c1-0.8,2.1-0.5,2.5,0.6
									C262.8,130.8,262.4,132.2,261.4,133.1z"/>
								<path id="Path_233" class="st57" d="M244.2,131c0,0,0.1-3.7,9-8.6c8.9-4.9,0.4-0.2,0.4-0.2l-8.9-2
									C244.8,120.1,241.3,124.1,244.2,131z"/>
								<g id="Group_82">
									<path id="Path_234" class="st3" d="M613.1,355.1L577,334.2c-1.7-1-1.5-2.6,0.5-3.8l11.9-6.9c1.9-1.1,4.9-1.3,6.5-0.3
										l36.1,20.9c1.7,1,1.5,2.6-0.5,3.8l-11.8,6.9C617.7,355.9,614.8,356,613.1,355.1z"/>
									<path id="Path_235" class="st7" d="M596.3,335.1c-3.2,1.8-8.3,1.8-11.6,0c-3.2-1.8-3.2-4.8,0-6.7c3.2-1.8,8.3-1.8,11.6,0
										S599.5,333.2,596.3,335.1z"/>
									<path id="Path_236" class="st15" d="M613.2,340l-10.3-5.9c-0.4-0.2-0.3-0.6,0.1-0.9l0,0c0.5-0.3,1-0.3,1.5,0l10.3,5.9
										c0.4,0.2,0.3,0.6-0.1,0.9l0,0C614.2,340.2,613.7,340.2,613.2,340z"/>
									<path id="Path_237" class="st15" d="M617.2,353l-23.5-13.6c-0.4-0.2-0.3-0.6,0.1-0.9l0,0c0.5-0.3,1-0.3,1.5,0l23.5,13.6
										c0.4,0.2,0.3,0.6-0.1,0.9l0,0C618.2,353.2,617.6,353.2,617.2,353z"/>
									<path id="Path_238" class="st15" d="M621.8,350.3l-23.5-13.6c-0.4-0.2-0.3-0.6,0.1-0.9l0,0c0.5-0.3,1-0.3,1.5,0l23.5,13.6
										c0.4,0.2,0.3,0.6-0.1,0.9l0,0C622.8,350.5,622.2,350.5,621.8,350.3z"/>
								</g>
								<g id="Group_83">
									<path id="Path_239" class="st3" d="M564.2,384l-36.1-20.9c-1.7-1-1.5-2.6,0.5-3.8l11.8-6.9c1.9-1.1,4.9-1.3,6.5-0.3
										l36.1,20.9c1.7,1,1.5,2.6-0.5,3.8l-11.8,6.9C568.9,384.8,565.9,384.9,564.2,384z"/>
									<path id="Path_240" class="st7" d="M547.4,364c-3.2,1.8-8.3,1.8-11.6,0c-3.2-1.8-3.2-4.8,0-6.7c3.2-1.8,8.3-1.8,11.6,0
										C550.6,359.1,550.6,362.1,547.4,364z"/>
									<path id="Path_241" class="st15" d="M564.3,369L554,363c-0.4-0.2-0.3-0.6,0.1-0.9l0,0c0.5-0.3,1-0.3,1.5,0l10.3,5.9
										c0.4,0.2,0.3,0.6-0.1,0.9l0,0C565.3,369.2,564.8,369.2,564.3,369z"/>
									<path id="Path_242" class="st15" d="M568.3,381.9l-23.5-13.6c-0.4-0.2-0.3-0.6,0.1-0.9l0,0c0.5-0.3,1-0.3,1.5,0l23.5,13.6
										c0.4,0.2,0.3,0.6-0.1,0.9l0,0C569.3,382.1,568.7,382.1,568.3,381.9z"/>
									<path id="Path_243" class="st15" d="M572.9,379.2l-23.5-13.6c-0.4-0.2-0.3-0.6,0.1-0.9l0,0c0.5-0.3,1-0.3,1.5,0l23.5,13.6
										c0.4,0.2,0.3,0.6-0.1,0.9l0,0C574,379.4,573.4,379.5,572.9,379.2z"/>
								</g>
								<g id="Group_84">
									<path id="Path_244" class="st25" d="M588.8,369l-36.1-20.9c-1.7-1-1.5-2.6,0.5-3.8l11.8-6.9c1.9-1.1,4.9-1.3,6.5-0.3
										l36.1,20.9c1.7,1,1.5,2.6-0.5,3.8l-11.8,6.9C593.5,369.9,590.5,370,588.8,369z"/>
									<path id="Path_245" class="st3" d="M572.1,349c-3.2,1.8-8.3,1.8-11.6,0c-3.2-1.8-3.2-4.8,0-6.7s8.3-1.8,11.6,0
										S575.2,347.2,572.1,349z"/>
									<path id="Path_246" class="st3" d="M588.9,354l-10.3-5.9c-0.4-0.2-0.3-0.6,0.1-0.9l0,0c0.5-0.3,1-0.3,1.5,0l10.3,5.9
										c0.4,0.2,0.3,0.6-0.1,0.9l0,0C590,354.2,589.4,354.2,588.9,354z"/>
									<path id="Path_247" class="st3" d="M592.8,367l-23.5-13.6c-0.4-0.2-0.3-0.6,0.1-0.9l0,0c0.5-0.2,1-0.2,1.5,0l23.5,13.6
										c0.4,0.2,0.3,0.6-0.1,0.9l0,0C593.8,367.2,593.3,367.2,592.8,367z"/>
									<path id="Path_248" class="st3" d="M597.5,364.3L574,350.8c-0.4-0.2-0.3-0.6,0.1-0.9l0,0c0.5-0.3,1-0.3,1.5,0l23.5,13.6
										c0.4,0.2,0.3,0.6-0.1,0.9l0,0C598.5,364.5,598,364.5,597.5,364.3z"/>
								</g>
								<path id="Path_249" class="st11" d="M357.4,160.2l11,7l-69.6,25.7L357.4,160.2z"/>
								<g id="Group_90">
									<g id="Group_86">
										<g id="Group_85">
											<path id="Path_250" class="st59" d="M243.6,386.1l-88.7-51.2c-0.8-0.4-1-1.4-0.6-2.2c0.1-0.3,0.4-0.5,0.6-0.6l121.7-70.2
												c0.5-0.3,1.1-0.3,1.6,0l88.7,51.2c0.8,0.5,1,1.5,0.6,2.3c-0.1,0.2-0.3,0.4-0.6,0.6l-121.6,70.2
												C244.8,386.4,244.2,386.4,243.6,386.1z"/>
											<rect id="Rectangle_29" x="154.2" y="329.7" class="st59" width="3.5" height="3.5"/>
											<rect id="Rectangle_30" x="364" y="312.2" class="st6" width="3.5" height="2.4"/>
										</g>
										<path id="Path_251" class="st15" d="M243.6,383.1l-88.7-51.2c-0.8-0.5-1-1.5-0.6-2.3c0.1-0.2,0.3-0.4,0.6-0.6l121.7-70.2
											c0.5-0.3,1.1-0.3,1.6,0l88.7,51.2c0.8,0.4,1,1.4,0.6,2.2c-0.1,0.3-0.4,0.5-0.6,0.6l-121.6,70.2
											C244.8,383.4,244.2,383.4,243.6,383.1z"/>
									</g>
									<g id="Group_88">
										<g id="Group_87">
											<path id="Path_252" class="st59" d="M332.3,437.1l-88.8-51.2c-0.8-0.4-1-1.4-0.6-2.2c0.1-0.3,0.4-0.5,0.6-0.6l121.7-70.2
												c0.5-0.3,1.1-0.3,1.6,0l88.7,51.2c0.8,0.5,1,1.5,0.6,2.3c-0.1,0.2-0.3,0.4-0.6,0.6L334,437.1
												C333.5,437.4,332.8,437.4,332.3,437.1z"/>
											<rect id="Rectangle_31" x="242.8" y="381" class="st59" width="3.5" height="3.5"/>
											<path id="Path_253" class="st59" d="M456.5,365.4l-3.9-0.7v-2.3l3.9,0.7V365.4z"/>
										</g>
										<path id="Path_254" class="st15" d="M332.3,434.1l-88.8-51.2c-0.8-0.4-1-1.4-0.6-2.2c0.1-0.3,0.4-0.5,0.6-0.6l121.7-70.2
											c0.5-0.3,1.1-0.3,1.6,0l88.7,51.2c0.8,0.4,1,1.4,0.6,2.2c-0.1,0.3-0.4,0.5-0.6,0.6L334,434.1
											C333.5,434.4,332.8,434.4,332.3,434.1z"/>
									</g>
									<path id="Path_255" class="st59" d="M185.8,340.3l57.8,37.3l35.1-27.9C278.7,349.7,210.6,321.9,185.8,340.3z"/>
									
										<linearGradient id="Path_256_1_" gradientUnits="userSpaceOnUse" x1="-215.1122" y1="-207.1435" x2="-215.2328" y2="-207.4889" gradientTransform="matrix(353.35 0 0 204.04 76292.1016 42619.7695)">
										<stop  offset="0" style="stop-color:#9FB0BF"/>
										<stop  offset="0.25" style="stop-color:#A3B3C2"/>
										<stop  offset="0.5" style="stop-color:#AEBDCB"/>
										<stop  offset="0.73" style="stop-color:#C1CEDB"/>
										<stop  offset="0.96" style="stop-color:#DCE6F0"/>
										<stop  offset="1" style="stop-color:#E1EAF4"/>
									</linearGradient>
									<path id="Path_256" class="st60" d="M244.1,376.6c-5-18.9-39.8-26.5-79.6-46c-1.3-0.7-1.1-2,0.3-2.9l107.9-62.3
										c1.5-0.9,3.7-1,5-0.2c49.4,14.6,80.3,29.8,79.6,46L244.1,376.6z"/>
									<path id="Path_257" class="st61" d="M244.1,376.6c0,0,11-4.1,19.7,3.2c8.8,7.3,65,49.5,65,49.5L443.1,364
										c0,0-61-59.2-85.6-52.8L244.1,376.6z"/>
									
										<linearGradient id="Path_258_1_" gradientUnits="userSpaceOnUse" x1="-215.2377" y1="-206.9715" x2="-215.3748" y2="-207.3114" gradientTransform="matrix(329.92 0 0 222.12 71303.6563 46326.9375)">
										<stop  offset="0" style="stop-color:#9FB0BF"/>
										<stop  offset="9.000000e-02" style="stop-color:#BAC6D1"/>
										<stop  offset="0.21" style="stop-color:#D3DBE2"/>
										<stop  offset="0.34" style="stop-color:#E7EBEF"/>
										<stop  offset="0.49" style="stop-color:#F5F6F8"/>
										<stop  offset="0.67" style="stop-color:#FDFDFD"/>
										<stop  offset="1" style="stop-color:#FFFFFF"/>
									</linearGradient>
									<path id="Path_258" class="st62" d="M244.1,376.6c3.6-22-31.4-33.2-66.9-55.8c-1.2-0.9-0.9-2.3,0.5-3.1l104.4-62.3
										c1.4-0.9,3.5-0.9,4.7,0c44.8,17.8,72.2,37.8,70.5,55.1L244.1,376.6z"/>
									<path id="Path_259" class="st63" d="M408,348.3L370.3,323c-0.5-0.3-0.4-0.8,0.2-1.1l0,0c0.6-0.3,1.4-0.3,2,0l37.7,25.3
										c0.5,0.3,0.4,0.8-0.2,1.1l0,0C409.3,348.6,408.6,348.6,408,348.3z"/>
									<path id="Path_260" class="st63" d="M395.3,356.1l-37.7-25.3c-0.5-0.3-0.4-0.8,0.2-1.1l0,0c0.6-0.3,1.4-0.3,2,0l37.7,25.3
										c0.5,0.3,0.4,0.8-0.2,1.1l0,0C396.6,356.5,395.9,356.5,395.3,356.1z"/>
									<path id="Path_261" class="st63" d="M382.5,364l-37.7-25.3c-0.5-0.3-0.4-0.8,0.2-1.1l0,0c0.6-0.3,1.4-0.3,2,0l37.7,25.3
										c0.5,0.3,0.4,0.8-0.2,1.1l0,0C383.9,364.3,383.1,364.3,382.5,364z"/>
									<path id="Path_262" class="st63" d="M369.8,371.8l-37.7-25.3c-0.5-0.3-0.4-0.8,0.2-1.1l0,0c0.6-0.3,1.4-0.3,2,0l37.7,25.3
										c0.5,0.3,0.4,0.8-0.2,1.1l0,0C371.2,372.1,370.4,372.1,369.8,371.8z"/>
									<path id="Path_263" class="st63" d="M357.1,379.6l-37.7-25.3c-0.5-0.3-0.4-0.8,0.2-1.1l0,0c0.6-0.3,1.4-0.3,2,0l37.7,25.3
										c0.5,0.3,0.4,0.8-0.2,1.1l0,0C358.4,380,357.7,380,357.1,379.6z"/>
									<path id="Path_264" class="st63" d="M344,390.5l-37.7-25.3c-0.5-0.3-0.4-0.8,0.2-1.1l0,0c0.6-0.3,1.4-0.3,2,0l37.7,25.3
										c0.5,0.3,0.4,0.8-0.2,1.1l0,0C345.3,390.9,344.6,390.9,344,390.5z"/>
									<path id="Path_265" class="st63" d="M331.2,398.4L293.5,373c-0.5-0.3-0.4-0.8,0.2-1.1l0,0c0.6-0.3,1.4-0.3,2,0l37.7,25.3
										c0.5,0.3,0.4,0.8-0.2,1.1l0,0C332.6,398.7,331.9,398.7,331.2,398.4z"/>
									<path id="Path_266" class="st63" d="M318.5,406.2l-37.7-25.3c-0.5-0.3-0.4-0.8,0.2-1.1l0,0c0.6-0.3,1.4-0.3,2,0l37.7,25.3
										c0.5,0.3,0.4,0.8-0.2,1.1l0,0C319.9,406.5,319.1,406.5,318.5,406.2z"/>
									<g id="Group_89">
										<path id="Path_267" class="st63" d="M330.9,288l-38.3-24.5c-0.5-0.3-0.4-0.8,0.2-1.1l0,0c0.6-0.3,1.3-0.3,2,0l38.3,24.5
											c0.5,0.3,0.4,0.8-0.2,1.1l0,0C332.2,288.3,331.5,288.3,330.9,288z"/>
										<path id="Path_268" class="st63" d="M318.3,296.1l-38.3-24.5c-0.5-0.3-0.4-0.8,0.2-1.1l0,0c0.6-0.3,1.3-0.3,2,0l38.3,24.4
											c0.5,0.3,0.4,0.8-0.2,1.1l0,0C319.7,296.3,319,296.4,318.3,296.1z"/>
										<path id="Path_269" class="st63" d="M305.8,304.2l-38.3-24.5c-0.5-0.3-0.4-0.8,0.2-1.1l0,0c0.6-0.3,1.3-0.3,2,0l38.3,24.5
											c0.5,0.3,0.4,0.8-0.2,1.1l0,0C307.1,304.5,306.4,304.5,305.8,304.2z"/>
										<path id="Path_270" class="st63" d="M293.2,312.3l-38.3-24.5c-0.5-0.3-0.4-0.8,0.2-1.1l0,0c0.6-0.3,1.3-0.3,2,0l38.3,24.5
											c0.5,0.3,0.4,0.8-0.2,1.1l0,0C294.5,312.6,293.8,312.6,293.2,312.3z"/>
										<path id="Path_271" class="st63" d="M280.6,320.4l-38.3-24.5c-0.5-0.3-0.4-0.8,0.2-1.1l0,0c0.6-0.3,1.3-0.3,2,0l38.3,24.5
											c0.5,0.3,0.4,0.8-0.2,1.1l0,0C282,320.7,281.2,320.7,280.6,320.4z"/>
										<path id="Path_272" class="st63" d="M267.8,331.6l-38.3-24.5c-0.5-0.3-0.4-0.8,0.2-1.1l0,0c0.6-0.3,1.3-0.3,2,0l38.3,24.5
											c0.5,0.3,0.4,0.8-0.2,1.1l0,0C269.2,331.9,268.4,331.9,267.8,331.6z"/>
										<path id="Path_273" class="st63" d="M255.3,339.7L217,315.3c-0.5-0.3-0.4-0.8,0.2-1.1l0,0c0.6-0.3,1.3-0.3,2,0l38.3,24.5
											c0.5,0.3,0.4,0.8-0.2,1.1l0,0C256.6,340,255.9,340,255.3,339.7z"/>
										<path id="Path_274" class="st63" d="M242.7,347.8l-38.3-24.5c-0.5-0.3-0.4-0.8,0.2-1.1l0,0c0.6-0.3,1.3-0.3,2,0l38.3,24.5
											c0.5,0.3,0.4,0.8-0.2,1.1l0,0C244,348.2,243.3,348.2,242.7,347.8z"/>
									</g>
									<path id="Path_275" class="st32" d="M398.3,327.5c-13.1,11.7-48.6,39.6-67.5,54.2c-0.5,0.4-0.6,1.1-0.2,1.6
										c0.2,0.3,0.6,0.5,1,0.4l14.1-1.1c0.6-0.1,1.1,0.4,1.2,1c0,0,0,0,0,0c0,0.2,0,0.3-0.1,0.5l-3.1,9.8
										c-0.2,0.6,0.1,1.2,0.7,1.4c0,0,0,0,0,0c0.3,0.1,0.7,0.1,1-0.1c7.9-5.6,29.4-29,60.4-59.5c2.2-2.2,2.2-5.7,0-7.9
										c0,0,0,0,0,0c-0.3-0.3-0.6-0.5-0.9-0.7l0,0C402.9,325.6,400.2,325.8,398.3,327.5z"/>
								</g>
								<path id="Path_276" class="st4" d="M515.8,406.8c-5.8-11.8-27.1-18.6-47.6-15.3c-18.1,3-29.5,12.9-27.8,23.4
									c-0.4,2.8,0,5.6,1.3,8.2c0.8,1.6,1.9,3.1,3.2,4.5l-6.1,3.5c-0.8-0.7-1.6-1.3-2.5-1.7c-1.9-0.9-3.5-0.9-4.6,0l0,0l-33.7,20.1
									l0,0c-1.2,0.7-1.9,2.3-1.8,4.4c0.3,4.1,3.6,8.8,7.3,10.6c1.6,0.8,3.1,0.9,4.2,0.3l0,0l0,0c0.1-0.1,0.3-0.1,0.4-0.2l33.4-20
									l0,0c1.4-0.6,2.3-2.3,2.1-4.6c0-0.6-0.2-1.2-0.3-1.8l8.9-5.1c9.5,5.3,23.6,7.6,37.3,5.3c18.1-3,29.5-13,27.8-23.4
									C517.5,412.1,517.1,409.3,515.8,406.8z M456.6,423.8c0.6,0.4,1.3,0.8,2,1.2C458,424.6,457.3,424.2,456.6,423.8z
									 M505.6,418.6c0.5-0.7,0.9-1.5,1.2-2.3C506.5,417.1,506.1,417.9,505.6,418.6c-0.3,0.5-0.7,1-1.1,1.5
									C504.9,419.6,505.3,419.1,505.6,418.6z M464.3,427.3c0.7,0.2,1.5,0.4,2.3,0.6C465.8,427.8,465,427.6,464.3,427.3
									c-0.8-0.2-1.6-0.5-2.4-0.9C462.7,426.8,463.5,427.1,464.3,427.3L464.3,427.3z M477.7,429.4c-1.4,0-2.8-0.1-4.2-0.2
									C474.9,429.4,476.3,429.4,477.7,429.4L477.7,429.4z M486.4,428.8c4.3-0.7,8.5-2.1,12.4-4.2
									C494.9,426.7,490.7,428.2,486.4,428.8c-1.9,0.3-3.9,0.5-5.8,0.6C482.5,429.4,484.5,429.1,486.4,428.8z M502.4,422.2
									c-0.5,0.4-1.1,0.9-1.7,1.3C501.2,423.1,501.8,422.6,502.4,422.2z"/>
								<path id="Path_277" class="st15" d="M509,406.7c-5.9-11.8-27.2-18.6-47.6-15.3c-20.5,3.4-32.3,15.7-26.4,27.5
									s27.2,18.6,47.6,15.3C503,430.8,514.8,418.5,509,406.7z M443.6,417.1c-4.4-8.9,4.5-18.2,20-20.8c15.5-2.5,31.6,2.6,36,11.5
									c4.4,8.9-4.5,18.2-20,20.8C464.1,431.2,448.1,426,443.6,417.1L443.6,417.1z"/>
								<path id="Path_278" class="st7" d="M423.6,441.3l-8.3-4.8l28.5-16.5l8.3,4.8L423.6,441.3z"/>
								<g id="Group_91">
									<path id="Path_279" class="st64" d="M437.2,436.5c0.3,4.1-2.4,5.9-6.1,4.2s-7-6.5-7.3-10.6c-0.3-4.1,2.4-5.9,6.1-4.2
										C433.6,427.6,436.9,432.4,437.2,436.5z"/>
									<path id="Path_280" class="st64" d="M391.6,446l33.7-20.1l9.9,15.2l-33.9,20.3L391.6,446z"/>
									<path id="Path_281" class="st19" d="M403.2,456.8c0.3,4.1-2.4,5.9-6.1,4.2s-7-6.5-7.3-10.6s2.4-5.9,6.1-4.2
										C399.6,448,402.9,452.7,403.2,456.8z"/>
								</g>
								<g id="Group_93">
									<g id="Group_92">
										<path id="Path_282" class="st29" d="M270.9,372.2c0.2-6.6,1-13.2,1.5-19.9c0.3-3.8-5.7-3.8-6,0
											c-0.6,6.6-1.3,13.2-1.5,19.9C264.8,376,270.7,376,270.9,372.2z"/>
									</g>
								</g>
								<g id="Group_95">
									<g id="Group_94">
										<path id="Path_283" class="st65" d="M269.5,324.7c-2.2,9.1-4,17.9-4.8,27.2c-0.4,5.1,7.6,5.1,8,0
											c0.7-8.6,2.5-16.7,4.6-25.1C278.4,321.8,270.7,319.7,269.5,324.7L269.5,324.7z"/>
									</g>
								</g>
								<path id="Path_284" class="st29" d="M268.7,378.2L268.7,378.2c1.9,0,3.4-1.5,3.5-3.4l0.1-6.6c0-1.9-1.5-3.4-3.4-3.5l0,0
									c-1.9,0-3.5,1.5-3.5,3.4l-0.1,6.6c-0.1,1.9,1.4,3.4,3.3,3.5L268.7,378.2z"/>
								<g id="Group_97">
									<g id="Group_96">
										<path id="Path_285" class="st51" d="M275.4,368.2c-1.6,21.7-1.3,43.4-1.4,65.1c0,5.1,8,5.1,8,0
											c0.1-21.7-0.2-43.5,1.4-65.1C283.8,363.1,275.8,363.1,275.4,368.2z"/>
									</g>
								</g>
								<g id="Group_98">
									<path id="Path_286" class="st66" d="M276.6,437.8l1.3,3.9c0.4,0.7,1.9,1.8,2.6,1.4c3-1.3,11-4.2,9.6-7.8
										c-1.7-4.4-13,0.8-13,0.8L276.6,437.8z"/>
									<path id="Path_287" class="st51" d="M279.5,433.9c0,0,4.5-0.6,6.6,0.9c0.8,0.5,0,1.5-1.4,2.2c-2.9,1.4-6.3,1-7.9-1.2
										l-1.1-0.6L279.5,433.9z"/>
									<path id="Path_288" class="st66" d="M272.8,434.6l1.1,9.3c0,0.3,0.2,0.6,0.4,0.8l0,0c0.5,0.3,1.2,0.2,1.5-0.3c0,0,0,0,0,0
										c0.1-0.2,0.2-0.4,0.2-0.5l0.4-7.7c0-0.3-0.1-0.6-0.3-0.8l-1.5-1.5c-0.4-0.5-1.1-0.5-1.5-0.1
										C272.9,433.9,272.7,434.3,272.8,434.6L272.8,434.6z"/>
									<path id="Path_289" class="st66" d="M273.8,432.3c0,0-2.7,2-0.3,7.7c0,0.1,0,0.3,0.1,0.2c2.4-3.2,4.2,0,4.2,0l6.7-2.8
										c-2.9,0.6-6-0.4-8-2.6C275.7,434,274.8,433.1,273.8,432.3z"/>
								</g>
								<path id="Path_290" class="st66" d="M286,443.1l1.3,3.9c0.4,0.7,1.9,1.8,2.6,1.4c3-1.3,11-4.2,9.6-7.8
									c-1.7-4.4-13,0.8-13,0.8L286,443.1z"/>
								<path id="Path_291" class="st29" d="M288.8,439.2c0,0,4.5-0.6,6.6,0.9c0.8,0.6,0,1.5-1.4,2.2c-2.9,1.4-6.3,1-7.9-1.3
									l-1.1-0.6L288.8,439.2z"/>
								<g id="Group_100">
									<g id="Group_99">
										<path id="Path_292" class="st29" d="M287.5,374.1c0.2,13.7,0,27.4-1.2,41c-0.7,8.1-1.9,15.4-3.3,23.6
											c-0.4,2.1,0.5,4.3,2.8,4.9c1.9,0.5,4.6-0.7,4.9-2.8c1.4-8.3,2.7-16.7,3.5-25.2c1.3-13.8,1.4-27.7,1.2-41.5
											C295.4,369,287.4,369,287.5,374.1L287.5,374.1z"/>
									</g>
								</g>
								<path id="Path_293" class="st55" d="M293.2,380.2c-5.8,10.9-10.7,5.7-17.4,0.7c-6.7-5-7.4-14.8-3.8-23c0,0,10-11.7,16.8-6.7
									C295.5,356.1,299.9,367.5,293.2,380.2z"/>
								<path id="Path_294" class="st32" d="M268.8,333.4c0,0,4.3,22.4,4.8,24.3c0,0,2.4,6.9,19.5,0.4l4.7-21.2L268.8,333.4z"/>
								<path id="Path_295" class="st32" d="M296.3,342.2c0.7-0.4,0.8-1.5,0.8-1.5c0.4-3.9,2.6-5.7-1.7-12.4c-0.7-1.1-10-5.9-17-7.2
									c-3.4-0.6-6.8,1.3-8.1,4.5c-0.7,1.8-1.2,3.6-1.6,5.5c-0.3,7.2,2.4,2.2,2.9,6.2c0-0.1-1.2-0.4-1.2-0.5c0,0,2.4,2.5,3.1,7.7
									c0.4,3.3,0.7,5.6,0.7,5.9v0.1l12.1,9.6l6.4-11.6l0,0L296.3,342.2z"/>
								<path id="Path_296" class="st55" d="M271.7,368.9c0,0,0.8,33.9,1.1,34.3c1.8,2.9,2.7,8.7,20.7,4.5c2.1-0.5,2.9-2.7,2.8-4.6
									l0.3-34.9l-8.6,3.7L271.7,368.9z"/>
								<path id="Path_297" class="st54" d="M271.8,357.6L271.8,357.6c-0.1,0.5,0.1,1.1,0.5,1.4c1.5,1.2,5.6,3.7,11.9,3
									c5.4-0.5,8.6-1.8,10.1-2.5c0.7-0.3,1-1.1,0.7-1.8l-0.1-0.4c-0.3-0.7-1.1-1.1-1.8-0.8l-0.1,0c-2.9,1.2-9.7,3.7-14.5,2.3
									c-1.6-0.4-3.1-1.1-4.6-2c-0.7-0.4-1.6-0.2-2,0.5c0,0,0,0,0,0C271.9,357.3,271.8,357.5,271.8,357.6z"/>
								<path id="Path_298" class="st29" d="M280.1,323.1l2.5-10.8l6.6,4.5l-1.9,8.4C287,326.8,279.6,326.8,280.1,323.1z"/>
								<path id="Path_299" class="st29" d="M285.5,297.3c0,0-6.4-6.3-7.4,3.9c-0.8,7.1,3.4,13.8,9.5,17.2c3.8,2.2,8.9,0.4,9.4-3.1
									c1.4-5.1,2-9.9,0.5-14.3c0.7-4.2-2.7-3.1-8.2-3.9L285.5,297.3z"/>
								<path id="Path_300" class="st43" d="M279.3,317.5c0,0-7.4-3.5-5.6-14.3c1.9-11.6,9.4-9.6,15.4-9.6c2.6,0,7.3,2.3,8.5,4.8
									c1.3,3,1.1,4.8-2.4,4.8c-1.4,0-1.2,3.8-1.5,5.1c-0.7,2.3-2.3,3.2-3,5.4c-0.7,2.1-4.1,5-6.1,5.1
									C280.8,318.9,279.3,317.5,279.3,317.5z"/>
								<path id="Path_301" class="st29" d="M292.6,311.6c0,1.9-1.1,3.4-2.4,3.4c-0.1,0-0.3,0-0.4,0c-1.1-0.3-2-1.7-2-3.3
									c0-1.9,1.1-3.4,2.4-3.4S292.6,309.8,292.6,311.6z"/>
								<g id="Group_102">
									<g id="Group_101">
										<path id="Path_302" class="st55" d="M277.8,321.8c0.6,2.2,2.1,3.9,4.2,4.7c2.5,1,5.4,0.2,7.9,0c1.3-0.1,1.3-2.1,0-2
											c-3.8,0.4-8.7,1.6-10.2-3.3C279.4,320,277.4,320.5,277.8,321.8L277.8,321.8z"/>
									</g>
								</g>
								<g id="Group_104">
									<g id="Group_103">
										<path id="Path_303" class="st43" d="M291.8,302.2c0.7,3.1,1.3,7,0.3,10c-0.5,1.6-1.8,2.9-2,4.6c-0.3,1.9,1,3,1.5,4.8
											c0.4,1.2,2.3,0.7,1.9-0.5c-0.3-0.7-0.6-1.4-1-2.1c-0.8-1.8-0.2-2.6,0.5-4.3c0.6-1.2,1.1-2.5,1.3-3.8
											c0.3-3.1,0-6.2-0.7-9.3C293.4,300.4,291.5,301,291.8,302.2L291.8,302.2z"/>
									</g>
								</g>
								<path id="Path_304" class="st66" d="M282.1,439.9l1.1,9.3c0,0.3,0.2,0.6,0.4,0.8l0,0c0.5,0.3,1.2,0.2,1.5-0.3
									c0.1-0.2,0.2-0.4,0.2-0.6l0.4-7.7c0-0.3-0.1-0.6-0.3-0.8l-1.5-1.5c-0.4-0.5-1.1-0.5-1.5-0.1
									C282.2,439.3,282.1,439.6,282.1,439.9L282.1,439.9z"/>
								<path id="Path_305" class="st66" d="M283.2,437.7c0,0-2.7,2-0.3,7.7c0,0.1,0,0.3,0.1,0.2c2.4-3.2,4.2,0,4.2,0l6.7-2.8
									c-2.9,0.6-6-0.4-8-2.6C285.1,439.3,284.1,438.5,283.2,437.7z"/>
								<g id="Group_106">
									<g id="Group_105">
										<path id="Path_306" class="st29" d="M289.9,331.1c0,5.9,0.5,11.5,2.8,16.9c1.3,2.9,2.7,5.8,4.2,8.6c1.1,2,2.4,4.3,4.7,5
											c4.6,1.4,7-4,8-7.5c1.7-5.9,2.3-12.4,2.4-18.6c0-3.8-5.9-3.8-6,0c0,4.8-0.5,9.7-1.5,14.4c-0.3,1.8-0.9,3.6-1.6,5.3
											c-0.1,0.1-0.4,0.6-0.4,0.6c0,0.5-0.3,0,0,0.1c0.4,0.2,1.1-0.2,1.1,0c0-0.2-1.1-1.7-1.3-1.9c-0.7-1.2-1.3-2.4-1.9-3.7
											c-1-1.8-1.9-3.7-2.6-5.7c-1.6-4.4-1.9-8.9-1.9-13.5C295.9,327.3,289.9,327.3,289.9,331.1L289.9,331.1z"/>
									</g>
								</g>
								<path id="Path_307" class="st29" d="M308.3,337.8L308.3,337.8c1.9,0.3,3.7-1,4-2.9l1.1-6.5c0.3-1.9-1-3.7-2.9-4l0,0
									c-1.9-0.3-3.7,1-4,2.9l-1.1,6.5C305.1,335.7,306.4,337.4,308.3,337.8z"/>
								<g id="Group_108">
									<g id="Group_107">
										<path id="Path_308" class="st32" d="M288.5,331.1c0,4.7,0.6,9.4,2.3,13.9c1.7,4.4,3.9,8.5,5.8,12.9c0.9,2,3.8,2.5,5.5,1.4
											c2.1-1.2,2.3-3.5,1.4-5.5c-1.6-3.7-3.6-7.2-5-11c-1.4-3.8-2.1-7.7-2-11.7C296.4,326,288.4,326,288.5,331.1z"/>
									</g>
								</g>
								<path id="Path_309" class="st4" d="M470.5,389.1l-24.9,6.2c0,0-6.9,9.3-6.9,10.4s5.2,10.1,4.9,11.4s20.6,12.3,20.6,12.3
									s18.5-2.3,19.2-2.4c0.7-0.1,13.7-7,14.9-7.8c1.2-0.9,8.6-12.8,8.4-13.5c-0.2-0.7-9.6-12.6-9.6-12.6l-19.6-4L470.5,389.1
									L470.5,389.1z"/>
								<path id="Path_310" class="st64" d="M509,402.6c-5.9-11.8-27.2-18.6-47.6-15.3c-20.5,3.4-32.3,15.7-26.4,27.5
									s27.2,18.6,47.6,15.3C503,426.7,514.8,414.4,509,402.6z M443.6,413.1c-4.4-8.9,4.5-18.2,20-20.8c15.5-2.5,31.6,2.6,36,11.5
									c4.4,8.9-4.5,18.2-20,20.8C464.1,427.1,448.1,422,443.6,413.1L443.6,413.1z"/>
								<path id="Path_311" class="st7" d="M477.3,404.9l-20.9,2.1c-1.1,0.1-2-0.7-2.2-1.8l0,0c-0.1-1.1,0.7-2,1.8-2.2l20.9-2.1
									c1.1-0.1,2,0.7,2.2,1.8l0,0C479.2,403.8,478.4,404.8,477.3,404.9C477.3,404.9,477.3,404.9,477.3,404.9L477.3,404.9z"/>
								<path id="Path_312" class="st7" d="M477.5,410.8l-20.9,2.1c-1.1,0.1-2-0.7-2.2-1.8l0,0c-0.1-1.1,0.7-2,1.8-2.2l20.9-2.1
									c1.1-0.1,2,0.7,2.2,1.8l0,0C479.3,409.8,478.5,410.7,477.5,410.8z"/>
								<path id="Path_313" class="st54" d="M308.1,338l-5.6-2.7c-0.4-0.2-0.6-0.6-0.5-1.1l4.4-13.9c0.2-0.5,0.7-0.7,1.2-0.5
									c0,0,0,0,0,0c0,0,0.1,0,0.1,0l5.6,2.7c0.4,0.2,0.6,0.6,0.5,1.1l-4.4,13.9c-0.2,0.4-0.6,0.7-1.1,0.5
									C308.2,338.1,308.1,338,308.1,338z"/>
								<path id="Path_314" class="st16" d="M307.8,336.3l-4.5-2.3c-0.3-0.2-0.4-0.5-0.3-0.8l3.8-11.8c0.1-0.3,0.5-0.5,0.8-0.4
									c0,0,0,0,0,0l0.1,0l4.5,2.3c0.3,0.2,0.4,0.5,0.3,0.8l-3.8,11.8c-0.1,0.3-0.4,0.5-0.8,0.4
									C307.9,336.3,307.8,336.3,307.8,336.3z"/>
								<g id="Group_110">
									<g id="Group_109">
										<path id="Path_315" class="st29" d="M267.1,154.3c0.5,3.5,0.6,7.1,0.4,10.7c-0.1,3.9,0.8,8,0.2,11.8c0,0-0.1,0.8-0.1,0.7
											c0-0.1,0.2-0.1,0,0c-0.5,0.1,0.3,0,0,0l-0.5,0.1c-0.2,0-0.6,0-1.3,0.1c-3.8,0.2-7.7,0.2-11.5,0.7c-3.3,0.4-3.4,5.7,0,5.3
											c4.2-0.5,8.4-0.4,12.6-0.8c2.7-0.3,5-1.4,5.8-4.2c1.1-4,0-8.6,0-12.7c0.1-4.5,0.1-8.6-0.5-13
											C271.6,149.6,266.6,151,267.1,154.3L267.1,154.3z"/>
									</g>
								</g>
								<g id="Group_112">
									<g id="Group_111">
										<path id="Path_316" class="st56" d="M264.6,150.6c1.5,3.5,2.3,7.3,2.4,11.1c0,3.9-0.3,7.9-0.4,11.8c-0.1,4.5,6.9,4.5,7,0
											c0.1-4.1,0.6-8.3,0.4-12.5c-0.2-4.2-1-8.4-2.6-12.4c-0.7-1.8-2.4-3-4.3-2.4C265.3,146.7,263.9,148.8,264.6,150.6
											L264.6,150.6z"/>
									</g>
								</g>
								<path id="Path_317" class="st29" d="M239.4,180.4L239.4,180.4c-1.6,0.3-3.2-0.8-3.4-2.5v0l-1.1-6.5
									c-0.3-1.6,0.8-3.2,2.5-3.4h0c1.6-0.3,3.2,0.8,3.4,2.5v0l1.1,6.5C242.2,178.5,241.1,180.1,239.4,180.4L239.4,180.4z"/>
								<path id="Path_318" class="st4" d="M256.1,184.6V184l-0.8,0.3l-0.1-0.4l-18.9-11c-0.3-0.1-0.6-0.1-0.9,0l-8.2,4.7v-0.1
									l-1.5,0.6v0.6l0,0c0,0,0,0.1,0.1,0.1l19.7,11.4c0.3,0.1,0.6,0.1,0.9,0l9.4-5.5C256,184.8,256.1,184.7,256.1,184.6
									L256.1,184.6z"/>
								<path id="Path_319" class="st7" d="M245.5,189.8l-19.7-11.4c-0.2-0.1-0.2-0.4,0-0.5l9.5-5.5c0.3-0.2,0.6-0.2,0.9,0
									l19.7,11.4c0.2,0.1,0.2,0.4,0,0.5l-9.4,5.5C246.1,189.9,245.8,189.9,245.5,189.8z"/>
								<path id="Path_320" class="st4" d="M246.9,182.4l-4.8-2.7c0,0,0-0.1,0-0.1l0,0l2.3-1.3c0.1,0,0.2,0,0.2,0l4.8,2.7
									c0,0,0,0.1,0,0.1c0,0,0,0,0,0l0,0l-2.3,1.3L246.9,182.4z"/>
								<path id="Path_321" class="st3" d="M245,176.9c-0.1-0.6-0.4-1.1-0.9-1.4l-19.6-11.1c-0.1-0.1-0.3-0.1-0.4,0l0,0
									c-0.1,0-0.1,0-0.1,0.1l-0.7,0.7l0.5,0l1.9,12.1c0.1,0.6,0.4,1.1,0.9,1.4l18.5,10.6l0.5,0.7l0.1,0.1c0.4,0.1,1.3-0.6,1.3-0.6
									L245,176.9z"/>
								<path id="Path_322" class="st15" d="M245.6,190.4L226,179.2c-0.5-0.3-0.8-0.8-0.9-1.4l-1.9-12.2c-0.1-0.5,0.2-0.8,0.6-0.5
									l19.6,11.1c0.5,0.3,0.8,0.8,0.9,1.4l1.9,12.2C246.3,190.4,246,190.6,245.6,190.4z"/>
								<path id="Path_323" class="st29" d="M246.8,183.4L246.8,183.4c-0.5-1.6,0.3-3.3,1.9-3.8l5.5-1.8c1.6-0.5,3.3,0.3,3.8,1.9
									l0,0c0.5,1.6-0.3,3.3-1.9,3.8l-5.5,1.8C249.1,185.9,247.3,185,246.8,183.4z"/>
								<path id="Path_324" class="st3" d="M235.2,178.5c0.1,0.6-0.5,0.8-1.3,0.3c-0.8-0.5-1.6-1.4-1.7-2s0.5-0.8,1.3-0.3
									S235.1,177.9,235.2,178.5z"/>
								<path id="Path_325" class="st57" d="M255.4,124.5c0,0,7.2,9.4,6.5,15.5c-0.5,5.1-6,8.3-7.1,16c-0.1,0.9,0.5,1.7,1.4,1.8
									c0.5,0.1,1.1-0.2,1.4-0.6c1.4-1.8,3-3.4,4.8-4.7c4.8-3.3,5.7-6.8,5.2-9.3s-2.4-21.2-2.4-21.2l-11-1.1L255.4,124.5z"/>
								<ellipse id="Ellipse_8" class="st54" cx="279.5" cy="300.7" rx="4.3" ry="4.2"/>
								<path id="Path_326" class="st43" d="M277.5,299.2c2.2-0.4,4.3,1,4.7,3.2c0.7,3.1,1.3,9.2-2.2,16.3
									c-5.1,10.4,3.8,24.8-0.8,31.3c0,0-1.1-4.2-4.5-10.6c-3.5-6.4-4.5-17.4-3.8-25c0.7-7.5,4.4-14.1,4.4-14.1
									C275.9,299.7,276.7,299.4,277.5,299.2z"/>
							</g>
						</g>
						
							<linearGradient id="градиент_1_" gradientUnits="userSpaceOnUse" x1="-213.5254" y1="-206.3064" x2="-213.8927" y2="-205.3414" gradientTransform="matrix(1920 0 0 1080 410564.6875 222418)">
							<stop  offset="0" style="stop-color:#FFDDDE;stop-opacity:0.25"/>
							<stop  offset="1" style="stop-color:#FFA5A1"/>
						</linearGradient>
						<rect id="градиент" x="-334.3" y="-92.1" class="st67" width="1052.6" height="592.1"/>
						
							<image style="overflow:visible;opacity:6.000000e-02;enable-background:new    ;" width="1271" height="1305" id="графика2" xlink:href="AAA1B5ED.png"  transform="matrix(0.336 -0.2819 0.2819 0.336 208.226 329.4901)">
						</image>
						
							<image style="overflow:visible;enable-background:new    ;" width="3561" height="2086" id="графика1" xlink:href="AAA1B5EF.png"  transform="matrix(8.958888e-02 0 0 8.958888e-02 168.1459 -108.6275)">
						</image>
					</g>
				</g>
			</g>
		</g>
	</g>
</g>
</svg>
