<?xml version="1.0" encoding="utf-8"?>
<!-- Generator: Adobe Illustrator 22.0.1, SVG Export Plug-In . SVG Version: 6.00 Build 0)  -->
<svg version="1.1" id="Layer_1" xmlns="http://www.w3.org/2000/svg" xmlns:xlink="http://www.w3.org/1999/xlink" x="0px" y="0px"
	 viewBox="0 0 317.2 493.9" style="enable-background:new 0 0 317.2 493.9;" xml:space="preserve">
<style type="text/css">
	.st0{clip-path:url(#SVGID_2_);}
	.st1{clip-path:url(#SVGID_4_);}
	.st2{clip-path:url(#SVGID_6_);}
	.st3{fill:#FFFFFF;}
	.st4{opacity:0.99;}
	.st5{opacity:0.4;fill:#A8C4E5;enable-background:new    ;}
	.st6{fill:url(#Path_328_1_);}
	.st7{fill:#D0E1F4;}
	.st8{fill:#E6F0FF;}
	.st9{fill:#2C1F9C;}
	.st10{fill:#7D8AFF;}
	.st11{fill:#4A3EB5;}
	.st12{fill:url(#Path_335_1_);}
	.st13{fill:url(#Path_336_1_);}
	.st14{fill:url(#Path_337_1_);}
	.st15{fill:#FFCE43;}
	.st16{fill:#FFC2B0;}
	.st17{fill:#4432DB;}
	.st18{fill:#E655BE;}
	.st19{fill:#F09A82;}
	.st20{fill:#FF80DB;}
	.st21{fill:#6271F0;}
	.st22{fill:#2A1C9E;}
	.st23{fill:#8D99FC;}
	.st24{fill:#9EBBDE;}
	.st25{fill:#21DED5;}
	.st26{fill:#C6D2F2;}
	.st27{fill:#3B2AD1;}
	.st28{fill:#6F9ED9;}
	.st29{fill:#FBDDD3;}
	.st30{opacity:0.27;fill:#4A70D6;enable-background:new    ;}
	.st31{fill:none;stroke:#FFFFFF;stroke-width:5.1;stroke-linecap:round;stroke-linejoin:round;}
	.st32{fill:none;stroke:#FFFFFF;stroke-width:7.78;stroke-linecap:round;stroke-linejoin:round;}
	.st33{fill:url(#градиент_1_);}
</style>
<title>5</title>
<g>
	<defs>
		<rect id="SVGID_1_" x="-1.4" y="-3" width="320" height="500"/>
	</defs>
	<clipPath id="SVGID_2_">
		<use xlink:href="#SVGID_1_"  style="overflow:visible;"/>
	</clipPath>
	<g class="st0">
		<defs>
			<rect id="SVGID_3_" x="-430.7" y="-3" width="1052.6" height="500"/>
		</defs>
		<clipPath id="SVGID_4_">
			<use xlink:href="#SVGID_3_"  style="overflow:visible;"/>
		</clipPath>
		<g class="st1">
			<g>
				<defs>
					<rect id="SVGID_5_" x="-430.7" y="-95.2" width="1052.6" height="592.1"/>
				</defs>
				<clipPath id="SVGID_6_">
					<use xlink:href="#SVGID_5_"  style="overflow:visible;"/>
				</clipPath>
				<g class="st2">
					<g id="Слайд_5">
						<rect x="-430.7" y="-95.2" class="st3" width="1052.6" height="592.1"/>
						<g id="резидент" class="st4">
							<g id="Group_114">
								<path id="Path_327" class="st5" d="M453.6,363.4l48.2-28.9c3-1.9,3.9-5.9,2.1-8.9c-0.5-0.9-1.3-1.6-2.2-2.1l-142.8-84.9
									L340,297.9L453.6,363.4z"/>
								
									<linearGradient id="Path_328_1_" gradientUnits="userSpaceOnUse" x1="-352.4089" y1="-431.4952" x2="-351.8607" y2="-431.4952" gradientTransform="matrix(232.67 0 0 578.82 82329.8203 249966.875)">
									<stop  offset="0.33" style="stop-color:#D0E1F4"/>
									<stop  offset="0.47" style="stop-color:#CBDEF4"/>
									<stop  offset="0.65" style="stop-color:#BCD6F4"/>
									<stop  offset="0.84" style="stop-color:#A3C9F4"/>
									<stop  offset="0.87" style="stop-color:#9FC7F4"/>
								</linearGradient>
								<path id="Path_328" class="st6" d="M446.6,367.5l-100.4-66.6c-6.3-3.6-11.4-13.3-11.4-21.7V60.1c0-8.4,5.1-12.2,11.4-8.6
									L451,112c6.3,3.6,11.4,13.3,11.4,21.7v218c0,5.5-2,7.8-5.5,9.8L446.6,367.5z"/>
								<path id="Path_329" class="st7" d="M388.5,161.6c0,0-53.7,125.7-53.7,117.3L326,57.4l13.2-7c2-0.9,4.4-0.7,7,0.8L451,111.8
									c3.1,1.8,5.9,5,7.9,8.8L388.5,161.6z"/>
								<path id="Path_330" class="st8" d="M440.5,366.7l-104.6-60.5c-6.3-3.6-11.1-13.3-11.1-21.7v-219c0-8.4,5-12.2,11.2-8.6
									l104.5,60.5c6.3,3.6,11.1,13.3,11.1,21.7v219.1C451.6,366.5,446.7,370.3,440.5,366.7z"/>
								<path id="Path_331" class="st9" d="M438.4,367.5L333.8,307c-6.3-3.6-11.1-13.3-11.1-21.7v-219c0-8.4,5-12.2,11.2-8.6
									l104.5,60.5c6.3,3.6,11.1,13.3,11.1,21.7V359C449.5,367.3,444.7,371.1,438.4,367.5z"/>
								<path id="Path_332" class="st10" d="M435.5,330.1l-101.9-58.9c-1.1-0.6-1.7-1.7-1.7-3v-185c0-1.9,1.5-3.4,3.4-3.4
									c0.6,0,1.2,0.2,1.7,0.5l101.9,58.9c1.1,0.6,1.7,1.7,1.7,3v185c0,1.9-1.5,3.4-3.4,3.4C436.6,330.5,436,330.4,435.5,330.1
									L435.5,330.1z"/>
								<path id="Path_333" class="st11" d="M403.9,112.4l-32.3-18.7c-1.1-0.6-2-2.4-2-3.9l0,0c0-1.5,0.9-2.2,2-1.6l32.3,18.7
									c1.1,0.6,2,2.4,2,3.9l0,0C406,112.4,405.1,113.1,403.9,112.4z"/>
							</g>
							
								<radialGradient id="Path_335_1_" cx="767.5107" cy="-79.3651" r="19.7478" gradientTransform="matrix(1.6 -9.000000e-02 0.14 2.56 25.3914 619.4985)" gradientUnits="userSpaceOnUse">
								<stop  offset="0" style="stop-color:#0028A1"/>
								<stop  offset="0.23" style="stop-color:#2041B9"/>
								<stop  offset="0.94" style="stop-color:#7D8AFF"/>
							</radialGradient>
							<path id="Path_335" class="st12" d="M398.1,148.5c1.5,27.9-11.4,50.6-28.8,50.6c-17.4,0-32.8-22.7-34.3-50.6
								c-1.5-27.9,11.4-50.6,28.8-50.6C381.2,97.9,396.6,120.6,398.1,148.5z"/>
							
								<radialGradient id="Path_336_1_" cx="824.2592" cy="-7.771" r="20.148" gradientTransform="matrix(1.47 -0.1 0.13 1.95 73.3264 558.5107)" gradientUnits="userSpaceOnUse">
								<stop  offset="0" style="stop-color:#0028A1"/>
								<stop  offset="0.23" style="stop-color:#2041B9"/>
								<stop  offset="0.94" style="stop-color:#7D8AFF"/>
							</radialGradient>
							<path id="Path_336" class="st13" d="M440.5,253.4c1.3,21.7-9.9,34.3-25.2,28.2c-15.2-6.1-28.6-28.6-30-50.3
								s9.9-34.3,25.2-28.2C425.8,209.2,439.2,231.7,440.5,253.4z"/>
							
								<radialGradient id="Path_337_1_" cx="444.9932" cy="271.1704" r="23.5581" gradientTransform="matrix(1.34 8.000000e-02 -0.11 1.8 296.586 183.2968)" gradientUnits="userSpaceOnUse">
								<stop  offset="0" style="stop-color:#0028A1"/>
								<stop  offset="0.23" style="stop-color:#2041B9"/>
								<stop  offset="0.94" style="stop-color:#7D8AFF"/>
							</radialGradient>
							<path id="Path_337" class="st14" d="M385.8,242.3c-1.4,23.4-16.7,42.4-34.1,42.4c-17.4,0-30.4-19-29-42.4
								c1.4-23.4,16.7-42.4,34.1-42.4S387.2,218.8,385.8,242.3z"/>
							<g id="Group_115">
								<path id="Path_338" class="st15" d="M233.2,254.2l1.1,3.2c0.2,0.4,0.4,0.8,0.8,1.1l2.4,1.8c0.8,0.7,1.2,2,0.5,2.4l-1.8,0.9
									c-0.3,0.2-0.4,0.6-0.3,0.9l0.4,3c0.1,1.1-0.7,1.3-1.5,0.4l-2.2-2.5c-0.2-0.3-0.6-0.5-1-0.5l-2.2,0c-0.7,0-1.6-1.3-1.5-2.1
									l0.4-2.6c0-0.4-0.1-0.9-0.3-1.3l-1.8-3c-0.6-1.1-0.3-2,0.5-1.7l2.4,1c0.3,0.1,0.6,0.1,0.8-0.2l1.1-1.9
									C231.7,252.4,232.7,253,233.2,254.2z"/>
								<path id="Path_339" class="st5" d="M198.6,358.5c5.7,3.1,15.5,3.2,21.7,0.2c6.3-2.9,6.7-7.8,1-10.8
									c-5.7-3.1-15.5-3.2-21.7-0.2C193.4,350.6,192.9,355.5,198.6,358.5z"/>
								<path id="Path_340" class="st9" d="M198.7,348.1l3.3-0.4c2.2-1,3.3-1.8,4.3-1.2l0.3,0.2c1,0.5,0.9,1.6-0.3,2.3l-4.9,3.9
									c-1.2,0.6-2.6,0.5-3.6-0.4c0,0-0.5-0.5-0.1-2.6C197.9,348.7,197.8,348.7,198.7,348.1z"/>
								<path id="Path_341" class="st16" d="M202.7,348.3c-0.3,2.3-4.5,2.3-4.5,0.5l2.4-53.4l14.1-4L202.7,348.3z"/>
								<path id="Path_342" class="st9" d="M212.9,353.2l3.3,0.6c2.5-0.3,3.7-0.7,4.5,0.2l0.2,0.2c0.8,0.8,0.3,1.8-1,2l-5.9,2.2
									c-1.3,0.3-2.6-0.3-3.3-1.4c0,0-0.4-0.6,0.6-2.5C211.9,353.5,211.8,353.5,212.9,353.2z"/>
								<path id="Path_343" class="st16" d="M215.6,354.6c-0.7,1.9-4,1.4-3.9-0.1c1.5-18.5-2-36-6.5-53l13.6-1.5
									C219.3,320,219.1,337.1,215.6,354.6z"/>
								<path id="Path_344" class="st9" d="M217.9,295.3l4.7,25.9c0,0-11.8,11.6-25.2,0l1.5-24.3L217.9,295.3z"/>
								<path id="Path_345" class="st16" d="M213.4,260.8c-1,3.5-3.6,4.5-5.9,2.2s-3.2-7-2.2-10.5c1-3.5,3.6-4.5,5.9-2.2
									C213.5,252.5,214.4,257.3,213.4,260.8z"/>
								<path id="Path_346" class="st16" d="M217.1,259.7c-1,3.5-4.8,4.8-7,2.5c-2.2-2.3-3.2-7-2.2-10.5c1-3.5,3.6-4.5,5.9-2.2
									C216,251.7,218.2,256.2,217.1,259.7z"/>
								<path id="Path_347" class="st16" d="M208.6,269.9l-0.4-0.1c-1.3-0.3-2.1-1.6-1.8-2.8l1.6-7.2c0.3-1.3,1.6-2.1,2.8-1.8
									l0.4,0.1c1.3,0.3,2.1,1.6,1.8,2.8l-0.5,7.1C212.3,269.3,209.9,270.1,208.6,269.9z"/>
								<path id="Path_348" class="st17" d="M205.6,260.2c0,0-0.4,2.5,3.8,2.7c3.4,0.2,2.4-6,5.8-6.5c3.7-0.6,4.4-5.2,2.9-7
									c-1.5-1.8-5.6-2.7-8.5-1.4C206.7,249.3,200.4,250.2,205.6,260.2z"/>
								<circle id="Ellipse_9" class="st16" cx="213.6" cy="257.8" r="1.6"/>
								<path id="Path_349" class="st18" d="M199,296.6c1.2-6.6-0.1-11.8,0-18.8c0-12.6-0.6-15.7,6-13.8l1.9,0.5
									c0.9,0.2,1.8,0.6,2.6,1c8.8,4.5,11.2,5.9,10.7,11.1c0,8.6-4,10.4-1.9,18C216.6,300.7,201,300.9,199,296.6z"/>
								<path id="Path_350" class="st19" d="M212.9,263.4l-0.4-0.9c0.6,0.5,1.3,0.6,2,0.5C214,263.2,213.4,263.4,212.9,263.4z"/>
								<ellipse id="Ellipse_10" class="st9" cx="205.9" cy="253.3" rx="3.1" ry="3.6"/>
								<path id="Path_351" class="st17" d="M205.8,252.2c0-1-0.7-1.9-1.7-1.9c-0.6,0-1.3,0.3-1.6,0.8c-0.4,0.7-0.7,1.4-0.8,2.2
									c-1.3,5.5-10.5,4.7-5.9,14.4c0,0-4.1,6.3,3.5,9c3.9,1.3,3.8-8.7,3.8-8.7s1.6-4.6,3.1-8.3c0.7-1.7,0.7-3.6,0-5.3
									C205.9,253.6,205.8,252.9,205.8,252.2z"/>
								<path id="Path_352" class="st9" d="M206.9,263.7c-0.6-0.1-1.1,0.2-1.2,0.8c0,0.1,0,0.3,0,0.5c0.2,1.1,1,2,2.1,2.3
									c1.8,0.5,3.7,0.5,5.4,0c0.2,0,0.3-0.2,0.2-0.3c0,0,0,0,0,0c0-0.1-0.1-0.2-0.1-0.2C212,266,209.1,264.2,206.9,263.7z"/>
								<path id="Path_353" class="st18" d="M212.3,274.9c0,0,8.6,20.9,18,10.9s6.1-17.2,6.1-17.2l-1.3-0.3c0,0-3.8,12.7-7.9,11.4
									c-4.1-1.3-9.6-9.1-11.6-9.4C213.7,269.8,212.3,274.9,212.3,274.9z"/>
								<path id="Path_354" class="st16" d="M236.2,270L236.2,270c-0.9,0-1.6-0.7-1.6-1.6v-1.7c0-0.9,0.7-1.6,1.6-1.6l0,0l0,0
									c0.9,0,1.6,0.7,1.6,1.6l0,0v1.7C237.9,269.2,237.1,270,236.2,270z"/>
							</g>
							<path id="Path_355" class="st18" d="M328.7,154.9l25.6,34.5c0.8,1.1,3.6,0.4,4-1l5.9-20.4L328.7,154.9z"/>
							<path id="Path_356" class="st18" d="M348.9,215.9l19.6-9.9c1.7-0.8,3.8-0.1,4.6,1.6c0.4,0.7,0.4,1.6,0.2,2.4L361.1,234
								l-3.1-2.7l-5.7-8.8L348.9,215.9z"/>
							<path id="Path_357" class="st17" d="M429.2,264.8l-16.9,13.9c-1.5,1.2-3.7,0.9-4.9-0.6c-0.5-0.6-0.7-1.4-0.7-2.2l6.7-26
								l3.7,2l7.5,7.3L429.2,264.8z"/>
							<g id="Group_116">
								<path id="Path_358" class="st18" d="M373.2,169.6l-90.4-52.2c-7.1-4.1-13-15.2-13-24.8V53.8c0-9.5,5.8-13.9,13-9.8
									l90.4,52.2c7.1,4.1,13,15.2,13,24.8v38.9C386.1,169.3,380.3,173.7,373.2,169.6z"/>
								<path id="Path_359" class="st18" d="M263.5,50.9l10.5-7.5l108.4,126.3l-11.5,8.1L263.5,50.9z"/>
								<path id="Path_360" class="st20" d="M362,177.4l-90.4-52.2c-7.1-4.1-13-15.2-13-24.8V61.6c0-9.5,5.8-13.9,13-9.8L362,104
									c7.2,4.1,13,15.2,13,24.8v38.9C375,177.1,369.2,181.6,362,177.4z"/>
							</g>
							<g id="Group_136">
								<g id="Group_117">
									<path id="Path_361" class="st3" d="M303.9,102.7c0,10.1-8.5,14.1-18.9,9.1c-10.4-5.1-18.8-17.3-18.7-27.4
										c0-10.1,8.5-14.1,18.9-9.1C295.6,80.4,304,92.6,303.9,102.7z"/>
								</g>
								<g id="Group_118">
									<path id="Path_362" class="st9" d="M276.5,97.6c0.9,2.9,1.2,5.9,0.9,8.9c4.2,4.1,10.3,7.4,16.5,7.6c0,0-0.1-6.5,1-7l0-0.7
										l-2.7-2.2l-1.5,4.1c0,0-1.1,2.1-4.7-0.2c-3.6-2.3-4.3-3.1-4.6-4.6s-1.2-5.3-1.2-5.3L276.5,97.6z"/>
								</g>
								<g id="Group_119">
									<path id="Path_363" class="st9" d="M288.6,103.7L288.6,103.7c-0.2,0-0.3-0.2-0.4-0.3l-0.3-4.5c0-0.1,0.1-0.2,0.2-0.2
										c0,0,0,0,0,0c0,0,0.1,0,0.1,0c0.2,0,0.3,0.1,0.3,0.3l0.3,4.5C288.9,103.6,288.8,103.7,288.6,103.7z"/>
								</g>
								<g id="Group_120">
									<path id="Path_364" class="st9" d="M283.1,101L283.1,101c-0.3,0-0.4-0.2-0.4-0.4l0.3-4.2c0-0.1,0.1-0.2,0.3-0.2
										c0.2,0,0.3,0.2,0.3,0.4l-0.3,4.2C283.4,100.9,283.3,101,283.1,101C283.1,101,283.1,101,283.1,101z"/>
								</g>
								<g id="Group_121">
									<path id="Path_365" class="st9" d="M279.8,90.4c-0.1,0-0.1,0-0.2,0c0,0-1.5-1.1-2.1-3.7c-0.2-1.1-0.1-1.7,0.3-1.9
										c0.4-0.2,0.9,0,1.2,0.1c0.2,0.1,0.2,0.3,0.1,0.4c0,0,0,0,0,0c-0.1,0.1-0.2,0.1-0.4,0c-0.1,0-0.4-0.2-0.5-0.1
										s-0.3,0.3,0,1.4c0.5,2.3,1.8,3.2,1.8,3.3c0.1,0.1,0.2,0.3,0.1,0.4C280,90.4,279.9,90.4,279.8,90.4z"/>
								</g>
								<g id="Group_122">
									<path id="Path_366" class="st9" d="M299.2,112.9c-0.1,0-0.3-0.1-0.3-0.3c-0.5-2.3-1.9-4.3-4.2-6c-4.8-3.6-6.3-5.7-6.3-5.7
										c-0.1-0.1-0.1-0.3,0-0.4c0.2,0,0.3,0,0.4,0.1l0,0c0,0,1.4,2,6.1,5.5c2.5,1.8,3.9,3.9,4.5,6.4
										C299.5,112.7,299.4,112.8,299.2,112.9C299.3,112.9,299.2,112.9,299.2,112.9L299.2,112.9z"/>
								</g>
								<g id="Group_123">
									<path id="Path_367" class="st9" d="M272.3,101L272.3,101c-0.2-0.1-0.4-0.2-0.4-0.4c0.3-2.8,2-3.8,4.9-3.2
										c4.6,1.1,6,0.5,6,0.5c0.2,0,0.3,0,0.4,0.1c0.1,0.1,0.1,0.3,0,0.4c0,0-1.5,0.7-6.5-0.4c-2.6-0.6-4,0.3-4.3,2.8
										C272.6,100.8,272.5,101,272.3,101C272.3,101,272.3,101,272.3,101L272.3,101z"/>
								</g>
								<g id="Group_124">
									<path id="Path_368" class="st9" d="M277.4,106.2L277.4,106.2c-0.2,0-0.3-0.2-0.3-0.3v-3.7c-0.1-1.6-0.4-3.1-0.9-4.6
										c0-0.1,0-0.3,0.2-0.3c0.2,0,0.3,0.1,0.4,0.2c0.6,1.5,0.9,3.1,1,4.8v3.7C277.7,106.1,277.6,106.2,277.4,106.2z"/>
								</g>
								<g id="Group_125">
									<path id="Path_369" class="st9" d="M293.9,114.3L293.9,114.3c-0.2,0-0.3-0.2-0.3-0.3v-3.7c0-1.4,0.3-2.7,1-3.9
										c0.1-0.1,0.3-0.1,0.4,0l0,0c0.1,0.1,0.2,0.3,0.1,0.4c-0.6,1.1-0.9,2.4-0.9,3.6v3.7C294.1,114.2,294.1,114.3,293.9,114.3z"
										/>
								</g>
								<g id="Group_126">
									<path id="Path_370" class="st9" d="M289.1,109.6c-1,0-2.2-0.6-3.5-1.3c-3-1.5-4.6-3.4-4.8-5.9c-0.2-1.4-0.5-2.9-1-4.2
										c0-0.1,0-0.3,0.2-0.3c0.2,0,0.3,0.1,0.4,0.2c0.5,1.4,0.8,2.9,1,4.4c0.2,2.2,1.6,4,4.4,5.3c1.8,0.9,2.9,1.3,3.7,1.1
										c0.5-0.1,0.8-0.6,1.1-1.4c0.4-1.2,0.8-2.3,1.3-3.5c0.1-0.1,0.2-0.2,0.3-0.1c0,0,0,0,0,0c0,0,0,0,0.1,0
										c0.1,0.1,0.2,0.3,0.2,0.4c0,0-0.5,1.3-1.3,3.5c-0.2,0.7-0.7,1.3-1.4,1.6C289.5,109.6,289.3,109.6,289.1,109.6z"/>
								</g>
								<g id="Group_127">
									<path id="Path_371" class="st9" d="M294,106c-0.1,0-0.3-0.1-0.3-0.2c-1-2.9-1.6-5.9-1.8-8.9c-0.1,0.3-0.3,0.6-0.5,0.9
										c-0.4,0.4-0.8,0.7-1.3,0.9c-2.3,0.9-5.8-0.7-8-3.9c-0.6-0.8-1.1-1.6-1.5-2.5c-1-2.2-1.5-4.6-1.6-7c-0.4-2.7,0.4-3.7,2-4.7
										c1.4-0.9,0.7-3.1,0.7-3.2c-0.1-0.1,0-0.3,0.1-0.3l0,0c0.2,0,0.3,0,0.4,0.2c0.9,1.4,2,2.8,3.2,3.9c0.2,0.2,0.5,0.5,0.7,0.7
										c2.5,2.4,6.7,6.3,6.5,11.2c-0.3,4.3,0.3,8.5,1.7,12.5C294.2,105.8,294.1,106,294,106L294,106z M282.3,78.6
										c0.1,1-0.3,1.9-1.1,2.4c-1.6,0.9-2.2,1.8-1.9,4.2v0c0.1,2.3,0.6,4.6,1.6,6.8c0.4,0.8,0.9,1.7,1.4,2.4
										c2,2.9,5.2,4.5,7.3,3.6c0.4-0.2,0.8-0.4,1.2-0.8c0.4-0.6,0.7-1.2,1-1.9c0-0.8,0-1.6,0-2.5c0.2-4.6-3.8-8.5-6.3-10.7
										c-0.2-0.2-0.5-0.5-0.7-0.7C283.9,80.6,283,79.7,282.3,78.6z"/>
								</g>
								<g id="Group_128">
									<path id="Path_372" class="st9" d="M297.4,109.1c-0.1,0-0.3-0.1-0.3-0.2c-0.1-0.4-3.7-8.9-2.9-14.4c0-0.1,0.2-0.2,0.3-0.2
										c0.2,0.1,0.3,0.2,0.2,0.4c-0.8,5.3,2.8,14,2.9,14.1C297.6,108.9,297.6,109.1,297.4,109.1
										C297.4,109.1,297.4,109.1,297.4,109.1z"/>
								</g>
								<g id="Group_129">
									<path id="Path_373" class="st9" d="M294.7,92.9L294.7,92.9c-0.2,0-0.4-0.2-0.4-0.3c0.3-6.9-3.3-12.5-7.1-14.4
										c-4-2-5.3-0.8-5.3-0.8c-0.2,0.1-0.4,0.1-0.5-0.1c0,0,0,0,0,0c-0.1-0.1-0.1-0.2,0-0.4c0,0,1.5-1.5,5.9,0.7
										c3.9,2,7.8,7.9,7.4,15.1C294.9,92.8,294.8,92.9,294.7,92.9z"/>
								</g>
								<g id="Group_130">
									<path id="Path_374" class="st9" d="M278.3,84.9L278.3,84.9c-0.1,0-0.3-0.1-0.3-0.3c-1.6-8.2,1.6-8.4,2-8.4
										c0.8,0.1,1.5,0.4,2,1c0.1,0.1,0.1,0.2,0.1,0.4c0,0,0,0,0,0c0,0,0,0-0.1,0.1c-0.1,0.1-0.3,0-0.4,0l0,0
										c-0.4-0.4-1-0.7-1.5-0.7l0,0c-0.1,0-3,0.1-1.5,7.8C278.5,84.8,278.4,84.9,278.3,84.9z"/>
								</g>
								<g id="Group_131">
									<path id="Path_375" class="st9" d="M278.4,98.3c-0.1,0-0.1,0-0.2,0c-0.1-0.1-0.2-0.3-0.1-0.4c1.4-2.5,1.1-7.8,1.1-7.9
										c0-0.1,0.1-0.2,0.2-0.2c0,0,0,0,0,0h0.1c0.2,0,0.3,0.2,0.3,0.3c0,0.2,0.3,5.6-1.2,8.1C278.6,98.2,278.5,98.3,278.4,98.3z"
										/>
								</g>
								<g id="Group_132">
									<path id="Path_376" class="st9" d="M292,91c-0.1,0-0.2-0.1-0.3-0.2c-0.9-1.5-2.1-2.9-3.4-4c-0.1-0.1-0.2-0.3-0.1-0.4
										c0,0,0,0,0,0l0,0c0.1-0.1,0.3-0.1,0.4,0c1.4,1.2,2.7,2.7,3.6,4.3c0.1,0.1,0.1,0.3,0,0.3L292,91L292,91z"/>
								</g>
								<g id="Group_133">
									<path id="Path_377" class="st9" d="M287,85.8c-0.1,0-0.2,0-0.2-0.1c-0.3-0.2-0.5-0.4-0.8-0.5c-2.4-1.6-3.9-4.2-4.1-7.1
										c0-0.1,0.1-0.2,0.2-0.2c0,0,0,0,0,0h0c0.2,0,0.3,0.2,0.3,0.3c0.2,2.6,1.6,5,3.8,6.5c0.3,0.2,0.5,0.4,0.8,0.6
										c0.1,0.1,0.2,0.3,0.1,0.4c0,0,0,0,0,0l0,0C287.2,85.7,287.1,85.8,287,85.8z"/>
								</g>
								<g id="Group_134">
									<path id="Path_378" class="st9" d="M273.6,98.3L273.6,98.3c-0.3,0-0.4-0.2-0.4-0.3c0-1.3,1.2-2.1,2.1-2.8
										c0.5-0.3,0.9-0.7,1.3-1.1c0.9-1.2,1.3-6,1.3-6.1c0-0.1,0.1-0.2,0.3-0.2c0.2,0,0.3,0.2,0.3,0.4c0,0.2-0.4,5.1-1.3,6.3
										c-0.4,0.5-0.9,0.9-1.4,1.2c-0.9,0.6-1.9,1.3-2,2.5C273.8,98.2,273.7,98.3,273.6,98.3C273.6,98.3,273.6,98.3,273.6,98.3z"/>
								</g>
								<g id="Group_135">
									<path id="Path_379" class="st9" d="M288.9,110.9L288.9,110.9c-2.3-0.4-4.5-1.5-6.2-3c-0.1-0.1-0.2-0.2-0.1-0.4
										c0.1-0.1,0.2-0.2,0.4-0.1c0,0,0.1,0,0.1,0.1c1.6,1.4,3.6,2.4,5.8,2.8c0.2,0,0.3,0.2,0.3,0.3
										C289.1,110.8,289,110.9,288.9,110.9z"/>
								</g>
							</g>
							<g id="Group_137">
								<path id="Path_380" class="st17" d="M506,298.6l-90.4-52.2c-7.1-4.1-13-15.2-13-24.8v-38.9c0-9.5,5.8-13.9,13-9.8l90.4,52.2
									c7.1,4.1,13,15.2,13,24.8v38.9C518.9,298.3,513.2,302.7,506,298.6z"/>
								<path id="Path_381" class="st17" d="M396.3,179.9l10.5-7.5l108.4,126.3l-11.5,8.1L396.3,179.9z"/>
								<path id="Path_382" class="st21" d="M494.8,306.4l-90.4-52.2c-7.1-4.1-13-15.2-13-24.8v-38.9c0-9.5,5.8-13.9,13-9.8
									l90.4,52.2c7.2,4.1,13,15.2,13,24.8v38.9C507.7,306.2,502,310.5,494.8,306.4z"/>
							</g>
							<g id="Group_155">
								<g id="Group_138">
									<path id="Path_383" class="st3" d="M436.8,235.8c0,10.1-8.5,14.1-18.9,9.1c-10.4-5.1-18.8-17.3-18.7-27.4
										c0-10.1,8.5-14.1,18.9-9.1C428.4,213.4,436.8,225.7,436.8,235.8z"/>
								</g>
								<g id="Group_139">
									<path id="Path_384" class="st9" d="M410.8,216.8l-0.6-0.3c0,0-0.2-1.6-0.2-1.7c0-0.1-1-7.1,5.2-5.5
										c6.2,1.6,9.8,7.2,9.8,7.2s2.4,3.7,0.7,7.8l-0.8-0.5c0,0,0.8-4.7-2.5-6.5l-2.4-0.2c0,0-2.6-0.5-5.5-3.3
										C411.7,210.9,410.7,214,410.8,216.8z"/>
								</g>
								<g id="Group_140">
									<path id="Path_385" class="st9" d="M420.8,231.7c-2.2,0-4.8-1.6-6.6-4.1c-0.6-0.8-1.1-1.6-1.5-2.5c-0.9-1.9-1.5-4-1.6-6.1
										c0,0,0-0.5-0.1-0.9c-0.1-0.8-0.1-1.2-0.1-1.3c0-0.1,0.1-0.2,0.2-0.2c0,0,0,0,0,0h0c0.2,0,0.3,0.2,0.3,0.3
										c0,0.1,0.1,0.7,0.1,1.3c0,0.5,0.1,0.9,0.1,0.9c0.1,2,0.7,4,1.5,5.9c0.4,0.8,0.9,1.6,1.4,2.4c2,2.9,5.2,4.5,7.3,3.6
										c0.4-0.2,0.8-0.4,1.2-0.8c0.8-1.1,1.3-2.8,1.5-5c0,0,0-0.2,0.1-0.7c0-0.3,0.1-0.7,0.1-0.8c0-0.1,0.1-0.2,0.3-0.2
										c0.1,0,0.3,0.2,0.3,0.3c0,0,0,0.2-0.1,0.8c0,0.3-0.1,0.6-0.1,0.7c-0.1,2.3-0.6,4.1-1.6,5.2
										C422.8,231.3,421.8,231.7,420.8,231.7L420.8,231.7z"/>
								</g>
								<g id="Group_141">
									<path id="Path_386" class="st9" d="M424.7,228.4c-0.1,0-0.2,0-0.3,0c-0.2,0-0.3-0.2-0.3-0.4c0-0.1,0.1-0.2,0.3-0.2
										c0,0,1,0.2,1.4-1.5c0.2-0.5,0.2-1.1-0.1-1.5c-0.1-0.3-0.4-0.4-0.6-0.5c-0.2-0.1-0.3-0.2-0.2-0.4c0-0.1,0.2-0.2,0.3-0.2l0,0
										c0.5,0.2,0.8,0.5,1.1,0.9c0.3,0.6,0.4,1.3,0.2,2C426.1,228.2,425.1,228.4,424.7,228.4z"/>
								</g>
								<g id="Group_142">
									<path id="Path_387" class="st9" d="M411.7,222.2c-0.1,0-0.1,0-0.2,0c-1.1-0.9-1.9-2.2-2.1-3.7c-0.2-1.1-0.1-1.7,0.3-1.9
										c0.4-0.2,0.9,0,1.2,0.1c0.1,0.1,0.2,0.3,0.1,0.4c-0.1,0.1-0.2,0.1-0.3,0.1l0,0l0,0c-0.1,0-0.4-0.2-0.5-0.1
										c-0.1,0.1-0.3,0.3,0,1.4c0.5,2.3,1.8,3.2,1.8,3.3c0.1,0.1,0.2,0.3,0.1,0.4C411.9,222.1,411.8,222.1,411.7,222.2z"/>
								</g>
								<g id="Group_143">
									<path id="Path_388" class="st9" d="M420.3,237.6c-0.7,0-1.4-0.2-2-0.5c-4-2-3.6-4.8-3.6-4.8l0.3-3.7c0-0.1,0.1-0.2,0.3-0.2
										c0.2,0.1,0.3,0.2,0.3,0.4l-0.3,3.7c0,0.1-0.3,2.4,3.2,4.1c1,0.5,1.8,0.7,2.2,0.4c0.6-0.4,0.5-1.4,0.5-1.4l-0.3-3.9
										c0-0.1,0.1-0.3,0.2-0.3c0,0,0,0,0,0l0,0c0.2,0,0.3,0.1,0.3,0.3l0.3,3.9c0,0,0.2,1.3-0.7,1.9
										C420.8,237.6,420.5,237.6,420.3,237.6z"/>
								</g>
								<g id="Group_144">
									<path id="Path_389" class="st9" d="M415.4,218.5l-2.2-1.1c-0.2-0.1-0.3-0.3-0.3-0.5l0,0c0-0.2,0.1-0.3,0.3-0.2l2.2,1.1
										c0.2,0.1,0.3,0.3,0.3,0.5l0,0C415.8,218.5,415.6,218.6,415.4,218.5z"/>
								</g>
								<g id="Group_145">
									<path id="Path_390" class="st9" d="M422.9,222.2l-2.2-1.1c-0.2-0.1-0.3-0.3-0.3-0.5l0,0c0-0.2,0.1-0.3,0.3-0.2l2.2,1.1
										c0.2,0.1,0.3,0.3,0.3,0.5l0,0C423.2,222.2,423,222.2,422.9,222.2z"/>
								</g>
								<g id="Group_146">
									<path id="Path_391" class="st9" d="M431.3,246.2c-0.1,0-0.3-0.1-0.3-0.3c-0.7-2.7-2.1-5.1-4.1-7.1c-3.1-3-5.8-6.1-5.8-6.1
										c-0.1-0.1-0.1-0.3,0-0.4c0.1-0.1,0.3-0.1,0.4,0.1c0,0,0,0,0,0l0,0c0,0,2.7,3.1,5.8,6.1c2.1,2,3.6,4.6,4.4,7.4
										C431.6,246.1,431.5,246.2,431.3,246.2L431.3,246.2z"/>
								</g>
								<g id="Group_147">
									<path id="Path_392" class="st9" d="M404.7,233.3c0,0-0.1,0-0.1,0c-0.1-0.1-0.2-0.2-0.2-0.4c0.5-2,2.4-3.4,4.5-3.3h0.2
										c2,0,4-0.2,5.9-0.4c0.2,0,0.3,0.1,0.4,0.2c0,0.1,0,0.3-0.2,0.3c-2,0.3-4,0.4-6,0.4H409c-1.9-0.1-3.6,1.1-4.1,3
										C404.9,233.3,404.8,233.3,404.7,233.3C404.7,233.4,404.7,233.4,404.7,233.3L404.7,233.3z"/>
								</g>
								<g id="Group_148">
									<path id="Path_393" class="st9" d="M420.7,239.2L420.7,239.2c-0.9-0.1-1.8-0.3-2.6-0.7c-0.9-0.4-1.8-1-2.6-1.8
										c-0.1-0.1-0.2-0.2-0.1-0.4c0.1-0.1,0.2-0.2,0.4-0.1c0,0,0,0,0,0c0,0,0.1,0,0.1,0.1c0.7,0.7,1.5,1.2,2.4,1.6
										c0.7,0.4,1.5,0.6,2.3,0.7c0.1,0,0.3,0.1,0.3,0.3C421,239.1,420.8,239.2,420.7,239.2z"/>
								</g>
								<g id="Group_149">
									<path id="Path_394" class="st9" d="M416.7,222.8c-0.2,0-0.3-0.1-0.5-0.1l-2.2-1.1c-0.1-0.1-0.2-0.2-0.2-0.4
										c0.1-0.1,0.2-0.2,0.3-0.1l0,0l2.2,1.1c0.1,0,0.2,0,0.3,0c0.1,0,0.1-0.1,0.1-0.2v-1.5c0-0.3-0.2-0.6-0.5-0.8l-3.8-1.9
										c-0.1,0-0.2,0-0.3,0c-0.1,0-0.1,0.1-0.1,0.2v1.5c0,0.3,0.2,0.6,0.5,0.8l0.5,0.2c0.1,0.1,0.2,0.2,0.2,0.4
										c-0.1,0.1-0.2,0.2-0.3,0.1l0,0l-0.5-0.2c-0.5-0.3-0.9-0.8-1-1.4v-1.5c0-0.2,0.1-0.5,0.3-0.6c0.3-0.1,0.5-0.1,0.8,0l3.8,1.9
										c0.5,0.3,0.9,0.8,1,1.4v1.5c0,0.2-0.1,0.5-0.3,0.6C417,222.8,416.9,222.8,416.7,222.8z"/>
								</g>
								<g id="Group_150">
									<path id="Path_395" class="st9" d="M424.3,226.5c-0.2,0-0.3-0.1-0.5-0.1l-1.5-0.7c-0.1-0.1-0.2-0.2-0.2-0.4
										c0.1-0.1,0.2-0.2,0.3-0.1c0,0,0,0,0,0h0l1.5,0.7c0.1,0,0.2,0,0.3,0c0.1,0,0.1-0.1,0.1-0.2v-1.5c0-0.3-0.2-0.6-0.5-0.8
										l-3.8-1.9c-0.1,0-0.2-0.1-0.3,0c-0.1,0-0.1,0.1-0.1,0.2v1.5c0,0.3,0.2,0.6,0.5,0.8l1.3,0.6c0.1,0.1,0.2,0.2,0.2,0.4
										c-0.1,0.1-0.2,0.2-0.3,0.1c0,0,0,0,0,0l-1.3-0.6c-0.5-0.3-0.9-0.8-1-1.4v-1.5c0-0.2,0.1-0.5,0.3-0.6c0.3-0.1,0.5-0.1,0.8,0
										l3.8,1.9c0.5,0.3,0.9,0.8,1,1.4v1.5c0,0.2-0.1,0.5-0.3,0.6C424.6,226.5,424.4,226.5,424.3,226.5z"/>
								</g>
								<g id="Group_151">
									<path id="Path_396" class="st9" d="M425.1,224L425.1,224c-0.2-0.1-0.3-0.2-0.3-0.4c0.2-1.3,0-2.5-0.4-3.7
										c-0.5-1.4-2-2.6-3.1-2.6c-0.4,0-0.7,0-1.1-0.1c-0.2,0-0.3-0.2-0.3-0.3c0-0.1,0.1-0.2,0.2-0.2c0,0,0,0,0,0h0
										c0.3,0.1,0.6,0.1,1,0.1c1.4,0,3.2,1.3,3.8,3c0.5,1.3,0.7,2.7,0.5,4C425.3,223.9,425.2,224,425.1,224z"/>
								</g>
								<g id="Group_152">
									<path id="Path_397" class="st9" d="M411.1,217.1L411.1,217.1c-0.2,0-0.3-0.1-0.4-0.3c0-0.1-0.4-2.2,0.5-3.6
										c0.3-0.5,0.8-0.7,1.3-0.7h0c1,0.1,1.8,0.5,2.5,1.3c0.9,0.9,1.9,1.7,3.1,2.2c0.2,0.1,0.4,0.2,0.6,0.3
										c0.2,0.1,0.3,0.2,0.2,0.4c0,0.1-0.2,0.2-0.3,0.2l-0.1,0c-0.2-0.1-0.4-0.2-0.7-0.3c-1.2-0.6-2.3-1.4-3.3-2.4
										c-0.5-0.6-1.2-0.9-2-1c-0.4,0-0.8,0.1-1,0.5c-0.8,1.3-0.5,3.3-0.5,3.3C411.4,217,411.2,217.1,411.1,217.1z"/>
								</g>
								<g id="Group_153">
									<path id="Path_398" class="st9" d="M425.8,224.7c-0.1,0-0.1,0-0.1,0c-0.2-0.1-0.3-0.2-0.2-0.4c0.8-3.3,0.4-6-1.3-8.4
										c-2-3-6-5.7-9.4-6.4c-1.2-0.2-2.7-0.3-3.7,0.7c-1.7,1.7-0.7,6.5-0.6,6.6c0,0.1,0,0.2-0.1,0.3c0,0,0,0,0,0c0,0-0.1,0-0.1,0
										c-0.2,0-0.3-0.1-0.4-0.3c0-0.2-1.1-5.1,0.7-7.1c0.9-0.9,2.3-1.2,4.2-0.8c3.6,0.7,7.7,3.5,9.9,6.7c1.8,2.6,2.2,5.5,1.3,8.9
										C426.1,224.5,426,224.6,425.8,224.7L425.8,224.7z"/>
								</g>
								<g id="Group_154">
									<path id="Path_399" class="st9" d="M419.3,221.9c-0.1,0-0.2-0.1-0.3-0.1c-1-1.2-1.7-0.9-1.8-0.9c-0.2,0-0.3,0-0.4-0.2
										c-0.1-0.1-0.1-0.3,0-0.3c0,0,0,0,0,0c0,0,0,0,0,0c0,0,1.2-0.5,2.5,1.2c0.1,0.1,0.1,0.3,0,0.4
										C419.5,221.9,419.4,221.9,419.3,221.9z"/>
								</g>
							</g>
							<g id="Group_156">
								<path id="Path_400" class="st18" d="M362.6,291l-90.5-52.2c-7.2-4.1-13-15.2-13-24.8v-38.9c0-9.5,5.8-13.9,13-9.8l90.4,52.2
									c7.1,4.1,13,15.2,13,24.8v38.9C375.5,290.8,369.7,295.2,362.6,291z"/>
								<path id="Path_401" class="st18" d="M252.9,172.4l10.5-7.5l108.4,126.3l-11.5,8.1L252.9,172.4z"/>
								<path id="Path_402" class="st20" d="M351.4,298.9L261,246.7c-7.1-4.1-13-15.2-13-24.8V183c0-9.5,5.8-13.9,13-9.8l90.4,52.2
									c7.1,4.1,13,15.2,13,24.8v38.9C364.3,298.6,358.6,303,351.4,298.9z"/>
							</g>
							<g id="Group_173">
								<g id="Group_157">
									<path id="Path_403" class="st3" d="M290.9,226.1c0,10.2-8.6,14.3-19,9.2c-10.5-5.1-18.9-17.5-18.9-27.6s8.6-14.3,19-9.2
										S290.9,215.9,290.9,226.1z"/>
								</g>
								<g id="Group_158">
									<path id="Path_404" class="st15" d="M265,220.4c0,0-5.2-0.5-6.6,2.6c7.6,12,21.8,17.1,26.8,13.2c-0.2-0.9-0.6-1.7-1-2.5
										c-1.3-2.2-2.9-4.2-4.7-6l-3.3-3.4c0.8,4.3-0.4,6-4.3,4.1c-3.3-1.7-4.7-4.4-4.3-8.2L265,220.4z"/>
								</g>
								<g id="Group_159">
									<path id="Path_405" class="st9" d="M274.5,222.2c-2.2,0-4.9-1.6-6.7-4.2c-0.6-0.8-1.1-1.7-1.5-2.6c-0.9-1.9-1.5-4-1.6-6.1
										c0,0,0-0.5-0.1-1c-0.1-1.2-0.2-2-0.2-2.1c0-0.1,0.1-0.2,0.2-0.2h0c0.2,0,0.3,0.2,0.3,0.3c0,0.1,0.1,1.3,0.2,2.1
										c0,0.5,0.1,1,0.1,1c0.2,3,1.3,5.9,3.1,8.3c2,2.9,5.3,4.5,7.3,3.6c0.5-0.2,0.9-0.4,1.2-0.8c0.8-1.1,1.3-2.8,1.5-5.1
										c0,0,0-0.5,0.1-1c0-0.7,0.1-1.3,0.1-1.4c0-0.1,0.1-0.2,0.3-0.2c0.2,0,0.3,0.2,0.3,0.4c0,0,0,0.6-0.1,1.4
										c0,0.5-0.1,0.9-0.1,1c-0.1,2.4-0.6,4.1-1.6,5.3c-0.4,0.4-0.8,0.7-1.3,0.9C275.5,222.1,275,222.2,274.5,222.2z"/>
								</g>
								<g id="Group_160">
									<path id="Path_406" class="st9" d="M278.5,218.9c-0.1,0-0.2,0-0.3,0c-0.2,0-0.3-0.2-0.3-0.4c0-0.1,0.1-0.2,0.3-0.2
										c0,0,1,0.2,1.5-1.5c0.2-0.5,0.2-1.1-0.1-1.5c-0.1-0.3-0.4-0.4-0.7-0.5c-0.2-0.1-0.3-0.2-0.2-0.4c0-0.1,0.2-0.2,0.3-0.2l0,0
										c0.5,0.2,0.8,0.5,1.1,0.9c0.3,0.6,0.4,1.3,0.2,2C279.8,218.7,278.9,218.9,278.5,218.9z"/>
								</g>
								<g id="Group_161">
									<path id="Path_407" class="st9" d="M265.3,212.5c-0.1,0-0.1,0-0.2,0c0,0-1.5-1.1-2.1-3.7c-0.2-1.1-0.1-1.7,0.3-1.9
										c0.4-0.2,0.9,0,1.2,0.1c0.2,0.1,0.2,0.3,0.1,0.4c0,0,0,0,0,0c-0.1,0.1-0.2,0.1-0.4,0l0,0c-0.1,0-0.4-0.2-0.5-0.1
										c-0.1,0.1-0.3,0.3,0,1.4c0.2,1.3,0.9,2.4,1.8,3.3c0.1,0.1,0.2,0.3,0.1,0.4C265.5,212.5,265.4,212.5,265.3,212.5z"/>
								</g>
								<g id="Group_162">
									<path id="Path_408" class="st9" d="M274,228.1c-0.7,0-1.4-0.2-2-0.5c-4-2-3.7-4.8-3.7-4.9l0.3-3.7c0-0.1,0.1-0.2,0.3-0.2
										c0,0,0,0,0,0c0.2,0.1,0.3,0.2,0.3,0.4l-0.3,3.7c0,0.1-0.3,2.4,3.3,4.2c1.1,0.5,1.8,0.7,2.2,0.4c0.6-0.4,0.5-1.4,0.5-1.4
										l-0.3-3.9c0-0.1,0.1-0.3,0.3-0.3l0,0c0.2,0,0.3,0.2,0.3,0.3l0.3,3.9c0,0,0.2,1.3-0.7,1.9
										C274.6,228.1,274.3,228.1,274,228.1z"/>
								</g>
								<g id="Group_163">
									<path id="Path_409" class="st9" d="M285.1,236.5c-0.1,0-0.3-0.1-0.3-0.3c-0.7-2.6-2.1-4.9-4.1-6.8c-3.1-3-5.8-6.1-5.9-6.2
										c-0.1-0.1-0.1-0.3,0-0.4c0.1-0.1,0.3,0,0.4,0.1l0,0c0,0,2.7,3.1,5.8,6.1c2.1,1.9,3.6,4.4,4.3,7.1
										C285.4,236.4,285.3,236.5,285.1,236.5L285.1,236.5z"/>
								</g>
								<g id="Group_164">
									<path id="Path_410" class="st9" d="M258.4,223.5c-0.1,0-0.1,0-0.1,0c-0.1-0.1-0.2-0.3-0.2-0.4c0.6-1.8,2.4-3,4.4-2.9h0.2
										c2,0,4-0.2,6-0.4c0.2,0,0.3,0.1,0.4,0.2c0,0.1,0,0.3-0.2,0.3c-2,0.3-4.1,0.4-6.1,0.4h-0.2c-1.8-0.1-3.4,1-4,2.6
										C258.6,223.4,258.6,223.4,258.4,223.5C258.5,223.5,258.5,223.5,258.4,223.5L258.4,223.5z"/>
								</g>
								<g id="Group_165">
									<path id="Path_411" class="st9" d="M274.5,229.6c-0.9-0.1-1.8-0.3-2.6-0.7c-1.8-0.8-5.7-3.4-4.5-8.7
										c0.1-0.2,0.2-0.2,0.4-0.2c0.2,0,0.3,0.2,0.2,0.4l0,0c-1,4.7,2.1,7,4,7.9c0.6,0.3,2.2,1.1,3.2,0.5c0.8-0.5,1.1-1.9,0.7-4.1
										c0-0.2,0.1-0.3,0.3-0.3c0.2,0,0.3,0.1,0.4,0.3c0.4,2.5,0,4-0.9,4.6C275.3,229.5,274.9,229.6,274.5,229.6z"/>
								</g>
								<g id="Group_166">
									<path id="Path_412" class="st9" d="M274.4,231.3L274.4,231.3c-0.9-0.1-1.8-0.3-2.6-0.7c-1-0.4-1.8-1-2.6-1.8
										c-0.1-0.1-0.2-0.2-0.1-0.4c0.1-0.1,0.2-0.2,0.4-0.1c0,0,0.1,0,0.1,0.1c0.7,0.7,1.5,1.2,2.4,1.6c0.7,0.4,1.5,0.6,2.3,0.7
										c0.2,0,0.3,0.1,0.4,0.3C274.7,231.2,274.6,231.3,274.4,231.3L274.4,231.3z"/>
								</g>
								<g id="Group_167">
									<path id="Path_413" class="st9" d="M280.2,214.7L280.2,214.7c-0.1,0-0.3-0.1-0.3-0.2c0,0-0.5-1.2-4.7-3.7
										c-0.8-0.5-1.6-1.2-2.4-1.9c-0.1-0.1-0.2-0.2-0.1-0.4c0.1-0.1,0.2-0.2,0.4-0.1c0,0,0.1,0,0.1,0.1c0.7,0.7,1.4,1.3,2.2,1.8
										c1.6,0.9,3.1,2,4.4,3.3c0-0.8-0.1-2.4-0.4-4.1c0-0.1,0.1-0.3,0.2-0.3c0.2,0,0.3,0.1,0.3,0.3c0,0,0,0,0,0l0,0
										c0.3,1.7,0.4,3.3,0.4,5C280.4,214.6,280.4,214.7,280.2,214.7z"/>
								</g>
								<g id="Group_168">
									<path id="Path_414" class="st9" d="M279.5,207.7c-0.1,0-0.3-0.1-0.3-0.2c-1.1-3.4-4.8-7.1-7.4-8.2
										c-0.7-0.3-1.5-0.5-2.1-0.1c-1.3,1-0.6,2.7-0.6,2.8c0.7,1.7,1.6,3.3,2.7,4.8c0.1,0.1,0.1,0.3,0,0.4c-0.1,0.1-0.3,0-0.4-0.1
										v-0.1c-1.1-1.5-2.1-3.2-2.8-5c0,0-0.9-2.2,0.8-3.4c0.6-0.4,1.5-0.4,2.6,0.1c2.8,1.2,6.7,5.1,7.9,8.7
										C279.8,207.5,279.7,207.7,279.5,207.7L279.5,207.7z"/>
								</g>
								<g id="Group_169">
									<path id="Path_415" class="st9" d="M263.5,206.2h-0.4c-0.1,0-0.2-0.1-0.3-0.1c-0.1-0.1-0.1-0.2,0-0.3
										c0.3-0.9,0.5-1.7,0.5-2.6v-0.1c0-1.5,0-4.1,1.4-5.2c0.7-0.4,1.5-0.5,2.2-0.2c0.7,0.2,1.3,0.6,1.9,1l0.3,0.2
										c0.2,0.1,0.2,0.3,0.1,0.4c-0.1,0.1-0.2,0.2-0.3,0.1l0,0l-0.3-0.2c-0.5-0.4-1.1-0.7-1.8-0.9c-0.6-0.2-1.2-0.2-1.7,0.1
										c-1.3,0.9-1.3,3.6-1.3,4.7v0c0,0.8-0.1,1.6-0.4,2.4c1.3,0,4.6-0.4,4.9-3.8c0-0.1,0.1-0.2,0.3-0.2c0.2,0,0.3,0.2,0.3,0.4
										C268.7,205.9,264.7,206.2,263.5,206.2z"/>
								</g>
								<g id="Group_170">
									<path id="Path_416" class="st9" d="M279.7,215.2c-0.1,0-0.2-0.1-0.3-0.1c-0.1-0.1-0.1-0.2-0.1-0.4c0,0,0,0,0,0l0.1-0.1
										l0.5-0.5c0.1-0.1,0.3,0,0.4,0c0.1,0.1,0.1,0.2,0.1,0.4l-0.1,0.1l-0.5,0.5C279.8,215.2,279.7,215.2,279.7,215.2z"/>
								</g>
								<g id="Group_171">
									<path id="Path_417" class="st9" d="M265.8,203.3c-0.1,0-0.1,0-0.2,0c-0.1-0.1-0.2-0.3-0.2-0.4c1.3-2.6,2.8-2.8,2.9-2.8
										c0.2,0,0.3,0.1,0.4,0.3c0,0.1,0,0.3-0.2,0.3c0,0-1.4,0.1-2.5,2.5C266,203.2,265.9,203.3,265.8,203.3z"/>
								</g>
								<g id="Group_172">
									<path id="Path_418" class="st9" d="M280.2,214.4c-0.1,0-0.3-0.1-0.3-0.3c0,0-0.7-2.5-3.2-5.8c-0.1-0.1-0.1-0.3,0-0.4
										c0,0,0,0,0,0l0,0c0.1-0.1,0.3,0,0.4,0.1l0,0c1.4,1.8,2.5,3.8,3.3,6C280.5,214.3,280.4,214.4,280.2,214.4L280.2,214.4z"/>
								</g>
							</g>
							<g id="Group_174">
								<path id="Path_419" class="st15" d="M302.4,213.4l0.9,2.5c0.1,0.3,0.3,0.6,0.6,0.9l2,1.4c0.7,0.5,0.9,1.6,0.5,1.9l-1.4,0.7
									c-0.2,0.2-0.3,0.4-0.2,0.7l0.3,2.4c0.1,0.8-0.6,1-1.2,0.3l-1.7-2c-0.2-0.3-0.5-0.4-0.8-0.5l-1.7,0c-0.6,0-1.3-1-1.2-1.7
									l0.3-2c0-0.3-0.1-0.7-0.2-1l-1.4-2.4c-0.5-0.8-0.2-1.6,0.5-1.3l2,0.8c0.3,0.1,0.5,0,0.6-0.1l0.9-1.5
									C301.3,212,302.1,212.5,302.4,213.4z"/>
								<path id="Path_420" class="st15" d="M313.8,220.2l0.9,2.5c0.1,0.3,0.3,0.6,0.6,0.9l2,1.4c0.7,0.5,0.9,1.6,0.5,1.9l-1.4,0.7
									c-0.2,0.2-0.3,0.4-0.2,0.7l0.3,2.4c0.1,0.8-0.6,1-1.2,0.3l-1.7-2c-0.2-0.3-0.5-0.4-0.8-0.5l-1.7,0c-0.6,0-1.3-1-1.2-1.7
									l0.3-2c0-0.3,0-0.7-0.2-1l-1.4-2.4c-0.5-0.8-0.2-1.6,0.5-1.3l1.9,0.8c0.3,0.1,0.5,0,0.6-0.1l0.9-1.5
									C312.5,218.8,313.4,219.3,313.8,220.2z"/>
								<path id="Path_421" class="st15" d="M325,227l0.9,2.5c0.1,0.3,0.3,0.6,0.6,0.9l2,1.4c0.7,0.5,0.9,1.6,0.5,1.9l-1.4,0.7
									c-0.2,0.2-0.3,0.4-0.2,0.7l0.3,2.4c0.1,0.8-0.6,1-1.2,0.3l-1.7-2c-0.2-0.3-0.5-0.4-0.8-0.5l-1.7,0c-0.6,0-1.3-1-1.2-1.7
									l0.3-2c0-0.3,0-0.7-0.2-1l-1.4-2.4c-0.5-0.8-0.2-1.6,0.5-1.3l2,0.8c0.3,0.1,0.5,0,0.6-0.1l0.9-1.5
									C323.9,225.6,324.8,226.1,325,227z"/>
								<path id="Path_422" class="st15" d="M336.4,233.8l0.9,2.5c0.1,0.3,0.3,0.6,0.6,0.9l2,1.4c0.7,0.5,0.9,1.6,0.5,1.9l-1.4,0.7
									c-0.2,0.2-0.3,0.4-0.2,0.7l0.3,2.4c0.1,0.8-0.6,1-1.2,0.3l-1.7-2c-0.2-0.3-0.5-0.4-0.8-0.5l-1.7,0c-0.6,0-1.3-1-1.2-1.7
									l0.3-2c0-0.3-0.1-0.7-0.2-1l-1.4-2.4c-0.5-0.8-0.2-1.6,0.5-1.3l2,0.8c0.3,0.1,0.5,0,0.6-0.1l0.9-1.5
									C335.2,232.4,336.1,232.9,336.4,233.8z"/>
								<path id="Path_423" class="st15" d="M347.7,240.6l0.9,2.5c0.1,0.3,0.3,0.6,0.6,0.9l2,1.4c0.7,0.5,0.9,1.6,0.5,1.9l-1.4,0.7
									c-0.2,0.2-0.3,0.4-0.2,0.7l0.3,2.4c0.1,0.8-0.6,1-1.2,0.3l-1.7-2c-0.2-0.3-0.5-0.4-0.8-0.5l-1.7,0c-0.6,0-1.3-1-1.2-1.7
									l0.3-2c0-0.3,0-0.7-0.2-1l-1.4-2.4c-0.5-0.8-0.2-1.6,0.5-1.3l2,0.8c0.3,0.1,0.5,0,0.6-0.1l0.9-1.5
									C346.5,239.2,347.4,239.8,347.7,240.6z"/>
							</g>
							<path id="Path_424" class="st15" d="M297.5,414.8l-2.8-0.7c-0.4-0.1-0.8-0.1-1.2,0l-2.5,0.9c-0.9,0.3-2.1-0.1-2-0.7l0.1-1.8
								c0-0.3-0.2-0.5-0.5-0.6l-2.4-1.2c-0.8-0.4-0.6-1.2,0.5-1.3l2.9-0.4c0.3,0,0.7-0.2,0.9-0.5l1-1.6c0.4-0.5,1.7-0.6,2.3-0.1
								l1.6,1.5c0.3,0.3,0.7,0.4,1.1,0.4l3.1,0.1c1.1,0,1.6,0.8,1,1.3l-1.9,1.3c-0.3,0.1-0.4,0.4-0.2,0.7c0,0,0,0,0,0v0l0.9,1.7
								C299.5,414.5,298.5,415,297.5,414.8z"/>
							<path id="Path_425" class="st15" d="M300.4,422.2l2.5,1.6c0.3,0.2,0.7,0.4,1.2,0.3l2.6,0c0.9,0,2,0.8,1.6,1.3l-0.7,1.6
								c-0.1,0.3,0,0.6,0.3,0.8l1.9,1.9c0.7,0.7,0.2,1.3-0.8,1.1l-2.9-0.5c-0.3-0.1-0.7-0.1-1,0.1l-1.5,1.2c-0.5,0.4-1.8,0-2.2-0.7
								l-1.1-2c-0.2-0.3-0.5-0.6-0.9-0.7l-2.8-1.1c-1-0.4-1.3-1.3-0.5-1.5l2.2-0.6c0.3-0.1,0.5-0.3,0.4-0.5l-0.3-1.9
								C298.4,421.8,299.5,421.6,300.4,422.2z"/>
							<path id="Path_426" class="st15" d="M291.1,417.9l2.8,0.7c0.4,0.1,0.8,0.1,1.2,0l2.5-0.9c0.9-0.3,2.1,0.1,2,0.7l-0.1,1.8
								c0,0.3,0.2,0.5,0.5,0.6l2.4,1.2c0.8,0.4,0.6,1.2-0.5,1.3l-2.9,0.4c-0.3,0-0.7,0.2-0.9,0.5l-1,1.6c-0.4,0.5-1.7,0.6-2.3,0.1
								l-1.6-1.5c-0.3-0.3-0.7-0.4-1.1-0.4l-3.1-0.1c-1.1,0-1.6-0.8-1-1.3l1.9-1.3c0.3-0.1,0.4-0.4,0.3-0.7v0l-0.9-1.7
								C289,418.1,290.1,417.7,291.1,417.9z"/>
							<path id="Path_427" class="st15" d="M285.5,426.2l2.8,0.7c0.4,0.1,0.8,0.1,1.2,0l2.5-0.9c0.9-0.3,2.1,0.1,2,0.7l-0.1,1.8
								c0,0.3,0.2,0.6,0.5,0.6l2.4,1.2c0.8,0.4,0.6,1.2-0.5,1.3l-2.9,0.4c-0.3,0-0.7,0.2-0.9,0.5l-1,1.6c-0.4,0.5-1.7,0.6-2.3,0.1
								l-1.6-1.5c-0.3-0.3-0.7-0.4-1.1-0.4l-3.1-0.1c-1.1,0-1.6-0.8-1-1.3l1.9-1.3c0.3-0.1,0.4-0.4,0.2-0.7c0,0,0,0,0,0c0,0,0,0,0,0
								l-0.9-1.7C283.5,426.5,284.5,426,285.5,426.2z"/>
							<path id="Path_428" class="st15" d="M304.1,415.4l2.8,0.7c0.4,0.1,0.8,0.1,1.2,0l2.5-0.9c0.9-0.3,2.1,0.1,2,0.7l-0.1,1.8
								c0,0.3,0.2,0.5,0.5,0.6l2.4,1.2c0.8,0.4,0.6,1.2-0.5,1.3l-2.9,0.4c-0.3,0-0.7,0.2-0.9,0.5l-1,1.6c-0.4,0.5-1.7,0.6-2.3,0.1
								l-1.6-1.5c-0.3-0.3-0.7-0.4-1.1-0.4l-3.1-0.1c-1.1,0-1.6-0.8-1-1.3l1.9-1.3c0.3-0.1,0.4-0.4,0.2-0.7c0,0,0,0,0,0v0l-0.9-1.7
								C302.1,415.7,303.1,415.2,304.1,415.4z"/>
							<path id="Path_429" class="st15" d="M403,440.1l3.1,0.8c0.4,0.1,0.9,0.1,1.3,0l2.7-1c0.9-0.3,2.2,0.1,2.2,0.8l-0.1,1.9
								c0,0.3,0.2,0.5,0.5,0.7l2.6,1.3c0.9,0.4,0.7,1.3-0.5,1.4l-3.2,0.4c-0.4,0-0.7,0.2-0.9,0.5l-1.1,1.8c-0.4,0.6-1.9,0.6-2.5,0.1
								l-1.8-1.6c-0.3-0.3-0.7-0.4-1.1-0.4l-3.3-0.1c-1.2,0-1.8-0.8-1.1-1.3l2-1.4c0.3-0.1,0.4-0.5,0.2-0.7c0,0,0,0,0,0l-0.9-1.9
								C400.8,440.4,401.9,439.8,403,440.1z"/>
							<path id="Path_430" class="st15" d="M212,369.9l2.6,0.6c0.4,0.1,0.7,0.1,1.1,0l2.3-0.8c0.8-0.3,1.9,0.1,1.8,0.7l-0.1,1.6
								c0,0.2,0.1,0.4,0.5,0.6l2.2,1c0.8,0.4,0.5,1.1-0.4,1.2l-2.6,0.3c-0.3,0-0.6,0.2-0.8,0.4l-0.9,1.5c-0.3,0.5-1.5,0.5-2.1,0.1
								l-1.5-1.4c-0.3-0.2-0.6-0.3-0.9-0.3l-2.7-0.1c-1,0-1.5-0.7-0.9-1.1l1.7-1.2c0.2-0.2,0.3-0.4,0.2-0.6l-0.8-1.5
								C210.2,370.1,211.1,369.6,212,369.9z"/>
							<path id="Path_431" class="st15" d="M262.6,304l2.8,0.7c0.4,0.1,0.8,0.1,1.2,0l2.5-0.9c0.9-0.3,2.1,0.1,2,0.7l-0.1,1.8
								c0,0.3,0.2,0.5,0.5,0.6l2.4,1.2c0.8,0.4,0.6,1.2-0.5,1.3l-2.9,0.4c-0.3,0-0.7,0.2-0.9,0.5l-1,1.6c-0.4,0.5-1.7,0.6-2.3,0.1
								l-1.6-1.5c-0.3-0.3-0.7-0.4-1.1-0.4l-3.1-0.1c-1.1,0-1.6-0.8-1-1.3l1.9-1.3c0.3-0.1,0.4-0.4,0.3-0.7v0l-0.9-1.7
								C260.6,304.3,261.6,303.8,262.6,304z"/>
							<path id="Path_432" class="st15" d="M256.8,309.9l2.9,0c0.4,0,0.8-0.1,1.2-0.3l2.2-1.5c0.8-0.5,2-0.4,2.1,0.2l0.3,1.8
								c0,0.2,0.3,0.4,0.6,0.5l2.6,0.5c0.9,0.2,0.8,1-0.1,1.4l-2.8,1c-0.3,0.1-0.6,0.3-0.7,0.6l-0.6,1.8c-0.2,0.7-1.5,1-2.2,0.6
								l-2-1.1c-0.3-0.1-0.7-0.2-1.1-0.1l-3,0.5c-1.1,0.2-1.8-0.4-1.3-1l1.6-1.7c0.2-0.2,0.2-0.5,0.1-0.7l-1.3-1.5
								C254.9,310.6,255.8,309.9,256.8,309.9z"/>
							<path id="Path_433" class="st15" d="M283.7,307.8l2.8,0.9c0.4,0.1,0.8,0.1,1.2,0l2.6-0.8c0.9-0.3,2.1,0.2,2,0.8l-0.2,1.8
								c0,0.2,0.1,0.5,0.5,0.7l2.4,1.3c0.8,0.5,0.5,1.2-0.5,1.3l-3,0.2c-0.3,0-0.7,0.2-0.9,0.4l-1.1,1.6c-0.4,0.5-1.8,0.5-2.3,0
								l-1.6-1.6c-0.3-0.2-0.6-0.4-1-0.4l-3-0.3c-1.1-0.1-1.6-0.9-0.9-1.3l2-1.2c0.2-0.1,0.4-0.4,0.3-0.7l-0.8-1.8
								C281.7,307.9,282.7,307.5,283.7,307.8z"/>
							<path id="Path_434" class="st15" d="M268,307.8l2.6,1.5c0.4,0.2,0.8,0.3,1.2,0.3l2.6-0.2c0.9-0.1,2,0.7,1.8,1.3l-0.6,1.6
								c-0.1,0.2,0,0.5,0.3,0.7l2,1.8c0.7,0.6,0.2,1.3-0.8,1.1l-2.9-0.5c-0.3-0.1-0.7,0-1,0.2l-1.4,1.3c-0.5,0.5-1.8,0.1-2.2-0.5
								l-1.2-1.9c-0.2-0.3-0.6-0.5-0.9-0.6l-2.9-1c-1-0.3-1.4-1.2-0.6-1.5l2.2-0.7c0.3-0.1,0.5-0.3,0.4-0.6l0,0l-0.4-1.9
								C266,307.5,267.1,307.3,268,307.8z"/>
							<path id="Path_435" class="st15" d="M450.6,220.2l0.9,2.5c0.1,0.3,0.3,0.6,0.6,0.9l2,1.4c0.7,0.5,0.9,1.6,0.5,1.9l-1.4,0.7
								c-0.2,0.2-0.3,0.4-0.2,0.7l0.3,2.4c0.1,0.8-0.6,1-1.2,0.3l-1.7-2c-0.2-0.3-0.5-0.4-0.8-0.5l-1.7,0c-0.6,0-1.3-1-1.2-1.7
								l0.3-2c0-0.3-0.1-0.7-0.2-1l-1.4-2.4c-0.5-0.8-0.2-1.6,0.5-1.3l2,0.8c0.3,0.1,0.5,0,0.6-0.1l0.9-1.5
								C449.4,218.9,450.2,219.4,450.6,220.2z"/>
							<path id="Path_436" class="st15" d="M461.8,227l0.9,2.5c0.1,0.3,0.3,0.6,0.6,0.9l2,1.4c0.7,0.5,0.9,1.6,0.5,1.9l-1.4,0.7
								c-0.2,0.2-0.3,0.4-0.2,0.7l0.3,2.4c0.1,0.8-0.6,1-1.2,0.3l-1.7-2c-0.2-0.3-0.5-0.4-0.8-0.5l-1.7,0c-0.6,0-1.3-1-1.2-1.7
								l0.3-2c0-0.3-0.1-0.7-0.2-1l-1.4-2.4c-0.5-0.8-0.2-1.6,0.5-1.3l2,0.8c0.3,0.1,0.5,0,0.6-0.1l0.9-1.5
								C460.7,225.6,461.6,226.1,461.8,227z"/>
							<path id="Path_437" class="st15" d="M473.2,233.9l0.9,2.5c0.1,0.3,0.3,0.6,0.6,0.9l2,1.4c0.7,0.5,0.9,1.6,0.5,1.9l-1.4,0.7
								c-0.2,0.2-0.3,0.4-0.2,0.7l0.3,2.4c0.1,0.8-0.6,1-1.2,0.3l-1.7-2c-0.2-0.3-0.5-0.4-0.8-0.5l-1.7,0c-0.6,0-1.3-1-1.2-1.7
								l0.3-2c0-0.3-0.1-0.7-0.2-1l-1.4-2.4c-0.5-0.8-0.2-1.6,0.5-1.3l2,0.8c0.3,0.1,0.5,0,0.6-0.1l0.9-1.5
								C472,232.5,472.9,233,473.2,233.9z"/>
							<path id="Path_438" class="st15" d="M484.5,240.7l0.9,2.5c0.1,0.3,0.3,0.6,0.6,0.9l2,1.4c0.7,0.5,0.9,1.6,0.5,1.9l-1.4,0.7
								c-0.2,0.2-0.3,0.4-0.2,0.7l0.3,2.4c0.1,0.8-0.6,1-1.2,0.3l-1.7-2c-0.2-0.3-0.5-0.4-0.8-0.5l-1.7,0c-0.6,0-1.3-1-1.2-1.7
								l0.3-2c0-0.3,0-0.7-0.2-1l-1.4-2.4c-0.5-0.8-0.2-1.6,0.5-1.3l2,0.8c0.3,0.1,0.5,0,0.6-0.1l0.9-1.5
								C483.3,239.3,484.2,239.8,484.5,240.7z"/>
							<path id="Path_439" class="st17" d="M495.8,247.5l0.9,2.5c0.1,0.3,0.3,0.6,0.6,0.9l2,1.4c0.7,0.5,0.9,1.6,0.5,1.9l-1.4,0.7
								c-0.2,0.2-0.3,0.4-0.2,0.7l0.3,2.4c0.1,0.8-0.6,1-1.2,0.3l-1.7-2c-0.2-0.3-0.5-0.4-0.8-0.5l-1.7,0c-0.6,0-1.3-1-1.2-1.7
								l0.3-2c0-0.3,0-0.7-0.2-1l-1.4-2.4c-0.5-0.8-0.2-1.6,0.5-1.3l2,0.8c0.3,0.1,0.5,0,0.6-0.1l0.9-1.5
								C494.6,246.1,495.5,246.6,495.8,247.5z"/>
							<g id="Group_175">
								<path id="Path_440" class="st15" d="M313.8,91.5l0.9,2.5c0.1,0.3,0.3,0.6,0.6,0.9l2,1.4c0.7,0.5,0.9,1.6,0.5,1.9l-1.4,0.7
									c-0.2,0.2-0.3,0.4-0.2,0.7l0.3,2.4c0.1,0.8-0.6,1-1.2,0.3l-1.7-2c-0.2-0.3-0.5-0.4-0.8-0.5l-1.7,0c-0.6,0-1.3-1-1.2-1.7
									l0.3-2c0-0.3,0-0.7-0.2-1l-1.4-2.4c-0.5-0.8-0.2-1.6,0.5-1.3l1.9,0.8c0.3,0.1,0.5,0,0.6-0.1l0.9-1.5
									C312.5,90.2,313.4,90.6,313.8,91.5z"/>
								<path id="Path_441" class="st15" d="M325,98.3l0.9,2.5c0.1,0.3,0.3,0.6,0.6,0.9l2,1.4c0.7,0.5,0.9,1.6,0.5,1.9l-1.4,0.7
									c-0.2,0.2-0.3,0.4-0.2,0.7l0.3,2.4c0.1,0.8-0.6,1-1.2,0.3l-1.7-2c-0.2-0.3-0.5-0.4-0.8-0.5l-1.7,0c-0.6,0-1.3-1-1.2-1.7
									l0.3-2c0-0.3,0-0.7-0.2-1l-1.4-2.4c-0.5-0.8-0.2-1.6,0.5-1.3l1.9,0.8c0.3,0.1,0.5,0,0.6-0.1l0.9-1.5
									C323.9,96.9,324.8,97.4,325,98.3z"/>
								<path id="Path_442" class="st15" d="M336.4,105.1l0.9,2.5c0.1,0.3,0.3,0.6,0.6,0.9l2,1.4c0.7,0.5,0.9,1.6,0.5,1.9l-1.4,0.7
									c-0.2,0.2-0.3,0.4-0.2,0.7l0.3,2.4c0.1,0.8-0.6,1-1.2,0.3l-1.7-2c-0.2-0.3-0.5-0.4-0.8-0.5l-1.7,0c-0.6,0-1.3-1-1.2-1.7
									l0.3-2c0-0.3-0.1-0.7-0.2-1l-1.4-2.4c-0.5-0.8-0.2-1.6,0.5-1.3l2,0.8c0.3,0.1,0.5,0,0.6-0.1l0.9-1.5
									C335.2,103.7,336.1,104.3,336.4,105.1z"/>
								<path id="Path_443" class="st15" d="M347.7,112l0.9,2.5c0.1,0.3,0.3,0.7,0.6,0.9l2,1.4c0.7,0.5,0.9,1.6,0.5,1.9l-1.4,0.7
									c-0.2,0.2-0.3,0.4-0.2,0.7l0.3,2.4c0.1,0.8-0.6,1-1.2,0.3l-1.7-2c-0.2-0.3-0.5-0.4-0.8-0.5l-1.7,0c-0.6,0-1.3-1-1.2-1.7
									l0.3-2c0-0.3,0-0.7-0.2-1l-1.4-2.4c-0.5-0.8-0.2-1.6,0.5-1.3l2,0.8c0.3,0.1,0.5,0,0.6-0.1l0.9-1.5
									C346.5,110.6,347.4,111.1,347.7,112z"/>
								<path id="Path_444" class="st18" d="M359,118.8l0.9,2.5c0.1,0.3,0.3,0.6,0.6,0.9l2,1.4c0.7,0.5,0.9,1.6,0.5,1.9l-1.4,0.7
									c-0.2,0.2-0.3,0.4-0.2,0.7l0.3,2.4c0.1,0.8-0.6,1-1.2,0.3l-1.7-2c-0.2-0.3-0.5-0.4-0.8-0.5l-1.7,0c-0.6,0-1.3-1-1.2-1.7
									l0.3-2c0-0.3,0-0.7-0.2-1l-1.4-2.4c-0.5-0.8-0.2-1.6,0.5-1.3l1.9,0.8c0.3,0.1,0.5,0,0.6-0.1l0.9-1.5
									C357.8,117.4,358.7,117.9,359,118.8z"/>
							</g>
							<path id="Path_445" class="st17" d="M487.9,245.5l-2-1.4c-0.3-0.2-0.5-0.5-0.6-0.9l-0.9-2.5c-0.1-0.4-0.4-0.7-0.7-1v9.5
								c0.1,0.1,0.3,0.2,0.4,0.3l1.7,2c0.6,0.7,1.3,0.5,1.2-0.3l-0.3-2.4c-0.1-0.3,0-0.5,0.2-0.7l1.4-0.7
								C488.9,247.1,488.6,246,487.9,245.5z"/>
							<g id="Group_178">
								<path id="Path_446" class="st17" d="M262.1,198c0.8-6.1-2.8-13-8.1-15.4c-2.1-1-4.6-1.1-6.8-0.1l0,0
									c-0.3,0.1-0.5,0.3-0.7,0.5l-4.6,2.9l2.3-0.5c-0.7,1.2-1.2,2.6-1.3,3.9c-0.8,6.1,2.8,13,8.1,15.4c1,0.5,2.1,0.7,3.2,0.8
									l0.5,1.2l3.2-2c0.2-0.1,0.3-0.2,0.5-0.3l0,0l0,0C260.4,203.2,261.7,201,262.1,198z"/>
								<path id="Path_447" class="st10" d="M258,200.6c-0.8,6.1-5.8,9.2-11.2,6.7c-5.3-2.4-9-9.2-8.1-15.4
									c0.8-6.1,5.8-9.1,11.2-6.7S258.8,194.5,258,200.6z"/>
								<g id="Group_177">
									<g id="Group_176">
										<path id="Path_448" class="st3" d="M240.3,191.3c1.5,3.8,3,7.6,4.5,11.3c0.7,1.7,2.7,2.5,4.2,1.1c1.9-1.8,3.8-3.6,5.8-5.4
											c2.4-2.2-1.2-5.8-3.5-3.5c-1.9,1.8-3.8,3.6-5.8,5.4l4.2,1.1c-1.5-3.8-3-7.6-4.5-11.3C243.9,186.9,239.1,188.3,240.3,191.3
											L240.3,191.3z"/>
									</g>
								</g>
							</g>
							<path id="Path_449" class="st3" d="M346.4,272.1l-44.1-25.5c-1-0.5-1.8-2.1-1.8-3.4l0,0c0-1.3,0.8-1.9,1.8-1.3l44.1,25.5
								c1.1,0.8,1.7,2,1.8,3.4l0,0C348.1,272.1,347.3,272.6,346.4,272.1z"/>
							<path id="Path_450" class="st3" d="M321,248.5l-18.8-10.8c-1.1-0.8-1.7-2-1.8-3.4l0,0c0-1.3,0.8-1.9,1.8-1.3l18.8,10.8
								c1,0.5,1.8,2.1,1.8,3.4l0,0C322.8,248.5,322,249.1,321,248.5z"/>
							<path id="Path_451" class="st3" d="M346.1,263l-17.3-10c-1-0.5-1.8-2.1-1.8-3.4l0,0c0-1.3,0.8-1.9,1.8-1.3l17.3,10
								c1,0.5,1.8,2.1,1.8,3.4l0,0C347.9,263,347.1,263.6,346.1,263z"/>
							<path id="Path_452" class="st3" d="M491.6,279.1l-44.1-25.5c-1.1-0.8-1.7-2-1.8-3.4l0,0c0-1.3,0.8-1.9,1.8-1.3l44.1,25.5
								c1,0.5,1.8,2.1,1.8,3.4l0,0C493.3,279,492.6,279.6,491.6,279.1z"/>
							<path id="Path_453" class="st3" d="M466.3,255.5l-18.8-10.8c-1-0.5-1.8-2.1-1.8-3.4l0,0c0-1.3,0.8-1.9,1.8-1.3l18.8,10.8
								c1.1,0.8,1.7,2,1.8,3.4l0,0C468,255.4,467.2,256,466.3,255.5z"/>
							<path id="Path_454" class="st3" d="M491.3,270l-17.3-10c-1-0.5-1.8-2.1-1.8-3.4l0,0c0-1.3,0.8-1.9,1.8-1.3l17.3,10
								c1.1,0.8,1.7,2,1.8,3.4l0,0C493.1,269.9,492.3,270.5,491.3,270z"/>
							<path id="Path_455" class="st3" d="M353.9,149.7l-44.1-25.5c-1.1-0.8-1.7-2-1.8-3.4l0,0c0-1.3,0.8-1.9,1.8-1.3l44.1,25.5
								c1.1,0.8,1.7,2,1.8,3.4l0,0C355.7,149.6,354.9,150.2,353.9,149.7z"/>
							<path id="Path_456" class="st3" d="M328.6,126.1l-18.8-10.8c-1.1-0.8-1.7-2-1.8-3.4l0,0c0-1.3,0.8-1.9,1.8-1.3l18.8,10.8
								c1.1,0.8,1.7,2,1.8,3.4l0,0C330.3,126.1,329.5,126.7,328.6,126.1z"/>
							<path id="Path_457" class="st3" d="M353.7,140.6l-17.3-10c-1.1-0.8-1.7-2-1.8-3.4l0,0c0-1.3,0.8-1.9,1.8-1.3l17.3,10
								c1.1,0.8,1.7,2,1.8,3.4l0,0C355.4,140.5,354.6,141.1,353.7,140.6z"/>
							<g id="Group_181">
								<path id="Path_458" class="st16" d="M347.4,380.3c-1.3,4.6,0.6,9.5,4.6,12.1c0,0,3.1,0.6,2.9-3.1c-0.2-3.8-0.4-9.1-0.4-9.1
									L347.4,380.3z"/>
								<g id="Group_180">
									<path id="Path_459" class="st5" d="M350.1,329.4c3.9,15.1-1.2,28.4-11.5,29.8c-10.3,1.4-21.8-9.7-25.8-24.8
										s1.2-28.4,11.5-29.8C334.6,303.2,346.1,314.3,350.1,329.4z"/>
									<path id="Path_460" class="st22" d="M369,375l-3.7,7.9l-17.3-24.6l3.7-7.9L369,375z"/>
									<g id="Group_179">
										<path id="Path_461" class="st17" d="M363.6,363.1c3.7-0.6,5.6,1.7,4.3,5.2c-1.3,3.5-5.3,6.8-9,7.5s-5.6-1.7-4.3-5.2
											S359.9,363.7,363.6,363.1z"/>
										<path id="Path_462" class="st17" d="M375.9,403.7l-21-28.9l13-10.2l21.1,29.1L375.9,403.7z"/>
										<path id="Path_463" class="st17" d="M384.8,392.3c3.7-0.6,5.6,1.7,4.3,5.2c-1.3,3.5-5.3,6.8-9,7.5
											c-3.7,0.6-5.6-1.7-4.3-5.2C377.1,396.3,381.1,392.9,384.8,392.3z"/>
										<path id="Path_464" class="st17" d="M389.8,422.6l-21-28.9l13-10.2l21.1,29.1L389.8,422.6z"/>
										<path id="Path_465" class="st17" d="M398.6,411.2c3.7-0.6,5.6,1.7,4.3,5.2c-1.3,3.5-5.3,6.8-9,7.5s-5.6-1.7-4.3-5.2
											C390.9,415.2,394.9,411.8,398.6,411.2z"/>
									</g>
									<path id="Path_466" class="st3" d="M331,317.4l-5.9,17.1c-0.3,0.9-1.3,0.9-2.2,0l0,0c-0.9-0.9-1.4-2.3-1.1-3.2l5.9-17.1
										c0.3-0.9,1.3-0.9,2.2,0l0,0C330.8,315.1,331.3,316.5,331,317.4z"/>
									<path id="Path_467" class="st3" d="M336.9,324.8l-5.9,17.1c-0.3,0.9-1.3,0.9-2.2,0l0,0c-0.9-0.9-1.4-2.3-1.1-3.2l5.9-17.1
										c0.3-0.9,1.3-0.9,2.2,0l0,0C336.7,322.5,337.2,323.9,336.9,324.8z"/>
									<path id="Path_468" class="st22" d="M337.4,304.5c-13.1-5.8-24,1.8-24.6,16.9c-0.6,15.1,9.6,32,22.7,37.8
										c13.1,5.8,24-1.8,24.6-16.9C360.6,327.3,350.5,310.3,337.4,304.5z M356.5,340.8c-0.4,12.8-9.8,19.2-20.8,14.3
										c-11.1-4.9-19.7-19.3-19.3-32.1c0.4-12.8,9.8-19.2,20.8-14.3C348.3,313.6,357,327.9,356.5,340.8z"/>
									<path id="Path_469" class="st21" d="M360.6,333.6c0-0.3-0.1-0.6-0.1-1c0-0.1,0-0.1,0-0.2c0-0.1,0-0.3-0.1-0.5
										c0-0.1,0-0.4-0.1-0.5c0-0.1,0-0.2,0-0.3c-0.1-0.2-0.1-0.3-0.1-0.5c0-0.1,0-0.3-0.1-0.4c-0.1-0.1-0.1-0.3-0.1-0.5
										c0-0.2-0.1-0.3-0.1-0.5c0-0.1,0-0.2,0-0.2c0-0.2-0.1-0.4-0.2-0.6l-0.1-0.4c0-0.1,0-0.1,0-0.1c-0.1-0.4-0.2-0.8-0.4-1.2l0,0
										c0,0,0-0.1,0-0.1c-0.1-0.3-0.2-0.7-0.4-1c0,0,0-0.1,0-0.1c0,0-0.1-0.3-0.1-0.4c-0.1-0.1-0.1-0.4-0.2-0.5
										c0-0.2-0.1-0.2-0.1-0.4c0-0.1-0.1-0.3-0.2-0.4c-0.1-0.1-0.1-0.2-0.1-0.3c-0.1-0.2-0.2-0.4-0.3-0.6c0-0.1-0.1-0.2-0.1-0.3
										s0-0.1,0-0.1c-0.2-0.4-0.3-0.7-0.5-1.1v0c-0.1-0.1-0.1-0.2-0.1-0.3l-0.4-0.8c0,0,0-0.1,0-0.1c-0.1-0.2-0.2-0.4-0.4-0.6
										c-0.1-0.2-0.2-0.3-0.3-0.5c0,0,0,0,0-0.1l-1-1.6c0,0,0-0.1-0.1-0.1l-0.3-0.4l-0.4-0.7c-0.1-0.2-0.3-0.4-0.4-0.6
										c-0.1-0.2-0.3-0.5-0.5-0.7c0-0.1-0.1-0.1-0.1-0.2c-0.1-0.2-0.2-0.3-0.4-0.5c-0.1-0.1-0.2-0.2-0.2-0.4
										c-0.3-0.4-0.5-0.7-0.8-1.1l0,0c-0.3-0.4-0.6-0.8-1-1.2l0,0c-0.2-0.3-0.5-0.5-0.7-0.8c-0.1-0.1-0.1-0.1-0.1-0.2l0,0
										c-0.3-0.3-0.6-0.6-0.9-0.9l0,0l-0.3-0.3l-0.5-0.5c0,0-0.1,0-0.1-0.1c-0.1-0.1-0.3-0.2-0.4-0.4c-0.1-0.1-0.3-0.3-0.5-0.4
										c-0.1-0.1-0.1-0.1-0.2-0.1c-0.1-0.1-0.3-0.2-0.4-0.4s-0.2-0.2-0.4-0.3c-0.1-0.1-0.1-0.1-0.2-0.2c-0.1-0.1-0.3-0.3-0.5-0.4
										c-0.1-0.1-0.2-0.2-0.3-0.3c-0.1-0.1-0.2-0.1-0.3-0.2c-0.1-0.1-0.3-0.2-0.5-0.4c-0.1-0.1-0.2-0.1-0.3-0.2s-0.2-0.1-0.3-0.2
										c-0.1-0.1-0.3-0.2-0.5-0.3c-0.1,0-0.2-0.1-0.2-0.2l-0.4-0.3c-0.1-0.1-0.3-0.2-0.5-0.3c-0.1,0-0.1-0.1-0.2-0.1
										c-0.2-0.1-0.4-0.2-0.5-0.3c-0.2-0.1-0.2-0.1-0.4-0.2c0,0,0,0-0.1,0c-0.3-0.2-0.7-0.4-1-0.5l0,0c0,0,0,0-0.1,0l-0.9-0.4
										c-0.1,0-0.1-0.1-0.2-0.1c-0.2-0.1-0.5-0.2-0.7-0.3c-0.1,0-0.2-0.1-0.3-0.1c-0.1,0-0.3-0.1-0.4-0.1
										c-0.1-0.1-0.2-0.1-0.3-0.1c-0.1,0-0.3-0.1-0.5-0.1c-0.1-0.1-0.2-0.1-0.3-0.1c0,0-0.1,0-0.1,0c-0.3-0.1-0.7-0.2-0.9-0.3l0,0
										c-0.3-0.1-0.7-0.1-1-0.2c-0.1,0-0.1,0-0.1,0c-0.1,0-0.2,0-0.3,0c-0.1,0-0.3,0-0.5-0.1c-0.1,0-0.2,0-0.2,0
										c-0.1,0-0.3,0-0.4,0s-0.2,0-0.3,0c-0.1,0-0.2,0-0.3,0c-0.1,0-0.3,0-0.4,0h-2.3c-0.1,0-0.2,0-0.3,0c-0.2,0-0.4,0-0.6,0h-0.2
										c-0.2,0-0.5,0-0.7,0.1h-0.1c-0.2,0-0.3,0-0.5,0.1c-0.1,0-0.2,0.1-0.3,0.1c-0.1,0-0.1,0-0.2,0c-0.3,0.1-0.5,0.1-0.8,0.2h0
										c-0.1,0-0.1,0-0.2,0.1l-0.7,0.3l-0.3,0.1c-0.1,0-0.3,0.1-0.4,0.2c0,0-0.1,0-0.1,0c-0.2,0.1-0.4,0.2-0.6,0.3
										c-0.1,0-0.2,0.1-0.3,0.2c-0.3,0.2-0.6,0.4-0.9,0.6l-4.9,3.4c0.3-0.2,0.6-0.4,0.9-0.6c0.1-0.1,0.2-0.1,0.3-0.2
										c0.2-0.1,0.4-0.2,0.6-0.3c0.2-0.1,0.4-0.2,0.5-0.2c0.1,0,0.2-0.1,0.3-0.1l0.7-0.3c0.1,0,0.1,0,0.2-0.1
										c0.3-0.1,0.5-0.2,0.9-0.3c0.1,0,0.1,0,0.2,0c0.3,0,0.5-0.1,0.8-0.2h0.1l0.8-0.1c0.2,0,0.4-0.1,0.6,0c0.2,0,0.3,0,0.5,0h1.5
										c0.2,0,0.4,0,0.6,0c0.1,0,0.3,0,0.4,0c0.2,0,0.4,0,0.7,0.1c0.1,0,0.3,0,0.4,0l0.7,0.1c0.1,0,0.2,0,0.3,0
										c0.4,0.1,0.7,0.1,1.1,0.2l0,0c0.4,0.1,0.7,0.2,1.1,0.3c0.1,0.1,0.2,0.1,0.3,0.1c0.3,0.1,0.5,0.2,0.8,0.3
										c0.1,0,0.3,0.1,0.4,0.1c0.3,0.1,0.7,0.3,1,0.4c0.3,0.1,0.8,0.4,1.2,0.5c0,0,0,0,0,0l0,0c0.4,0.2,0.7,0.4,1.1,0.6
										c0.1,0.1,0.2,0.1,0.4,0.2c0.2,0.1,0.5,0.3,0.7,0.4c0.1,0.1,0.3,0.2,0.5,0.3c0.2,0.1,0.4,0.3,0.7,0.4
										c0.1,0.1,0.3,0.2,0.5,0.3s0.4,0.3,0.6,0.4c0.2,0.1,0.3,0.2,0.5,0.4c0.1,0.1,0.4,0.3,0.6,0.5c0.2,0.1,0.3,0.2,0.5,0.4
										c0.1,0.1,0.4,0.3,0.6,0.5c0.2,0.2,0.3,0.2,0.4,0.4s0.4,0.4,0.6,0.5c0.2,0.2,0.3,0.2,0.4,0.4l0.7,0.7l0.3,0.3
										c0.3,0.3,0.6,0.7,0.9,1l0.1,0.1c0.3,0.3,0.5,0.6,0.8,0.9c0.3,0.4,0.7,0.8,1,1.2l0,0c0.3,0.4,0.5,0.7,0.8,1.1
										c0.1,0.1,0.2,0.2,0.2,0.4c0.2,0.2,0.4,0.5,0.5,0.7c0.1,0.2,0.3,0.4,0.5,0.6c0.1,0.2,0.3,0.4,0.4,0.6l0.4,0.7
										c0.1,0.2,0.2,0.4,0.4,0.5l1,1.7c0.1,0.2,0.2,0.4,0.3,0.7c0.1,0.2,0.2,0.5,0.4,0.6c0.1,0.3,0.3,0.6,0.5,0.9
										c0.1,0.1,0.1,0.2,0.1,0.3l0.5,1.3c0,0.1,0.1,0.2,0.1,0.3c0.1,0.3,0.3,0.6,0.4,0.9c0,0.1,0.1,0.3,0.2,0.4
										c0.1,0.3,0.2,0.6,0.3,0.9c0,0.1,0.1,0.3,0.1,0.4c0.1,0.4,0.3,0.8,0.4,1.2c0,0,0,0,0,0.1c0.1,0.4,0.3,0.9,0.4,1.3l0.1,0.4
										c0.1,0.3,0.2,0.6,0.2,0.9c0,0.2,0.1,0.3,0.1,0.5c0,0.3,0.1,0.5,0.2,0.8c0.1,0.2,0.1,0.3,0.1,0.5c0,0.3,0.1,0.6,0.2,0.9
										c0,0.1,0,0.3,0.1,0.5c0,0.4,0.1,0.8,0.2,1.2c0,0.1,0,0.1,0,0.2c0,0.4,0.1,0.9,0.1,1.3c0,0.1,0,0.3,0,0.4
										c0,0.3,0.1,0.6,0,0.9v0.5c0,0.3,0,0.6,0,0.9v1.6c0,0.4,0,0.9-0.1,1.3c0,0.1,0,0.3,0,0.4c0,0.3,0,0.6-0.1,0.9
										c0,0.2,0,0.3,0,0.5c-0.1,0.2-0.1,0.5-0.1,0.7c0,0.2,0,0.4-0.1,0.5c0,0.2-0.1,0.5-0.1,0.6c0,0.2-0.1,0.4-0.1,0.6
										c0,0.2-0.1,0.4-0.1,0.6c0,0.2-0.1,0.5-0.2,0.7c0,0.2-0.1,0.3-0.1,0.5c-0.1,0.3-0.2,0.5-0.3,0.8c0,0.1-0.1,0.3-0.2,0.5
										c0,0.1,0,0.1-0.1,0.2c-0.1,0.3-0.2,0.5-0.4,0.8c0,0,0,0.1-0.1,0.1c-0.1,0.3-0.3,0.7-0.5,1l0,0c-0.2,0.3-0.3,0.6-0.5,0.9
										c-0.1,0-0.1,0.1-0.1,0.2c-0.1,0.2-0.3,0.4-0.4,0.7c-0.1,0.1-0.1,0.2-0.2,0.2l-0.4,0.5c0,0-0.1,0.1-0.2,0.2
										c-0.2,0.2-0.4,0.5-0.6,0.7l-0.1,0.1l-0.5,0.5c-0.1,0-0.1,0.1-0.2,0.2c-0.2,0.1-0.3,0.3-0.5,0.4c-0.1,0-0.1,0.1-0.2,0.2
										c-0.2,0.2-0.5,0.4-0.7,0.5l4.9-3.4c0.2-0.2,0.5-0.4,0.7-0.5c0.1,0,0.1-0.1,0.2-0.2c0.2-0.1,0.3-0.3,0.5-0.4
										c0.1,0,0.1-0.1,0.2-0.2l0.5-0.5l0.1-0.1c0.2-0.2,0.4-0.5,0.6-0.7c0.1-0.1,0.1-0.1,0.2-0.2l0.4-0.5c0-0.1,0.1-0.2,0.2-0.2
										c0.1-0.2,0.3-0.4,0.4-0.7c0.1,0,0.1-0.1,0.1-0.2c0,0,0,0,0,0c0,0,0,0,0,0l0,0c0.2-0.3,0.3-0.5,0.5-0.8l0,0
										c0.1-0.3,0.3-0.6,0.5-0.9c0,0,0,0,0,0l0,0c0,0,0-0.1,0.1-0.1c0.1-0.3,0.2-0.5,0.4-0.8c0-0.1,0-0.1,0.1-0.2
										c0-0.1,0-0.1,0.1-0.2c0.1-0.1,0.1-0.2,0.1-0.3c0.1-0.3,0.2-0.5,0.3-0.8c0-0.1,0-0.1,0.1-0.2c0-0.1,0.1-0.2,0.1-0.3
										c0-0.2,0.1-0.5,0.2-0.7c0-0.1,0-0.2,0.1-0.3c0-0.1,0.1-0.2,0.1-0.3c0-0.1,0.1-0.4,0.1-0.6c0-0.1,0-0.2,0-0.3
										c0-0.1,0.1-0.2,0-0.4c0-0.2,0-0.4,0.1-0.5c0-0.1,0-0.2,0-0.3c0-0.2,0.1-0.3,0-0.5c0-0.2,0-0.3,0-0.5c0-0.1,0-0.1,0-0.2
										c0-0.2,0.1-0.5,0-0.7c0-0.1,0-0.2,0-0.4v-0.1c0-0.4,0.1-0.8,0-1.2V336c0-0.2,0-0.4,0-0.6c0-0.1,0-0.3,0-0.4v-0.1l-0.1-1.2
										v0C360.6,333.7,360.6,333.6,360.6,333.6z"/>
									<path id="Path_470" class="st23" d="M333.7,304.2c-6.4-2.8-12.5-2.7-17.3,0.3c-5.2,3.3-8.2,9.4-8.5,17.3
										c-0.5,15.4,9.9,32.7,23.2,38.7c3.9,1.7,7.7,2.4,11.2,1.9c2.2-0.3,4.3-1,6.1-2.2c5.2-3.3,8.2-9.4,8.5-17.3
										C357.5,327.5,347.1,310.1,333.7,304.2z M351.6,341.3c-0.2,6.1-2.5,10.9-6.4,13.3c-3.6,2.3-8.3,2.3-13.2,0.2
										c-10.7-4.8-19.1-18.8-18.7-31.2c0.2-6.1,2.5-10.9,6.4-13.3c1.4-0.9,2.9-1.4,4.6-1.6c2.6-0.4,5.6,0.1,8.6,1.4
										C343.6,314.8,352,328.8,351.6,341.3L351.6,341.3z"/>
								</g>
								<path id="Path_471" class="st24" d="M358,371.3l-4.7,13.2c-0.6,1-10.2-3.8-9.4-5.4c0.1-0.3,5.3-16.3,10.7-18.9
									C359,358.2,360.4,365.2,358,371.3z"/>
								<path id="Path_472" class="st16" d="M366.8,363l-0.4,0c-1.3-0.1-2.2-1.2-2.2-2.5l0.5-7.1c0.1-1.3,1.2-2.2,2.5-2.2l0.4,0
									c1.3,0.1,2.2,1.2,2.2,2.5l0.5,7C370.2,361.8,368.1,363,366.8,363z"/>
								<path id="Path_473" class="st16" d="M366.2,354.1c1.5,3.1,4.1,3.6,5.8,1.1c1.7-2.5,1.9-7,0.4-10.1c-1.5-3.1-4.1-3.6-5.8-1.1
									S364.7,350.9,366.2,354.1z"/>
								<path id="Path_474" class="st25" d="M365.7,345.5c0,0,1.2,6.3-3.7,8.1c0,0-5.9-2.8-2.2-9.3c3.3-5.7,9.5-2,9.5-2L365.7,345.5
									z"/>
								<path id="Path_475" class="st25" d="M372.9,346.6c-1.4-1.4-3.4-2-5.3-1.6l1.6-2.6C369.2,342.3,371.9,341.7,372.9,346.6z"/>
								<path id="Path_476" class="st18" d="M363.4,349.4c1.1-1.6,3.6-1.8,7.4-0.6c3.4,0,3.6-3.9,3.6-3.9c0.4-2.1-1.1-2.9-3.2-3.3
									l-5.5-1c-3.1-0.6-5.9,2.1-6.3,4.3l-0.1,0.4C359,347.3,361.2,349.1,363.4,349.4z"/>
								<path id="Path_477" class="st5" d="M357.1,462.4c5.6,3,15.2,3.1,21.4,0.2c6.2-2.9,6.6-7.6,1-10.6c-5.6-3-15.2-3.1-21.4-0.2
									C351.9,454.7,351.5,459.4,357.1,462.4z"/>
								<path id="Path_478" class="st9" d="M382.4,456.6l-6,5c-1.5,1-2.6,0.3-3.8,0c-0.6-0.1-1-0.6-1-1.2v-1.3
									c0-1.8,1.6-2.9,2.8-3.4l6.2-3.4C381.7,451.8,385.5,453.7,382.4,456.6z"/>
								<path id="Path_479" class="st9" d="M361,448.7l1.6,7.7c0.5,4-5.9,4.7-6.2,0.3l-0.1-8.3C356.4,447.1,359.8,444.6,361,448.7z"
									/>
								<path id="Path_480" class="st26" d="M376.6,457.6c0,1.9-4.5,1.9-4.6,0l0-6l4.6,0L376.6,457.6z"/>
								<path id="Path_481" class="st26" d="M361.7,453.9c0,1.9-4.6,1.9-4.6,0v-6h4.6V453.9z"/>
								<path id="Path_482" class="st27" d="M362.3,452.1c-1.8,1.3-4.7,1.3-5.7-0.2c-1.2-22.2-4.8-37-4.6-56l14.1-4.2
									C363.6,414.5,363.4,434.5,362.3,452.1z"/>
								<path id="Path_483" class="st27" d="M377.2,454.2c-1.4,2-4.7,2-5.6,0.5l-9.5-59.8h16.3L377.2,454.2z"/>
								<path id="Path_484" class="st24" d="M351.5,394.4c1.3-7.5,1.5-15.1,0.5-22.6c0-12.3,1.7-12.3,9.9-12.8l1.9-0.1
									c2.4-0.1,4.7,0.3,6.8,1.3c7.3,3.5,10.8,4.4,9.3,13.1l-1.6,21.7C378.4,406.2,350.9,407.5,351.5,394.4z"/>
								<path id="Path_485" class="st28" d="M373.9,377l4,16.7l0.5,1.6l0.5-8.1L373.9,377z"/>
								<path id="Path_486" class="st18" d="M361.6,355.6c1.5,3.1,5.2,3.7,6.9,1.2c1.7-2.5,4-7.4,2.5-10.5c-1.5-3.1-10.3-2.9-12-0.5
									C357.3,348.3,360.1,352.5,361.6,355.6z"/>
								<path id="Path_487" class="st16" d="M380.4,387.1c0,0,1.6,7.6,10,8.3c0,0,3-0.9,1-4.1l-4.8-7.8L380.4,387.1z"/>
								<path id="Path_488" class="st24" d="M373.2,374.3l4.7,13.2c0.7,1,10.2-3.8,9.4-5.4c-0.1-0.3-5.2-16.3-10.7-18.9
									C372.1,361.2,370.7,368.2,373.2,374.3z"/>
							</g>
							<g id="Group_182">
								<path id="Path_489" class="st16" d="M245.2,362.3c6.7,7.5,17.7-9,17.7-9l-3.2-2.2c0,0-7,10.7-10.1,6.4
									C246.1,352.8,233.4,349.2,245.2,362.3z"/>
								<path id="Path_490" class="st15" d="M280.8,349.6l1.2,3.3c0.1,0.5,0.4,0.9,0.8,1.2l2.6,1.9c0.9,0.7,1.3,2.2,0.6,2.5l-1.9,1
									c-0.3,0.2-0.4,0.6-0.3,0.9l0.4,3.2c0.1,1.1-0.8,1.4-1.6,0.4l-2.3-2.7c-0.2-0.3-0.6-0.6-1-0.6l-2.3,0c-0.8,0-1.8-1.3-1.6-2.3
									l0.4-2.7c0-0.5-0.1-0.9-0.3-1.3l-1.9-3.2c-0.7-1.1-0.3-2.2,0.6-1.8l2.6,1.1c0.3,0.2,0.7,0.1,0.8-0.2l1.2-2
									C279.2,347.8,280.4,348.5,280.8,349.6z"/>
								<path id="Path_491" class="st5" d="M235.4,450.5c5.9,3.2,16,3.3,22.5,0.2c6.5-3,7-8,1.1-11.2c-5.9-3.2-16-3.3-22.5-0.2
									C230,442.3,229.5,447.3,235.4,450.5z"/>
								<path id="Path_492" class="st9" d="M235.3,438.4l3.7-0.5c2.5-1.1,3.7-2,4.8-1.3l0.3,0.2c1.1,0.7,1,1.8-0.3,2.5l-5.5,4.4
									c-1.3,0.7-2.9,0.6-4-0.4c0,0-0.6-0.5-0.2-2.9C234.3,439.1,234.2,439,235.3,438.4z"/>
								<path id="Path_493" class="st9" d="M251.6,447.3l3.7,0.7c2.7-0.3,4.1-0.7,5,0.2l0.2,0.3c0.9,0.9,0.4,2-1.1,2.3l-6.6,2.5
									c-1.5,0.3-2.9-0.4-3.7-1.6c0,0-0.4-0.7,0.7-2.8C250.6,447.6,250.5,447.5,251.6,447.3z"/>
								<path id="Path_494" class="st26" d="M254.2,448.2c0,1.9-4.6,1.9-4.6,0v-6.1h4.6V448.2z"/>
								<path id="Path_495" class="st27" d="M254.8,444.3c-1.5,2.1-4.7,2.1-5.7,0.6l-7.9-63.1h16.4L254.8,444.3z"/>
								<path id="Path_496" class="st26" d="M238.8,439.2c-0.1,1.6-4.6,1.6-4.6,0l0.3-5.5h4.6L238.8,439.2z"/>
								<path id="Path_497" class="st27" d="M239.7,436.8c-1.8,1.9-5.4,1.1-6.1-0.3l2.4-54.7l11.4,1.7L239.7,436.8z"/>
								<path id="Path_498" class="st29" d="M251.6,341.2c-1.1,3.9-4,5-6.5,2.5c-2.5-2.6-3.6-7.8-2.4-11.7c1.2-3.9,4-5,6.5-2.5
									C251.7,332,252.8,337.2,251.6,341.2z"/>
								<path id="Path_499" class="st16" d="M255.8,339.9c-1.1,3.9-5.3,5.3-7.8,2.8c-2.5-2.6-3.6-7.8-2.4-11.8c1.2-3.9,4-5,6.5-2.5
									C254.5,331,256.9,336,255.8,339.9z"/>
								<path id="Path_500" class="st16" d="M246.3,351.2l-0.4-0.1c-1.4-0.3-2.3-1.7-2-3.1v0l1.8-8c0.3-1.4,1.7-2.3,3.1-2h0l0.4,0.1
									c1.4,0.3,2.3,1.7,2,3.1c0,0,0,0,0,0v0l-0.6,7.9C250.3,350.6,247.7,351.5,246.3,351.2z"/>
								<path id="Path_501" class="st17" d="M241.5,340.5c0,0,0.4,3.7,5.7,3c3.8-0.5,2.6-6.6,6.4-7.2c4.1-0.7,4.9-5.8,3.3-7.8
									c-1.6-2-6.2-3-9.5-1.5C244.1,328.4,239,328.3,241.5,340.5z"/>
								<circle id="Ellipse_11" class="st16" cx="251.9" cy="337.9" r="1.8"/>
								<path id="Path_502" class="st20" d="M235.5,381.1c1.3-7.3-0.1-13.2,0-21c0-14-0.7-17.5,6.7-15.4l2.1,0.5
									c1,0.3,2,0.6,2.9,1.1c9.8,5.1,12.4,6.6,12,12.5c0,9.6-1.4,20.4-1.6,25.2C255.6,390.7,237.8,385.9,235.5,381.1z"/>
								<path id="Path_503" class="st19" d="M251,344l-0.4-1c0.6,0.5,1.4,0.7,2.2,0.5C252.2,343.9,251.6,344,251,344z"/>
								<path id="Path_504" class="st16" d="M279.4,365.7l0.6-1.8c0.5-1.4,2-2.1,3.4-1.6c0,0,0,0,0,0l0,0c1.4,0.5,2.1,2,1.6,3.4
									c0,0,0,0,0,0l-0.7,1.8c-0.5,1.4-2,2.1-3.4,1.6c0,0,0,0,0,0l0,0C279.6,368.7,278.9,367.2,279.4,365.7
									C279.4,365.8,279.4,365.8,279.4,365.7z"/>
								<path id="Path_505" class="st16" d="M251.4,354.6c0,0,2.3,10.2,14.2,23.5c6.7,7.5,17.7-9,17.7-9l-3.2-2.2
									c0,0-7,10.7-10.1,6.4C266.4,368.4,261.3,350.2,251.4,354.6z"/>
								<path id="Path_506" class="st16" d="M259.1,350.1l0.7-1.8c0.5-1.4,2-2.1,3.4-1.7c0,0,0,0,0,0l0,0c1.4,0.5,2.1,2,1.7,3.4
									c0,0,0,0,0,0l-0.6,1.8c-0.5,1.4-2,2.1-3.4,1.6l0,0C259.3,353,258.6,351.5,259.1,350.1L259.1,350.1z"/>
								<path id="Path_507" class="st20" d="M253.6,361.7l6,12.9c0.8,0.9,9.5-5.4,8.4-6.9c-0.2-0.2-7.8-15.2-13.7-16.9
									C249.7,349.5,250.2,356.2,253.6,361.7z"/>
								<path id="Path_508" class="st15" d="M264.6,339.1l1.2,3.3c0.1,0.5,0.4,0.9,0.8,1.2l2.6,1.9c0.9,0.7,1.3,2.2,0.6,2.5l-1.9,1
									c-0.3,0.2-0.4,0.6-0.3,0.9l0.4,3.2c0.1,1.1-0.8,1.4-1.6,0.4l-2.3-2.7c-0.2-0.3-0.6-0.6-1-0.6l-2.3,0c-0.8,0-1.8-1.3-1.6-2.3
									l0.4-2.7c0-0.5-0.1-0.9-0.3-1.3l-1.9-3.2c-0.6-1.1-0.3-2.2,0.6-1.8l2.6,1.1c0.3,0.2,0.7,0.1,0.8-0.2l1.2-2
									C263,337.3,264.1,338,264.6,339.1z"/>
							</g>
							<g id="Group_183">
								<path id="Path_509" class="st30" d="M455.7,392.2c-4.7-2.8-12.3-2.9-17.1-0.3c-4.8,2.6-4.8,7.1-0.2,9.9
									c4.6,2.8,12.2,2.9,17.1,0.3C460.9,399.3,460.4,395,455.7,392.2z"/>
								<path id="Path_510" class="st18" d="M451.9,391.6c-4.4-2.6-11.7-2.8-16.2-0.3s-4.6,6.7-0.1,9.4c4.5,2.7,11.6,2.8,16.2,0.3
									C456.8,398.3,456.3,394.3,451.9,391.6z"/>
								<path id="Path_511" class="st20" d="M451.7,388.9c-4.4-2.6-11.7-2.8-16.2-0.3c-4.5,2.5-4.6,6.7-0.1,9.4s11.6,2.8,16.2,0.3
									C456.6,395.6,456.1,391.5,451.7,388.9z"/>
								<path id="Path_512" class="st31" d="M440.8,390.7l-1.3,4.5l10.7-2.4"/>
							</g>
							<g id="Group_184">
								<path id="Path_513" class="st30" d="M199.9,395.5c-4.7-2.8-12.3-2.9-17.1-0.3s-4.8,7.1-0.2,9.9c4.6,2.8,12.2,2.9,17.1,0.3
									C205.1,402.5,204.6,398.3,199.9,395.5z"/>
								<path id="Path_514" class="st18" d="M196.1,394.9c-4.4-2.6-11.7-2.8-16.2-0.3s-4.6,6.7-0.1,9.4c4.5,2.7,11.6,2.8,16.2,0.3
									C201,401.6,200.5,397.5,196.1,394.9z"/>
								<path id="Path_515" class="st20" d="M195.9,392.1c-4.4-2.6-11.7-2.8-16.2-0.3c-4.5,2.5-4.6,6.7-0.1,9.4
									c4.5,2.7,11.6,2.8,16.2,0.3C200.8,398.8,200.4,394.7,195.9,392.1z"/>
								<path id="Path_516" class="st31" d="M184.9,393.9l-1.3,4.6l10.6-2.4"/>
							</g>
							<g id="Group_185">
								<path id="Path_517" class="st30" d="M426,378.1c-4.8-2.9-12.7-3-17.6-0.3c-4.9,2.7-5,7.2-0.2,10.2s12.6,3,17.6,0.4
									C431.4,385.3,430.9,380.9,426,378.1z"/>
								<path id="Path_518" class="st17" d="M422.1,377.4c-4.6-2.7-12.1-2.9-16.7-0.3c-4.7,2.6-4.7,6.9-0.1,9.7
									c4.6,2.7,12,2.9,16.7,0.3C427.1,384.3,426.6,380.1,422.1,377.4z"/>
								<path id="Path_519" class="st21" d="M421.9,374.6c-4.6-2.7-12-2.9-16.7-0.3c-4.7,2.6-4.7,6.9-0.1,9.7
									c4.6,2.7,12,2.9,16.7,0.3C427,381.5,426.5,377.3,421.9,374.6z"/>
								<line id="Line_44" class="st32" x1="412" y1="374.8" x2="414.6" y2="382.9"/>
								<line id="Line_45" class="st32" x1="418" y1="377.7" x2="409.1" y2="379.3"/>
							</g>
							<g id="Group_186">
								<path id="Path_520" class="st30" d="M320.6,376.9c-4.8-2.9-12.7-3-17.6-0.3c-4.9,2.7-5,7.2-0.2,10.2
									c4.8,2.9,12.6,3,17.6,0.4C326,384.2,325.4,379.8,320.6,376.9z"/>
								<path id="Path_521" class="st17" d="M316.7,376.3c-4.6-2.7-12.1-2.9-16.7-0.3c-4.7,2.6-4.7,6.9-0.1,9.7
									c4.6,2.7,12,2.9,16.7,0.3C321.7,383.2,321.2,379,316.7,376.3z"/>
								<path id="Path_522" class="st21" d="M316.5,373.5c-4.6-2.7-12.1-2.9-16.7-0.3c-4.7,2.6-4.7,6.9-0.1,9.7
									c4.6,2.7,12,2.9,16.7,0.3C321.6,380.3,321,376.2,316.5,373.5z"/>
								<line id="Line_46" class="st32" x1="306.6" y1="373.6" x2="309.2" y2="381.8"/>
								<line id="Line_47" class="st32" x1="312.6" y1="376.6" x2="303.7" y2="378.1"/>
							</g>
						</g>
						
							<linearGradient id="градиент_1_" gradientUnits="userSpaceOnUse" x1="-348.8351" y1="-431.9932" x2="-349.2025" y2="-431.0283" gradientTransform="matrix(1920 0 0 1080 670263 466156.75)">
							<stop  offset="0" style="stop-color:#E6D7E7;stop-opacity:0.29"/>
							<stop  offset="1" style="stop-color:#DAB2DF"/>
						</linearGradient>
						<path id="градиент" class="st33" d="M-430.7-95.2H621.9V497H-430.7V-95.2z"/>
						
							<image style="overflow:visible;opacity:0.15;enable-background:new    ;" width="3000" height="3191" id="графика1" xlink:href="CE96CB73.png"  transform="matrix(4.960294e-02 -0.2807 0.2807 4.960294e-02 264.8054 851.4387)">
						</image>
						
							<image style="overflow:visible;opacity:3.000000e-02;enable-background:new    ;" width="1431" height="1431" id="графика2" xlink:href="CE96CB71.png"  transform="matrix(0.1754 1.096491e-02 -1.096491e-02 0.1754 -135.6058 31.9245)">
						</image>
					</g>
				</g>
			</g>
		</g>
	</g>
</g>
</svg>
