<?xml version="1.0" encoding="utf-8"?>
<!-- Generator: Adobe Illustrator 22.0.1, SVG Export Plug-In . SVG Version: 6.00 Build 0)  -->
<svg version="1.1" id="Layer_1" xmlns="http://www.w3.org/2000/svg" xmlns:xlink="http://www.w3.org/1999/xlink" x="0px" y="0px"
	 viewBox="0 0 1920 659" style="enable-background:new 0 0 1920 659;" xml:space="preserve">
<style type="text/css">
	.st0{clip-path:url(#SVGID_2_);}
	.st1{fill:#A8C4E5;}
	.st2{fill:#CE3A77;}
	.st3{fill:#DD4078;}
	.st4{fill:#E1EAF4;}
	.st5{fill:none;stroke:#BACED8;stroke-width:1.66;stroke-miterlimit:10;}
	.st6{fill:#6271F0;}
	.st7{fill:#FFFFFF;}
	.st8{fill:#EF487C;}
	.st9{fill:#F1A32F;}
	.st10{fill:#BBD6F2;}
	.st11{fill:url(#Path_31_1_);}
	.st12{fill:#F0F6FC;}
	.st13{fill:#45446C;}
	.st14{fill:#97CBFF;}
	.st15{opacity:0.5;fill:#A8C4E5;enable-background:new    ;}
	.st16{fill:#5265DB;}
	.st17{fill:#B3B3FF;}
	.st18{fill:#A1A1E5;}
	.st19{fill:#565682;}
	.st20{fill:#6B6B9B;}
	.st21{fill:#98BDE2;}
	.st22{fill:#8DB0DA;}
	.st23{fill:#FFD22D;}
	.st24{fill:#D84177;}
	.st25{opacity:0.45;fill:#45446C;enable-background:new    ;}
	.st26{fill:#A7D1E8;}
	.st27{fill:#FFAA82;}
	.st28{fill:#91B8DB;}
	.st29{fill:none;stroke:#BACED8;stroke-width:0.36;stroke-miterlimit:10;}
	.st30{fill:#8585FF;}
	.st31{fill:#51517A;}
	.st32{fill:#5B5B84;}
	.st33{opacity:0.33;fill:#A8C4E5;enable-background:new    ;}
	.st34{fill:#15253D;}
	.st35{fill:url(#Path_163_1_);}
	.st36{opacity:0.46;fill:#FFFFFF;enable-background:new    ;}
	.st37{fill:#513554;}
	.st38{fill:#FCFEFF;}
	.st39{fill:url(#Path_174_1_);}
	.st40{fill:#616191;}
	.st41{fill:#915151;}
	.st42{fill:#7070A0;}
	.st43{fill:#FFDE73;}
	.st44{fill:#AA6868;}
	.st45{fill:#39395B;}
	.st46{fill:url(#Path_197_1_);}
	.st47{fill:#BA366C;}
	.st48{fill:#3C3C60;}
	.st49{fill:#EF9A78;}
	.st50{fill:#514677;}
	.st51{fill:#423A66;}
	.st52{fill:#46466B;}
	.st53{fill:#BC4073;}
	.st54{fill:#D0E7F4;}
	.st55{fill:#492817;}
	.st56{fill:#EA8A6C;}
	.st57{fill:#3A3A5E;}
	.st58{fill:url(#Path_256_1_);}
	.st59{fill:#F8FCFF;}
	.st60{fill:url(#Path_258_1_);}
	.st61{opacity:0.32;fill:#7474A3;enable-background:new    ;}
	.st62{fill:#7474A3;}
	.st63{fill:#7373EA;}
	.st64{fill:#424268;}
	.st65{clip-path:url(#SVGID_2_);fill:url(#градиент_1_);}
</style>
<g>
	<defs>
		<rect id="SVGID_1_" width="1920" height="659"/>
	</defs>
	<clipPath id="SVGID_2_">
		<use xlink:href="#SVGID_1_"  style="overflow:visible;"/>
	</clipPath>
	<g id="эксперт" class="st0">
		<g id="image">
			<path id="Path_16" class="st1" d="M1407.7,223.9l-109-64.2c-0.6-0.4-1.4-0.4-2,0l-151,85.3c-0.1,0.1-0.2,0.2-0.3,0.3l-8.8,5
				c-1,0.6-1.3,1.8-0.8,2.8c0.2,0.3,0.4,0.6,0.7,0.7l108.9,64.3c0.6,0.4,1.4,0.4,2,0l151-85.3c0.1-0.1,0.2-0.2,0.3-0.3l8.8-5
				c1-0.5,1.4-1.8,0.8-2.8c0,0,0,0,0,0C1408.2,224.3,1408,224.1,1407.7,223.9z"/>
			<path id="Path_17" class="st1" d="M1779.5,478v-7.1l0,0c0-1.4-0.9-2.7-2.6-3.8l-64.4-37.2c-3.9-2.2-10.6-2-15,0.7l-116.6,67.3
				c-2.3,1.3-3.5,3-3.7,4.6l0,0v0.5l0.2,6l0,0c-0.6,1.8,0.2,3.7,2.4,5l64.4,37.2c2.3,1.2,4.8,1.7,7.3,1.5c0.7,0,1.4-0.1,2-0.2
				c1.3-0.2,2.7-0.6,3.9-1c0.6-0.2,1.2-0.5,1.8-0.9l116.6-67.3c2.4-1.4,3.6-3.1,3.7-4.8l0,0L1779.5,478z"/>
			<g id="Group_20">
				<path id="Path_18" class="st2" d="M1131.3,246.1l152.1-87.1l0.3-29.7l-152.1,83.3L1131.3,246.1z"/>
				<g id="Group_18">
					<path id="Path_19" class="st3" d="M1241.1,313.7l-108.9-65.2c-1.4-0.8-1.3-4.1,0.1-4.9l151-85.3c0.6-0.3,1.4-0.3,2,0
						l108.9,64.3c1,0.6,1.3,1.8,0.8,2.8c0,0,0,0,0,0c-0.2,0.3-0.4,0.6-0.7,0.7l-151.1,87.6C1242.5,314.1,1241.7,314,1241.1,313.7z"
						/>
					
						<rect id="Rectangle_20" x="1131" y="241.6" transform="matrix(9.424655e-03 -1 1 9.424655e-03 879.0374 1373.3188)" class="st3" width="3.4" height="2.8"/>
					
						<rect id="Rectangle_21" x="1391.3" y="220.4" transform="matrix(9.424655e-03 -1 1 9.424655e-03 1157.4789 1613.7383)" class="st3" width="3.9" height="4.5"/>
				</g>
				<path id="Path_20" class="st2" d="M1241.2,307.8l-108.9-64.3c-1-0.6-1.3-1.8-0.7-2.8c0.2-0.3,0.4-0.6,0.8-0.7l151-85.3
					c0.6-0.3,1.4-0.3,2,0l108.9,64.2c1,0.6,1.3,1.8,0.7,2.8c0,0,0,0,0,0c-0.2,0.3-0.4,0.6-0.7,0.7l-151.1,85.3
					C1242.6,308.1,1241.8,308.1,1241.2,307.8z"/>
				<path id="Path_21" class="st4" d="M1243,308l-102.8-58.6l0.3-33.5l103.3,61.9L1243,308z"/>
				<line id="Line_35" class="st5" x1="1140.7" y1="237.3" x2="1242.4" y2="296.7"/>
				<line id="Line_36" class="st5" x1="1140.8" y1="227.5" x2="1244" y2="286.8"/>
				<line id="Line_37" class="st5" x1="1140.6" y1="243.9" x2="1242.3" y2="303.2"/>
				<path id="Path_22" class="st6" d="M1150.5,243.2c0,0-13.5,10.3-14.4,20.9l9.6,5.2c0,0,8.2-17.6,13.9-20.9L1150.5,243.2z"/>
				<path id="Path_23" class="st7" d="M1243,308l145.1-83.5l0.3-29.7L1243.3,275L1243,308z"/>
				<g id="Group_19">
					<path id="Path_24" class="st3" d="M1241.5,281.8l-108.9-64.3c-1-0.6-1.3-1.8-0.8-2.8c0,0,0,0,0,0c0.2-0.3,0.4-0.6,0.7-0.7
						l151.1-85.3c0.6-0.3,1.4-0.3,2,0l108.9,64.3c1,0.6,1.3,1.8,0.7,2.8c0,0,0,0,0,0c-0.2,0.3-0.4,0.6-0.7,0.7l-151,85.3
						C1242.9,282.2,1242.1,282.2,1241.5,281.8z"/>
					
						<rect id="Rectangle_22" x="1131.2" y="212.4" transform="matrix(9.424655e-03 -1 1 9.424655e-03 908.499 1344.6295)" class="st3" width="3.4" height="2.8"/>
					
						<rect id="Rectangle_23" x="1391.5" y="190.6" transform="matrix(9.424655e-03 -1 1 9.424655e-03 1187.5359 1584.4738)" class="st3" width="3.9" height="4.5"/>
				</g>
				<path id="Path_25" class="st8" d="M1241.5,278l-108.9-64.3c-1-0.6-1.3-1.8-0.7-2.8c0.2-0.3,0.5-0.6,0.8-0.8l151-85.3
					c0.6-0.3,1.4-0.3,2,0l108.9,64.3c1,0.6,1.3,1.8,0.7,2.8c0,0,0,0,0,0c-0.2,0.3-0.4,0.6-0.7,0.7L1243.5,278
					C1242.9,278.4,1242.1,278.4,1241.5,278z"/>
				<line id="Line_38" class="st5" x1="1386.3" y1="207.1" x2="1244" y2="286.8"/>
				<line id="Line_39" class="st5" x1="1386.3" y1="214.1" x2="1243.9" y2="293.7"/>
				<line id="Line_40" class="st5" x1="1386.2" y1="221" x2="1243.8" y2="300.6"/>
			</g>
			<g id="Group_21">
				<path id="Path_26" class="st7" d="M1298.8,204.5l-45.6-26.9c-2-1.2-1.7-3.2,0.6-4.5l21.2-11.9c2.3-1.3,5.8-1.4,7.8-0.3
					l45.6,26.9c2,1.2,1.7,3.2-0.6,4.5l-21.2,11.9C1304.3,205.6,1300.8,205.7,1298.8,204.5z"/>
				<path id="Path_27" class="st9" d="M1317.8,191.2l-41-24.2c-0.6-0.4-0.5-1,0.2-1.4l0,0c0.7-0.4,1.6-0.4,2.4-0.1l41,24.2
					c0.6,0.4,0.5,1-0.2,1.4l0,0C1319.5,191.6,1318.6,191.6,1317.8,191.2z"/>
				<path id="Path_28" class="st9" d="M1310.9,195.2l-41-24.2c-0.6-0.4-0.5-1,0.2-1.4l0,0c0.7-0.4,1.6-0.4,2.4-0.1l41,24.2
					c0.6,0.4,0.5,1-0.2,1.4l0,0C1312.5,195.5,1311.6,195.6,1310.9,195.2z"/>
				<path id="Path_29" class="st9" d="M1303.9,199.2l-41-24.2c-0.6-0.4-0.5-1,0.2-1.4l0,0c0.7-0.4,1.6-0.4,2.4-0.1l41,24.2
					c0.6,0.4,0.5,1-0.2,1.4l0,0C1305.5,199.5,1304.7,199.5,1303.9,199.2z"/>
			</g>
			<path id="Path_30" class="st10" d="M1729.8,208.9L1729.8,208.9v-1.5c0-0.1,0-0.2-0.1-0.3c0-0.1-0.1-0.2-0.1-0.3l0,0
				c0-0.1-0.1-0.2-0.1-0.3s-0.1-0.2-0.1-0.3v-0.1c0-0.1,0-0.1-0.1-0.1s-0.1-0.2-0.1-0.3s-0.1-0.1-0.1-0.2l0,0c0-0.1-0.1-0.2-0.1-0.3
				c0-0.1-0.1-0.2-0.1-0.3c0-0.1,0-0.1-0.1-0.1v-0.1c0,0,0-0.1-0.1-0.1l0,0c-0.1-0.1-0.1-0.2-0.1-0.3c-0.1-0.1-0.1-0.2-0.1-0.3l0,0
				v-0.1c-0.1-0.1-0.1-0.2-0.1-0.3c-0.1-0.1-0.1-0.2-0.1-0.3c-0.1-0.1-0.1-0.1-0.1-0.2c0-0.1,0-0.1-0.1-0.1l0,0
				c-0.1-0.1-0.2-0.3-0.3-0.4c0-0.1-0.1-0.1-0.1-0.1l0,0c-0.1-0.1-0.2-0.3-0.3-0.5l-0.1-0.1c0,0,0-0.1-0.1-0.1l0,0
				c-0.1-0.1-0.1-0.1-0.1-0.1s-0.1-0.2-0.2-0.3l-0.1-0.1c0,0,0-0.1-0.1-0.1l0,0l-0.1-0.1c-0.1-0.1-0.1-0.2-0.2-0.3l-0.2-0.2l0,0
				l-0.3-0.3c-0.1-0.1-0.2-0.2-0.3-0.3l0,0c-0.1-0.1-0.2-0.1-0.3-0.2c-0.1-0.1-0.2-0.1-0.3-0.2h-0.1c0-0.1-0.1-0.1-0.2-0.1
				c-0.1-0.1-0.2-0.1-0.3-0.2l-0.1-0.1l0,0c-0.1-0.1-0.1-0.1-0.1-0.1c0-0.1-0.2-0.1-0.3-0.2l-1.4-0.9l-8,4.3c0,0,1.9,1.1,2,1.2
				c0.1,0.1,0.2,0.1,0.3,0.2c0.1,0.1,0.2,0.1,0.3,0.2c0.1,0.1,0.2,0.1,0.3,0.2s0.1,0.1,0.1,0.1c0.1,0.1,0.3,0.2,0.4,0.3l0,0l0.4,0.4
				c0,0,0.1,0,0.1,0.1l0,0l0.4,0.4l0.1,0.1c0.1,0.1,0.2,0.3,0.3,0.4l0.1,0.1c0.1,0.1,0.2,0.3,0.3,0.4s0.1,0.1,0.1,0.2
				s0.1,0.2,0.2,0.3c0.1,0.1,0.1,0.2,0.2,0.3c0.1,0.1,0.1,0.1,0.1,0.2c0.1,0.1,0.1,0.1,0.1,0.2s0.1,0.2,0.2,0.3c0,0,0,0.1,0.1,0.1
				c0,0,0,0,0,0l0,0c0.1,0.2,0.2,0.3,0.3,0.5v0c0.1,0.2,0.1,0.3,0.2,0.5v0.1c0.1,0.2,0.1,0.3,0.2,0.5v0.1c0.1,0.1,0.1,0.3,0.1,0.5
				v0.1c0.1,0.1,0.1,0.3,0.1,0.5v0.1c0.1,0.2,0.1,0.3,0.1,0.5v0.1c0,0.2,0.1,0.3,0.1,0.5v0.1c0,0.2,0.1,0.3,0.1,0.5v1.2
				c0,0.1,0,0.2-0.1,0.3c0,0.1,0,0.2-0.1,0.3c0,0.2,0,0.3-0.1,0.5l-27.5,170.2c-0.1,0.7-3.3,6-2.5,5.6l7.5-6.4
				c1.6-1.4,2.6-3.2,3-5.3l27-167c0.1-0.7,0.3-2,0.3-2c0-0.1,0-0.2,0.1-0.3v-0.2l0,0v-0.4C1729.8,209.1,1729.8,209.1,1729.8,208.9
				L1729.8,208.9z"/>
			<g id="Group_22">
				
					<linearGradient id="Path_31_1_" gradientUnits="userSpaceOnUse" x1="552.8892" y1="-126.5808" x2="553.6359" y2="-126.5808" gradientTransform="matrix(409.09 0 0 456.62 -224764.5 58020.1641)">
					<stop  offset="0" style="stop-color:#E1EAF4"/>
					<stop  offset="0.56" style="stop-color:#ABC6E6"/>
					<stop  offset="0.65" style="stop-color:#A8C4E5"/>
				</linearGradient>
				<path id="Path_31" class="st11" d="M1716.9,203.9c3.6,2.1,6,6.9,5.4,10.6l-27.9,172.7c-0.6,3.8-4,5.2-7.6,3.1l-264.4-152.7
					c-3.6-2.1-6-6.9-5.4-10.7l27.9-172.6c0.6-3.8,4.1-5.2,7.6-3.1L1716.9,203.9z"/>
			</g>
			<path id="Path_32" class="st12" d="M1726.2,178.6L1464,27.2l0,0l-0.4-0.2l0,0c-0.2-0.2-0.5-0.3-0.7-0.4c-0.1-0.1-0.2-0.1-0.3-0.1
				c-0.1-0.1-0.2-0.1-0.3-0.1c-0.1-0.1-0.2-0.1-0.3-0.1c-0.1-0.1-0.2-0.1-0.3-0.1c-0.1-0.1-0.2-0.1-0.3-0.1c-0.1,0-0.2-0.1-0.3-0.1
				l0,0c-0.1,0-0.2-0.1-0.3-0.1h-1.6c-0.1,0-0.2,0-0.3,0.1h-0.1c-0.2,0.1-0.3,0.1-0.5,0.1h-0.1c-0.2,0.1-0.5,0.2-0.7,0.3l-7.7,4.4
				c0.2-0.1,0.4-0.2,0.6-0.3c0.1,0,0.2-0.1,0.3-0.1c0.1,0,0.2-0.1,0.3-0.1s0.3-0.1,0.4-0.1h0.7c0.2,0,0.4,0,0.6,0.1h0.1
				c0.2,0,0.4,0.1,0.6,0.1h0.1l0.6,0.2h0.1c0.2,0.1,0.5,0.2,0.7,0.3c0.1,0.1,0.2,0.1,0.3,0.1s0.1,0.1,0.2,0.1l1.4,0.9l0,0
				l262.5,151.5c0.3,0.2,0.7,0.2,1,0l5.8-3.3c0.5-0.3,0.6-0.9,0.3-1.4C1726.4,178.8,1726.3,178.6,1726.2,178.6z"/>
			<path id="Path_33" class="st10" d="M1733.1,188.9L1733.1,188.9v-1.5c0-0.1,0-0.2-0.1-0.3c0-0.1-0.1-0.2-0.1-0.3l0,0
				c0-0.1-0.1-0.2-0.1-0.3s-0.1-0.2-0.1-0.3v-0.1c0-0.1,0-0.1-0.1-0.1c-0.1,0-0.1-0.2-0.1-0.3c0-0.1-0.1-0.1-0.1-0.2l0,0
				c0-0.1-0.1-0.2-0.1-0.3c0-0.1-0.1-0.2-0.1-0.3c0-0.1,0-0.1-0.1-0.1v-0.1c0,0,0-0.1-0.1-0.1l0,0c-0.1-0.1-0.1-0.2-0.1-0.3
				c-0.1-0.1-0.1-0.2-0.1-0.3l0,0v-0.1c-0.1-0.1-0.1-0.2-0.1-0.3c-0.1-0.1-0.1-0.2-0.1-0.3c-0.1-0.1-0.1-0.1-0.1-0.2
				c0,0,0-0.1-0.1-0.1c0,0,0,0,0,0l0,0c-0.1-0.1-0.2-0.3-0.3-0.4c0-0.1-0.1-0.1-0.1-0.1l0,0c-0.1-0.1-0.2-0.3-0.3-0.5l-0.1-0.1
				c0,0,0-0.1-0.1-0.1l0,0c-0.1-0.1-0.1-0.1-0.1-0.1s-0.1-0.2-0.2-0.3l-0.1-0.1c0,0,0-0.1-0.1-0.1l0,0l-0.1-0.1
				c-0.1-0.1-0.1-0.2-0.2-0.3l-0.2-0.2l0,0l-0.3-0.3c-0.1-0.1-0.2-0.1-0.3-0.3l0,0c-0.1-0.1-0.2-0.1-0.3-0.2
				c-0.1-0.1-0.2-0.1-0.3-0.2h-0.1c-0.1-0.1-0.1-0.1-0.2-0.1s-0.2-0.1-0.3-0.2l-0.1-0.1l0,0c-0.1-0.1-0.1-0.1-0.1-0.1
				s-0.2-0.1-0.3-0.2c-0.1-0.1-6.4-3.7-6.4-3.7l-7.8,4.8l6.9,3.6c0.1,0.1,0.2,0.1,0.3,0.2c0.1,0.1,0.2,0.1,0.3,0.2
				c0.1,0.1,0.2,0.1,0.3,0.2c0.1,0.1,0.1,0.1,0.1,0.1c0.1,0.1,0.3,0.2,0.4,0.3l0,0l0.4,0.4c0,0,0.1,0,0.1,0.1l0,0l0.4,0.4l0.1,0.1
				c0.1,0.1,0.2,0.3,0.3,0.4l0.1,0.1c0.1,0.1,0.2,0.3,0.3,0.4c0.1,0.1,0.1,0.1,0.1,0.2s0.1,0.2,0.2,0.3c0.1,0.1,0.1,0.2,0.2,0.3
				c0.1,0.1,0.1,0.1,0.1,0.2c0.1,0.1,0.1,0.1,0.1,0.2s0.1,0.2,0.2,0.3c0,0,0,0.1,0.1,0.1l0,0c0.1,0.2,0.1,0.3,0.3,0.5v0.1
				c0.1,0.2,0.1,0.3,0.2,0.5v0.1c0.1,0.2,0.1,0.3,0.2,0.5v0.1c0.1,0.1,0.1,0.3,0.1,0.5v0.1c0.1,0.1,0.1,0.3,0.1,0.5v0.1
				c0.1,0.2,0.1,0.3,0.1,0.5v0.1c0,0.2,0.1,0.3,0.1,0.5v0.1c0,0.2,0.1,0.3,0.1,0.5v1.2c0,0.1,0,0.2-0.1,0.3c0,0.1,0,0.2-0.1,0.3
				c0,0.2,0,0.3-0.1,0.5L1698,365.4c-0.1,0.8-3.3,6-2.5,5.6l7.5-6.4c1.6-1.4,2.6-3.2,3-5.3l27-167c0.1-0.7,0.3-2,0.3-2
				c0-0.1,0-0.2,0.1-0.3v-0.2l0,0v-0.4C1733.1,189.1,1733.1,188.9,1733.1,188.9L1733.1,188.9z"/>
			<g id="Group_24">
				<g id="Group_23">
					<path id="Path_34" class="st13" d="M1719.9,183.8c3.6,2.1,6,6.9,5.4,10.6l-28,172.7c-0.6,3.8-4,5.2-7.6,3.1l-264.4-152.7
						c-3.6-2.1-6-6.9-5.4-10.7l27.9-172.6c0.6-3.8,4.1-5.2,7.6-3.1L1719.9,183.8z"/>
				</g>
			</g>
			<g id="Group_26">
				<g id="Group_25">
					<path id="Path_35" class="st14" d="M1710.5,194.9c3.4,2,5.7,6.1,5.2,9.3l-25.3,144.9c-0.5,3.2-3.8,4.2-7.2,2.3l-250.8-142.1
						c-3.4-2-5.7-6.1-5.2-9.3l25.3-144.9c0.6-3.2,3.8-4.2,7.2-2.3L1710.5,194.9z"/>
				</g>
			</g>
			<path id="Path_36" class="st7" d="M1590.3,118.9c0,1.6-1.2,2.4-2.6,1.5c-1.5-1-2.5-2.7-2.6-4.5c0-1.6,1.2-2.4,2.6-1.5
				C1589.2,115.4,1590.2,117.1,1590.3,118.9z"/>
			<g id="Group_29">
				<path id="Path_37" class="st1" d="M1690,400.3l-0.1-8l-10.3,4l-2.2-5.1l-258.7-149.3c-3.1-1.8-8.6-1.6-12.2,0.5l-111.4,64.3
					v-1.8l-20.6,8.3v8.6h0.1c0.4,1,1,1.8,2,2.2l269.2,155.4c3.1,1.8,8.6,1.6,12.2-0.5l129-74.5C1689,403.2,1690,401.7,1690,400.3z"
					/>
				<path id="Path_38" class="st7" d="M1545.7,470.8l-269.2-155.5c-3.1-1.8-2.7-5,0.9-7.1l129-74.5c3.6-2.1,9.1-2.3,12.2-0.5
					l269.2,155.4c3.1,1.8,2.7,5-0.9,7.1l-129,74.5C1554.3,472.4,1548.8,472.6,1545.7,470.8z"/>
				<path id="Path_39" class="st1" d="M1445.4,395.7l-65.2-37.6c-0.7-0.5-0.7-1.2,0.2-1.7l31.2-18c0.9-0.5,2-0.6,2.9-0.1l65.1,37.6
					c0.8,0.5,0.7,1.2-0.2,1.7l-31.2,18.1C1447.4,396.1,1446.3,396.1,1445.4,395.7z"/>
				<g id="Group_28">
					<g id="Group_27">
						<path id="Path_40" class="st13" d="M1422.5,262.1c-0.6,0.2-1.2,0.1-1.8-0.2l-16.4-9.4c-0.6-0.3-0.7-0.8-0.4-1l10.9-6.3
							c0.6-0.2,1.2-0.1,1.8,0.2l16.3,9.4c0.6,0.3,0.7,0.8,0.3,1L1422.5,262.1z"/>
						<path id="Path_41" class="st13" d="M1441.4,290.3c-0.6,0.2-1.2,0.1-1.8-0.2l-16.3-9.4c-0.6-0.3-0.7-0.8-0.3-1l10.9-6.3
							c0.6-0.2,1.2-0.1,1.8,0.2l16.3,9.4c0.6,0.3,0.7,0.7,0.4,1L1441.4,290.3z"/>
						<path id="Path_42" class="st13" d="M1431.8,302c-0.6,0.2-1.2,0.1-1.8-0.2l-16.3-9.4c-0.6-0.3-0.7-0.8-0.4-1l10.9-6.3
							c0.6-0.2,1.2-0.1,1.8,0.2l16.3,9.4c0.6,0.3,0.7,0.8,0.4,1L1431.8,302z"/>
						<path id="Path_43" class="st13" d="M1405.9,304.3c-0.6,0.2-1.2,0.1-1.8-0.2l-16.3-9.4c-0.6-0.3-0.7-0.8-0.3-1l10.9-6.3
							c0.6-0.2,1.2-0.1,1.8,0.2l16.3,9.4c0.6,0.3,0.7,0.8,0.3,1L1405.9,304.3z"/>
						<path id="Path_44" class="st13" d="M1360.9,297.6c-0.6,0.2-1.2,0.1-1.8-0.2l-16.3-9.4c-0.6-0.3-0.7-0.8-0.4-1l12.7-7.3
							c0.6-0.2,1.2-0.1,1.8,0.2l16.3,9.4c0.6,0.3,0.7,0.8,0.4,1L1360.9,297.6z"/>
						<path id="Path_45" class="st13" d="M1389.1,313.9c-0.7,0.2-1.5,0-2.1-0.4l-21.4-12.3c-0.7-0.5-1.1-1-0.7-1.2l12.7-7.3
							c0.7-0.2,1.5,0,2.1,0.4l21.4,12.4c0.8,0.5,1,1,0.7,1.2L1389.1,313.9z"/>
						<path id="Path_46" class="st13" d="M1529.8,395.2c-0.6,0.2-1.2,0.1-1.6-0.3l-16.3-9.4c-0.6-0.3-0.7-0.7-0.5-1l4.7-2.7
							c0.6-0.2,1.2-0.1,1.7,0.3l16.3,9.4c0.6,0.3,0.7,0.7,0.5,1L1529.8,395.2z"/>
						<path id="Path_47" class="st13" d="M1551.6,408.1c-0.6,0.2-1.2,0.1-1.6-0.3l-16.3-9.4c-0.6-0.3-0.7-0.7-0.5-1l4.7-2.7
							c0.6-0.2,1.2-0.1,1.7,0.3l16.3,9.4c0.6,0.3,0.7,0.7,0.5,1L1551.6,408.1z"/>
						<path id="Path_48" class="st13" d="M1574.7,421.2c-0.6,0.2-1.2,0.1-1.6-0.3l-16.3-9.4c-0.6-0.3-0.9-0.7-0.5-1l4.5-2.6
							c0.6-0.2,1.2-0.1,1.6,0.3l16.3,9.4c0.6,0.3,0.7,0.7,0.5,0.9L1574.7,421.2z"/>
						<path id="Path_49" class="st13" d="M1560.5,403.2c-0.6,0.2-1.2,0.1-1.6-0.3l-16.3-9.4c-0.6-0.3-0.9-0.8-0.5-1l4.5-2.6
							c0.6-0.2,1.2-0.1,1.6,0.3l16.3,9.4c0.6,0.3,0.8,0.7,0.5,0.9L1560.5,403.2z"/>
						<path id="Path_50" class="st13" d="M1501.6,378.8c-0.6,0.2-1.2,0.1-1.8-0.2l-106.4-61.4c-0.6-0.3-0.7-0.8-0.4-1l12.7-7.3
							c0.6-0.2,1.2-0.1,1.8,0.2l106.3,61.4c0.6,0.3,0.7,0.8,0.4,1L1501.6,378.8z"/>
						<path id="Path_51" class="st13" d="M1490.6,369.5c-0.3-0.1-0.6-0.3-0.9-0.5l-84.6-48.8c-0.3-0.1-0.5-0.3-0.7-0.5l0.7-0.5
							c0.3,0.1,0.6,0.3,0.9,0.5l84.6,48.8c0.3,0.1,0.5,0.3,0.7,0.5L1490.6,369.5z"/>
						<path id="Path_52" class="st13" d="M1386.2,309.9c-0.1,0-0.1,0-0.2-0.1l-12.5-7.2c-0.1-0.1-0.1-0.1-0.1-0.1l0.8-0.5
							c0.1,0,0.1,0,0.2,0.1l12.5,7.2c0.1,0.1,0.1,0.1,0.1,0.1L1386.2,309.9z"/>
						<path id="Path_53" class="st13" d="M1354.1,290L1354.1,290l-5.4-3.1c0,0-0.1-0.1,0-0.1l0.7-0.5h0.1l5.3,3.1c0,0,0.1,0.1,0,0.1
							L1354.1,290z"/>
						<path id="Path_54" class="st13" d="M1428.3,317.2c-0.6,0.2-1.2,0.1-1.8-0.2l-16.3-9.4c-0.6-0.3-0.7-0.7-0.4-1l10.8-6.3
							c0.6-0.2,1.2-0.1,1.8,0.2l16.3,9.4c0.6,0.3,0.7,0.8,0.4,1L1428.3,317.2z"/>
						<path id="Path_55" class="st13" d="M1450.8,330.2c-0.6,0.2-1.2,0.1-1.8-0.2l-16.3-9.4c-0.6-0.3-0.7-0.8-0.4-1l10.8-6.3
							c0.6-0.2,1.2-0.1,1.8,0.2l16.3,9.4c0.6,0.3,0.7,0.7,0.3,1L1450.8,330.2z"/>
						<path id="Path_56" class="st13" d="M1473.3,343.1c-0.6,0.2-1.2,0.1-1.8-0.2l-16.3-9.4c-0.6-0.3-0.7-0.8-0.3-1l10.9-6.3
							c0.6-0.2,1.2-0.1,1.8,0.2l16.3,9.4c0.6,0.3,0.7,0.8,0.3,1L1473.3,343.1z"/>
						<path id="Path_57" class="st13" d="M1495.8,356.1c-0.6,0.2-1.2,0.1-1.8-0.2l-16.3-9.4c-0.6-0.3-0.7-0.8-0.4-1l10.8-6.3
							c0.6-0.2,1.2-0.1,1.8,0.2l16.3,9.4c0.6,0.3,0.7,0.7,0.3,1.1L1495.8,356.1z"/>
						<path id="Path_58" class="st13" d="M1518.4,369.1c-0.6,0.2-1.2,0.1-1.8-0.2l-16.3-9.4c-0.6-0.3-0.7-0.8-0.3-1l10.9-6.3
							c0.6-0.2,1.2-0.1,1.8,0.2l16.3,9.4c0.6,0.3,0.7,0.8,0.4,1L1518.4,369.1z"/>
						<path id="Path_59" class="st13" d="M1540.8,382.1c-0.6,0.2-1.2,0.1-1.8-0.2l-16.3-9.4c-0.6-0.3-0.7-0.8-0.4-1l10.9-6.3
							c0.6-0.2,1.2-0.1,1.8,0.2l16.3,9.4c0.6,0.3,0.7,0.7,0.3,1L1540.8,382.1z"/>
						<path id="Path_60" class="st13" d="M1591.5,411.4c-0.6,0.2-1.2,0.1-1.8-0.2l-44.5-25.7c-0.6-0.3-0.7-0.8-0.4-1l10.8-6.3
							c0.6-0.2,1.2-0.1,1.8,0.2L1602,404c0.6,0.3,0.7,0.8,0.3,1L1591.5,411.4z"/>
						<path id="Path_61" class="st13" d="M1454.2,314.9c-0.6,0.2-1.2,0.1-1.8-0.2l-16.3-9.4c-0.6-0.3-0.7-0.7-0.3-1l10.9-6.3
							c0.6-0.2,1.2-0.1,1.8,0.2l16.3,9.4c0.6,0.3,0.7,0.8,0.3,1L1454.2,314.9z"/>
						<path id="Path_62" class="st13" d="M1476.7,327.9c-0.6,0.2-1.2,0.1-1.8-0.2l-16.3-9.4c-0.6-0.3-0.7-0.8-0.3-1l10.9-6.3
							c0.6-0.2,1.2-0.1,1.8,0.2l16.3,9.4c0.6,0.3,0.7,0.7,0.4,1L1476.7,327.9z"/>
						<path id="Path_63" class="st13" d="M1499.3,340.8c-0.6,0.2-1.2,0.1-1.8-0.2l-16.3-9.4c-0.6-0.3-0.7-0.8-0.4-1l10.9-6.3
							c0.6-0.2,1.2-0.1,1.8,0.2l16.3,9.4c0.6,0.3,0.7,0.8,0.4,1L1499.3,340.8z"/>
						<path id="Path_64" class="st13" d="M1521.8,353.8c-0.6,0.2-1.2,0.1-1.8-0.2l-16.3-9.4c-0.6-0.3-0.8-0.8-0.4-1l10.9-6.3
							c0.6-0.2,1.2-0.1,1.8,0.2l16.3,9.4c0.6,0.3,0.7,0.8,0.4,1L1521.8,353.8z"/>
						<path id="Path_65" class="st13" d="M1544.3,366.8c-0.6,0.2-1.2,0.1-1.8-0.2l-16.3-9.4c-0.6-0.3-0.7-0.7-0.3-1l10.9-6.3
							c0.6-0.2,1.2-0.1,1.8,0.2l16.3,9.4c0.6,0.3,0.7,0.8,0.4,1L1544.3,366.8z"/>
						<path id="Path_66" class="st13" d="M1566.8,379.8c-0.6,0.2-1.2,0.1-1.8-0.2l-16.3-9.4c-0.6-0.3-0.8-0.8-0.4-1l10.9-6.3
							c0.6-0.2,1.2-0.1,1.8,0.2l16.3,9.4c0.6,0.3,0.7,0.7,0.4,1L1566.8,379.8z"/>
						<path id="Path_67" class="st13" d="M1589.3,392.8c-0.6,0.2-1.2,0.1-1.8-0.2l-16.3-9.4c-0.6-0.3-0.7-0.7-0.3-1l10.8-6.3
							c0.6-0.2,1.2-0.1,1.8,0.2l16.3,9.4c0.6,0.3,0.7,0.7,0.4,1L1589.3,392.8z"/>
						<path id="Path_68" class="st13" d="M1463.9,303.2c-0.6,0.2-1.2,0.1-1.8-0.2l-16.4-9.4c-0.6-0.3-0.7-0.8-0.3-1l10.8-6.3
							c0.6-0.2,1.2-0.1,1.8,0.2l16.3,9.4c0.6,0.3,0.7,0.8,0.4,1L1463.9,303.2z"/>
						<path id="Path_69" class="st13" d="M1486.3,316.2c-0.6,0.2-1.2,0.1-1.8-0.2l-16.3-9.4c-0.6-0.3-0.7-0.7-0.3-1l10.8-6.3
							c0.6-0.2,1.2-0.1,1.8,0.2l16.3,9.4c0.6,0.3,0.7,0.8,0.3,1L1486.3,316.2z"/>
						<path id="Path_70" class="st13" d="M1508.8,329.2c-0.6,0.2-1.2,0.1-1.8-0.2l-16.3-9.4c-0.6-0.3-0.7-0.8-0.3-1l10.8-6.3
							c0.6-0.2,1.2-0.1,1.8,0.2l16.3,9.4c0.6,0.3,0.7,0.8,0.4,1L1508.8,329.2z"/>
						<path id="Path_71" class="st13" d="M1531.4,342.2c-0.6,0.2-1.2,0.1-1.8-0.2l-16.3-9.4c-0.6-0.3-0.7-0.8-0.3-1l10.9-6.3
							c0.6-0.2,1.2-0.1,1.8,0.2l16.3,9.4c0.6,0.3,0.7,0.8,0.3,1L1531.4,342.2z"/>
						<path id="Path_72" class="st13" d="M1553.8,355.2c-0.6,0.2-1.2,0.1-1.8-0.2l-16.3-9.4c-0.6-0.3-0.7-0.8-0.3-1l10.9-6.3
							c0.6-0.2,1.2-0.1,1.8,0.2l16.3,9.4c0.6,0.3,0.7,0.8,0.3,1L1553.8,355.2z"/>
						<path id="Path_73" class="st13" d="M1576.3,368.2c-0.6,0.2-1.2,0.1-1.8-0.2l-16.3-9.4c-0.6-0.3-0.7-0.7-0.3-1l10.9-6.3
							c0.6-0.2,1.2-0.1,1.8,0.2l16.3,9.4c0.6,0.3,0.7,0.8,0.4,1L1576.3,368.2z"/>
						<path id="Path_74" class="st13" d="M1598.9,381.1c-0.6,0.2-1.2,0.1-1.8-0.2l-16.3-9.4c-0.6-0.3-0.7-0.8-0.3-1l10.9-6.3
							c0.6-0.2,1.2-0.1,1.8,0.2l16.3,9.4c0.6,0.3,0.7,0.7,0.3,1L1598.9,381.1z"/>
						<path id="Path_75" class="st13" d="M1418.9,277.3c-0.6,0.2-1.2,0.1-1.8-0.2l-27.7-16c-0.6-0.3-0.7-0.8-0.3-1l10.9-6.3
							c0.6-0.2,1.2-0.1,1.8,0.2l27.7,16c0.6,0.3,0.7,0.8,0.4,1L1418.9,277.3z"/>
						<path id="Path_76" class="st13" d="M1636.2,385.5c-0.6,0.2-1.2,0.1-1.8-0.2l-27.7-16c-0.6-0.3-0.7-0.8-0.3-1l10.8-6.3
							c0.6-0.2,1.2-0.1,1.8,0.2l27.7,16c0.6,0.3,0.7,0.8,0.3,1L1636.2,385.5z"/>
						<path id="Path_77" class="st13" d="M1409.4,289c-0.6,0.2-1.2,0.1-1.8-0.2l-33.1-19.1c-0.6-0.3-0.7-0.8-0.4-1l10.9-6.3
							c0.6-0.2,1.2-0.1,1.8,0.2l33.1,19.1c0.6,0.3,0.7,0.8,0.4,1L1409.4,289z"/>
						<path id="Path_78" class="st13" d="M1383.4,291.2c-0.6,0.2-1.2,0.1-1.8-0.2l-22-12.7c-0.6-0.3-0.7-0.8-0.4-1l10.9-6.3
							c0.6-0.2,1.2-0.1,1.8,0.2l22,12.7c0.6,0.3,0.7,0.8,0.3,1L1383.4,291.2z"/>
						<path id="Path_79" class="st13" d="M1445,275.1c-0.6,0.2-1.2,0.1-1.8-0.2l-16.3-9.4c-0.6-0.3-0.7-0.8-0.4-1l10.8-6.3
							c0.6-0.2,1.2-0.1,1.8,0.2l16.3,9.4c0.6,0.3,0.7,0.8,0.4,1L1445,275.1z"/>
						<path id="Path_80" class="st13" d="M1467.4,288c-0.6,0.2-1.2,0.1-1.8-0.2l-16.3-9.4c-0.6-0.3-0.7-0.8-0.3-1l10.8-6.3
							c0.6-0.2,1.2-0.1,1.8,0.2l16.3,9.4c0.6,0.3,0.7,0.8,0.4,1L1467.4,288z"/>
						<path id="Path_81" class="st13" d="M1489.9,301c-0.6,0.2-1.2,0.1-1.8-0.2l-16.3-9.4c-0.6-0.3-0.7-0.8-0.3-1l10.9-6.3
							c0.6-0.2,1.2-0.1,1.8,0.2l16.3,9.4c0.6,0.3,0.7,0.7,0.3,1L1489.9,301z"/>
						<path id="Path_82" class="st13" d="M1512.4,314c-0.6,0.2-1.2,0.1-1.8-0.2l-16.3-9.4c-0.6-0.3-0.7-0.7-0.4-1l10.9-6.3
							c0.6-0.2,1.2-0.1,1.8,0.2l16.3,9.4c0.6,0.3,0.8,0.8,0.4,1L1512.4,314z"/>
						<path id="Path_83" class="st13" d="M1534.9,327c-0.6,0.2-1.2,0.1-1.8-0.2l-16.3-9.4c-0.6-0.3-0.7-0.7-0.4-1l10.9-6.3
							c0.6-0.2,1.2-0.1,1.8,0.2l16.3,9.4c0.6,0.3,0.7,0.8,0.3,1L1534.9,327z"/>
						<path id="Path_84" class="st13" d="M1557.4,340c-0.6,0.2-1.2,0.1-1.8-0.2l-16.3-9.4c-0.6-0.3-0.7-0.8-0.3-1l10.8-6.3
							c0.6-0.2,1.2-0.1,1.8,0.2l16.3,9.4c0.6,0.3,0.7,0.8,0.3,1L1557.4,340z"/>
						<path id="Path_85" class="st13" d="M1579.9,352.9c-0.6,0.2-1.2,0.1-1.8-0.2l-16.3-9.4c-0.6-0.3-0.7-0.8-0.4-1.1l10.8-6.3
							c0.6-0.2,1.2-0.1,1.8,0.2l16.3,9.4c0.6,0.3,0.7,0.8,0.3,1L1579.9,352.9z"/>
						<path id="Path_86" class="st13" d="M1602.4,365.9c-0.6,0.2-1.2,0.1-1.8-0.2l-16.3-9.4c-0.6-0.3-0.7-0.8-0.3-1l10.8-6.3
							c0.6-0.2,1.2-0.1,1.8,0.2l16.3,9.4c0.6,0.3,0.7,0.8,0.3,1L1602.4,365.9z"/>
						<path id="Path_87" class="st13" d="M1615.5,377.4c-0.3-0.2-0.6-0.3-1-0.3c-0.3-0.1-0.5,0-0.7,0.1l-10.9,6.3
							c-0.2,0.1-0.3,0.3-0.2,0.5c0.1,0.2,0.3,0.4,0.5,0.5l4.2,2.5l-14.2,8.2c-0.2,0.1-0.3,0.3-0.2,0.5c0.1,0.2,0.3,0.4,0.5,0.5
							l11,6.3c0.3,0.2,0.6,0.3,1,0.3c0.3,0.1,0.5,0,0.7-0.1l25.8-14.9c0.2-0.1,0.3-0.3,0.2-0.5c-0.1-0.2-0.3-0.4-0.5-0.6
							L1615.5,377.4z"/>
						<path id="Path_88" class="st13" d="M1380.5,286c-0.1,0-0.1,0-0.2-0.1l-12.5-7.2c-0.1-0.1-0.1-0.1-0.1-0.1l0.7-0.5
							c0.1,0,0.1,0,0.2,0.1l12.5,7.2c0.1,0.1,0.1,0.1,0.1,0.1L1380.5,286z"/>
					</g>
				</g>
			</g>
			<path id="Path_89" class="st15" d="M1810.6,434.4c-15.4,8.9-40.5,8.9-56-0.1s-15.6-23.5-0.2-32.3s40.5-8.9,56,0.1
				S1826.1,425.4,1810.6,434.4z"/>
			<g id="Group_32">
				<path id="Path_90" class="st6" d="M1796.5,428.5c-15.4,8.9-40.5,8.9-56-0.1c-15.5-9-15.6-23.5-0.2-32.3
					c15.4-8.9,40.5-8.9,56,0.1C1811.8,405.2,1812,419.6,1796.5,428.5z"/>
				<rect id="Rectangle_24" x="1728.6" y="348.5" class="st6" width="79.7" height="64"/>
				<path id="Path_91" class="st16" d="M1784.8,348.5v63.4h-0.1c0.1,5.9-3.8,11.8-11.5,16.3c-5,2.8-10.4,4.7-16,5.6
					c13.6,2.5,29,0.6,39.7-5.6c7.8-4.5,11.6-10.4,11.5-16.3h-0.1v-63.4H1784.8z"/>
				<path id="Path_92" class="st17" d="M1796.5,364.9c-15.4,8.9-40.5,8.9-56-0.1c-15.5-9-15.6-23.5-0.2-32.4
					c15.4-8.9,40.5-8.9,56,0.1C1811.8,341.6,1812,356,1796.5,364.9z"/>
				<path id="Path_93" class="st18" d="M1791.9,361.7c-12.7,7.4-33.5,7.3-46.3-0.1c-12.8-7.4-12.9-19.4-0.1-26.7
					c12.7-7.3,33.5-7.3,46.3,0.1C1804.6,342.3,1804.6,354.4,1791.9,361.7z"/>
				<path id="Path_94" class="st19" d="M1791.8,346.5c-12.8-7.4-33.6-7.5-46.3-0.1c-3.3,1.7-6,4.3-8,7.5c1.6,2.8,4.2,5.4,8.1,7.6
					c12.8,7.4,33.6,7.5,46.3,0.1c3.3-1.7,6-4.3,8-7.5C1798.3,351.4,1795.6,348.8,1791.8,346.5z"/>
				<path id="Path_95" class="st20" d="M1745.4,361.7c-3.3-1.7-6-4.3-8-7.5c1-1.7,2.3-3.3,3.8-4.6c11.1-1.8,23.5-0.3,32.2,4.8
					c3.3,1.7,6,4.3,8,7.5c0.7,1.1,1.1,2.3,1.4,3.6c-1.7,0.4-3.4,0.8-5.2,1C1766.5,368.3,1754.1,366.8,1745.4,361.7z"/>
				<g id="Group_31">
					<g id="Group_30">
						<path id="Path_96" class="st13" d="M1793.1,377.9c2.9,1.6,6,3,8.9,4.8c1.4,0.9,3.5,1.8,3.9,3.5c0.6,2.6,0.3,6,0.3,8.7
							c0.1,3.1,0.1,6.3,0.1,9.5c0,2.8-0.1,5.7-0.1,8.5c-0.1,1-0.1,2-0.1,3.1c0.1,1.1-0.3,0.3,0.9,0c0.6-0.1,0.9,0.1,0.7-0.1
							s-1.7-0.6-2.1-0.7c-1-0.4-2-0.9-3-1.4c-1.6-0.7-3.1-1.6-4.8-2.4c-5.8-3-11,5.8-5.1,8.8c4.4,2.2,9.7,6,14.7,6
							c9.3,0.1,8.9-11.2,9-17.5c0.1-8,0.7-16.6-0.7-24.4c-1.4-8-11.3-11.5-17.6-14.8C1792.5,366,1787.3,374.8,1793.1,377.9
							L1793.1,377.9z"/>
					</g>
				</g>
			</g>
			<g id="Group_33">
				<path id="Path_97" class="st1" d="M1572.1,504l-0.2-6.5l8.3,5.4c0,0-2.4,5.9-2.6,5.6C1577.4,508.3,1572.1,504,1572.1,504z"/>
				<path id="Path_98" class="st10" d="M1638.9,546.1l-64.4-37.2c-3.9-2.2-3.4-6.1,1.1-8.7l116.6-67.3c4.4-2.5,11.2-2.9,15-0.7
					l64.4,37.2c3.9,2.2,3.4,6.1-1.1,8.7l-116.6,67.3C1649.5,548,1642.8,548.3,1638.9,546.1z"/>
				<path id="Path_99" class="st21" d="M1645.9,510.3l46.3-77.5c4.5-2.5,11.2-2.9,15-0.6l64.4,37.2c3.9,2.2,3.4,6.1-1.1,8.7
					l-116.6,67.3c-2.4,1.3-5.1,2-7.8,2.1L1645.9,510.3z"/>
				<path id="Path_100" class="st22" d="M1696.7,484.6l11.8-16l65.8-2.8l-0.1,7.5l-71.9,22.9L1696.7,484.6z"/>
				<path id="Path_101" class="st13" d="M1581,508.3c0,1.1-0.7,1.6-1.8,1c-1.1-0.7-1.7-1.8-1.8-3.1c0-1.1,0.7-1.6,1.8-1
					C1580.3,506,1580.9,507.1,1581,508.3z"/>
				<path id="Path_102" class="st13" d="M1638.9,538.7l-64.4-37.2c-3.9-2.2-3.4-6.1,1.1-8.7l116.6-67.3c4.4-2.5,11.2-2.9,15-0.6
					l64.4,37.2c3.9,2.2,3.4,6.1-1.1,8.7l-116.6,67.3C1649.5,540.7,1642.8,540.9,1638.9,538.7z"/>
				<path id="Path_103" class="st19" d="M1741.6,451.1l-17.8-10.3c-0.7-0.4-0.6-1.2,0.2-1.6l0,0c0.9-0.5,1.9-0.5,2.9-0.1l17.8,10.3
					c0.7,0.4,0.6,1.2-0.2,1.6l0,0C1743.6,451.5,1742.6,451.5,1741.6,451.1z"/>
				<path id="Path_104" class="st13" d="M1612.5,528.5l-14.3-8.2c-0.7-0.5-1.1-1.3-1.1-2.1l0,0c0-0.8,0.5-1.2,1.1-0.9l14.3,8.2
					c0.7,0.5,1.1,1.3,1.1,2.1l0,0C1613.6,528.5,1613,528.8,1612.5,528.5z"/>
				<path id="Path_105" class="st19" d="M1754,484.3l7.1-4c0.4-0.4,0.7-0.9,0.7-1.4l0,0c0-0.6-0.3-0.8-0.7-0.6l-7.1,4
					c-0.4,0.4-0.7,0.9-0.7,1.4l0,0C1753.3,484.3,1753.6,484.6,1754,484.3z"/>
				<path id="Path_106" class="st19" d="M1744,490.6l7.1-4c0.4-0.4,0.7-0.9,0.7-1.4l0,0c0-0.6-0.3-0.7-0.7-0.6l-7.1,4.1
					c-0.4,0.4-0.7,0.9-0.7,1.4l0,0C1743.3,490.6,1743.6,490.9,1744,490.6z"/>
				<path id="Path_107" class="st19" d="M1620.4,515.4c-3.4,1.7-7.4,1.7-10.8,0c-3-1.8-3-4.5-0.1-6.3c3.4-1.7,7.4-1.7,10.9,0
					C1623.3,510.9,1623.3,513.6,1620.4,515.4z"/>
				<path id="Path_108" class="st14" d="M1695.9,429.3l-98.1,56.7c-1.6,0.9-2.2,3-1.3,4.7c0.3,0.5,0.7,1,1.3,1.3l59.5,34.4
					c1.1,0.6,2.3,0.6,3.4,0l98.1-56.7c1.6-0.9,2.2-3,1.3-4.7c-0.3-0.5-0.7-1-1.3-1.3l-59.5-34.4
					C1698.2,428.7,1696.9,428.7,1695.9,429.3z"/>
			</g>
			<g id="Group_34">
				<path id="Path_109" class="st7" d="M1659.6,321.4l-202.7-117c-3.3-2-5.5-7.1-4.7-11.6l17.6-108.1c0.7-4.5,4.1-6.6,7.4-4.6
					l202.7,117c3.3,2,5.5,7.1,4.7,11.6L1667,316.8C1666.2,321.2,1662.9,323.3,1659.6,321.4z"/>
				<path id="Path_110" class="st13" d="M1682.6,220.7l2.2-13.2c0.6-3.9-2-8.8-5.9-11.1L1478.2,80.6c-3.9-2.2-7.6-0.9-8.2,2.9
					l-2.2,13.2L1682.6,220.7z"/>
				<path id="Path_111" class="st23" d="M1485.4,97c-0.3,1.8-2,2.4-3.7,1.3c-1.8-1-2.9-3.3-2.7-5c0.3-1.8,2-2.4,3.7-1.3
					C1484.5,93,1485.5,95,1485.4,97z"/>
				<path id="Path_112" class="st24" d="M1498.2,104.4c-0.3,1.8-2,2.4-3.7,1.3c-1.8-1-2.9-3.3-2.7-5s2-2.4,3.7-1.3
					C1497.3,100.4,1498.5,102.7,1498.2,104.4z"/>
				<path id="Path_113" class="st6" d="M1511.1,111.9c-0.3,1.8-2,2.4-3.7,1.3c-1.8-1-2.9-3.3-2.7-5c0.3-1.8,2-2.4,3.7-1.3
					C1510.2,107.9,1511.4,110.1,1511.1,111.9z"/>
			</g>
			<g id="Group_36">
				<path id="Path_114" class="st25" d="M1468.9,87.5l-42.3-24.4c-2.2-1.2-4.3,0.1-4.8,3l-12.5,76.4c-0.5,2.9,0.9,6.3,3.1,7.5
					l42.3,24.4c2.2,1.2,4.3-0.1,4.8-3L1472,95C1472.4,92.1,1471.1,88.7,1468.9,87.5z"/>
				<g id="Group_35">
					<path id="Path_115" class="st23" d="M1444.5,178.4l-42.3-24.4c-2.2-1.2-3.5-4.6-3.1-7.5l12.5-76.4c0.5-2.9,2.6-4.2,4.8-3
						l42.3,24.4c2.2,1.2,3.5,4.6,3.1,7.5l-12.5,76.4C1448.8,178.3,1446.7,179.6,1444.5,178.4z"/>
					<path id="Path_116" class="st24" d="M1450.7,108.6l-32.9-18.9c-1.6-0.9-2.5-3.3-2.2-5.4l0,0c0.3-2.1,1.9-3.1,3.5-2.2l32.9,18.9
						c1.6,0.9,2.5,3.3,2.2,5.4l0,0C1453.9,108.5,1452.3,109.5,1450.7,108.6z"/>
					<path id="Path_117" class="st7" d="M1451.4,123.5l-37.4-21.7l1-6l37.4,21.6L1451.4,123.5z"/>
					<path id="Path_118" class="st7" d="M1449.1,137.3l-37.4-21.6l1-6.1l37.4,21.7L1449.1,137.3z"/>
					<path id="Path_119" class="st7" d="M1446.9,151.1l-37.4-21.7l1-6l37.5,21.6L1446.9,151.1z"/>
					<path id="Path_120" class="st7" d="M1425.5,153.1l-18.2-10.5l1-6l18.2,10.5L1425.5,153.1z"/>
				</g>
			</g>
			<g id="Group_37">
				<path id="Path_121" class="st13" d="M1512.3,214.5c-5,0-10.3-1.6-15.4-4.8c-8.3-5-15.6-13.5-20.6-23.9c-5-10.4-7.1-21.6-6-31.4
					c1.2-10.9,6.1-19,13.9-22.8c7.5-3.7,16.3-2.7,25.1,2.6c8.3,5,15.6,13.5,20.6,23.9c5,10.4,7.1,21.6,6,31.4
					c-1.2,10.9-6.1,19-13.9,22.8C1519,213.8,1515.7,214.5,1512.3,214.5z M1493.8,138.7c-1.9,0-3.8,0.4-5.5,1.2
					c-4.8,2.4-7.8,7.8-8.7,15.5c-1.8,16.7,8.3,38,22.2,46.3c6,3.6,11.6,4.3,16.1,2.2c4.8-2.4,7.8-7.8,8.7-15.5l0,0
					c1.8-16.7-8.3-38-22.2-46.3C1500.7,139.8,1497,138.7,1493.8,138.7L1493.8,138.7z"/>
			</g>
			<path id="Path_122" class="st8" d="M1501.5,153.7l15.9,26.9c1,1.6,0.5,3.6-0.9,3.5l-19.9-1c-1.4-0.1-2.6-2-2.4-3.6l4-25.8
				C1498.5,151.9,1500.4,151.9,1501.5,153.7z"/>
			<g id="Group_39">
				<path id="Path_123" class="st26" d="M1655.8,311.2l-114-65.9c-2.2-1.2-3.5-4.6-3.1-7.5l12.5-76.4c0.5-2.9,2.6-4.2,4.8-3
					l114,65.9c2.2,1.2,3.5,4.6,3.1,7.5l-12.5,76.4C1660.1,311.2,1657.9,312.5,1655.8,311.2z"/>
				<g id="Group_38">
					<path id="Path_124" class="st24" d="M1660.5,240.5l-101.6-58.6c-1.6-0.9-2.5-3.3-2.2-5.4l0,0c0.3-2.1,1.9-3.1,3.5-2.2
						l101.6,58.6c1.6,0.9,2.5,3.3,2.2,5.4l0,0C1663.6,240.5,1662.1,241.4,1660.5,240.5z"/>
					<path id="Path_125" class="st13" d="M1657.5,253.3l-39.6-22.9c-1.4-1-2-2.7-1.8-4.3l0,0c0.3-1.6,1.5-2.4,2.7-1.7l39.6,22.9
						c1.4,1,2,2.7,1.8,4.3l0,0C1660,253.3,1658.8,254.1,1657.5,253.3z"/>
					<path id="Path_126" class="st13" d="M1597.4,218.6l-39.6-22.9c-1.4-1-2-2.7-1.8-4.3l0,0c0.3-1.6,1.5-2.4,2.7-1.7l39.6,22.9
						c1.4,1,2,2.7,1.8,4.3l0,0C1599.8,218.5,1598.6,219.3,1597.4,218.6z"/>
					<path id="Path_127" class="st7" d="M1657.5,268.5l-44.1-25.5l1-6l44.1,25.5L1657.5,268.5z"/>
					<path id="Path_128" class="st7" d="M1597.3,233.7l-44.1-25.5l1-6l44.1,25.4L1597.3,233.7z"/>
					<path id="Path_129" class="st7" d="M1655.3,282.3l-44.1-25.4l1-6l44.1,25.4L1655.3,282.3z"/>
					<path id="Path_130" class="st7" d="M1595,247.5l-44.1-25.4l1-6.1l44.1,25.5L1595,247.5z"/>
					<path id="Path_131" class="st7" d="M1567,245.6l-18.2-10.5l1-6.1l18.2,10.5L1567,245.6z"/>
					<path id="Path_132" class="st7" d="M1627.3,280.5l-18.2-10.5l1-6l18.2,10.5L1627.3,280.5z"/>
				</g>
			</g>
			<path id="Path_133" class="st1" d="M1224.3,346.4c-2-4.2-6.9-5.8-11.1-3.3c-0.1,0-0.1,0.1-0.1,0.1l0,0l-7.8,4.5
				c-0.3,0.1-0.6,0.3-0.9,0.5c-0.1,0-0.1,0.1-0.1,0.1l0,0l-2.9,1.6l0,0L1118,398c-0.3,0-0.5,0.2-0.7,0.3l-6.6,10.5l0,0l-6.3,8.8
				l12.2-2.5l0,0l9.5-1.7c0.3-0.3,0.6-0.7,0.7-1.2l0.3,0.3l78-45c-0.3,0.3-0.6,0.6-1,0.8c0,0-0.1,0-0.1,0.1l0,0l3.9-2.2l0,0
				c0.1,0,0.1,0,0.1-0.1c0.3-0.2,0.6-0.4,0.9-0.7l2.7-1.5l0,0c0.1,0,0.1,0,0.1-0.1c0.6-0.3,1.1-0.8,1.5-1.3l6.9-4l0,0
				c0,0,0.1,0,0.1-0.1C1224.5,356.1,1226.3,350.7,1224.3,346.4z"/>
			<g id="Group_40">
				<path id="Path_134" class="st8" d="M1202.7,340.5c-0.1,0-0.1,0.1-0.1,0.1l0,0l-14.9,8.6c-4.2,2.5-5.9,7.6-4,12.1
					c2,4.2,6.9,5.8,11.1,3.3l14.9-8.6l0,0c0,0,0.1,0,0.1-0.1c4.2-2.5,5.9-7.6,4-12.1C1211.9,339.6,1206.9,338.1,1202.7,340.5z"/>
				<path id="Path_135" class="st13" d="M1202.1,360.6l-85.6,49.5l-5.6-8l90.8-52.6L1202.1,360.6z"/>
				<path id="Path_136" class="st19" d="M1111,402.1c-1.2-4.1-3.9-1-3.7-6.5l85.1-49.2c6.4-1.7,8.9-0.1,9.6,2.9L1111,402.1z"/>
				<path id="Path_137" class="st4" d="M1193.9,345.6c-0.1,0-0.1,0.1-0.1,0.1l0,0l-2.9,1.6c3.9-1.8,8.5-0.1,10.3,3.8c0,0,0,0,0,0
					l0.1,0.1c2,4.5,0.3,9.8-3.9,12.3c0,0-0.1,0-0.1,0.1l0,0l3.9-2.2l0,0c0,0,0.1,0,0.1-0.1C1208.9,356.7,1201.6,340.9,1193.9,345.6z
					"/>
				<path id="Path_138" class="st4" d="M1201.3,351.4c-2-4.4-5.4-6.9-9.6-4.5c-0.1,0-1.7,1-1.8,1l0,0l-2.9,1.6
					c5.5-2.9,14.1,11.4,6.5,16.2c0,0-0.1,0-0.1,0.1l0,0l3.9-2.2l0,0c0,0,0.1,0,0.1-0.1C1201.6,361.1,1203.3,355.9,1201.3,351.4z"/>
				<path id="Path_139" class="st4" d="M1106.8,395.8l-11.8,18.7l20.6-3.7C1119.9,406.1,1111,393,1106.8,395.8z"/>
				<path id="Path_140" class="st19" d="M1093.9,415.1l6.3-8.8c0,0,0.9-0.9,2.2,0.9c1.2,1.8,1.8,0.3,2.9,2.5
					c1.1,2.2,0.7,2.9,0.7,2.9L1093.9,415.1z"/>
			</g>
			<g id="Group_42">
				<g id="Group_41">
					<path id="Path_141" class="st27" d="M1219.9,188.3c-0.7,4.6-1.6,9.4-3.7,13.6c-2,3.8-4.5,7.3-6.3,11c-1.5,2.9-2.6,5.9-2,9.2
						c0.7,3.9,2,7.6,2.5,11.6c0.5,4.5,7.6,4.6,7.2,0c-0.5-4.1-1.3-8.2-2.5-12.2c-0.3-0.7-0.3-1.4-0.1-2.1c0.4-1.8,1.5-3.5,2.4-5.1
						c1.9-3.3,4-6.4,5.6-9.9c2-4.5,3.3-9.3,3.9-14.2C1227.5,185.7,1220.6,183.7,1219.9,188.3L1219.9,188.3z"/>
				</g>
			</g>
			<g id="Group_44">
				<g id="Group_43">
					<path id="Path_142" class="st28" d="M1219.3,187.9c-2.9,8.3-6.9,16.1-10.1,24.3c-1,2.4,1,5.2,3.3,5.9c2.7,0.8,4.9-1,5.9-3.3
						c3.3-8.2,7.2-15.9,10.1-24.3C1230.6,184.6,1221.3,182.1,1219.3,187.9z"/>
				</g>
			</g>
			<g id="Group_66">
				<g id="Group_46">
					<g id="Group_45">
						<path id="Path_143" class="st27" d="M1523.7,277.1c-4.1,6-6.5,13.1-8.6,20c-1.9,6.1-3.5,12.2-4.9,18.4
							c-0.3,1.2-0.6,2.4-0.8,3.5c-0.3,1.8,0.4,2.9,1,4.6c3,8.4,5,17.2,6,26.1c0.5,4.8,8,4.8,7.6,0c-0.9-9-2.8-17.9-5.7-26.5
							c-0.3-1-0.7-2.1-1.1-3.1c-0.9-1.8,0.6-0.3-0.5,0.9c0.5-0.6,0.5-2.5,0.7-3.3c1.4-6,2.9-12,4.7-17.9c2-6.5,4.2-13.3,8.1-19
							C1533,276.8,1526.5,273.1,1523.7,277.1L1523.7,277.1z"/>
					</g>
				</g>
				<path id="Path_144" class="st9" d="M1521.6,280.1c-5,8.7-8.6,23.5-11.9,35.3c-1.2,3.3-0.5,6.3,1.6,6.1l6.9,1
					c1.7-0.1,5-3.8,5.8-6.6l8.8-30.3c1.4-4.9,0.4-9.1-2.4-9.8l-0.7-0.1C1529.3,273.9,1525.3,273.9,1521.6,280.1z"/>
				<g id="Group_49">
					<g id="Group_47">
						<path id="Path_145" class="st3" d="M1503.3,323.1l2.4,27.6c0,0.2,0.2,0.4,0.5,0.4c0,0,0,0,0,0c0.1,0,0.2,0,0.2-0.1l31.1-21.8
							c0.1-0.1,0.2-0.2,0.2-0.4l-2.4-27.6c0-0.2-0.2-0.4-0.5-0.4c-0.1,0-0.2,0-0.2,0.1l-31,21.8
							C1503.4,322.8,1503.3,323,1503.3,323.1z"/>
						
							<rect id="Rectangle_25" x="1506" y="350.2" transform="matrix(0.4221 -0.9065 0.9065 0.4221 552.6591 1568.3099)" class="st3" width="1" height="1"/>
						
							<rect id="Rectangle_26" x="1534.7" y="301" transform="matrix(0.4221 -0.9065 0.9065 0.4221 613.8248 1565.8833)" class="st3" width="1" height="1"/>
					</g>
					<path id="Path_146" class="st2" d="M1504,323.4l2.4,27.6c0,0.2,0.2,0.4,0.5,0.4c0,0,0,0,0,0c0.1,0,0.2,0,0.2-0.1l31-21.8
						c0.1-0.1,0.2-0.2,0.2-0.4l-2.4-27.6c0-0.2-0.2-0.4-0.5-0.4c-0.1,0-0.2,0-0.2,0.1l-31,21.8C1504.1,323.1,1504,323.3,1504,323.4z
						"/>
					<path id="Path_147" class="st4" d="M1504,324.7l2.1,24.1l6.7,3.1l-2.1-24.1L1504,324.7z"/>
					<g id="Group_48">
						<path id="Path_148" class="st3" d="M1509.2,325.8l2.4,27.6c0,0.2,0.2,0.4,0.5,0.4c0.1,0,0.2,0,0.2-0.1l31-21.8
							c0.1-0.1,0.2-0.2,0.2-0.4l-2.4-27.6c0-0.2-0.2-0.4-0.5-0.4c-0.1,0-0.2,0-0.2,0.1l-31,21.8
							C1509.3,325.5,1509.2,325.7,1509.2,325.8z"/>
						
							<rect id="Rectangle_27" x="1512" y="352.9" transform="matrix(0.4221 -0.9065 0.9065 0.4221 553.5964 1575.3416)" class="st3" width="1" height="1"/>
						
							<rect id="Rectangle_28" x="1540.5" y="303.8" transform="matrix(0.4221 -0.9065 0.9065 0.4221 614.751 1572.712)" class="st3" width="1" height="0.7"/>
					</g>
					<path id="Path_149" class="st8" d="M1509.9,326.2l2.4,27.5c0,0.2,0.2,0.4,0.5,0.4c0,0,0,0,0,0c0.1,0,0.2,0,0.2-0.1l31-21.8
						c0.1-0.1,0.2-0.2,0.2-0.4l-2.4-27.6c0-0.2-0.2-0.4-0.5-0.4c-0.1,0-0.2,0-0.2,0.1l-31,21.8C1510,325.9,1509.9,326,1509.9,326.2z
						"/>
					<path id="Path_150" class="st3" d="M1503.4,322.7l31.5-21.8l5.9,2.7l-30.7,22.2L1503.4,322.7z"/>
					<line id="Line_41" class="st29" x1="1508.5" y1="349.9" x2="1506.5" y2="326.6"/>
					<line id="Line_42" class="st29" x1="1510.4" y1="350.8" x2="1508.5" y2="327.5"/>
					<line id="Line_43" class="st29" x1="1507.2" y1="349.3" x2="1505.2" y2="326"/>
					<path id="Path_151" class="st30" d="M1507.7,340.5c0,0-3.3,1.7-5.5,0.9l-0.1-2.4c0,0,4.2,0.1,5.4-0.7L1507.7,340.5z"/>
				</g>
				<path id="Path_152" class="st27" d="M1582.5,308l2.5,3.2c1.6,2.1,4.6,2.4,6.7,0.8l0,0c2-1.6,2.4-4.6,0.8-6.7l-2.5-3.2
					c-1.6-2-4.6-2.4-6.7-0.8l0,0C1581.3,303,1580.9,306,1582.5,308z"/>
				<g id="Group_50">
					<path id="Path_153" class="st8" d="M1571.6,354.9c0-0.1,0.1-0.1,0.1-0.2l0,0l5.8-16.6c1.6-4.7-0.5-9.8-4.9-11.9
						c-3.9-1.8-8.5-0.2-10.4,3.7c0,0,0,0,0,0c-0.2,0.3-0.3,0.7-0.4,1.1l-5.8,16.6l0,0c0,0.1,0,0.1-0.1,0.1
						c-1.6,4.6,0.5,9.8,4.9,11.9C1565.2,361.7,1570,359.5,1571.6,354.9z"/>
					<path id="Path_154" class="st31" d="M1558.7,339l33.3-95l9.5,2.5l-35.2,100.8L1558.7,339z"/>
					<path id="Path_155" class="st32" d="M1601.6,246.6c3.6,2.4,3.6-1.8,7.1,2.6l-33.1,94.5c-3.9,5.6-6.8,6-9.3,4.1L1601.6,246.6z"
						/>
					<path id="Path_156" class="st4" d="M1575.1,345.2c0-0.1,0.1-0.1,0.1-0.2l0,0l1.1-3.2c-1.8,4-6.6,5.7-10.5,3.8c0,0,0,0,0,0
						l-0.1,0c-4.5-2.2-6.7-7.4-5.1-12.1c0-0.1,0-0.1,0.1-0.1l0,0l-1.6,4.2l0,0c0,0.1,0,0.1-0.1,0.1
						C1556.1,346.5,1572.2,353.9,1575.1,345.2z"/>
					<path id="Path_157" class="st4" d="M1565.5,345.6c4.5,2,8.8,1.8,10.4-2.9c0-0.1,0.7-1.9,0.7-2l0,0l1.1-3.2
						c-2.4,5.8-18.4,0.6-15.7-8.2c0,0,0-0.1,0.1-0.1l0,0l-1.6,4.2l0,0c0,0.1,0,0.1-0.1,0.1C1558.8,338.3,1561.1,343.5,1565.5,345.6z
						"/>
					<path id="Path_158" class="st7" d="M1609.1,248.6l-3.3-22.3l-13.4,16.5C1592.1,249.4,1607.7,253.6,1609.1,248.6z"/>
					<path id="Path_159" class="st23" d="M1606.2,225.2l1,11c0,0-0.1,1.3-2.2,0.8s-1.6,1-3.9,0.1s-2.5-1.7-2.5-1.7L1606.2,225.2z"/>
				</g>
				<path id="Path_160" class="st33" d="M1572.1,455.7c-12.4,7.1-32.3,7.1-44.8-0.1c-12.4-7.1-12.5-18.8-0.1-25.8s32.3-7.1,44.8,0.1
					C1584.4,437,1584.4,448.6,1572.1,455.7z"/>
				<path id="Path_161" class="st27" d="M1526.1,351l-2.5,1.2c-2,0.9-4.3,0-5.2-1.9l0,0l0,0c-0.9-2,0-4.3,1.9-5.2l0,0l2.5-1.2
					c2-0.9,4.3,0,5.1,1.9c0,0,0,0,0,0l0,0l0,0C1528.8,347.8,1528,350,1526.1,351z"/>
				<path id="Path_162" class="st34" d="M1542.5,437.1c-0.3,0.2-3.7,1.9-3.9,2.1c-0.3,0.3-1.3,1.1-1.9,1.5c-1.2,0.9-3.9,4.3-8.2,1.9
					c-6.3-3.5,8.8-13.6,8.8-13.6l6.7-3.5c0.8-0.4,1.8-0.4,2.6,0l0,0c1.5,0.7,2.1,2.6,1.4,4.1l-0.1,0.1
					C1546.4,432.3,1546.3,433.8,1542.5,437.1z"/>
				
					<linearGradient id="Path_163_1_" gradientUnits="userSpaceOnUse" x1="544.2081" y1="-140.0272" x2="544.9549" y2="-140.0272" gradientTransform="matrix(28.49 0 0 24.37 -13767.0293 3844.9048)">
					<stop  offset="0" style="stop-color:#E1EAF4"/>
					<stop  offset="0.56" style="stop-color:#ABC6E6"/>
					<stop  offset="0.65" style="stop-color:#A8C4E5"/>
				</linearGradient>
				<path id="Path_163" class="st35" d="M1541.7,435.2c-0.3,0.2-3.7,1.9-3.9,2.1c-0.3,0.3-1.3,1.1-1.9,1.5c-1.2,0.9-3.9,4.3-8.2,1.9
					c-6.3-3.5,8.8-13.6,8.8-13.6l6.7-3.5c0.8-0.4,1.8-0.4,2.6,0l0,0c1.5,0.7,2.1,2.6,1.4,4c0,0,0,0,0,0l-0.1,0.1
					C1545.7,430.4,1545.6,431.9,1541.7,435.2z"/>
				<g id="Group_52">
					<path id="Path_164" class="st36" d="M1555.5,252.6l0.1,1.4c0,0,0.2,4.3-4,2.1c-4.2-2.2-4.1-7.6-4.1-7.6
						S1550.6,248.2,1555.5,252.6z"/>
					<path id="Path_165" class="st37" d="M1551.4,256.3c5.6,2.9,5.4-2.2,5.4-2.2h0.1l-0.2-1.7c-6.1-5.3-10.1-5-10.1-5
						S1545.9,253.4,1551.4,256.3z M1547.6,248.8c0,0,3.1-0.2,7.8,3.9l0.1,1.2c0,0,0.1,3.7-4,1.6
						C1547.4,253.3,1547.6,248.8,1547.6,248.8L1547.6,248.8z"/>
					<path id="Path_166" class="st37" d="M1558.8,255.1l-3.3-1.5l-0.2-1.9l3.3,1.5L1558.8,255.1z"/>
					<path id="Path_167" class="st37" d="M1546.8,248.8l-0.6-0.3c-0.4-0.2-0.6-0.6-0.7-1l0,0c-0.1-0.4,0.2-0.6,0.5-0.5l0.6,0.3
						c0.4,0.2,0.6,0.6,0.6,1l0,0C1547.4,248.8,1547.2,249,1546.8,248.8z"/>
					<path id="Path_168" class="st37" d="M1568.1,258.5l-0.6-0.3c-0.4-0.2-0.6-0.6-0.7-1l0,0c-0.1-0.4,0.2-0.6,0.5-0.5l0.6,0.3
						c0.4,0.2,0.6,0.6,0.6,1l0,0C1568.6,258.5,1568.4,258.7,1568.1,258.5z"/>
					<g id="Group_51">
						<path id="Path_169" class="st36" d="M1558.9,254.3l0.2,1.4c0,0,0.7,4.4,4.7,6s2.9-4.2,2.9-4.2S1563.2,254.1,1558.9,254.3z"/>
						<path id="Path_170" class="st37" d="M1567.6,257c0,0-4.3-4-10-4.1l0.2,1.7h0.1c0.7,3.4,3.1,6.2,6.3,7.5
							C1569.5,264.2,1567.6,257,1567.6,257z M1563.8,261.2c-2.4-0.9-4.1-3-4.6-5.5l-0.2-1.3c4.3,0,7.8,3.2,7.8,3.2
							S1567.9,262.8,1563.8,261.2z"/>
						<path id="Path_171" class="st38" d="M1559.9,256.6L1559.9,256.6c-0.1-0.2-0.2-0.4-0.1-0.5l1-1.1c0.1-0.1,0.3-0.1,0.4,0.1l0,0
							c0.1,0.2,0.2,0.4,0.1,0.5l-1,1.1C1560.2,256.8,1560,256.7,1559.9,256.6z"/>
					</g>
					<path id="Path_172" class="st38" d="M1548.2,251L1548.2,251c-0.1-0.2-0.2-0.4-0.1-0.5l1-1.1c0.1-0.1,0.3-0.1,0.4,0.1l0,0
						c0.1,0.2,0.2,0.4,0.1,0.5l-1,1.1C1548.5,251.2,1548.3,251.2,1548.2,251z"/>
				</g>
				<path id="Path_173" class="st34" d="M1566,451.5c-0.3,0.1-4,1.2-4.2,1.3c-0.4,0.2-1.5,0.7-2.2,1.1c-1.4,0.6-4.7,3.5-8.4,0.3
					c-5.5-4.7,11.3-11.6,11.3-11.6l7.3-2.1c0.9-0.3,1.9-0.1,2.6,0.5l0,0c1.3,1,1.6,3,0.5,4.3c0,0,0,0,0,0l-0.1,0.1
					C1570.8,447.6,1570.4,449,1566,451.5z"/>
				
					<linearGradient id="Path_174_1_" gradientUnits="userSpaceOnUse" x1="543.2872" y1="-142.9922" x2="544.0341" y2="-142.9922" gradientTransform="matrix(31.4 0 0 20.44 -15346.8896 3368.8291)">
					<stop  offset="0" style="stop-color:#E1EAF4"/>
					<stop  offset="0.56" style="stop-color:#ABC6E6"/>
					<stop  offset="0.65" style="stop-color:#A8C4E5"/>
				</linearGradient>
				<path id="Path_174" class="st39" d="M1565.7,449.5c-0.3,0.1-4,1.2-4.2,1.3c-0.4,0.2-1.5,0.7-2.2,1.1c-1.4,0.7-4.7,3.5-8.4,0.3
					c-5.5-4.7,11.3-11.6,11.3-11.6l7.3-2.1c0.9-0.2,1.9-0.1,2.6,0.5l0,0c1.3,1,1.6,3,0.5,4.3c0,0,0,0,0,0c0,0,0,0.1-0.1,0.1
					C1570.5,445.5,1570.1,447,1565.7,449.5z"/>
				<g id="Group_54">
					<g id="Group_53">
						<path id="Path_175" class="st40" d="M1547,362.2c5,14.7,5.5,30.6,5,46c-0.3,11.5-2.2,23.1-1.9,34.6c0.2,7.5,11.9,7.6,11.8,0
							c-0.3-11.8,1.6-23.7,1.9-35.5c0.5-16.1-0.2-32.8-5.5-48.2C1555.9,352,1544.5,355,1547,362.2L1547,362.2z"/>
					</g>
				</g>
				<g id="Group_56">
					<g id="Group_55">
						<path id="Path_176" class="st40" d="M1523.3,348.9c2.6,9.3,3.8,18.9,4.7,28.5c0.6,6,1.4,11.8,0.7,17.7
							c-1.2,11.8-3.5,23.8-3.3,35.6c0.1,7.6,11.8,7.6,11.8,0c-0.1-12,2.2-24.2,3.4-36.1c0.7-6.1-0.3-12.2-0.9-18.3
							c-1-10.3-2.3-20.6-5-30.5C1532.7,338.6,1521.4,341.6,1523.3,348.9L1523.3,348.9z"/>
					</g>
				</g>
				<g id="Group_58">
					<g id="Group_57">
						<path id="Path_177" class="st4" d="M1560.4,441.9c-2.5,2.2-7.6,1.9-9.6-0.8c0,1.5-0.1,3,0,4.6c0.1,6.1,9.7,6.2,9.6,0V441.9z"
							/>
					</g>
				</g>
				<g id="Group_59">
					<path id="Path_178" class="st40" d="M1533,364.5L1533,364.5c1.1,1.2-3.6-4.7-2.2-3.9c2.9,1.8,19.2,12.8,22.6,12.9
						c4.1,0.1,1.7-3.9,4.8-6.6c2.9-2.6,3.6-6.8,3.9-10.7c0.2-1.1,0-2.2-0.3-3.2c-0.6-1-1.4-1.9-2.4-2.6c-7.3-5.5-21.5-19-31.6-14.7
						C1516.1,340.8,1527.8,358.7,1533,364.5z"/>
				</g>
				<path id="Path_179" class="st23" d="M1524.5,277.7c-2.2,2.7-1.9,4.4-1.8,8.2c0.1,3.7,2.6,6.9,6.1,7.9l36.3,10.2
					c0,0,2.1-14-5.1-18.2c-3.9-2.3-9.9-5.9-14.5-8.8C1538.6,273,1529.4,271.4,1524.5,277.7z"/>
				<path id="Path_180" class="st27" d="M1541,277.3l3.1-13.7l8.4,5.6l-2.5,12.5C1549.7,283.7,1540.4,281.9,1541,277.3z"/>
				<path id="Path_181" class="st27" d="M1546.1,243.7c0,0-8.4-5.8-8.4,8.4c0,9.5,5.4,18.1,14,22.2c5,2.4,11.2-0.7,11.4-5.6
					c1.2-7.1,1.2-13.9-1.1-19.6c0.3-5.9-3.7-3.8-10.8-4.2L1546.1,243.7z"/>
				<path id="Path_182" class="st41" d="M1541.3,271.2c0,0-9.7-3.6-8.8-17.2c1-14.7,14.6-13.4,22.1-14.2c3.3-0.3,2.5-1.2,6,1.9
					c3.1,2.7,3.3,9.4-1.2,9.7c-1.8,0.1-1,4.9-1.3,6.5c-0.6,2.9-2.4,4.3-3.1,7.1c-0.6,2.7-4.6,6.9-7.1,7.1
					C1543.3,272.7,1541.3,271.2,1541.3,271.2z"/>
				<path id="Path_183" class="st23" d="M1522.5,343.3c-2.3-0.9-1.8-40.6,0.3-62.5l40.8,19.4c-0.2,18.7-2.5,33.4-0.3,56.1
					L1522.5,343.3z"/>
				<path id="Path_184" class="st23" d="M1549.8,360.4c-10.1-3.7-19.7-7.7-25.4-14.6c-2.7-1.6-2.4-4.4,0.7-6.3l0,0
					c3.2-1.8,8.1-2,10.9-0.5l25.4,14.6c2.7,1.6,2.4,4.4-0.7,6.3l0,0C1557.4,361.8,1552.5,362.1,1549.8,360.4z"/>
				<path id="Path_185" class="st9" d="M1563.7,300.3l-6.7-3.2c-0.3,18.2-2.5,32.8-0.3,55.2l-0.1-0.1c0.1,1.2-0.8,2.6-2.7,3.7l0,0
					c-3.2,1.8-8.1,2-10.9,0.5c-4.7-1.6-9.3-3.6-13.8-5.8c5.6,4.2,12.9,7.3,20.5,10c2.7,1.6,7.6,1.4,10.9-0.5l0,0
					c1.8-1,2.7-2.4,2.7-3.7l0.1,0.1C1561.2,333.7,1563.5,318.9,1563.7,300.3z"/>
				<path id="Path_186" class="st42" d="M1548.3,440.1l0.1,4.2c0,0.2,0.1,0.4,0.2,0.5c1.8,2.4,4.8,3.6,7.8,2.9c4-0.7,6.2-2,7.1-2.5
					c0.2-0.2,0.4-0.5,0.4-0.7l-0.4-4.3c0-0.5-0.5-0.9-1-0.8c-0.1,0-0.2,0-0.4,0.1c-2,1.2-6.6,3-12.4-0.1c-0.5-0.3-1.1-0.1-1.4,0.4
					C1548.4,439.8,1548.4,440,1548.3,440.1z"/>
				<g id="Group_61">
					<g id="Group_60">
						<path id="Path_187" class="st4" d="M1536.1,429.4c-2.5,2.2-7.6,1.9-9.6-0.8c0,1.5-0.1,3,0,4.6c0.1,6.1,9.7,6.2,9.6,0
							C1536,431.9,1536,430.6,1536.1,429.4z"/>
					</g>
				</g>
				<path id="Path_188" class="st42" d="M1524,427.6l0.1,4.2c0,0.2,0.1,0.4,0.2,0.5c1.8,2.4,4.8,3.6,7.8,2.9c4-0.7,6.2-2,7.1-2.5
					c0.3-0.2,0.4-0.5,0.4-0.8l-0.4-4.3c0-0.5-0.5-0.9-0.9-0.8c-0.1,0-0.2,0-0.4,0.1c-2,1.2-6.6,3-12.4-0.1c-0.4-0.3-1-0.2-1.3,0.3
					C1524,427.2,1524,427.3,1524,427.6L1524,427.6z"/>
				<path id="Path_189" class="st37" d="M1567.8,259l-12.5,1.2c-0.4,0.1-0.8-0.2-0.9-0.7c0,0,0,0,0,0l0,0l0,0
					c-0.1-0.4,0.3-0.9,0.7-0.9l0,0l12.5-1.2c0.4-0.1,0.8,0.3,0.9,0.7l0,0l0,0c0.1,0.4-0.2,0.8-0.6,0.9
					C1567.9,258.9,1567.9,258.9,1567.8,259L1567.8,259z"/>
				<path id="Path_190" class="st43" d="M1555.3,283.1c-9.3-1.4-15.7,4.5-17.9-9l0,0c1.4-0.8,3.2-0.4,4.1,0.9c1.6,2.4,5,3.8,8.8,3.3
					c1.1-0.1,2.3,0.4,2.9,1.4L1555.3,283.1z"/>
				<g id="Group_63">
					<g id="Group_62">
						<path id="Path_191" class="st27" d="M1556.8,295.3c0.5,7.1,1.6,13.8,4.4,20.4c1.4,3.3,3.1,6.5,4.6,9.7c1.2,2.5,2.6,5,4.7,6.9
							c11.8,10.5,20.2-12.2,22.5-19.9c1.5-4.6-5.8-6.6-7.3-2c-1.6,5.1-3.5,11.5-7.3,15.4c-0.5,0.5-1,0.9-1.6,1.2c0,0-0.5,0-0.2,0.1
							c-1-0.4-1.8-1.1-2.3-2c-2.9-4.1-5.1-9.4-6.9-14.1c-2-5.1-2.7-10.5-3.1-15.9C1564,290.5,1556.5,290.4,1556.8,295.3
							L1556.8,295.3z"/>
					</g>
				</g>
				<path id="Path_192" class="st23" d="M1553.1,295.2c2.3,19.3,8.4,31.6,16.8,37.8c4.5,2.5,8.6-4.6,6.9-8.8
					c-8.4-7.5-11.4-19.1-12.2-32.4c-1.2-2.7-4.3-4.2-7.2-3.4l0,0C1554.4,289.2,1552.5,292.1,1553.1,295.2z"/>
				<path id="Path_193" class="st44" d="M1550.2,266.3c-0.5,0.3-1.5,10.2,6.8,8.6c8.3-1.6,6.6-9.9,6.6-9.9s-6.6,1.7-8.4-6.5
					C1553.4,250.4,1550.2,266.3,1550.2,266.3z"/>
				<path id="Path_194" class="st27" d="M1557.2,262.2c0.2,2.4-1,4.3-2.7,4.5h-0.5c-1.4-0.3-2.7-1.9-2.9-3.9c-0.2-2.4,1-4.3,2.7-4.5
					C1555.5,258.1,1557,259.9,1557.2,262.2z"/>
				<g id="Group_65">
					<path id="Path_195" class="st24" d="M1530.4,242.3l-0.3,13.4h-1.4l0.1-12.3L1530.4,242.3z"/>
					<path id="Path_196" class="st45" d="M1563.1,241.7l-0.4,10.7l0,0c-0.1,2.7-4,8.8-14.2,8.8c-9.1,0-15.5-7.1-15.5-9.7l0.2-6.1
						l1.8-5.5L1563.1,241.7z"/>
					
						<linearGradient id="Path_197_1_" gradientUnits="userSpaceOnUse" x1="541.6179" y1="-135.7558" x2="542.3651" y2="-135.7558" gradientTransform="matrix(39.81 0 0 28.35 -20029.0313 4096.9253)">
						<stop  offset="0" style="stop-color:#2E303A"/>
						<stop  offset="0.86" style="stop-color:#2C2E3A"/>
					</linearGradient>
					<path id="Path_197" class="st46" d="M1538.3,237.7l-5.1,2.7v9.1l16.9,9.4l12.7-7.5l0.2-10.3l-5.1-3L1538.3,237.7z"/>
					<path id="Path_198" class="st47" d="M1530.4,245l-1.5-0.9l-0.1,1.3l1.5,0.9L1530.4,245z"/>
					
						<ellipse id="Ellipse_5" transform="matrix(0.9999 -1.727790e-02 1.727790e-02 0.9999 -4.2117 26.4613)" class="st24" cx="1529.3" cy="257" rx="2.2" ry="2.4"/>
					<g id="Group_64">
						<path id="Path_199" class="st19" d="M1570,244.5l-20.3,11.9l-0.2-1.5l20.4-12L1570,244.5z"/>
						<path id="Path_200" class="st48" d="M1569.9,242.9l-22.5-13.1l-20.6,11.9l22.7,13.3L1569.9,242.9z"/>
						<path id="Path_201" class="st19" d="M1549.7,256.4l-22.6-13.3l-0.3-1.5l22.7,13.3L1549.7,256.4z"/>
					</g>
				</g>
			</g>
			<path id="Path_202" class="st1" d="M1300.7,606c-12.4,7.1-32.3,7.1-44.8-0.1c-12.4-7.1-12.5-18.8-0.1-25.8
				c12.4-7.1,32.3-7.1,44.8,0.1S1313,598.8,1300.7,606z"/>
			<path id="Path_203" class="st1" d="M1242.6,237.4c-1.5-2.6-4.5-2.9-6.9-1.8c-2.4,1.1-4.7,2.3-6.9,3.8c-0.4-0.1-0.9-0.1-1.3,0
				c-5.1,1-10.5,2.2-15.1,4.7c-6,3.3-9.9,8.6-12.9,14.6c-4.3,8.6-8.5,17.1-12.7,25.6c-0.1,0.1-0.1,0.3-0.2,0.5c-1.8,1-3.7,2-5.1,2.7
				c-4.3,0.8-8.5,2.2-12.4,4.4c-12.4,7.1-12.3,18.7,0.1,25.8c12.4,7.1,32.4,7.2,44.8,0.1c10.7-6.2,12.1-15.7,4-22.9l-1-17.8
				c-0.3-4.8-0.6-9.4,1.6-13.9c2.1-4.2,5.9-7.5,9.4-10.6c3.9-3.4,8.2-6.2,12.9-8.3C1243.4,243.2,1243.9,239.6,1242.6,237.4z
				 M1197.9,284.5c3.1-6.2,6.2-12.5,9.3-18.7c-0.5,3.2-0.7,6.4-0.5,9.6c0.3,4.6,0.5,9.1,0.7,13.8c-3-1-6.2-1.7-9.4-2.2
				c0-0.2,0-0.3-0.1-0.5c0-0.6-0.1-1.1-0.2-1.7C1198,284.8,1198,284.7,1197.9,284.5L1197.9,284.5z"/>
			<g id="Group_68">
				<g id="Group_67">
					<path id="Path_204" class="st49" d="M1226.1,233.3c-5.1,2.4-9.8,5.5-14.1,9.2c-4,3.3-8.1,7.1-10.8,11.5
						c-3.6,5.9-4.4,12.4-4.1,19.1c0.5,9.5,1,19.1,1.5,28.6c0.3,6.5,10.5,6.5,10.1,0c-0.5-9-1-17.9-1.4-26.9
						c-0.3-4.8-0.6-9.4,1.6-13.9c2.1-4.2,5.9-7.5,9.4-10.6c3.9-3.4,8.2-6.2,12.9-8.3c2.5-1.1,3.1-4.8,1.8-6.9
						C1231.4,232.5,1228.5,232.2,1226.1,233.3L1226.1,233.3z"/>
				</g>
			</g>
			<g id="Group_70">
				<g id="Group_69">
					<path id="Path_205" class="st27" d="M1176.7,286.6c7.6-8.1,12.2-16.8,20.4-24.2c1.3-1.3,2.9-2.3,4.6-3c0.5-0.2,1.4-0.4,1.3-0.4
						c0.1,0-0.9-0.3,0.2,0.1c2.4,0.8,4.9,1.5,7.4,2c8.3,1.9,17,0.2,24-4.6c5.4-3.7,0.3-12.4-5.1-8.8c-6.7,4.6-13.2,4.7-20.7,2.5
						c-2-0.6-4.1-1.4-6.2-1.3c-4.5,0.2-8.5,2.7-11.8,5.6c-8.5,7.3-13.7,16.9-21.2,25C1165.1,284.3,1172.3,291.4,1176.7,286.6
						L1176.7,286.6z"/>
				</g>
			</g>
			<path id="Path_206" class="st50" d="M1171,293l-0.3-0.6c-0.2-0.4,0-0.8,0.3-1l0,0c0.4-0.2,0.8,0,1,0.3l0.3,0.7
				c0.2,0.4,0,0.8-0.3,1l0,0C1171.6,293.5,1171.2,293.4,1171,293C1171,293.1,1171,293.1,1171,293C1171,293.1,1171,293,1171,293z"/>
			<path id="Path_207" class="st51" d="M1170.7,291.6l2-2.7c0.2-0.3,0.7-0.4,1-0.1l0,0c0.3,0.3,0.4,0.7,0.1,1l0,0l-2,2.7
				c-0.2,0.3-0.7,0.4-1,0.1l0,0l0,0C1170.6,292.3,1170.5,291.9,1170.7,291.6z"/>
			<g id="Group_71">
				<path id="Path_208" class="st52" d="M1180.7,283.2c0.3-1.8-0.5-4.4-1.6-4.8l-5.4,2.2l-0.5-0.1c-2.6,0.7-14.9,3-18.8,4.2
					c-2,0.7-0.3,3.1-0.3,3.1c4,4.4,10.3,5.7,10.3,5.7c3,0.1,3.1-2.7,7.4-4.2c0.7-0.3,1.9-0.1,1.7,0.4l-2.5,3.1l1.2,0.6
					c0,0,4-4,6.9-6.7C1180.2,285.4,1180.8,284.2,1180.7,283.2z"/>
				<path id="Path_209" class="st27" d="M1178.7,277.5l-3.3,0.2l-13.4,5.2c-2.6,1,1.9,9.4,14.8,1.8
					C1184.6,281.3,1178.7,277.5,1178.7,277.5z"/>
			</g>
			<path id="Path_210" class="st53" d="M1218.9,226.6c-17.3,11-27.9,21-27.3,25.8c0,0,8.6-4.8,15.4-0.9c6.8,3.9,5.2,7.3,3.5,9
				c-0.5,0.6,3,4.3,3.7,4.3c8,0.3,32.9-2.7,33.4-17.8c0.4-12.9-1.4-14.4-1.4-14.4S1228.3,238.9,1218.9,226.6z"/>
			<g id="Group_73">
				<g id="Group_72">
					<path id="Path_211" class="st53" d="M1252,188.5c-3.9-4.3-10.9-6.3-16.5-6.6c-1.6-0.1-1.6,2.5,0,2.5c5,0.2,11.3,2,14.7,5.9
						C1251.3,191.5,1253.1,189.8,1252,188.5L1252,188.5z"/>
				</g>
			</g>
			<path id="Path_212" class="st54" d="M1224,190.4c0,0-6.6,9.2-6.3,14.9c0.3,3.7,2.6,8,2.9,9.1c2.6,9.8,0.7,12.5,0.8,15.2
				c0,0,1.6,9.2,24.6,1.9l10.2-26.9L1224,190.4z"/>
			<path id="Path_213" class="st54" d="M1253.8,211.1c0.2-0.3,2.4-3.8,2.5-4.2c1-4.6,3.7-8-1.2-14c-1-1.2-12.2-8.2-21-10.3
				c-4.3-1-8.7,1.1-10.6,5c-1,2.2-1.8,4.5-2.4,6.9c-0.9,9.1,3.8-2.6,4.1,2.4c0-0.1-0.1-0.3-0.1-0.4c0,0,0.6,8.6,1,15.2
				c0.3,4.1,0.5,7.1,0.5,7.5v0.1l14.6,13l9-14.1l0,0L1253.8,211.1z"/>
			<path id="Path_214" class="st27" d="M1234.7,182.4c0,0-8.2,7.5-1.8,13.4c6.3,5.9,18.4-5.9,18.4-5.9
				C1245.5,186,1240,183.1,1234.7,182.4z"/>
			<path id="Path_215" class="st1" d="M1256.3,206.9c-1,0.4-3.7,4.1-6,6c-4.2,3.7-10.3,5.9-15.7,4.2c-5.5-1.8-10.8-4.1-15.8-6.9
				c0,0,2.8,11.3,1.2,17.8c-0.7,3-0.3,2.4-0.3,2.4c0,2.9,4.8,2.4,4.8,2.4c9.9,3.7,21.5-1.2,21.5-1.2l7.6-18.8L1256.3,206.9z"/>
			<path id="Path_216" class="st52" d="M1217.6,227.7L1217.6,227.7c-0.3,0.6-0.1,1.3,0.3,1.8c1.6,1.8,6.1,5.9,14.1,6.5
				c6.9,0.5,11.1-0.2,13.2-0.8c0.9-0.2,1.5-1.1,1.3-2l-0.1-0.6c-0.2-1-1.1-1.6-2.1-1.4h-0.1c-3.9,0.9-12.9,2.4-18.6-0.5
				c-1.9-0.9-3.7-2.1-5.2-3.5c-0.7-0.7-1.8-0.7-2.5,0c0,0,0,0,0,0C1217.8,227.2,1217.6,227.4,1217.6,227.7z"/>
			<path id="Path_217" class="st7" d="M1227.7,235.8l-3.7-1.4c-1.3-0.5-2-1.8-1.8-3.2l0,0c0.2-1,1.2-1.7,2.2-1.6
				c0.1,0,0.3,0.1,0.4,0.1l3.7,1.4c1.3,0.5,2,1.8,1.8,3.2l0,0c-0.1,1-1.1,1.8-2.1,1.6c0,0,0,0,0,0
				C1228.1,236,1227.9,235.9,1227.7,235.8z"/>
			<path id="Path_218" class="st52" d="M1227,234.6l-2.2-0.9c-0.7-0.3-1.2-1.1-1-1.8l0,0c0.1-0.6,0.7-1,1.3-0.9c0.1,0,0.2,0,0.2,0.1
				l2.2,0.9c0.7,0.3,1.2,1.1,1,1.8l0,0c-0.1,0.6-0.6,1-1.2,1C1227.3,234.7,1227.1,234.6,1227,234.6z"/>
			<g id="Group_75">
				<g id="Group_74">
					<path id="Path_219" class="st53" d="M1231.8,183.4c-0.7,5.2-4.9,10.3,1.4,13.7c6.7,3.5,13.7-2.1,18.6-6.2
						c1.2-1-0.5-2.8-1.8-1.8c-4.1,3.5-10.9,9-16.3,5.3c-2.4-1.6-1.1-3.9-0.5-6.1c0.5-1.6,1-3.2,1.2-4.8
						C1234.5,181.9,1232,181.9,1231.8,183.4z"/>
				</g>
			</g>
			<path id="Path_220" class="st50" d="M1207.6,311.8l-0.7-0.3c-0.3-0.2-0.5-0.6-0.4-0.9v0l0,0c0.2-0.3,0.6-0.5,0.9-0.4h0.1l0.6,0.3
				c0.4,0.2,0.5,0.6,0.4,0.9c0,0,0,0,0,0v0l0,0c-0.1,0.3-0.5,0.5-0.9,0.4c0,0,0,0,0,0C1207.7,311.9,1207.7,311.8,1207.6,311.8z"/>
			<path id="Path_221" class="st51" d="M1206.6,310.8v-3.4c0-0.4,0.3-0.7,0.7-0.7l0,0c0.4,0,0.7,0.3,0.7,0.7v3.4
				c0,0.4-0.3,0.7-0.7,0.7l0,0c-0.4,0-0.7-0.2-0.7-0.6c0,0,0,0,0,0V310.8z"/>
			<g id="Group_76">
				<path id="Path_222" class="st52" d="M1209.7,298.2c-0.8-1.6-3-3.3-4.2-3l-3.1,4.9l-0.5,0.1c-1.7,2.2-10.3,11.3-12.6,14.6
					c-1.2,1.7,1.6,2.7,1.6,2.7c5.8,1.1,11.6-1.6,11.6-1.6c2.5-1.7,0.9-4,3.4-7.8c0.5-0.6,1.4-1.2,1.6-0.6l-0.2,4l1.4-0.3
					c0,0,0.9-5.7,1.6-9.5C1210.7,300.5,1210.4,299.2,1209.7,298.2z"/>
				<path id="Path_223" class="st49" d="M1204.7,294.7l-2.6,2.2c0,0-6.5,10.1-7.7,12.2c-1.4,2.4,7.1,6.4,12.9-7.5
					C1211.6,294.3,1204.7,294.7,1204.7,294.7z"/>
			</g>
			<g id="Group_77">
				<path id="Path_224" class="st55" d="M1218.7,167.7c-1.2,3.3-1.5,7.3,0.6,10.1c0.4,0.5,0.8,1,1.3,1.4c1.1,1.2,2.1,2.6,3,4.1
					c0.1,0.3,0.3,0.5,0.5,0.7c0.6,0.3,1.4,0.2,1.8-0.3c0.4-0.5,0.8-1.1,1.1-1.7c1.1-1.7,24,11.6,25.1,10c1.5-2.2-4.1-27.5-4.7-30.2
					c-0.7-3.4-17.4,1.1-20.2-1c-0.5-0.4-1.1-0.8-1.6-1.2l0,0c-0.7-0.7-1.3-2.2-2.5-1.7c-0.9,0.4-1.2,2.1-1.6,2.9
					C1220.8,163.1,1219.6,165.3,1218.7,167.7z"/>
			</g>
			<path id="Path_225" class="st27" d="M1235.8,187.6l-4-15.4l9.7,3.1l3.3,12.6C1245.4,189.8,1238.7,195.4,1235.8,187.6z"/>
			<path id="Path_226" class="st56" d="M1234.8,184.5c0,0,4.3-2.2,4.4-2.3c0.1,0-1.5,3.1-3.7,4.4L1234.8,184.5z"/>
			<path id="Path_227" class="st27" d="M1235.3,184.5l-3,0.1c-4.6,0.1-8.5-3.5-8.7-8.1l-0.5-15.3c-0.1-4.6,3.5-8.5,8.1-8.7l3-0.1
				c4.6-0.1,8.5,3.5,8.7,8.1l0.5,15.3C1243.6,180.4,1240,184.3,1235.3,184.5C1235.4,184.5,1235.4,184.5,1235.3,184.5L1235.3,184.5z"
				/>
			<path id="Path_228" class="st55" d="M1237.6,164.9c-3.5-4.3-9.9,0.9-13.4-0.5c-3.8-1.4-2.5-5.4,0.1-8.5c1.4-1.7,3.1-3.1,6.6-4.4
				c9.8-3.7,19.6,0.5,20,11.5c0,0,0.9,15.2-8,17.4l-0.6-2.2c0,0,5.1-5.6-0.3-8.9c-1.2-0.8-1.3-0.8-1.2-2.6
				C1240.8,164.8,1238.7,166.4,1237.6,164.9z"/>
			<path id="Path_229" class="st7" d="M1226.4,175.8l5.2,2.2c0.2,0.1,0.3,0.3,0.3,0.5c-0.1,0.8-0.7,2.5-3.5,1.6
				c-1.5-0.6-2.6-2.1-2.7-3.8C1225.6,176,1226,175.7,1226.4,175.8z"/>
			<ellipse id="Ellipse_6" class="st55" cx="1225.8" cy="170" rx="0.6" ry="1.2"/>
			<ellipse id="Ellipse_7" class="st55" cx="1232.7" cy="172.8" rx="0.6" ry="1.2"/>
			<g id="Group_79">
				<g id="Group_78">
					<path id="Path_230" class="st55" d="M1232.6,169.4c1.3,0.1,2.5,0.6,3.4,1.5c0.6,0.6,1.4-0.3,0.9-0.9c-1.2-1.1-2.7-1.8-4.3-1.9
						c-0.4,0-0.6,0.4-0.6,0.7C1232.1,169.2,1232.3,169.4,1232.6,169.4L1232.6,169.4z"/>
				</g>
			</g>
			<g id="Group_81">
				<g id="Group_80">
					<path id="Path_231" class="st55" d="M1224.2,166.2c1.3,0,2.5,0.4,3.5,1.2c0.6,0.5,1.5-0.3,0.9-0.9c-1.2-1.1-2.8-1.6-4.4-1.6
						C1223.4,165,1223.4,166.3,1224.2,166.2z"/>
				</g>
			</g>
			<path id="Path_232" class="st27" d="M1245.2,176.1c-1.4,1.1-2.9,0.7-3.5-0.8c-0.5-1.8,0.1-3.7,1.4-4.9c1.4-1.1,2.9-0.7,3.5,0.9
				C1247.1,173,1246.5,174.9,1245.2,176.1z"/>
			<path id="Path_233" class="st55" d="M1221.7,173.2c0,0,0.1-5.1,12.3-11.8c12.2-6.7,0.5-0.3,0.5-0.3l-12.1-2.7
				C1222.5,158.5,1217.7,163.8,1221.7,173.2z"/>
			<g id="Group_82">
				<path id="Path_234" class="st7" d="M1724.2,478.5l-49.2-28.4c-2.3-1.3-2-3.6,0.6-5.2l16.1-9.3c2.6-1.5,6.7-1.7,8.9-0.4
					l49.2,28.4c2.3,1.3,2,3.6-0.6,5.2l-16.1,9.3C1730.5,479.6,1726.5,479.8,1724.2,478.5z"/>
				<path id="Path_235" class="st4" d="M1701.4,451.3c-4.3,2.5-11.4,2.5-15.8,0c-4.4-2.5-4.4-6.6-0.1-9.1c4.3-2.5,11.4-2.5,15.7,0
					C1705.7,444.7,1705.7,448.7,1701.4,451.3z"/>
				<path id="Path_236" class="st13" d="M1724.4,458l-14-8.1c-0.5-0.3-0.5-0.9,0.1-1.2l0,0c0.6-0.3,1.4-0.4,2-0.1l14,8.1
					c0.5,0.3,0.5,0.8-0.1,1.2l0,0C1725.8,458.3,1725,458.3,1724.4,458z"/>
				<path id="Path_237" class="st13" d="M1729.8,475.7l-32-18.5c-0.5-0.3-0.5-0.9,0.1-1.2l0,0c0.6-0.3,1.4-0.4,2-0.1l32,18.5
					c0.5,0.3,0.5,0.9-0.1,1.2l0,0C1731.2,476,1730.4,476,1729.8,475.7z"/>
				<path id="Path_238" class="st13" d="M1736,472.1l-32-18.5c-0.5-0.3-0.5-0.9,0.1-1.2l0,0c0.6-0.3,1.4-0.4,2-0.1l32,18.5
					c0.5,0.3,0.5,0.9-0.1,1.2l0,0C1737.4,472.3,1736.7,472.4,1736,472.1z"/>
			</g>
			<g id="Group_83">
				<path id="Path_239" class="st7" d="M1657.7,517.9l-49.2-28.4c-2.3-1.3-2-3.6,0.7-5.2l16.1-9.3c2.6-1.5,6.7-1.7,8.9-0.4
					l49.2,28.4c2.3,1.3,2,3.6-0.7,5.2l-16.1,9.3C1664,519,1660,519.2,1657.7,517.9z"/>
				<path id="Path_240" class="st4" d="M1634.8,490.6c-4.3,2.5-11.4,2.5-15.8,0c-4.4-2.5-4.4-6.6-0.1-9.1c4.3-2.5,11.4-2.5,15.7,0
					C1639.1,484,1639.1,488.1,1634.8,490.6z"/>
				<path id="Path_241" class="st13" d="M1657.8,497.4l-14-8.1c-0.5-0.3-0.5-0.9,0.1-1.2l0,0c0.6-0.3,1.4-0.4,2-0.1l14.1,8.1
					c0.5,0.3,0.5,0.9-0.1,1.2l0,0C1659.2,497.7,1658.4,497.7,1657.8,497.4z"/>
				<path id="Path_242" class="st13" d="M1663.2,515.1l-32-18.5c-0.5-0.3-0.5-0.9,0.1-1.2l0,0c0.6-0.3,1.4-0.4,2-0.1l32,18.5
					c0.5,0.3,0.5,0.9-0.1,1.2l0,0C1664.6,515.3,1663.8,515.4,1663.2,515.1z"/>
				<path id="Path_243" class="st13" d="M1669.5,511.4l-32-18.5c-0.5-0.3-0.5-0.8,0.1-1.2l0,0c0.6-0.3,1.4-0.4,2-0.1l32,18.5
					c0.5,0.3,0.5,0.9-0.1,1.2l0,0C1670.9,511.7,1670.1,511.7,1669.5,511.4z"/>
			</g>
			<g id="Group_84">
				<path id="Path_244" class="st23" d="M1691.2,497.6l-49.2-28.4c-2.3-1.3-2-3.6,0.7-5.2l16.1-9.3c2.6-1.5,6.7-1.7,8.9-0.4
					l49.2,28.4c2.3,1.3,2,3.6-0.7,5.2l-16.1,9.3C1697.5,498.7,1693.5,498.9,1691.2,497.6z"/>
				<path id="Path_245" class="st7" d="M1668.3,470.3c-4.3,2.5-11.4,2.5-15.8,0c-4.4-2.5-4.4-6.6-0.1-9.1s11.4-2.5,15.8,0
					C1672.6,463.7,1672.6,467.8,1668.3,470.3z"/>
				<path id="Path_246" class="st7" d="M1691.3,477.1l-14-8.1c-0.5-0.3-0.5-0.9,0.1-1.2l0,0c0.6-0.3,1.4-0.4,2-0.1l14.1,8.1
					c0.5,0.3,0.5,0.8-0.1,1.2l0,0C1692.7,477.3,1692,477.4,1691.3,477.1z"/>
				<path id="Path_247" class="st7" d="M1696.6,494.7l-32-18.5c-0.5-0.3-0.5-0.9,0.1-1.2l0,0c0.6-0.3,1.4-0.3,2,0l32,18.5
					c0.5,0.3,0.5,0.9-0.1,1.2l0,0C1698,495,1697.2,495,1696.6,494.7z"/>
				<path id="Path_248" class="st7" d="M1703,491.1l-32-18.5c-0.5-0.3-0.5-0.9,0.1-1.2l0,0c0.6-0.3,1.4-0.4,2-0.1l32,18.5
					c0.5,0.3,0.5,0.9-0.1,1.2l0,0C1704.4,491.4,1703.6,491.4,1703,491.1z"/>
			</g>
			<path id="Path_249" class="st9" d="M1376,213.1l14.9,9.5l-94.8,35L1376,213.1z"/>
			<g id="Group_90">
				<g id="Group_86">
					<g id="Group_85">
						<path id="Path_250" class="st57" d="M1221,520.8L1100.1,451c-1-0.6-1.4-1.9-0.8-3c0.2-0.4,0.5-0.6,0.8-0.8l165.7-95.7
							c0.7-0.4,1.5-0.4,2.2,0l120.9,69.7c1.1,0.6,1.4,2,0.8,3.1c-0.2,0.3-0.5,0.6-0.8,0.8l-165.7,95.7
							C1222.5,521.2,1221.7,521.2,1221,520.8z"/>
						<rect id="Rectangle_29" x="1099.1" y="444" class="st57" width="4.8" height="4.8"/>
						<rect id="Rectangle_30" x="1384.9" y="420.2" class="st3" width="4.8" height="3.2"/>
					</g>
					<path id="Path_251" class="st13" d="M1221,516.7l-120.9-69.8c-1.1-0.6-1.4-2-0.8-3.1c0.2-0.3,0.5-0.6,0.8-0.8l165.7-95.7
						c0.7-0.4,1.5-0.4,2.2,0l120.9,69.8c1,0.6,1.4,1.9,0.8,3c-0.2,0.4-0.5,0.6-0.8,0.8l-165.7,95.7
						C1222.5,517.1,1221.7,517.1,1221,516.7z"/>
				</g>
				<g id="Group_88">
					<g id="Group_87">
						<path id="Path_252" class="st57" d="M1341.8,590.3l-120.9-69.8c-1-0.6-1.4-1.9-0.8-3c0.2-0.4,0.5-0.6,0.8-0.8l165.7-95.7
							c0.7-0.4,1.5-0.4,2.2,0l120.9,69.7c1.1,0.6,1.4,2,0.8,3.1c-0.2,0.3-0.5,0.6-0.8,0.8L1344,590.2
							C1343.3,590.7,1342.5,590.7,1341.8,590.3z"/>
						<rect id="Rectangle_31" x="1219.8" y="513.8" class="st57" width="4.8" height="4.8"/>
						<path id="Path_253" class="st57" d="M1510.9,492.6l-5.4-1v-3.1l5.4,0.9V492.6z"/>
					</g>
					<path id="Path_254" class="st13" d="M1341.8,586.2l-120.9-69.8c-1-0.6-1.4-1.9-0.8-3c0.2-0.4,0.5-0.6,0.8-0.8l165.7-95.7
						c0.7-0.4,1.5-0.4,2.2,0l120.9,69.8c1,0.6,1.4,1.9,0.8,3c-0.2,0.4-0.5,0.7-0.8,0.8L1344,586.2
						C1343.3,586.6,1342.5,586.6,1341.8,586.2z"/>
				</g>
				<path id="Path_255" class="st57" d="M1142.1,458.4l78.7,50.8l47.8-38C1268.7,471.2,1175.9,433.4,1142.1,458.4z"/>
				
					<linearGradient id="Path_256_1_" gradientUnits="userSpaceOnUse" x1="553.4671" y1="-127.4296" x2="553.3028" y2="-127.9001" gradientTransform="matrix(353.35 0 0 204.04 -194294.0938 26478.0898)">
					<stop  offset="0" style="stop-color:#9FB0BF"/>
					<stop  offset="0.25" style="stop-color:#A3B3C2"/>
					<stop  offset="0.5" style="stop-color:#AEBDCB"/>
					<stop  offset="0.73" style="stop-color:#C1CEDB"/>
					<stop  offset="0.96" style="stop-color:#DCE6F0"/>
					<stop  offset="1" style="stop-color:#E1EAF4"/>
				</linearGradient>
				<path id="Path_256" class="st58" d="M1221.6,507.9c-6.8-25.7-54.2-36.1-108.4-62.6c-1.8-1-1.5-2.7,0.5-3.9l147-84.9
					c2-1.2,5-1.3,6.8-0.3c67.3,19.9,109.3,40.7,108.4,62.6L1221.6,507.9z"/>
				<path id="Path_257" class="st59" d="M1221.6,507.9c0,0,14.9-5.6,26.9,4.4c11.9,9.9,88.5,67.4,88.5,67.4l155.5-89
					c0,0-83.1-80.7-116.6-71.9L1221.6,507.9z"/>
				
					<linearGradient id="Path_258_1_" gradientUnits="userSpaceOnUse" x1="553.3976" y1="-127.2747" x2="553.2109" y2="-127.7377" gradientTransform="matrix(329.92 0 0 222.12 -181289.5469 28747.8984)">
					<stop  offset="0" style="stop-color:#9FB0BF"/>
					<stop  offset="9.000000e-02" style="stop-color:#BAC6D1"/>
					<stop  offset="0.21" style="stop-color:#D3DBE2"/>
					<stop  offset="0.34" style="stop-color:#E7EBEF"/>
					<stop  offset="0.49" style="stop-color:#F5F6F8"/>
					<stop  offset="0.67" style="stop-color:#FDFDFD"/>
					<stop  offset="1" style="stop-color:#FFFFFF"/>
				</linearGradient>
				<path id="Path_258" class="st60" d="M1221.6,507.9c5-29.9-42.8-45.2-91.1-76c-1.6-1.2-1.2-3.1,0.7-4.2l142.2-84.9
					c2-1.2,4.8-1.2,6.3,0c61,24.3,98.4,51.5,96.1,75.1L1221.6,507.9z"/>
				<path id="Path_259" class="st61" d="M1444.8,469.3l-51.4-34.5c-0.7-0.5-0.5-1.1,0.3-1.5l0,0c0.9-0.4,1.8-0.4,2.7,0.1l51.4,34.5
					c0.6,0.5,0.5,1.1-0.3,1.5l0,0C1446.7,469.8,1445.7,469.7,1444.8,469.3z"/>
				<path id="Path_260" class="st61" d="M1427.5,480l-51.4-34.5c-0.7-0.5-0.5-1.1,0.3-1.5l0,0c0.8-0.4,1.8-0.4,2.7,0.1l51.4,34.5
					c0.6,0.5,0.5,1.1-0.3,1.5l0,0C1429.3,480.4,1428.4,480.4,1427.5,480z"/>
				<path id="Path_261" class="st61" d="M1410.1,490.6l-51.4-34.5c-0.6-0.5-0.5-1.1,0.3-1.5l0,0c0.9-0.4,1.8-0.4,2.7,0.1l51.4,34.5
					c0.7,0.5,0.5,1.1-0.3,1.5l0,0C1412,491.1,1411,491.1,1410.1,490.6z"/>
				<path id="Path_262" class="st61" d="M1392.8,501.3l-51.4-34.5c-0.7-0.5-0.5-1.1,0.3-1.5l0,0c0.9-0.4,1.8-0.4,2.7,0.1l51.4,34.5
					c0.6,0.5,0.5,1.1-0.3,1.5l0,0C1394.6,501.7,1393.7,501.7,1392.8,501.3z"/>
				<path id="Path_263" class="st61" d="M1375.5,511.9l-51.4-34.5c-0.7-0.5-0.5-1.1,0.3-1.5l0,0c0.9-0.4,1.8-0.4,2.7,0.1l51.4,34.5
					c0.6,0.5,0.5,1.1-0.3,1.5l0,0C1377.3,512.4,1376.3,512.4,1375.5,511.9z"/>
				<path id="Path_264" class="st61" d="M1357.6,526.8l-51.4-34.5c-0.6-0.5-0.5-1.1,0.3-1.5l0,0c0.9-0.4,1.8-0.4,2.7,0.1l51.4,34.5
					c0.7,0.5,0.5,1.1-0.3,1.5l0,0C1359.4,527.3,1358.4,527.3,1357.6,526.8z"/>
				<path id="Path_265" class="st61" d="M1340.3,537.5l-51.4-34.5c-0.7-0.5-0.5-1.1,0.3-1.5l0,0c0.9-0.4,1.8-0.4,2.7,0.1l51.4,34.5
					c0.6,0.5,0.5,1.1-0.3,1.5l0,0C1342.1,537.9,1341.1,537.9,1340.3,537.5z"/>
				<path id="Path_266" class="st61" d="M1323,548.1l-51.4-34.5c-0.7-0.5-0.5-1.1,0.3-1.5l0,0c0.9-0.4,1.8-0.4,2.7,0.1l51.4,34.5
					c0.6,0.5,0.5,1.1-0.3,1.5l0,0C1324.8,548.6,1323.8,548.6,1323,548.1z"/>
				<g id="Group_89">
					<path id="Path_267" class="st61" d="M1339.8,387.1l-52.2-33.3c-0.6-0.4-0.5-1.1,0.3-1.5l0,0c0.9-0.4,1.8-0.4,2.7,0l52.1,33.3
						c0.7,0.4,0.5,1.1-0.3,1.5l0,0C1341.6,387.5,1340.6,387.5,1339.8,387.1z"/>
					<path id="Path_268" class="st61" d="M1322.7,398.2l-52.2-33.3c-0.6-0.4-0.5-1.1,0.3-1.5l0,0c0.9-0.4,1.8-0.4,2.7,0l52.2,33.3
						c0.6,0.4,0.5,1.1-0.3,1.5l0,0C1324.5,398.5,1323.6,398.5,1322.7,398.2z"/>
					<path id="Path_269" class="st61" d="M1305.6,409.2l-52.1-33.3c-0.7-0.4-0.5-1.1,0.3-1.5l0,0c0.8-0.4,1.8-0.4,2.7,0l52.1,33.3
						c0.7,0.4,0.5,1.1-0.3,1.5l0,0C1307.4,409.6,1306.4,409.6,1305.6,409.2z"/>
					<path id="Path_270" class="st61" d="M1288.5,420.2l-52.2-33.3c-0.6-0.4-0.5-1.1,0.3-1.5l0,0c0.8-0.4,1.8-0.4,2.7,0l52.2,33.3
						c0.6,0.4,0.5,1.1-0.3,1.5l0,0C1290.3,420.7,1289.3,420.7,1288.5,420.2z"/>
					<path id="Path_271" class="st61" d="M1271.3,431.3l-52.1-33.3c-0.7-0.4-0.5-1.1,0.3-1.5l0,0c0.9-0.4,1.8-0.4,2.7,0l52.1,33.3
						c0.7,0.4,0.5,1.1-0.3,1.5l0,0C1273.2,431.7,1272.2,431.7,1271.3,431.3z"/>
					<path id="Path_272" class="st61" d="M1253.9,446.6l-52.1-33.3c-0.7-0.4-0.5-1.1,0.3-1.5l0,0c0.8-0.4,1.8-0.4,2.7,0l52.2,33.3
						c0.6,0.4,0.5,1.1-0.3,1.5l0,0C1255.7,447,1254.7,447,1253.9,446.6z"/>
					<path id="Path_273" class="st61" d="M1236.8,457.6l-52.2-33.3c-0.6-0.4-0.5-1.1,0.3-1.5l0,0c0.8-0.4,1.8-0.4,2.7,0l52.1,33.3
						c0.7,0.4,0.5,1.1-0.3,1.5l0,0C1238.6,458,1237.6,458,1236.8,457.6z"/>
					<path id="Path_274" class="st61" d="M1219.6,468.7l-52.1-33.3c-0.7-0.4-0.5-1.1,0.3-1.5l0,0c0.8-0.4,1.8-0.4,2.7,0l52.2,33.3
						c0.6,0.4,0.5,1.1-0.3,1.5l0,0C1221.5,469.1,1220.5,469.1,1219.6,468.7z"/>
				</g>
				<path id="Path_275" class="st30" d="M1431.6,441c-17.8,15.9-66.3,54-91.9,73.8c-0.7,0.5-0.8,1.5-0.3,2.1
					c0.3,0.4,0.8,0.6,1.3,0.6l19.1-1.5c0.8-0.1,1.6,0.5,1.6,1.3c0,0,0,0,0,0.1c0,0.2,0,0.4-0.1,0.6l-4.2,13.3c-0.3,0.8,0.2,1.7,1,2
					c0,0,0,0,0,0c0.5,0.1,1,0.1,1.4-0.2c10.7-7.6,40-39.5,82.3-81.1c3-3,3-7.8,0.1-10.8c0,0,0,0,0,0c-0.4-0.4-0.8-0.7-1.2-1l0,0
					C1437.9,438.4,1434.2,438.7,1431.6,441z"/>
			</g>
			<path id="Path_276" class="st1" d="M1591.7,549c-8-16.1-37-25.4-64.9-20.8c-24.6,4-40.1,17.6-37.8,31.9
				c-0.6,3.8,0.1,7.7,1.8,11.1c1.1,2.2,2.6,4.3,4.3,6.1l-8.3,4.8c-1-0.9-2.2-1.7-3.5-2.4c-2.6-1.2-4.8-1.2-6.3,0l0,0l-45.9,27.4l0,0
				c-1.7,1-2.6,3.1-2.4,6c0.5,5.6,4.9,12,9.9,14.4c2.2,1,4.2,1.2,5.7,0.5l0,0l0.1-0.1c0.2-0.1,0.4-0.2,0.5-0.3l45.6-27.3l0,0
				c2-0.9,3.1-3.1,2.8-6.2c-0.1-0.8-0.2-1.7-0.5-2.5l12.1-7c13,7.2,32.1,10.3,50.8,7.3c24.6-4.1,40.1-17.6,37.8-31.9
				C1594.1,556.2,1593.4,552.4,1591.7,549z M1511.1,572.2c0.9,0.5,1.8,1.1,2.7,1.6C1512.9,573.2,1511.9,572.7,1511.1,572.2z
				 M1577.8,565.1c0.6-1,1.2-2,1.6-3.1C1579,563.1,1578.5,564.1,1577.8,565.1c-0.5,0.7-1,1.4-1.5,2
				C1576.8,566.4,1577.4,565.8,1577.8,565.1z M1521.5,576.9c1,0.3,2,0.6,3.1,0.9C1523.5,577.6,1522.5,577.3,1521.5,576.9
				c-1.1-0.3-2.2-0.7-3.2-1.2C1519.3,576.2,1520.4,576.6,1521.5,576.9L1521.5,576.9z M1539.8,579.8c-1.9,0-3.8-0.1-5.8-0.3
				C1535.9,579.7,1537.9,579.8,1539.8,579.8L1539.8,579.8z M1551.6,579c5.9-0.9,11.6-2.8,16.9-5.7
				C1563.2,576.2,1557.5,578.1,1551.6,579c-2.6,0.4-5.3,0.7-7.9,0.9C1546.4,579.7,1549,579.4,1551.6,579z M1573.4,570
				c-0.7,0.6-1.5,1.2-2.3,1.8C1571.8,571.1,1572.7,570.5,1573.4,570z"/>
			<path id="Path_277" class="st13" d="M1582.4,548.8c-8-16.1-37-25.4-64.9-20.8c-27.9,4.6-44,21.4-36,37.4
				c8,16.1,37,25.4,64.9,20.8S1590.4,564.9,1582.4,548.8z M1493.4,563c-6-12.2,6.1-24.8,27.3-28.3c21.1-3.5,43,3.6,49,15.7
				c6,12.1-6.1,24.8-27.3,28.3C1521.3,582.2,1499.4,575.2,1493.4,563L1493.4,563z"/>
			<path id="Path_278" class="st4" d="M1466.1,596l-11.3-6.5l38.9-22.5l11.4,6.5L1466.1,596z"/>
			<g id="Group_91">
				<path id="Path_279" class="st62" d="M1484.6,589.4c0.5,5.6-3.3,8.1-8.3,5.8c-5-2.4-9.5-8.8-9.9-14.4c-0.5-5.6,3.3-8.1,8.3-5.8
					C1479.7,577.3,1484.2,583.9,1484.6,589.4z"/>
				<path id="Path_280" class="st62" d="M1422.5,602.4l45.9-27.4l13.4,20.6l-46.1,27.6L1422.5,602.4z"/>
				<path id="Path_281" class="st17" d="M1438.3,617.1c0.5,5.6-3.3,8.1-8.3,5.8c-5-2.4-9.5-8.8-9.9-14.4s3.3-8.1,8.3-5.8
					C1433.4,605,1437.9,611.5,1438.3,617.1z"/>
			</g>
			<g id="Group_93">
				<g id="Group_92">
					<path id="Path_282" class="st27" d="M1258.1,501.8c0.3-9,1.3-18,2.1-27.1c0.5-5.2-7.7-5.2-8.2,0c-0.8,9-1.8,18-2.1,27.1
						C1249.7,507.1,1257.9,507.1,1258.1,501.8z"/>
				</g>
			</g>
			<g id="Group_95">
				<g id="Group_94">
					<path id="Path_283" class="st63" d="M1256.1,437.2c-3,12.3-5.5,24.4-6.6,37.1c-0.6,7,10.3,6.9,10.9,0c1-11.7,3.5-22.8,6.2-34.2
						C1268.3,433.3,1257.8,430.4,1256.1,437.2L1256.1,437.2z"/>
				</g>
			</g>
			<path id="Path_284" class="st27" d="M1255.1,510L1255.1,510c2.6,0,4.7-2.1,4.8-4.6l0.1-9c0-2.6-2.1-4.7-4.6-4.8l0,0
				c-2.6,0-4.7,2.1-4.8,4.6l-0.1,9c-0.1,2.6,1.9,4.7,4.5,4.8L1255.1,510z"/>
			<g id="Group_97">
				<g id="Group_96">
					<path id="Path_285" class="st49" d="M1264.3,496.4c-2.2,29.6-1.8,59.1-2,88.7c-0.1,7,10.8,7,10.9,0c0.1-29.6-0.3-59.2,2-88.7
						C1275.6,489.4,1264.8,489.5,1264.3,496.4z"/>
				</g>
			</g>
			<g id="Group_98">
				<path id="Path_286" class="st64" d="M1265.8,591.2l1.8,5.4c0.6,0.9,2.5,2.4,3.5,2c4.1-1.8,14.9-5.8,13.1-10.6
					c-2.3-6-17.7,1.1-17.7,1.1L1265.8,591.2z"/>
				<path id="Path_287" class="st49" d="M1269.8,585.9c0,0,6.1-0.9,9,1.2c1.1,0.7,0.1,2.1-1.9,3c-4,1.9-8.6,1.3-10.7-1.7l-1.4-0.9
					L1269.8,585.9z"/>
				<path id="Path_288" class="st64" d="M1260.6,586.9l1.5,12.6c0.1,0.4,0.3,0.8,0.6,1l0,0c0.7,0.5,1.6,0.3,2.1-0.4c0,0,0,0,0,0
					c0.2-0.2,0.2-0.5,0.3-0.7l0.6-10.5c0-0.4-0.1-0.8-0.4-1.1l-2-2.1c-0.5-0.6-1.5-0.7-2.1-0.1
					C1260.7,585.9,1260.6,586.4,1260.6,586.9L1260.6,586.9z"/>
				<path id="Path_289" class="st64" d="M1262.1,583.7c0,0-3.7,2.7-0.4,10.5c0.1,0.1,0.1,0.4,0.1,0.3c3.3-4.3,5.8,0,5.8,0l9.1-3.9
					c-4,0.8-8.1-0.6-10.9-3.5C1264.6,586,1263.4,584.8,1262.1,583.7z"/>
			</g>
			<path id="Path_290" class="st64" d="M1278.6,598.4l1.8,5.4c0.6,0.9,2.5,2.4,3.5,2c4.1-1.8,14.9-5.8,13.1-10.6
				c-2.3-6-17.7,1.1-17.7,1.1L1278.6,598.4z"/>
			<path id="Path_291" class="st27" d="M1282.5,593.2c0,0,6.1-0.9,9,1.2c1.1,0.8,0.1,2.1-1.9,3c-4,1.9-8.6,1.3-10.7-1.7l-1.4-0.8
				L1282.5,593.2z"/>
			<g id="Group_100">
				<g id="Group_99">
					<path id="Path_292" class="st27" d="M1280.7,504.5c0.3,18.6,0.1,37.3-1.6,55.9c-1,11-2.6,20.9-4.5,32.1
						c-0.5,2.9,0.7,5.9,3.8,6.7c2.6,0.7,6.2-0.9,6.7-3.8c2-11.4,3.7-22.8,4.8-34.3c1.8-18.8,2-37.7,1.6-56.6
						C1291.5,497.4,1280.6,497.4,1280.7,504.5L1280.7,504.5z"/>
				</g>
			</g>
			<path id="Path_293" class="st53" d="M1288.5,512.7c-7.8,14.8-14.6,7.7-23.7,0.9c-9.1-6.8-10.1-20.1-5.2-31.3
				c0,0,13.7-15.9,22.9-9.1C1291.6,480,1297.5,495.5,1288.5,512.7z"/>
			<path id="Path_294" class="st30" d="M1255.2,449.1c0,0,5.9,30.5,6.5,33.1c0,0,3.3,9.4,26.6,0.5l6.5-28.9L1255.2,449.1z"/>
			<path id="Path_295" class="st30" d="M1292.6,461c0.9-0.5,1.1-2,1.1-2c0.6-5.4,3.5-7.8-2.3-16.9c-0.9-1.4-13.7-8-23.2-9.8
				c-4.6-0.8-9.2,1.7-11,6.1c-0.9,2.4-1.6,5-2.2,7.5c-0.5,9.8,3.3,3,4,8.4c0-0.1-1.6-0.6-1.6-0.7c0,0,3.3,3.4,4.2,10.5
				c0.5,4.5,1,7.6,1,8v0.1l16.5,13.1l8.7-15.8l0,0L1292.6,461z"/>
			<path id="Path_296" class="st53" d="M1259.1,497.3c0,0,1,46.1,1.4,46.8c2.4,3.9,3.7,11.9,28.2,6.1c2.8-0.6,3.9-3.7,3.8-6.2
				l0.4-47.5l-11.8,5L1259.1,497.3z"/>
			<path id="Path_297" class="st52" d="M1259.2,482L1259.2,482c-0.1,0.7,0.2,1.5,0.7,1.9c2,1.6,7.6,5,16.2,4
				c7.4-0.7,11.8-2.4,13.8-3.5c0.9-0.4,1.3-1.5,1-2.4l-0.2-0.6c-0.3-1-1.4-1.5-2.4-1.2l-0.1,0c-3.9,1.6-13.2,5-19.7,3.1
				c-2.2-0.6-4.3-1.5-6.2-2.7c-0.9-0.6-2.2-0.3-2.7,0.6c0,0,0,0,0,0C1259.4,481.5,1259.3,481.8,1259.2,482z"/>
			<path id="Path_298" class="st27" d="M1270.5,434.9l3.3-14.8l9,6.1l-2.6,11.5C1280,440,1269.9,440,1270.5,434.9z"/>
			<path id="Path_299" class="st27" d="M1277.9,399.9c0,0-8.7-8.6-10.1,5.4c-1,9.7,4.6,18.8,12.9,23.4c5.2,2.9,12.1,0.6,12.9-4.2
				c2-6.9,2.7-13.4,0.7-19.4c0.9-5.8-3.7-4.2-11.2-5.3L1277.9,399.9z"/>
			<path id="Path_300" class="st41" d="M1269.6,427.3c0,0-10.1-4.8-7.6-19.4c2.6-15.8,12.8-13.1,21-13.1c3.6,0,10,3.1,11.6,6.5
				c1.8,4.1,1.5,6.6-3.3,6.6c-1.9,0-1.6,5.2-2.1,6.9c-1,3.1-3.1,4.4-4.1,7.4c-1,2.8-5.6,6.9-8.4,6.9
				C1271.6,429.2,1269.6,427.3,1269.6,427.3z"/>
			<path id="Path_301" class="st27" d="M1287.7,419.3c0,2.5-1.5,4.6-3.3,4.6c-0.2,0-0.4,0-0.6-0.1c-1.5-0.4-2.7-2.3-2.7-4.5
				c0-2.5,1.5-4.6,3.3-4.6S1287.7,416.8,1287.7,419.3z"/>
			<g id="Group_102">
				<g id="Group_101">
					<path id="Path_302" class="st53" d="M1267.5,433.2c0.8,2.9,2.9,5.3,5.7,6.5c3.3,1.3,7.3,0.3,10.8-0.1c1.7-0.2,1.8-2.9,0-2.7
						c-5.2,0.5-11.9,2.2-13.9-4.5C1269.6,430.8,1267,431.5,1267.5,433.2L1267.5,433.2z"/>
				</g>
			</g>
			<g id="Group_104">
				<g id="Group_103">
					<path id="Path_303" class="st41" d="M1286.6,406.5c0.9,4.2,1.8,9.5,0.5,13.7c-0.7,2.2-2.4,4-2.7,6.3c-0.4,2.6,1.3,4.1,2,6.5
						c0.5,1.6,3.1,1,2.6-0.7c-0.4-1-0.9-1.9-1.4-2.9c-1.1-2.4-0.3-3.6,0.7-5.8c0.9-1.6,1.5-3.4,1.7-5.2c0.4-4.2,0-8.5-0.9-12.6
						C1288.8,404.1,1286.2,404.8,1286.6,406.5L1286.6,406.5z"/>
				</g>
			</g>
			<path id="Path_304" class="st64" d="M1273.4,594.1l1.5,12.6c0.1,0.4,0.3,0.8,0.6,1l0,0c0.7,0.5,1.6,0.3,2.1-0.4
				c0.2-0.2,0.3-0.5,0.3-0.8l0.6-10.5c0-0.4-0.1-0.8-0.4-1.1l-2-2.1c-0.5-0.6-1.5-0.7-2.1-0.1
				C1273.5,593.2,1273.3,593.7,1273.4,594.1L1273.4,594.1z"/>
			<path id="Path_305" class="st64" d="M1274.8,591.1c0,0-3.7,2.7-0.4,10.5c0.1,0.1,0.1,0.4,0.1,0.3c3.3-4.3,5.8,0,5.8,0l9.1-3.9
				c-4,0.8-8.1-0.6-10.9-3.5C1277.4,593.3,1276.1,592.1,1274.8,591.1z"/>
			<g id="Group_106">
				<g id="Group_105">
					<path id="Path_306" class="st27" d="M1284,445.9c0,8,0.7,15.7,3.9,23.1c1.7,4,3.7,7.8,5.8,11.7c1.4,2.7,3.3,5.8,6.4,6.8
						c6.3,2,9.5-5.5,10.8-10.2c2.4-8.1,3.1-16.9,3.2-25.3c0.1-5.2-8.1-5.2-8.2,0c0,6.6-0.7,13.2-2,19.6c-0.4,2.5-1.2,4.9-2.2,7.2
						c-0.1,0.2-0.5,0.8-0.5,0.8c0.1,0.7-0.4-0.1,0,0.1c0.5,0.3,1.5-0.3,1.4-0.1c0-0.3-1.5-2.3-1.7-2.6c-0.9-1.6-1.8-3.3-2.6-5
						c-1.4-2.5-2.5-5.1-3.5-7.8c-2.2-6-2.5-12.1-2.5-18.4C1292.2,440.6,1284,440.6,1284,445.9L1284,445.9z"/>
				</g>
			</g>
			<path id="Path_307" class="st27" d="M1309,454.9L1309,454.9c2.6,0.4,5-1.4,5.4-3.9l1.4-8.8c0.4-2.6-1.4-5-3.9-5.4l0,0
				c-2.6-0.4-5,1.4-5.4,3.9l-1.4,8.8C1304.7,452.1,1306.4,454.5,1309,454.9z"/>
			<g id="Group_108">
				<g id="Group_107">
					<path id="Path_308" class="st30" d="M1282,445.9c0.1,6.4,0.8,12.9,3.1,18.9s5.4,11.6,7.9,17.6c1.2,2.7,5.2,3.3,7.5,2
						c2.8-1.6,3.1-4.7,2-7.5c-2.2-5-4.8-9.9-6.8-14.9c-1.9-5.1-2.8-10.5-2.7-16C1292.8,438.9,1281.9,438.9,1282,445.9z"/>
				</g>
			</g>
			<path id="Path_309" class="st1" d="M1530,524.9l-34,8.5c0,0-9.3,12.6-9.3,14.2s7.1,13.7,6.7,15.5s28,16.8,28,16.8
				s25.2-3.1,26.1-3.3c1-0.2,18.6-9.5,20.3-10.6s11.8-17.4,11.5-18.4s-13.1-17.2-13.1-17.2l-26.7-5.4L1530,524.9L1530,524.9z"/>
			<path id="Path_310" class="st62" d="M1582.4,543.2c-8-16.1-37-25.4-64.9-20.8c-27.9,4.6-44,21.4-36,37.4
				c8,16.1,37,25.4,64.9,20.8C1574.3,576.1,1590.4,559.3,1582.4,543.2z M1493.4,557.5c-6-12.2,6.1-24.8,27.3-28.3
				c21.1-3.5,43,3.6,49,15.7c6,12.1-6.1,24.8-27.3,28.3C1521.3,576.7,1499.4,569.7,1493.4,557.5L1493.4,557.5z"/>
			<path id="Path_311" class="st4" d="M1539.2,546.4l-28.5,2.8c-1.5,0.1-2.8-0.9-2.9-2.4l0,0c-0.1-1.5,1-2.8,2.4-2.9l28.5-2.8
				c1.5-0.1,2.8,0.9,2.9,2.4l0,0C1541.8,544.9,1540.7,546.2,1539.2,546.4C1539.3,546.4,1539.3,546.4,1539.2,546.4L1539.2,546.4z"/>
			<path id="Path_312" class="st4" d="M1539.5,554.5l-28.5,2.8c-1.5,0.1-2.8-0.9-2.9-2.4l0,0c-0.1-1.5,1-2.8,2.4-2.9l28.5-2.8
				c1.5-0.1,2.8,0.9,2.9,2.4l0,0C1542,553,1540.9,554.3,1539.5,554.5z"/>
			<path id="Path_313" class="st52" d="M1308.7,455.3l-7.6-3.7c-0.6-0.2-0.9-0.9-0.6-1.4l6-18.9c0.3-0.6,1-1,1.7-0.7c0,0,0,0,0,0
				c0,0,0.1,0,0.1,0l7.6,3.7c0.6,0.2,0.9,0.9,0.7,1.4l-6,18.9c-0.2,0.6-0.9,0.9-1.5,0.7C1308.9,455.3,1308.8,455.3,1308.7,455.3z"/>
			<path id="Path_314" class="st14" d="M1308.3,452.9l-6.1-3.1c-0.4-0.2-0.6-0.7-0.5-1.1l5.2-16.1c0.1-0.5,0.6-0.7,1.1-0.6
				c0,0,0,0,0,0l0.1,0.1l6.1,3.1c0.4,0.2,0.6,0.7,0.5,1.1l-5.2,16.1c-0.1,0.5-0.6,0.7-1.1,0.6C1308.4,453,1308.4,452.9,1308.3,452.9
				z"/>
			<g id="Group_110">
				<g id="Group_109">
					<path id="Path_315" class="st27" d="M1252.8,205c0.6,4.8,0.8,9.7,0.5,14.5c-0.2,5.3,1,10.9,0.3,16.1c0,0-0.2,1-0.2,0.9
						s0.3-0.1,0.1-0.1c-0.7,0.2,0.4-0.1-0.1,0l-0.7,0.2c-0.3,0.1-0.9,0.1-1.7,0.1c-5.2,0.3-10.5,0.3-15.7,1c-4.5,0.6-4.6,7.8,0,7.2
						c5.8-0.7,11.5-0.5,17.2-1.1c3.7-0.4,6.9-1.9,7.9-5.8c1.4-5.5-0.1-11.7,0.1-17.3c0.1-6.1,0.2-11.7-0.7-17.8
						C1259,198.6,1252.2,200.5,1252.8,205L1252.8,205z"/>
				</g>
			</g>
			<g id="Group_112">
				<g id="Group_111">
					<path id="Path_316" class="st54" d="M1249.4,200c2,4.8,3.1,9.9,3.3,15.2c0.1,5.4-0.5,10.7-0.6,16.1c-0.1,6.1,9.4,6.1,9.5,0
						c0.1-5.6,0.8-11.3,0.6-17c-0.2-5.8-1.4-11.5-3.6-16.9c-1-2.4-3.2-4.1-5.9-3.3C1250.5,194.7,1248.5,197.5,1249.4,200L1249.4,200
						z"/>
				</g>
			</g>
			<path id="Path_317" class="st27" d="M1215.2,240.5L1215.2,240.5c-2.2,0.4-4.3-1.1-4.7-3.4v0l-1.4-8.8c-0.4-2.2,1.1-4.3,3.4-4.7h0
				c2.2-0.4,4.3,1.1,4.7,3.4v0l1.5,8.8c0.4,2.2-1.1,4.3-3.3,4.7L1215.2,240.5z"/>
			<path id="Path_318" class="st1" d="M1237.9,246.3v-0.8l-1,0.4l-0.2-0.5l-25.8-14.9c-0.4-0.2-0.9-0.1-1.2,0.1l-11.1,6.4v-0.2
				l-2,0.9v0.8l0,0c0,0.1,0.1,0.1,0.2,0.2l26.9,15.5c0.4,0.2,0.9,0.1,1.2-0.1l12.9-7.5C1237.8,246.6,1237.9,246.4,1237.9,246.3
				L1237.9,246.3z"/>
			<path id="Path_319" class="st4" d="M1223.5,253.3l-26.9-15.6c-0.3-0.2-0.3-0.5,0.1-0.7l12.9-7.5c0.4-0.2,0.8-0.2,1.2-0.1
				l26.9,15.6c0.3,0.2,0.3,0.5-0.1,0.7l-12.9,7.5C1224.4,253.5,1223.9,253.5,1223.5,253.3z"/>
			<path id="Path_320" class="st1" d="M1225.4,243.3l-6.5-3.7c0,0,0-0.1,0-0.2l0,0l3.1-1.8c0.1-0.1,0.2-0.1,0.3,0l6.5,3.7
				c0,0,0,0.1,0,0.2c0,0,0,0,0,0l0,0l-3.1,1.8L1225.4,243.3z"/>
			<path id="Path_321" class="st7" d="M1222.8,235.8c-0.1-0.8-0.6-1.5-1.2-1.9l-26.7-15.2c-0.2-0.1-0.4-0.1-0.6-0.1l0,0
				c-0.1,0-0.1,0.1-0.1,0.1l-0.9,0.9l0.7-0.1l2.5,16.4c0.1,0.8,0.6,1.4,1.2,1.9l25.2,14.4l0.7,0.9l0.1,0.2c0.5,0.1,1.8-0.8,1.8-0.8
				L1222.8,235.8z"/>
			<path id="Path_322" class="st13" d="M1223.6,254.1l-26.7-15.2c-0.6-0.4-1.1-1.1-1.2-1.9l-2.5-16.6c-0.1-0.7,0.3-1,0.9-0.7
				l26.7,15.2c0.6,0.4,1.1,1.1,1.2,1.9l2.5,16.6C1224.5,254.1,1224.2,254.5,1223.6,254.1z"/>
			<path id="Path_323" class="st27" d="M1225.3,244.7L1225.3,244.7c-0.7-2.2,0.5-4.5,2.6-5.2l7.5-2.4c2.2-0.7,4.5,0.5,5.2,2.6l0,0
				c0.7,2.2-0.5,4.5-2.6,5.2l-7.5,2.4C1228.3,248,1226,246.9,1225.3,244.7z"/>
			<path id="Path_324" class="st7" d="M1209.4,238.1c0.1,0.9-0.6,1.1-1.8,0.5c-1.1-0.7-2.2-1.9-2.3-2.7c-0.1-0.8,0.6-1.1,1.8-0.5
				S1209.3,237.2,1209.4,238.1z"/>
			<path id="Path_325" class="st55" d="M1237,164.4c0,0,9.8,12.8,8.9,21.2c-0.7,6.9-8.2,11.3-9.6,21.8c-0.1,1.2,0.7,2.3,1.9,2.4
				c0.7,0.1,1.5-0.2,1.9-0.8c1.9-2.5,4.1-4.6,6.6-6.4c6.5-4.5,7.7-9.2,7.1-12.7s-3.3-28.9-3.3-28.9l-15-1.5L1237,164.4z"/>
			<ellipse id="Ellipse_8" class="st52" cx="1269.8" cy="404.5" rx="5.9" ry="5.7"/>
			<path id="Path_326" class="st41" d="M1267,402.5c3-0.5,5.8,1.4,6.4,4.3c1,4.2,1.7,12.5-3,22.2c-6.9,14.2,5.2,33.8-1,42.6
				c0,0-1.4-5.7-6.1-14.4c-4.7-8.8-6.1-23.7-5.2-34c1-10.2,6-19.2,6-19.2C1264.9,403.1,1265.9,402.6,1267,402.5z"/>
		</g>
	</g>
	
		<linearGradient id="градиент_1_" gradientUnits="userSpaceOnUse" x1="554.4886" y1="-126.9345" x2="554.0078" y2="-125.6714" gradientTransform="matrix(1920 0 0 1080 -1063126 136637.5)">
		<stop  offset="0" style="stop-color:#FFDDDE;stop-opacity:0.25"/>
		<stop  offset="1" style="stop-color:#FFA5A1"/>
	</linearGradient>
	<rect id="градиент" x="3.3" class="st65" width="1920" height="659"/>
</g>
</svg>
