<?xml version="1.0" encoding="utf-8"?>
<!-- Generator: Adobe Illustrator 22.0.1, SVG Export Plug-In . SVG Version: 6.00 Build 0)  -->
<svg version="1.1" id="Слой_1" xmlns="http://www.w3.org/2000/svg" xmlns:xlink="http://www.w3.org/1999/xlink" x="0px" y="0px"
	 viewBox="0 0 1759.9 464.4" style="enable-background:new 0 0 1759.9 464.4;" xml:space="preserve">
<style type="text/css">
	.st0{fill:#545864;}
	.st1{fill:none;}
	.st2{display:none;fill:#757C8F;}
	.st3{font-family:'NexaLight';}
	.st4{font-size:47px;}
	.st5{letter-spacing:21;}
	.st6{fill:#757C8F;}
	.st7{fill:#4C597D;}
	.st8{fill:#ABC4E4;}
	.st9{fill:#C1A8D6;}
	.st10{fill:#B1DD8D;}
	.st11{fill:#F1B88F;}
	.st12{fill:#E0D577;}
	.st13{fill:#F6A29A;}
</style>
<g>
	<path class="st0" d="M598.4,164v92.8h56.3v7.3h-64.1V164H598.4z"/>
	<path class="st0" d="M676.9,210.2h58.6v7h-58.6v39.5h63.2v7.4h-70.8V164h69.1v7.3h-61.5V210.2z"/>
	<path class="st0" d="M844.5,175.2l-38.3,58.6h-2.6L765,175.2v88.9h-7.7V164c3.7,0,5.4,0,9.2,0l38.3,58.3l37.9-58.3h9.4v100.1h-7.6
		V175.2z"/>
	<path class="st0" d="M970.8,214.2c-0.1,26.3-16.9,51.6-50.5,51.6s-50.5-25.5-50.5-51.9c0-26.9,16.7-51.5,50.5-51.5
		S970.9,187.2,970.8,214.2z M877.4,214.1c0.1,22.6,14.4,44.6,42.9,44.6c28.6,0,43-22,43-44.6c0-23.2-14.3-44.5-43-44.5
		S877.3,190.5,877.4,214.1z"/>
	<path class="st0" d="M992.5,164l67.4,82.8V164h7.6v100.1h-3L997,181.5v82.7h-7.7V164H992.5z"/>
	<path class="st0" d="M1173.7,212.9c0.6,25.5-15.7,51.2-50.8,51.2c-11.3,0-22.6,0-33.9,0V164c11.3,0,22.6,0,33.9,0
		C1156.8,164,1173.1,188.3,1173.7,212.9z M1096.8,171.3v85.4h26.2c29.7,0,43.5-22.3,43-43.8c-0.4-20.9-14.2-41.6-43-41.6H1096.8z"/>
	<path class="st0" d="M1271.1,264.1h-10.2l-34.6-37.9H1199v37.9h-7.7V164c14.7,0,29.3,0,44,0c21.7,0,32.7,15.6,32.9,31.2
		c0.1,16.3-10.6,30.6-32.5,30.6L1271.1,264.1z M1199,218.9h35.5c17.4,0,25.2-9.9,25.3-23.9c0.1-11.7-7.9-23.9-24.5-23.9H1199V218.9z
		"/>
	<path class="st0" d="M1291.5,210.2h58.6v7h-58.6v39.5h63.2v7.4H1284V164h69.1v7.3h-61.5V210.2z"/>
	<path class="st0" d="M1439.7,183.3c-7.3-11.7-19-13.4-30.3-13.6c-11.7,0-30.3,4.3-30.3,20.3c0,12.7,13.7,15.7,30.6,18.9
		c19.3,3.7,39.3,7.2,39.3,28.7c-0.1,22.6-22.9,28-39.6,28c-15.6,0-33.3-6.4-41-21.7l6.9-3.4c6.1,12.2,21.9,18.2,34.2,18.2
		s31.9-3.4,31.9-21.2c0.1-15-16.4-18.3-32.9-21.5c-18.3-3.6-37-7.3-37-25.7c-0.4-21.2,21.6-27.7,38-27.7c14.3,0,26.7,2.3,36.6,17
		L1439.7,183.3z"/>
	<path class="st0" d="M1530.2,183.3c-7.3-11.7-19-13.4-30.3-13.6c-11.7,0-30.3,4.3-30.3,20.3c0,12.7,13.7,15.7,30.6,18.9
		c19.3,3.7,39.3,7.2,39.3,28.7c-0.1,22.6-22.9,28-39.6,28c-15.6,0-33.3-6.4-41-21.7l6.9-3.4c6.1,12.2,21.9,18.2,34.2,18.2
		s31.9-3.4,31.9-21.2c0.1-15-16.4-18.3-32.9-21.5c-18.3-3.6-37-7.3-37-25.7c-0.4-21.2,21.6-27.7,38-27.7c14.3,0,26.7,2.3,36.6,17
		L1530.2,183.3z"/>
	<path class="st0" d="M1563.4,210.2h58.6v7h-58.6v39.5h63.2v7.4h-70.8V164h69.1v7.3h-61.5V210.2z"/>
	<path class="st0" d="M1723.5,264.1h-10.2l-34.6-37.9h-27.3v37.9h-7.7V164c14.7,0,29.3,0,44,0c21.7,0,32.7,15.6,32.9,31.2
		c0.1,16.3-10.6,30.6-32.5,30.6L1723.5,264.1z M1651.5,218.9h35.5c17.4,0,25.2-9.9,25.3-23.9c0.1-11.7-7.9-23.9-24.5-23.9h-36.3
		V218.9z"/>
</g>
<rect x="315.4" y="285.9" class="st1" width="1678.1" height="53.1"/>
<text id="Innovation_Technologies_ТЕКСТОМ" transform="matrix(1 0 0 1 582.4207 318.8254)" class="st2 st3 st4 st5">Innovation Technologies</text>
<g>
	<path class="st6" d="M587,318.8v-32.9h2.5v32.9H587z"/>
	<path class="st6" d="M619.8,285.9l22.1,27.2v-27.2h2.5v32.9h-1l-22.2-27.2v27.2h-2.5v-32.9H619.8z"/>
	<path class="st6" d="M674.9,285.9l22.1,27.2v-27.2h2.5v32.9h-1l-22.2-27.2v27.2h-2.5v-32.9H674.9z"/>
	<path class="st6" d="M761.1,302.4c0,8.6-5.5,17-16.6,17s-16.6-8.4-16.6-17.1c0-8.8,5.5-16.9,16.6-16.9
		C755.6,285.4,761.2,293.5,761.1,302.4z M730.4,302.4c0,7.4,4.7,14.7,14.1,14.7c9.4,0,14.1-7.2,14.1-14.7c0-7.6-4.7-14.6-14.1-14.6
		S730.4,294.6,730.4,302.4z"/>
	<path class="st6" d="M814.9,285.9l-13.5,33h-2.7l-13.5-33h2.7L800,316l12.2-30.1H814.9z"/>
	<path class="st6" d="M867.5,318.8l-3.6-8.1h-19.6l-3.6,8.1h-2.7l14.8-32.9h2.8l14.8,32.9H867.5z M862.9,308.4l-8.8-20l-8.8,20
		H862.9z"/>
	<path class="st6" d="M900.4,288.2h-11.9V286h26.3v2.3h-11.9v30.6h-2.5V288.2z"/>
	<path class="st6" d="M941.6,318.8v-32.9h2.5v32.9H941.6z"/>
	<path class="st6" d="M1006.1,302.4c0,8.6-5.5,17-16.6,17c-11,0-16.6-8.4-16.6-17.1c0-8.8,5.5-16.9,16.6-16.9
		C1000.6,285.4,1006.2,293.5,1006.1,302.4z M975.4,302.4c0,7.4,4.7,14.7,14.1,14.7c9.4,0,14.1-7.2,14.1-14.7
		c0-7.6-4.7-14.6-14.1-14.6C980.1,287.8,975.4,294.6,975.4,302.4z"/>
	<path class="st6" d="M1035.3,285.9l22.1,27.2v-27.2h2.5v32.9h-1l-22.2-27.2v27.2h-2.5v-32.9H1035.3z"/>
	<path class="st6" d="M1133.5,288.2h-11.9V286h26.3v2.3H1136v30.6h-2.5V288.2z"/>
	<path class="st6" d="M1177.2,301.1h19.3v2.3h-19.3v13h20.8v2.4h-23.3v-32.9h22.7v2.4h-20.2V301.1z"/>
	<path class="st6" d="M1252.7,314.3c-3.3,3.3-7.7,4.9-12,4.9c-11.1,0-16.9-7.8-16.9-16.6c-0.1-8.8,5.6-17,16.9-17
		c4.3,0,8.7,1.6,12,4.9l-1.7,1.5c-2.8-2.8-6.5-4.2-10.2-4.2c-9.6,0-14.5,6.8-14.5,14.7c0.1,7.7,5,14.4,14.5,14.4
		c3.7,0,7.5-1.4,10.3-4.2L1252.7,314.3z"/>
	<path class="st6" d="M1304.2,318.8v-14.9h-21v14.9h-2.5v-32.9h2.5v15.7h21v-15.7h2.5v32.9H1304.2z"/>
	<path class="st6" d="M1337.1,285.9l22.1,27.2v-27.2h2.5v32.9h-1l-22.2-27.2v27.2h-2.5v-32.9H1337.1z"/>
	<path class="st6" d="M1423.3,302.4c0,8.6-5.5,17-16.6,17c-11,0-16.6-8.4-16.6-17.1c0-8.8,5.5-16.9,16.6-16.9
		C1417.8,285.4,1423.3,293.5,1423.3,302.4z M1392.6,302.4c0,7.4,4.7,14.7,14.1,14.7c9.4,0,14.1-7.2,14.1-14.7
		c0-7.6-4.7-14.6-14.1-14.6C1397.3,287.8,1392.6,294.6,1392.6,302.4z"/>
	<path class="st6" d="M1453.8,285.9v30.5h18.5v2.4h-21.1v-32.9H1453.8z"/>
	<path class="st6" d="M1529.9,302.4c0,8.6-5.5,17-16.6,17c-11,0-16.6-8.4-16.6-17.1c0-8.8,5.5-16.9,16.6-16.9
		C1524.4,285.4,1530,293.5,1529.9,302.4z M1499.2,302.4c0,7.4,4.7,14.7,14.1,14.7c9.4,0,14.1-7.2,14.1-14.7
		c0-7.6-4.7-14.6-14.1-14.6S1499.2,294.6,1499.2,302.4z"/>
	<path class="st6" d="M1583.8,292c-2.9-2.8-6.9-4.2-10.6-4.2c-9.6,0-14.6,7-14.5,14.7c0,7.8,4.9,14.4,14.5,14.4
		c3.5,0,7.2-1.2,10-3.8v-9.2h-11.5v-2.2h13.9v12.3c-3.4,3.4-7.5,5.3-12.4,5.3c-11.2,0-17-7.8-17-16.8c0-10.3,7-17,17-17
		c4.3,0,8.7,1.6,12,4.9L1583.8,292z"/>
	<path class="st6" d="M1614.6,318.8v-32.9h2.5v32.9H1614.6z"/>
	<path class="st6" d="M1648.8,301.1h19.3v2.3h-19.3v13h20.8v2.4h-23.3v-32.9h22.7v2.4h-20.2V301.1z"/>
	<path class="st6" d="M1719.5,292.3c-2.4-3.9-6.3-4.4-10-4.5c-3.9,0-10,1.4-10,6.7c0,4.2,4.5,5.2,10.1,6.2
		c6.3,1.2,12.9,2.3,12.9,9.4c0,7.4-7.5,9.2-13,9.2c-5.1,0-11-2.1-13.5-7.1l2.3-1.1c2,4,7.2,6,11.2,6c4,0,10.5-1.1,10.5-7
		c0-4.9-5.4-6-10.8-7c-6-1.2-12.2-2.4-12.2-8.5c-0.1-7,7.1-9.1,12.5-9.1c4.7,0,8.8,0.8,12,5.6L1719.5,292.3z"/>
</g>
<g id="logo">
	<path class="st7" d="M407.2,120.2C356.5,149,306.6,177.3,256,206c0.1-58.2-0.1-115.6,1.4-173.6C307.1,61.6,356.8,90.7,407.2,120.2z
		"/>
	<path class="st7" d="M228.1,206.7c-50-29.3-99.5-58.3-149.9-87.8c50.7-28.7,100.6-57.1,151.2-85.8
		C229.3,91.3,229.5,148.7,228.1,206.7z"/>
	<path class="st7" d="M419.1,316.6c-14.1-8.2-28-16.2-41.8-24.2c-17.1-10-34.2-20.1-51.2-30.1c-17.9-10.5-35.9-21-53.9-31.4
		c-2.5-1.4-2.3-2.2,0.1-3.5c11.7-6.6,23.3-13.3,35-20c21.3-12.2,42.7-24.4,64-36.5c16.1-9.1,32.2-18.1,49.1-27.5
		C420.3,201.3,420.6,258.7,419.1,316.6z"/>
	<path class="st7" d="M228.2,250.3c0.8,58.2-0.9,115.4-0.9,173.7c-50.1-29.3-99.7-58.4-150.1-87.9
		C127.9,307.3,177.8,278.9,228.2,250.3z"/>
	<path class="st7" d="M253.2,425.3c-0.8-57.6,0.8-115,0.9-173.1c8.8,5.1,17.1,10,25.4,14.8c19.1,11.1,38.2,22.2,57.3,33.4
		c16.4,9.6,32.7,19.3,49.1,28.9c5.1,3,10.1,6,15.3,8.9c2.4,1.3,2.5,2.1,0.1,3.5c-16.8,9.5-33.6,19.2-50.4,28.7
		c-21.6,12.3-43.3,24.6-64.9,36.9c-10.3,5.8-20.6,11.6-30.9,17.3C254.5,425.1,253.9,425.1,253.2,425.3z"/>
	<path class="st7" d="M64.1,140.3c7.1,4,13.6,7.7,20.1,11.5c18.8,11,37.5,22.1,56.3,33.1c23.6,13.8,47.2,27.6,70.8,41.4
		c2.5,1.5,2.2,2.2-0.1,3.5c-17.7,9.9-35.4,19.9-53,30c-20.6,11.8-41.2,23.6-61.8,35.4c-10.8,6.1-21.7,12.1-33,18.5
		C62.3,255.9,64.1,198.6,64.1,140.3z"/>
	<path class="st7" d="M441.3,282.3c-1.9-33.5-0.2-66.9-0.2-101c4.7,4.9,7,10.7,10.1,15.8c6.3,10.1,12.1,20.6,18,31
		c1,1.7,1.9,3.5,0.6,5.6C460.3,249.9,450.8,266.1,441.3,282.3z"/>
	<path class="st7" d="M386.3,377c-6.6,11.3-13.1,22.6-19.7,33.9c-2.4,4.1-4.8,8.2-7.1,12.4c-1.1,2-2.3,3.4-4.9,3.4
		c-18.6-0.1-37.3,0-56.2-0.9c29-16.6,58-33.1,87-49.7C385.7,376.5,386,376.8,386.3,377z"/>
	<path class="st7" d="M181.8,425.8c-16.3,0-32.6,0-48.9,0c-1.4,0-2.3-0.3-3.1-1.8c-7.8-13.7-15.7-27.3-23.6-40.9
		c-0.4-0.7-0.5-1.5-1.2-3.5c26.3,15.3,51.8,30.1,77.2,44.9C182,424.9,181.9,425.4,181.8,425.8z"/>
	<path class="st7" d="M382.4,80.8c-25.4-14.8-50.8-29.5-76.1-44.3c0.1-0.4,0.2-0.8,0.3-1.2c3.7,0,7.4,0,11.2,0c12.2,0,24.3,0,36.5,0
		c1.7,0,3.3-0.4,4.6,1.8c7.4,13.1,15.1,26.1,22.6,39.2c0.7,1.2,1.2,2.6,1.8,3.9C382.9,80.4,382.7,80.6,382.4,80.8z"/>
	<path class="st7" d="M42.4,186.9c1.2,28.2,0.8,56.2-0.3,85.3c-6-10.4-11.5-19.9-17.1-29.5c-1.6-2.7-2.8-5.6-4.7-8.1
		c-2.7-3.5-2.3-6.4,0-10.1C27.9,212.1,35,199.5,42.4,186.9z"/>
	<path class="st7" d="M107.2,74.6c4.3-7.1,8.6-14.2,12.8-21.3c2.4-3.9,5.3-7.7,6.8-11.9c2.3-6.2,6.3-7.3,12.3-7.1
		c13.2,0.4,26.4,0.1,40,1.2c-23.6,13.7-47.3,27.4-70.9,41.2C106.5,76.6,106.5,75.7,107.2,74.6z"/>
	<path class="st8" d="M276.5,65.6c31,18.2,61.5,36,92.7,54.3c-11.7,6.7-22.9,13-34.1,19.4c-18.5,10.5-37.1,21-55.6,31.5
		c-2.5,1.4-4.3,2.7-4.3-2c0.4-33.8,0.6-67.6,0.9-101.4C276.1,67.1,276.2,66.8,276.5,65.6z"/>
	<path class="st9" d="M116.2,119.2c18.2-10.3,35.8-20.3,53.4-30.3c12.2-6.9,24.3-13.7,36.4-20.7c3.1-1.8,4.2-1.7,4.1,2.3
		c-0.4,33.5-0.6,66.9-0.9,100.4c0,0.6-0.2,1.3-0.3,2.7C178,155.4,147.3,137.4,116.2,119.2z"/>
	<path class="st10" d="M307.2,229.2c30.5-17.3,60.2-34.1,89.8-51c2.9-1.7,4.2-1.9,4.2,2.3c-0.4,33.6-0.6,67.3-0.9,100.9
		c0,0.5-0.2,1-0.4,2.2C369,265.4,338.4,247.4,307.2,229.2z"/>
	<path class="st11" d="M207.4,390.3c-30.5-17.9-61.1-35.8-92.2-54c10.6-6,20.6-11.8,30.6-17.5c19.4-11,38.8-22,58.2-33.1
		c5-2.9,5.1-2.9,5.1,3c0,33.6,0,67.3,0,100.9C208.5,389.9,208,390.1,207.4,390.3z"/>
	<path class="st12" d="M366.2,339.9c-31.5,17.9-62.2,35.3-93.4,53c0-35.9,0-71.2,0-107.7C304.4,303.7,335,321.6,366.2,339.9z"/>
	<path class="st13" d="M83,280.8c0-36.1,0-71.3,0-107.6c31.6,18.5,62.2,36.4,93.3,54.6C144.8,245.7,114.1,263.1,83,280.8z"/>
</g>
</svg>
