<?xml version="1.0" encoding="utf-8"?>
<!-- Generator: Adobe Illustrator 21.1.0, SVG Export Plug-In . SVG Version: 6.00 Build 0)  -->
<svg version="1.1" id="Слой_1" xmlns="http://www.w3.org/2000/svg" xmlns:xlink="http://www.w3.org/1999/xlink" x="0px" y="0px"
	 viewBox="0 0 1416 792" style="enable-background:new 0 0 1416 792;" xml:space="preserve">
<style type="text/css">
	.st0{fill:none;}
	.st1{fill:#545864;}
	.st2{font-family:'NexaLight';}
	.st3{font-size:143px;}
	.st4{fill:#757C8F;}
	.st5{font-size:49px;}
	.st6{letter-spacing:22;}
	.st7{fill:#4C597D;}
	.st8{fill:#ABC4E4;}
	.st9{fill:#C1A8D6;}
	.st10{fill:#B1DD8D;}
	.st11{fill:#F1B88F;}
	.st12{fill:#E0D577;}
	.st13{fill:#F6A29A;}
</style>
<rect x="-132" y="551" class="st0" width="1678.1" height="295.5"/>
<text transform="matrix(1 0 0 1 135.7196 651.1166)" class="st1 st2 st3">Lemondresser</text>
<rect x="-132" y="672.9" class="st0" width="1678.1" height="295.5"/>
<text transform="matrix(1 0 0 1 138.6991 707.2261)" class="st4 st2 st5 st6">Innovation Tehnologies</text>
<g id="logo">
	<path class="st7" d="M869,179.6c-50.7,28.8-100.7,57.1-151.2,85.8c0.1-58.2-0.1-115.6,1.4-173.6C768.9,121,818.6,150.1,869,179.6z"
		/>
	<path class="st7" d="M689.8,266.1c-50-29.3-99.5-58.3-149.9-87.8c50.7-28.7,100.6-57.1,151.2-85.8
		C691.1,150.8,691.3,208.1,689.8,266.1z"/>
	<path class="st7" d="M880.9,376c-14.1-8.2-28-16.2-41.8-24.2c-17.1-10-34.2-20.1-51.2-30.1c-17.9-10.5-35.9-21-53.9-31.4
		c-2.5-1.4-2.3-2.2,0.1-3.5c11.7-6.6,23.3-13.3,35-20c21.3-12.2,42.7-24.4,64-36.5c16.1-9.1,32.2-18.1,49.1-27.5
		C882.1,260.8,882.4,318.2,880.9,376z"/>
	<path class="st7" d="M690,309.7c0.8,58.2-0.9,115.4-0.9,173.7C639,454,589.4,425,539,395.5C589.7,366.7,639.6,338.3,690,309.7z"/>
	<path class="st7" d="M715,484.8c-0.8-57.6,0.8-115,0.9-173.1c8.8,5.1,17.1,10,25.4,14.8c19.1,11.1,38.2,22.2,57.3,33.4
		c16.4,9.6,32.7,19.3,49.1,28.9c5.1,3,10.1,6,15.3,8.9c2.4,1.3,2.5,2.1,0.1,3.5c-16.8,9.5-33.6,19.2-50.4,28.7
		c-21.6,12.3-43.3,24.6-64.9,36.9c-10.3,5.8-20.6,11.6-30.9,17.3C716.3,484.5,715.7,484.6,715,484.8z"/>
	<path class="st7" d="M525.9,199.7c7.1,4,13.6,7.7,20.1,11.5c18.8,11,37.5,22.1,56.3,33.1c23.6,13.8,47.2,27.6,70.8,41.4
		c2.5,1.5,2.2,2.2-0.1,3.5c-17.7,9.9-35.4,19.9-53,30c-20.6,11.8-41.2,23.6-61.8,35.4c-10.8,6.1-21.7,12.1-33,18.5
		C524.1,315.3,525.8,258,525.9,199.7z"/>
	<path class="st7" d="M903.1,341.8c-1.9-33.5-0.2-66.9-0.2-101c4.7,4.9,7,10.7,10.1,15.8c6.3,10.1,12.1,20.6,18,31
		c1,1.7,1.9,3.5,0.6,5.6C922.1,309.3,912.6,325.5,903.1,341.8z"/>
	<path class="st7" d="M848.1,436.5c-6.6,11.3-13.1,22.6-19.7,33.9c-2.4,4.1-4.8,8.2-7.1,12.4c-1.1,2-2.3,3.4-4.9,3.4
		c-18.6-0.1-37.3,0-56.2-0.9c29-16.6,58-33.1,87-49.7C847.5,435.9,847.8,436.2,848.1,436.5z"/>
	<path class="st7" d="M643.6,485.2c-16.3,0-32.6,0-48.9,0c-1.4,0-2.3-0.3-3.1-1.8c-7.8-13.7-15.7-27.3-23.6-40.9
		c-0.4-0.7-0.5-1.5-1.2-3.5c26.3,15.3,51.8,30.1,77.2,44.9C643.8,484.4,643.7,484.8,643.6,485.2z"/>
	<path class="st7" d="M844.2,140.3c-25.4-14.8-50.8-29.5-76.1-44.3c0.1-0.4,0.2-0.8,0.3-1.2c3.7,0,7.4,0,11.2,0
		c12.2,0,24.3,0,36.5,0c1.7,0,3.3-0.4,4.6,1.8c7.4,13.1,15.1,26.1,22.6,39.2c0.7,1.2,1.2,2.6,1.8,3.9
		C844.7,139.9,844.4,140.1,844.2,140.3z"/>
	<path class="st7" d="M504.1,246.3c1.2,28.2,0.8,56.2-0.3,85.3c-6-10.4-11.5-19.9-17.1-29.5c-1.6-2.7-2.8-5.6-4.7-8.1
		c-2.7-3.5-2.3-6.4,0-10.1C489.7,271.6,496.8,258.9,504.1,246.3z"/>
	<path class="st7" d="M569,134c4.3-7.1,8.6-14.2,12.8-21.3c2.4-3.9,5.3-7.7,6.8-11.9c2.3-6.2,6.3-7.3,12.3-7.1
		c13.2,0.4,26.4,0.1,40,1.2c-23.6,13.7-47.3,27.4-70.9,41.2C568.3,136,568.3,135.2,569,134z"/>
	<path class="st8" d="M738.3,125.1c31,18.2,61.5,36,92.7,54.3c-11.7,6.7-22.9,13-34.1,19.4c-18.5,10.5-37.1,21-55.6,31.5
		c-2.5,1.4-4.3,2.7-4.3-2c0.4-33.8,0.6-67.6,0.9-101.4C737.9,126.6,738,126.2,738.3,125.1z"/>
	<path class="st9" d="M578,178.6c18.2-10.3,35.8-20.3,53.4-30.3c12.2-6.9,24.3-13.7,36.4-20.7c3.1-1.8,4.2-1.7,4.1,2.3
		c-0.4,33.5-0.6,66.9-0.9,100.4c0,0.6-0.2,1.3-0.3,2.7C639.8,214.8,609.1,196.8,578,178.6z"/>
	<path class="st10" d="M769,288.6c30.5-17.3,60.2-34.1,89.8-51c2.9-1.7,4.2-1.9,4.2,2.3c-0.4,33.6-0.6,67.3-0.9,100.9
		c0,0.5-0.2,1-0.4,2.2C830.8,324.8,800.2,306.9,769,288.6z"/>
	<path class="st11" d="M669.2,449.7c-30.5-17.9-61.1-35.8-92.2-54c10.6-6,20.6-11.8,30.6-17.5c19.4-11,38.8-22,58.2-33.1
		c5-2.9,5.1-2.9,5.1,3c0,33.6,0,67.3,0,100.9C670.3,449.3,669.8,449.5,669.2,449.7z"/>
	<path class="st12" d="M828,399.3c-31.5,17.9-62.2,35.3-93.4,53c0-35.9,0-71.2,0-107.7C766.2,363.1,796.8,381,828,399.3z"/>
	<path class="st13" d="M544.7,340.2c0-36.1,0-71.3,0-107.6c31.6,18.5,62.2,36.4,93.3,54.6C606.6,305.1,575.8,322.6,544.7,340.2z"/>
</g>
</svg>
