<?xml version="1.0" encoding="utf-8"?>
<!-- Generator: Adobe Illustrator 22.0.1, SVG Export Plug-In . SVG Version: 6.00 Build 0)  -->
<svg version="1.1" id="Layer_1" xmlns="http://www.w3.org/2000/svg" xmlns:xlink="http://www.w3.org/1999/xlink" x="0px" y="0px"
	 viewBox="0 0 1920 659" style="enable-background:new 0 0 1920 659;" xml:space="preserve">
<style type="text/css">
	.st0{clip-path:url(#SVGID_2_);}
	.st1{fill:#FFFFFF;}
	.st2{opacity:0.4;fill:#A8C4E5;enable-background:new    ;}
	.st3{fill:url(#Path_328_1_);}
	.st4{fill:#D0E1F4;}
	.st5{fill:#E6F0FF;}
	.st6{fill:#2C1F9C;}
	.st7{fill:#7D8AFF;}
	.st8{fill:#4A3EB5;}
	.st9{fill:url(#Path_335_1_);}
	.st10{fill:url(#Path_336_1_);}
	.st11{fill:url(#Path_337_1_);}
	.st12{fill:#FFCE43;}
	.st13{fill:#FFC2B0;}
	.st14{fill:#4432DB;}
	.st15{fill:#E655BE;}
	.st16{fill:#F09A82;}
	.st17{fill:#FF80DB;}
	.st18{fill:#6271F0;}
	.st19{fill:#2A1C9E;}
	.st20{fill:#8D99FC;}
	.st21{fill:#9EBBDE;}
	.st22{fill:#21DED5;}
	.st23{fill:#C6D2F2;}
	.st24{fill:#3B2AD1;}
	.st25{fill:#6F9ED9;}
	.st26{fill:#FBDDD3;}
	.st27{opacity:0.27;fill:#4A70D6;enable-background:new    ;}
	.st28{fill:none;stroke:#FFFFFF;stroke-width:5.1;stroke-linecap:round;stroke-linejoin:round;}
	.st29{fill:none;stroke:#FFFFFF;stroke-width:7.78;stroke-linecap:round;stroke-linejoin:round;}
	.st30{fill:url(#градиент_1_);}
</style>
<g>
	<defs>
		<rect id="SVGID_1_" width="1920" height="659"/>
	</defs>
	<clipPath id="SVGID_2_">
		<use xlink:href="#SVGID_1_"  style="overflow:visible;"/>
	</clipPath>
	<g id="Слайд_5" class="st0">
		<rect class="st1" width="1920" height="659"/>
		<g id="резидент">
			<g id="Group_114">
				<path id="Path_327" class="st2" d="M1611.3,404.6l55.9-33.6c3.5-2.2,4.6-6.8,2.4-10.3c-0.6-1-1.5-1.8-2.5-2.5l-165.7-98.5
					l-21.8,68.9L1611.3,404.6z"/>
				
					<linearGradient id="Path_328_1_" gradientUnits="userSpaceOnUse" x1="551.88" y1="-126.6013" x2="552.5161" y2="-126.6013" gradientTransform="matrix(232.67 0 0 578.82 -126932.4063 73504.5781)">
					<stop  offset="0.33" style="stop-color:#D0E1F4"/>
					<stop  offset="0.47" style="stop-color:#CBDEF4"/>
					<stop  offset="0.65" style="stop-color:#BCD6F4"/>
					<stop  offset="0.84" style="stop-color:#A3C9F4"/>
					<stop  offset="0.87" style="stop-color:#9FC7F4"/>
				</linearGradient>
				<path id="Path_328" class="st3" d="M1603.2,409.3l-116.5-77.2c-7.3-4.2-13.2-15.5-13.2-25.2V52.7c0-9.7,5.9-14.2,13.2-10
					l121.6,70.2c7.3,4.2,13.2,15.5,13.2,25.2v253c0,6.4-2.4,9.1-6.4,11.4L1603.2,409.3z"/>
				<path id="Path_329" class="st4" d="M1535.8,170.5c0,0-62.3,145.8-62.3,136.1l-10.2-257l15.3-8.1c2.3-1.1,5.1-0.8,8.1,1
					l121.6,70.2c3.6,2,6.8,5.8,9.2,10.2L1535.8,170.5z"/>
				<path id="Path_330" class="st5" d="M1596.1,408.5l-121.3-70.2c-7.3-4.2-12.9-15.5-12.9-25.2V58.9c0-9.7,5.8-14.2,13-10
					l121.2,70.2c7.3,4.2,12.8,15.5,12.8,25.2v254.2C1608.9,408.2,1603.3,412.7,1596.1,408.5z"/>
				<path id="Path_331" class="st6" d="M1593.6,409.4l-121.3-70.2c-7.3-4.2-12.9-15.5-12.9-25.2V59.8c0-9.7,5.8-14.2,13-10
					l121.2,70.2c7.3,4.2,12.8,15.5,12.8,25.2v254.2C1606.5,409.1,1600.9,413.6,1593.6,409.4z"/>
				<path id="Path_332" class="st7" d="M1590.2,365.9L1472,297.6c-1.2-0.7-2-2-2-3.5V79.5c0-2.2,1.8-4,4-4c0.7,0,1.4,0.2,2,0.5
					l118.2,68.3c1.2,0.7,2,2,2,3.4v214.7c0,2.2-1.8,4-4,4C1591.5,366.5,1590.8,366.3,1590.2,365.9L1590.2,365.9z"/>
				<path id="Path_333" class="st8" d="M1553.6,113.4l-37.5-21.7c-1.3-0.8-2.4-2.8-2.4-4.6l0,0c0-1.8,1.1-2.6,2.4-1.8l37.5,21.7
					c1.3,0.8,2.4,2.8,2.4,4.6l0,0C1556.1,113.4,1555,114.2,1553.6,113.4z"/>
			</g>
			
				<radialGradient id="Path_335_1_" cx="1917.1162" cy="130.4803" r="22.9112" gradientTransform="matrix(1.6 -9.000000e-02 0.14 2.56 -559.33 224.3801)" gradientUnits="userSpaceOnUse">
				<stop  offset="0" style="stop-color:#0028A1"/>
				<stop  offset="0.23" style="stop-color:#2041B9"/>
				<stop  offset="0.94" style="stop-color:#7D8AFF"/>
			</radialGradient>
			<path id="Path_335" class="st9" d="M1546.9,155.3c1.8,32.4-13.2,58.7-33.4,58.7c-20.2,0-38-26.3-39.8-58.7s13.2-58.7,33.4-58.7
				C1527.3,96.6,1545.1,122.9,1546.9,155.3z"/>
			
				<radialGradient id="Path_336_1_" cx="2001.1228" cy="184.1852" r="23.3756" gradientTransform="matrix(1.47 -0.1 0.13 1.95 -390.915 358.7149)" gradientUnits="userSpaceOnUse">
				<stop  offset="0" style="stop-color:#0028A1"/>
				<stop  offset="0.23" style="stop-color:#2041B9"/>
				<stop  offset="0.94" style="stop-color:#7D8AFF"/>
			</radialGradient>
			<path id="Path_336" class="st10" d="M1596.1,277c1.5,25.2-11.5,39.8-29.2,32.7c-17.7-7.1-33.2-33.2-34.8-58.3
				c-1.6-25.1,11.5-39.8,29.2-32.7C1579,225.7,1594.5,251.8,1596.1,277z"/>
			
				<radialGradient id="Path_337_1_" cx="1576.7019" cy="450.221" r="27.3319" gradientTransform="matrix(1.34 8.000000e-02 -0.11 1.8 23.065 -133.2799)" gradientUnits="userSpaceOnUse">
				<stop  offset="0" style="stop-color:#0028A1"/>
				<stop  offset="0.23" style="stop-color:#2041B9"/>
				<stop  offset="0.94" style="stop-color:#7D8AFF"/>
			</radialGradient>
			<path id="Path_337" class="st11" d="M1532.6,264.1c-1.7,27.2-19.4,49.2-39.6,49.2c-20.2,0-35.2-22-33.6-49.2
				c1.6-27.2,19.4-49.2,39.6-49.2C1519.2,214.9,1534.2,236.9,1532.6,264.1z"/>
			<g id="Group_115">
				<path id="Path_338" class="st12" d="M1355.5,277.9l1.3,3.7c0.2,0.5,0.5,0.9,0.9,1.3l2.8,2.1c1,0.8,1.4,2.4,0.6,2.7l-2,1.1
					c-0.3,0.2-0.4,0.6-0.3,1l0.5,3.5c0.2,1.2-0.9,1.5-1.8,0.4l-2.5-3c-0.3-0.4-0.7-0.6-1.1-0.6l-2.5,0.1c-0.9,0-1.9-1.5-1.8-2.5
					l0.5-3c0-0.5-0.1-1-0.3-1.5l-2-3.4c-0.7-1.2-0.3-2.4,0.6-2l2.8,1.1c0.3,0.2,0.7,0.1,0.9-0.2l1.3-2.2
					C1353.8,275.8,1355,276.6,1355.5,277.9z"/>
				<path id="Path_339" class="st2" d="M1315.5,399c6.6,3.6,17.9,3.7,25.2,0.3c7.3-3.4,7.8-9,1.2-12.6c-6.6-3.6-17.9-3.7-25.2-0.3
					C1309.4,389.8,1308.9,395.4,1315.5,399z"/>
				<path id="Path_340" class="st6" d="M1315.6,386.9l3.9-0.5c2.6-1.2,3.8-2,5-1.4l0.3,0.2c1.1,0.6,1,1.8-0.3,2.6l-5.7,4.5
					c-1.4,0.7-3,0.6-4.2-0.4c0,0-0.6-0.6-0.2-3C1314.6,387.6,1314.5,387.5,1315.6,386.9z"/>
				<path id="Path_341" class="st13" d="M1320.2,387.1c-0.3,2.7-5.2,2.7-5.2,0.6l2.7-62l16.4-4.6L1320.2,387.1z"/>
				<path id="Path_342" class="st6" d="M1332,392.8l3.8,0.7c2.9-0.3,4.3-0.8,5.2,0.2l0.3,0.3c0.9,1,0.4,2-1.1,2.4l-6.8,2.6
					c-1.5,0.3-3.1-0.4-3.9-1.7c0,0-0.4-0.8,0.8-2.9C1330.8,393.1,1330.8,393.1,1332,392.8z"/>
				<path id="Path_343" class="st13" d="M1335.2,394.4c-0.9,2.2-4.6,1.7-4.5-0.1c1.8-21.4-2.3-41.8-7.5-61.5l15.7-1.7
					C1339.4,354.3,1339.3,374.1,1335.2,394.4z"/>
				<path id="Path_344" class="st6" d="M1337.9,325.6l5.5,30.1c0,0-13.6,13.5-29.2,0l1.7-28.2L1337.9,325.6z"/>
				<path id="Path_345" class="st13" d="M1332.6,285.6c-1.2,4.1-4.2,5.2-6.8,2.6s-3.7-8.1-2.5-12.2c1.2-4.1,4.2-5.2,6.8-2.6
					C1332.7,276,1333.8,281.5,1332.6,285.6z"/>
				<path id="Path_346" class="st13" d="M1336.9,284.3c-1.2,4.1-5.6,5.5-8.1,2.9c-2.6-2.6-3.7-8.1-2.5-12.2c1.2-4.1,4.2-5.2,6.8-2.6
					C1335.6,275,1338.1,280.2,1336.9,284.3z"/>
				<path id="Path_347" class="st13" d="M1327,296.1l-0.4-0.1c-1.5-0.4-2.4-1.8-2.1-3.3l1.8-8.4c0.3-1.5,1.8-2.4,3.3-2.1l0.4,0.1
					c1.5,0.4,2.4,1.8,2.1,3.3l-0.6,8.3C1331.3,295.4,1328.5,296.4,1327,296.1z"/>
				<path id="Path_348" class="st14" d="M1323.6,284.9c0,0-0.5,2.9,4.4,3.1c3.9,0.2,2.8-7,6.7-7.5c4.3-0.7,5.1-6,3.4-8.1
					c-1.7-2-6.5-3.1-9.9-1.6C1324.8,272.3,1317.5,273.3,1323.6,284.9z"/>
				<circle id="Ellipse_9" class="st13" cx="1332.9" cy="282.1" r="1.9"/>
				<path id="Path_349" class="st15" d="M1315.9,327.1c1.4-7.6-0.1-13.7,0-21.8c0-14.6-0.7-18.2,7-16l2.2,0.6c1.1,0.3,2.1,0.7,3,1.2
					c10.2,5.2,12.9,6.8,12.5,12.9c0.1,10-4.6,12.1-2.2,20.9C1336.3,331.8,1318.2,332.1,1315.9,327.1z"/>
				<path id="Path_350" class="st16" d="M1332,288.5l-0.4-1c0.6,0.5,1.5,0.8,2.3,0.6C1333.3,288.4,1332.6,288.5,1332,288.5z"/>
				<ellipse id="Ellipse_10" class="st6" cx="1323.9" cy="276.8" rx="3.6" ry="4.1"/>
				<path id="Path_351" class="st14" d="M1323.8,275.6c0-1.2-0.9-2.1-2-2.2c-0.7,0-1.5,0.3-1.9,1c-0.5,0.8-0.8,1.6-1,2.5
					c-1.5,6.4-12.1,5.4-6.9,16.7c0,0-4.8,7.3,4.1,10.5c4.5,1.6,4.5-10.1,4.5-10.1s1.8-5.4,3.6-9.6c0.9-2,0.9-4.2,0-6.2
					C1323.9,277.3,1323.8,276.4,1323.8,275.6z"/>
				<path id="Path_352" class="st6" d="M1325,288.9c-0.6-0.2-1.3,0.2-1.4,0.9c0,0.2,0,0.4,0,0.5c0.2,1.3,1.2,2.4,2.5,2.7
					c2.1,0.6,4.2,0.6,6.3,0.1c0.2,0,0.3-0.2,0.3-0.4c0,0,0,0,0,0c0-0.1-0.1-0.2-0.2-0.2C1331,291.6,1327.6,289.5,1325,288.9z"/>
				<path id="Path_353" class="st15" d="M1331.3,301.9c0,0,10,24.3,20.9,12.6c10.9-11.7,7.1-19.9,7.1-19.9l-1.5-0.4
					c0,0-4.4,14.7-9.2,13.3c-4.7-1.5-11.2-10.5-13.4-10.9C1333,296,1331.3,301.9,1331.3,301.9z"/>
				<path id="Path_354" class="st13" d="M1359.1,296.2L1359.1,296.2c-1.1,0-1.9-0.9-1.9-1.9v-2c0-1.1,0.9-1.9,1.9-1.9l0,0l0,0
					c1.1,0,1.9,0.9,1.9,1.9l0,0v2C1361,295.4,1360.1,296.2,1359.1,296.2z"/>
			</g>
			<path id="Path_355" class="st15" d="M1466.3,162.8l29.7,40c0.9,1.3,4.2,0.4,4.7-1.1l6.9-23.7L1466.3,162.8z"/>
			<path id="Path_356" class="st15" d="M1489.8,233.5l22.7-11.4c2-1,4.4-0.1,5.4,1.9c0.4,0.9,0.5,1.9,0.2,2.8l-14.1,27.8l-3.6-3.1
				l-6.6-10.2L1489.8,233.5z"/>
			<path id="Path_357" class="st14" d="M1583,290.2l-19.6,16.1c-1.8,1.4-4.3,1-5.7-0.7c-0.6-0.7-0.9-1.7-0.8-2.6l7.7-30.2l4.3,2.3
				l8.7,8.5L1583,290.2z"/>
			<g id="Group_116">
				<path id="Path_358" class="st15" d="M1518,179.7l-104.9-60.6c-8.3-4.8-15-17.6-15-28.7V45.4c0-11,6.7-16.2,15-11.4L1518,94.6
					c8.3,4.8,15,17.6,15,28.7v45.1C1533,179.5,1526.3,184.5,1518,179.7z"/>
				<path id="Path_359" class="st15" d="M1390.7,42.1l12.2-8.7l125.8,146.5l-13.4,9.4L1390.7,42.1z"/>
				<path id="Path_360" class="st17" d="M1505,188.8l-104.9-60.6c-8.3-4.8-15-17.6-15-28.7V54.5c0-11,6.7-16.2,15-11.4l104.9,60.6
					c8.3,4.8,15,17.6,15,28.7v45.1C1520.1,188.5,1513.3,193.6,1505,188.8z"/>
			</g>
			<g id="Group_136">
				<g id="Group_117">
					<path id="Path_361" class="st1" d="M1437.6,102.2c-0.1,11.7-9.9,16.4-21.9,10.5c-12.1-5.9-21.8-20.1-21.7-31.8
						c0.1-11.7,9.9-16.4,21.9-10.5C1428,76.2,1437.7,90.5,1437.6,102.2z"/>
				</g>
				<g id="Group_118">
					<path id="Path_362" class="st6" d="M1405.8,96.2c1,3.3,1.4,6.8,1.1,10.3c4.9,4.7,11.9,8.6,19.1,8.8c0,0-0.2-7.5,1.2-8.1
						l-0.1-0.8l-3.2-2.5l-1.8,4.8c0,0-1.3,2.5-5.5-0.2s-5-3.6-5.3-5.4s-1.4-6.2-1.4-6.2L1405.8,96.2z"/>
				</g>
				<g id="Group_119">
					<path id="Path_363" class="st6" d="M1419.9,103.3L1419.9,103.3c-0.2,0-0.4-0.2-0.4-0.4l-0.3-5.2c0-0.1,0.1-0.3,0.2-0.3
						c0,0,0,0,0,0c0,0,0.1,0,0.1,0c0.2,0,0.4,0.2,0.4,0.4l0.3,5.2C1420.1,103.2,1420,103.3,1419.9,103.3z"/>
				</g>
				<g id="Group_120">
					<path id="Path_364" class="st6" d="M1413.5,100.2h-0.1c-0.2,0-0.3-0.2-0.3-0.4l0.4-4.9c0-0.2,0.2-0.3,0.4-0.2
						c0.2,0,0.3,0.2,0.3,0.4l-0.4,4.9C1413.8,100.1,1413.7,100.2,1413.5,100.2C1413.5,100.2,1413.5,100.2,1413.5,100.2z"/>
				</g>
				<g id="Group_121">
					<path id="Path_365" class="st6" d="M1409.7,87.9c-0.1,0-0.2,0-0.2-0.1c-0.1-0.1-1.8-1.2-2.4-4.3c-0.3-1.2-0.2-1.9,0.3-2.2
						s1,0,1.3,0.2c0.2,0.1,0.2,0.3,0.2,0.5c0,0,0,0,0,0c-0.1,0.2-0.3,0.2-0.5,0.1c-0.1-0.1-0.4-0.2-0.6-0.1
						c-0.2,0.1-0.3,0.3-0.1,1.6c0.6,2.7,2,3.7,2.1,3.8c0.2,0.1,0.2,0.3,0.2,0.5C1409.9,87.8,1409.8,87.9,1409.7,87.9z"/>
				</g>
				<g id="Group_122">
					<path id="Path_366" class="st6" d="M1432.2,114c-0.2,0-0.4-0.2-0.4-0.3c-0.6-2.7-2.2-5-4.9-7c-5.6-4.2-7.3-6.6-7.3-6.6
						c-0.1-0.1-0.1-0.3,0.1-0.4c0.2-0.1,0.4,0,0.5,0.2l0,0c0,0,1.7,2.4,7.1,6.4c2.9,2.1,4.5,4.5,5.2,7.4c0,0.1,0,0.3-0.2,0.3
						C1432.2,114,1432.2,114,1432.2,114L1432.2,114z"/>
				</g>
				<g id="Group_123">
					<path id="Path_367" class="st6" d="M1401,100.1h-0.1c-0.2-0.1-0.3-0.2-0.3-0.4c0.4-3.2,2.3-4.5,5.7-3.7c5.4,1.3,7,0.5,7,0.5
						c0.2-0.1,0.4,0,0.5,0.2c0.1,0.1,0.1,0.3-0.1,0.4c-0.1,0.1-1.8,0.9-7.5-0.5c-3-0.7-4.6,0.3-5,3.2
						C1401.2,100,1401.1,100.1,1401,100.1C1401,100.1,1401,100.1,1401,100.1L1401,100.1z"/>
				</g>
				<g id="Group_124">
					<path id="Path_368" class="st6" d="M1406.9,106.2L1406.9,106.2c-0.2,0-0.3-0.2-0.3-0.4v-4.2c-0.1-1.8-0.5-3.6-1.1-5.3
						c-0.1-0.2,0-0.4,0.2-0.4c0.2,0,0.4,0.1,0.4,0.3c0.7,1.8,1.1,3.7,1.1,5.6v4.3C1407.2,106.1,1407,106.2,1406.9,106.2z"/>
				</g>
				<g id="Group_125">
					<path id="Path_369" class="st6" d="M1426,115.6L1426,115.6c-0.3,0-0.4-0.2-0.4-0.4v-4.3c0-1.6,0.4-3.1,1.2-4.5
						c0.1-0.1,0.3-0.2,0.5-0.1l0,0c0.2,0.1,0.2,0.3,0.2,0.5c-0.7,1.3-1.1,2.7-1.1,4.2v4.3C1426.3,115.5,1426.2,115.6,1426,115.6z"/>
				</g>
				<g id="Group_126">
					<path id="Path_370" class="st6" d="M1420.4,110.2c-1.1,0-2.5-0.7-4.1-1.5c-3.5-1.7-5.3-3.9-5.6-6.8c-0.2-1.7-0.6-3.3-1.1-4.9
						c-0.1-0.2,0-0.4,0.2-0.4c0.2,0,0.4,0.1,0.4,0.3c0.6,1.6,1,3.4,1.2,5.1c0.2,2.6,1.9,4.6,5.1,6.1c2,1,3.3,1.6,4.3,1.3
						c0.5-0.2,1-0.7,1.3-1.6c0.4-1.4,0.9-2.7,1.5-4c0.1-0.1,0.2-0.2,0.4-0.1c0,0,0,0,0,0c0,0,0,0,0.1,0c0.2,0.1,0.3,0.3,0.2,0.5
						c0,0-0.6,1.6-1.5,4c-0.2,0.8-0.8,1.6-1.6,1.9C1420.9,110.1,1420.7,110.2,1420.4,110.2z"/>
				</g>
				<g id="Group_127">
					<path id="Path_371" class="st6" d="M1426.1,106c-0.2,0-0.3-0.1-0.4-0.3c-1.2-3.3-1.9-6.8-2-10.3c-0.2,0.4-0.4,0.7-0.6,1
						c-0.4,0.5-0.9,0.9-1.6,1.1c-2.6,1.1-6.7-0.9-9.3-4.5c-0.7-0.9-1.3-1.9-1.8-2.9c-1.1-2.6-1.8-5.3-1.9-8.1
						c-0.5-3.1,0.4-4.3,2.4-5.5c1.7-1,0.8-3.6,0.8-3.7c-0.1-0.1,0-0.3,0.1-0.4l0,0c0.2,0,0.4,0.1,0.4,0.2c1,1.7,2.3,3.2,3.7,4.6
						c0.3,0.3,0.5,0.5,0.9,0.8c2.9,2.7,7.8,7.3,7.5,13c-0.3,4.9,0.4,9.9,2,14.5C1426.3,105.7,1426.3,106,1426.1,106L1426.1,106z
						 M1412.5,74.2c0.2,1.1-0.3,2.2-1.3,2.8c-1.8,1.1-2.6,2.1-2.2,4.9V82c0.1,2.7,0.7,5.4,1.8,7.9c0.5,1,1,1.9,1.7,2.8
						c2.4,3.3,6.1,5.2,8.5,4.2c0.5-0.2,1-0.5,1.3-0.9c0.5-0.7,0.8-1.4,1.1-2.2c0-0.9,0-1.9,0.1-2.9c0.3-5.4-4.5-9.8-7.3-12.4
						c-0.3-0.3-0.6-0.6-0.9-0.8C1414.4,76.6,1413.4,75.4,1412.5,74.2z"/>
				</g>
				<g id="Group_128">
					<path id="Path_372" class="st6" d="M1430.1,109.6c-0.2,0-0.3-0.1-0.4-0.3c-0.2-0.4-4.3-10.3-3.4-16.7c0-0.2,0.2-0.3,0.4-0.2
						c0.2,0.1,0.3,0.2,0.3,0.4c-0.9,6.2,3.3,16.3,3.3,16.4S1430.3,109.6,1430.1,109.6C1430.1,109.6,1430.1,109.6,1430.1,109.6z"/>
				</g>
				<g id="Group_129">
					<path id="Path_373" class="st6" d="M1426.9,90.8h-0.1c-0.2,0-0.3-0.2-0.3-0.4c0.4-8-3.8-14.5-8.2-16.7c-4.6-2.4-6.1-1-6.1-0.9
						c-0.2,0.1-0.4,0.1-0.5-0.1c0,0,0,0,0,0c-0.1-0.1-0.1-0.3,0-0.4c0.1-0.1,1.7-1.8,6.9,0.9c4.6,2.4,9,9.1,8.6,17.5
						C1427.2,90.7,1427,90.8,1426.9,90.8z"/>
				</g>
				<g id="Group_130">
					<path id="Path_374" class="st6" d="M1407.9,81.5L1407.9,81.5c-0.2,0-0.4-0.2-0.4-0.3c-1.8-9.5,1.9-9.8,2.3-9.8
						c0.9,0.1,1.7,0.5,2.4,1.1c0.1,0.1,0.2,0.3,0.1,0.4c0,0,0,0,0,0c0,0,0,0-0.1,0.1c-0.1,0.1-0.3,0.1-0.5-0.1l0,0
						c-0.5-0.5-1.1-0.8-1.8-0.9l0,0c-0.2,0-3.5,0.1-1.8,9.1C1408.2,81.4,1408.1,81.5,1407.9,81.5z"/>
				</g>
				<g id="Group_131">
					<path id="Path_375" class="st6" d="M1408.1,97c-0.1,0-0.2,0-0.2-0.1c-0.2-0.1-0.2-0.3-0.2-0.5c1.7-2.9,1.3-9.1,1.3-9.1
						c0-0.1,0.1-0.3,0.2-0.3c0,0,0,0,0,0h0.1c0.2,0,0.4,0.2,0.4,0.4c0,0.3,0.4,6.5-1.3,9.4C1408.3,96.9,1408.2,97,1408.1,97z"/>
				</g>
				<g id="Group_132">
					<path id="Path_376" class="st6" d="M1423.8,88.6c-0.1,0-0.3-0.1-0.4-0.2c-1.1-1.8-2.4-3.3-4-4.7c-0.2-0.1-0.2-0.3-0.1-0.5
						c0,0,0,0,0,0l0,0c0.1-0.1,0.3-0.1,0.5,0c1.7,1.4,3.1,3.1,4.2,5c0.1,0.1,0.1,0.3-0.1,0.4h-0.1L1423.8,88.6z"/>
				</g>
				<g id="Group_133">
					<path id="Path_377" class="st6" d="M1418,82.5c-0.1,0-0.2,0-0.2-0.1c-0.3-0.2-0.6-0.4-0.9-0.6c-2.7-1.9-4.5-4.9-4.7-8.2
						c0-0.1,0.1-0.3,0.3-0.3c0,0,0,0,0,0h0.1c0.2,0,0.3,0.2,0.4,0.4c0.3,3,1.9,5.8,4.4,7.5c0.3,0.2,0.6,0.5,1,0.7
						c0.2,0.1,0.2,0.3,0.1,0.5c0,0,0,0,0,0l0,0C1418.2,82.4,1418.1,82.5,1418,82.5z"/>
				</g>
				<g id="Group_134">
					<path id="Path_378" class="st6" d="M1402.4,97.1h-0.1c-0.2,0-0.3-0.2-0.3-0.4c0.1-1.6,1.3-2.5,2.5-3.3c0.6-0.4,1.1-0.8,1.6-1.3
						c1-1.3,1.5-7,1.5-7.1c0-0.2,0.2-0.3,0.4-0.2c0.2,0,0.3,0.2,0.3,0.4c0,0.2-0.4,5.9-1.6,7.3c-0.5,0.5-1,1-1.7,1.4
						c-1.1,0.8-2.2,1.6-2.3,2.9C1402.7,96.9,1402.6,97.1,1402.4,97.1C1402.4,97.1,1402.4,97.1,1402.4,97.1z"/>
				</g>
				<g id="Group_135">
					<path id="Path_379" class="st6" d="M1420.1,111.6L1420.1,111.6c-2.7-0.5-5.2-1.7-7.2-3.5c-0.1-0.1-0.2-0.3-0.1-0.4
						c0.1-0.1,0.3-0.2,0.4-0.1c0,0,0.1,0.1,0.1,0.1c1.9,1.7,4.2,2.8,6.7,3.2c0.2,0,0.3,0.2,0.3,0.4
						C1420.4,111.5,1420.3,111.6,1420.1,111.6z"/>
				</g>
			</g>
			<g id="Group_137">
				<path id="Path_380" class="st14" d="M1672,329.4l-104.9-60.6c-8.3-4.8-15-17.6-15-28.7V195c0-11,6.7-16.2,15-11.4l104.9,60.6
					c8.3,4.8,15,17.6,15,28.7V318C1687,329.1,1680.4,334.1,1672,329.4z"/>
				<path id="Path_381" class="st14" d="M1544.8,191.7l12.2-8.7l125.8,146.5l-13.4,9.4L1544.8,191.7z"/>
				<path id="Path_382" class="st18" d="M1659.1,338.4l-104.9-60.6c-8.3-4.8-15-17.6-15-28.7V204c0-11,6.7-16.2,15-11.4l104.9,60.6
					c8.3,4.8,15,17.6,15,28.7v45.1C1674.1,338.2,1667.4,343.2,1659.1,338.4z"/>
			</g>
			<g id="Group_155">
				<g id="Group_138">
					<path id="Path_383" class="st1" d="M1591.8,256.5c-0.1,11.7-9.9,16.4-21.9,10.5c-12.1-5.9-21.8-20.1-21.7-31.8
						c0.1-11.7,9.9-16.4,21.9-10.5C1582.1,230.6,1591.8,244.8,1591.8,256.5z"/>
				</g>
				<g id="Group_139">
					<path id="Path_384" class="st6" d="M1561.7,234.5l-0.7-0.4c0,0-0.3-1.9-0.3-2c0-0.1-1.2-8.3,6-6.4c7.2,1.9,11.3,8.4,11.3,8.4
						s2.7,4.3,0.9,9.1l-0.9-0.6c0,0,1-5.5-2.9-7.5l-2.7-0.3c0,0-3.1-0.5-6.4-3.8C1562.7,227.7,1561.5,231.2,1561.7,234.5z"/>
				</g>
				<g id="Group_140">
					<path id="Path_385" class="st6" d="M1573.2,251.8c-2.5,0-5.6-1.9-7.7-4.8c-0.7-0.9-1.3-1.9-1.8-2.9c-1-2.2-1.7-4.6-1.9-7.1
						c0-0.1-0.1-0.6-0.1-1.1c-0.1-1-0.2-1.4-0.2-1.5c0-0.1,0.1-0.3,0.3-0.3c0,0,0,0,0,0h0.1c0.2,0,0.3,0.2,0.3,0.4
						c0,0.1,0.1,0.9,0.2,1.5c0.1,0.6,0.1,1,0.1,1.1c0.2,2.4,0.8,4.7,1.8,6.8c0.5,1,1.1,1.9,1.7,2.8c2.4,3.3,6.1,5.2,8.5,4.2
						c0.5-0.2,1-0.5,1.3-0.9c1-1.2,1.6-3.2,1.7-5.8c0-0.1,0.1-0.3,0.2-0.9c0.1-0.4,0.2-0.8,0.2-0.9s0.2-0.3,0.4-0.2
						c0.2,0.1,0.3,0.2,0.3,0.4c0,0.1-0.1,0.3-0.2,1c-0.1,0.3-0.1,0.8-0.1,0.8c-0.2,2.7-0.8,4.7-1.8,6.1
						C1575.5,251.3,1574.4,251.8,1573.2,251.8L1573.2,251.8z"/>
				</g>
				<g id="Group_141">
					<path id="Path_386" class="st6" d="M1577.8,248c-0.1,0-0.2,0-0.3-0.1c-0.2,0-0.3-0.2-0.3-0.4c0-0.2,0.2-0.3,0.4-0.2
						c0.1,0,1.1,0.2,1.7-1.7c0.2-0.6,0.2-1.2-0.1-1.8c-0.2-0.3-0.4-0.5-0.8-0.6c-0.2-0.1-0.3-0.2-0.3-0.4c0-0.2,0.2-0.3,0.4-0.2l0,0
						c0.5,0.2,1,0.5,1.3,1c0.4,0.7,0.5,1.5,0.2,2.3C1579.4,247.8,1578.3,248,1577.8,248z"/>
				</g>
				<g id="Group_142">
					<path id="Path_387" class="st6" d="M1562.6,240.7c-0.1,0-0.2,0-0.2-0.1c-1.3-1.1-2.2-2.6-2.4-4.3c-0.3-1.3-0.2-1.9,0.3-2.2
						c0.5-0.3,1,0,1.3,0.2c0.2,0.1,0.2,0.3,0.2,0.5c-0.1,0.1-0.3,0.2-0.4,0.1l0,0l0,0c-0.1-0.1-0.4-0.2-0.6-0.1
						c-0.2,0.1-0.3,0.3-0.1,1.6c0.6,2.7,2,3.7,2.1,3.8c0.2,0.1,0.2,0.3,0.2,0.5C1562.9,240.7,1562.8,240.7,1562.6,240.7z"/>
				</g>
				<g id="Group_143">
					<path id="Path_388" class="st6" d="M1572.6,258.7c-0.8-0.1-1.6-0.3-2.3-0.6c-4.6-2.3-4.2-5.6-4.2-5.6l0.4-4.3
						c0-0.2,0.2-0.3,0.4-0.2c0.2,0.1,0.3,0.2,0.3,0.4l-0.4,4.3c0,0.1-0.3,2.8,3.7,4.8c1.2,0.6,2.1,0.8,2.6,0.4
						c0.7-0.4,0.5-1.6,0.5-1.7l-0.3-4.5c0-0.2,0.1-0.3,0.3-0.3c0,0,0,0,0,0l0,0c0.2,0,0.4,0.2,0.4,0.4l0.3,4.5
						c0,0.1,0.2,1.6-0.8,2.2C1573.2,258.6,1572.9,258.7,1572.6,258.7z"/>
				</g>
				<g id="Group_144">
					<path id="Path_389" class="st6" d="M1567,236.5l-2.6-1.2c-0.2-0.1-0.3-0.3-0.3-0.5l0,0c0-0.2,0.2-0.3,0.3-0.2l2.6,1.3
						c0.2,0.1,0.3,0.3,0.3,0.5l0,0C1567.4,236.5,1567.2,236.6,1567,236.5z"/>
				</g>
				<g id="Group_145">
					<path id="Path_390" class="st6" d="M1575.6,240.7l-2.6-1.2c-0.2-0.1-0.3-0.3-0.3-0.5l0,0c0-0.2,0.2-0.3,0.3-0.2l2.6,1.2
						c0.2,0.1,0.3,0.3,0.3,0.5l0,0C1576,240.7,1575.8,240.8,1575.6,240.7z"/>
				</g>
				<g id="Group_146">
					<path id="Path_391" class="st6" d="M1585.4,268.7c-0.2,0-0.4-0.2-0.4-0.3c-0.8-3.1-2.5-6-4.8-8.2c-3.6-3.5-6.7-7.1-6.7-7.1
						c-0.1-0.1-0.1-0.3,0-0.5c0.2-0.1,0.4-0.1,0.5,0.1c0,0,0,0,0,0l0,0c0.1,0.1,3.1,3.6,6.7,7.1c2.5,2.3,4.2,5.3,5.1,8.6
						C1585.8,268.5,1585.7,268.7,1585.4,268.7L1585.4,268.7z"/>
				</g>
				<g id="Group_147">
					<path id="Path_392" class="st6" d="M1554.6,253.7c-0.1,0-0.1,0-0.2-0.1c-0.2-0.1-0.3-0.3-0.2-0.4c0.6-2.4,2.8-4,5.2-3.8h0.2
						c2.3,0,4.6-0.2,6.9-0.5c0.2,0,0.4,0.1,0.4,0.3c0.1,0.2-0.1,0.4-0.2,0.4c-2.3,0.3-4.7,0.5-7,0.5h-0.2c-2.2-0.1-4.2,1.3-4.7,3.4
						C1554.8,253.6,1554.7,253.7,1554.6,253.7C1554.6,253.7,1554.6,253.7,1554.6,253.7L1554.6,253.7z"/>
				</g>
				<g id="Group_148">
					<path id="Path_393" class="st6" d="M1573.1,260.6L1573.1,260.6c-1.1-0.1-2.1-0.4-3-0.9c-1.1-0.5-2.1-1.2-3-2
						c-0.1-0.1-0.2-0.3-0.1-0.4c0.1-0.1,0.3-0.2,0.4-0.1c0,0,0,0,0,0c0,0,0.1,0.1,0.1,0.1c0.8,0.8,1.7,1.4,2.7,1.9
						c0.8,0.5,1.7,0.7,2.6,0.8c0.2,0,0.4,0.2,0.4,0.3C1573.4,260.4,1573.3,260.6,1573.1,260.6z"/>
				</g>
				<g id="Group_149">
					<path id="Path_394" class="st6" d="M1568.5,241.5c-0.2,0-0.4-0.1-0.5-0.2l-2.6-1.2c-0.2-0.1-0.2-0.3-0.2-0.4
						c0.1-0.1,0.2-0.2,0.4-0.1l0.1,0l2.6,1.3c0.1,0,0.2,0.1,0.3,0.1c0.1-0.1,0.1-0.1,0.1-0.2V239c0-0.4-0.3-0.7-0.6-0.9l-4.5-2.2
						c-0.1,0-0.2-0.1-0.3-0.1c-0.1,0.1-0.1,0.1-0.1,0.2v1.7c0,0.4,0.3,0.7,0.6,0.9l0.6,0.3c0.2,0.1,0.2,0.3,0.2,0.4
						c-0.1,0.1-0.2,0.2-0.4,0.1l-0.1,0l-0.6-0.3c-0.6-0.3-1.1-0.9-1.1-1.6v-1.8c0-0.3,0.1-0.6,0.4-0.7c0.3-0.1,0.6-0.1,0.9,0.1
						l4.5,2.2c0.6,0.3,1.1,0.9,1.1,1.6v1.7c0,0.3-0.1,0.6-0.4,0.7C1568.8,241.5,1568.7,241.5,1568.5,241.5z"/>
				</g>
				<g id="Group_150">
					<path id="Path_395" class="st6" d="M1577.3,245.8c-0.2,0-0.4-0.1-0.5-0.2l-1.8-0.9c-0.2-0.1-0.2-0.3-0.2-0.4
						c0.1-0.1,0.2-0.2,0.4-0.1c0,0,0,0,0,0h0.1l1.8,0.9c0.1,0,0.2,0.1,0.3,0.1c0.1-0.1,0.1-0.1,0.1-0.2v-1.7c0-0.4-0.3-0.7-0.6-0.9
						l-4.5-2.2c-0.1,0-0.2-0.1-0.3-0.1c-0.1,0.1-0.1,0.1-0.1,0.2v1.7c0,0.4,0.3,0.7,0.6,0.9l1.5,0.7c0.2,0.1,0.3,0.3,0.2,0.4
						c-0.1,0.1-0.2,0.2-0.4,0.1c0,0,0,0-0.1,0l-1.5-0.7c-0.6-0.3-1.1-0.9-1.1-1.6v-1.7c0-0.3,0.1-0.6,0.4-0.7
						c0.3-0.1,0.6-0.1,0.9,0.1l4.5,2.2c0.6,0.3,1.1,0.9,1.1,1.6v1.7c0,0.3-0.1,0.6-0.4,0.7C1577.6,245.8,1577.5,245.8,1577.3,245.8z
						"/>
				</g>
				<g id="Group_151">
					<path id="Path_396" class="st6" d="M1578.2,242.8h-0.1c-0.2-0.1-0.3-0.2-0.3-0.4c0.2-1.5,0-2.9-0.5-4.3c-0.6-1.6-2.3-3-3.6-3
						c-0.4,0-0.9,0-1.3-0.1c-0.2,0-0.3-0.2-0.3-0.4c0-0.1,0.1-0.3,0.3-0.3c0,0,0,0,0,0h0.1c0.4,0.1,0.8,0.1,1.1,0.1
						c1.6-0.1,3.7,1.6,4.4,3.5c0.6,1.5,0.8,3.1,0.5,4.7C1578.4,242.8,1578.3,242.8,1578.2,242.8z"/>
				</g>
				<g id="Group_152">
					<path id="Path_397" class="st6" d="M1561.9,234.9L1561.9,234.9c-0.2,0-0.4-0.1-0.4-0.3c0-0.1-0.4-2.5,0.6-4.1
						c0.3-0.5,0.9-0.9,1.6-0.8h0.1c1.1,0.1,2.1,0.6,2.9,1.5c1,1.1,2.2,1.9,3.6,2.6c0.2,0.1,0.5,0.2,0.7,0.3c0.2,0.1,0.3,0.2,0.3,0.4
						c0,0.1-0.2,0.2-0.4,0.2l-0.1,0c-0.3-0.1-0.5-0.2-0.8-0.3c-1.4-0.7-2.7-1.7-3.8-2.8c-0.6-0.7-1.4-1.1-2.3-1.2
						c-0.4,0-0.9,0.2-1.1,0.5c-0.9,1.5-0.5,3.8-0.5,3.8C1562.3,234.8,1562.1,234.9,1561.9,234.9z"/>
				</g>
				<g id="Group_153">
					<path id="Path_398" class="st6" d="M1579.1,243.6c-0.1,0-0.1,0-0.2-0.1c-0.2-0.1-0.3-0.2-0.3-0.4c0.9-3.8,0.5-7-1.5-9.8
						c-2.3-3.4-7-6.6-10.9-7.4c-1.3-0.3-3.2-0.4-4.3,0.8c-2,2-0.8,7.6-0.7,7.6c0,0.1,0,0.3-0.1,0.3c0,0,0,0,0,0c0,0-0.1,0-0.1,0
						c-0.2,0-0.4-0.1-0.4-0.3c-0.1-0.2-1.3-5.9,0.9-8.2c1-1,2.7-1.3,4.9-0.9c4.1,0.8,8.9,4.1,11.4,7.8c2,3,2.5,6.4,1.6,10.3
						C1579.4,243.5,1579.3,243.6,1579.1,243.6L1579.1,243.6z"/>
				</g>
				<g id="Group_154">
					<path id="Path_399" class="st6" d="M1571.5,240.5c-0.1,0-0.2-0.1-0.3-0.2c-1.1-1.4-2-1.1-2-1.1c-0.2,0-0.4-0.1-0.5-0.2
						c-0.1-0.1-0.1-0.3,0-0.4c0,0,0,0,0,0c0,0,0,0,0.1,0c0.1,0,1.3-0.5,2.9,1.3c0.1,0.1,0.1,0.3,0,0.5
						C1571.7,240.5,1571.6,240.5,1571.5,240.5z"/>
				</g>
			</g>
			<g id="Group_156">
				<path id="Path_400" class="st15" d="M1505.7,320.7l-105-60.6c-8.3-4.8-15-17.6-15-28.7v-45.1c0-11,6.7-16.2,15-11.4l104.9,60.6
					c8.3,4.8,15,17.6,15,28.7v45.1C1520.7,320.4,1514,325.5,1505.7,320.7z"/>
				<path id="Path_401" class="st15" d="M1378.4,183l12.2-8.7l125.8,146.5l-13.4,9.4L1378.4,183z"/>
				<path id="Path_402" class="st17" d="M1492.7,329.8l-105-60.6c-8.3-4.8-15-17.6-15-28.7v-45.1c0-11,6.7-16.2,15-11.4l104.9,60.6
					c8.3,4.8,15,17.6,15,28.7v45.1C1507.7,329.4,1501,334.6,1492.7,329.8z"/>
			</g>
			<g id="Group_173">
				<g id="Group_157">
					<path id="Path_403" class="st1" d="M1422.5,245.3c-0.1,11.8-10,16.5-22.1,10.6c-12.1-5.9-21.9-20.3-21.9-32.1
						c0.1-11.8,10-16.5,22.1-10.6C1412.8,219.1,1422.6,233.5,1422.5,245.3z"/>
				</g>
				<g id="Group_158">
					<path id="Path_404" class="st12" d="M1392.4,238.7c0,0-6.1-0.5-7.7,3c8.8,13.9,25.3,19.8,31,15.4c-0.3-1-0.7-2-1.2-2.9
						c-1.5-2.5-3.4-4.8-5.4-7l-3.8-3.9c1,5-0.4,7-5,4.8c-3.9-1.9-5.5-5.1-5-9.5L1392.4,238.7z"/>
				</g>
				<g id="Group_159">
					<path id="Path_405" class="st6" d="M1403.5,240.8c-2.5,0-5.7-1.9-7.8-4.9c-0.7-0.9-1.3-1.9-1.8-3c-1.1-2.2-1.7-4.6-1.9-7.1
						c0-0.1-0.1-0.6-0.1-1.2c-0.1-1.4-0.2-2.4-0.2-2.5c0-0.1,0.1-0.3,0.3-0.3h0.1c0.2,0,0.3,0.2,0.4,0.4c0,0.1,0.1,1.5,0.2,2.4
						c0.1,0.6,0.1,1.1,0.1,1.2c0.2,3.5,1.5,6.8,3.6,9.6c2.4,3.3,6.1,5.2,8.5,4.2c0.5-0.2,1-0.5,1.4-0.9c1-1.2,1.6-3.3,1.7-5.9
						c0-0.1,0.1-0.6,0.1-1.1c0.1-0.8,0.1-1.6,0.1-1.6c0-0.2,0.2-0.3,0.4-0.3c0.2,0,0.3,0.2,0.3,0.4c0,0.1-0.1,0.7-0.1,1.7
						c-0.1,0.6-0.1,1.1-0.1,1.1c-0.2,2.7-0.8,4.8-1.8,6.1c-0.4,0.5-1,0.9-1.6,1.1C1404.7,240.7,1404.1,240.8,1403.5,240.8z"/>
				</g>
				<g id="Group_160">
					<path id="Path_406" class="st6" d="M1408.1,237c-0.1,0-0.2,0-0.3-0.1c-0.2,0-0.3-0.2-0.3-0.4c0-0.2,0.2-0.3,0.4-0.2
						c0.1,0,1.1,0.2,1.7-1.7c0.2-0.6,0.2-1.2-0.1-1.8c-0.2-0.3-0.4-0.5-0.8-0.6c-0.2-0.1-0.3-0.2-0.3-0.4c0-0.2,0.2-0.3,0.4-0.2l0,0
						c0.5,0.2,1,0.5,1.3,1c0.4,0.7,0.5,1.5,0.2,2.3C1409.7,236.7,1408.6,237,1408.1,237z"/>
				</g>
				<g id="Group_161">
					<path id="Path_407" class="st6" d="M1392.9,229.6c-0.1,0-0.1,0-0.2-0.1c-0.1-0.1-1.8-1.2-2.5-4.3c-0.3-1.2-0.2-1.9,0.3-2.2
						c0.5-0.3,1,0,1.3,0.2c0.2,0.1,0.2,0.3,0.2,0.5c0,0,0,0,0,0c-0.1,0.2-0.3,0.2-0.5,0.1l0,0c-0.1-0.1-0.4-0.2-0.6-0.1
						c-0.2,0.1-0.3,0.3-0.1,1.6c0.2,1.5,1,2.8,2.1,3.8c0.2,0.1,0.2,0.3,0.2,0.5C1393,229.5,1393,229.6,1392.9,229.6z"/>
				</g>
				<g id="Group_162">
					<path id="Path_408" class="st6" d="M1402.9,247.7c-0.8,0-1.6-0.3-2.3-0.6c-4.7-2.3-4.3-5.6-4.3-5.7l0.4-4.3
						c0-0.2,0.2-0.3,0.3-0.2c0,0,0,0,0.1,0c0.2,0.1,0.3,0.2,0.3,0.4l-0.4,4.3c0,0.1-0.3,2.8,3.8,4.8c1.3,0.6,2.1,0.8,2.6,0.4
						c0.7-0.4,0.5-1.7,0.5-1.7l-0.3-4.6c0-0.2,0.1-0.3,0.3-0.3l0,0c0.2,0,0.4,0.2,0.4,0.4l0.3,4.5c0,0.1,0.2,1.6-0.8,2.2
						C1403.6,247.6,1403.2,247.7,1402.9,247.7z"/>
				</g>
				<g id="Group_163">
					<path id="Path_409" class="st6" d="M1415.8,257.4c-0.2,0-0.4-0.2-0.4-0.3c-0.8-3-2.5-5.7-4.7-7.9c-3.6-3.5-6.7-7.1-6.8-7.2
						c-0.1-0.1-0.1-0.3,0-0.5c0.2-0.1,0.4-0.1,0.5,0.1l0,0c0.1,0.1,3.2,3.6,6.7,7.1c2.4,2.2,4.1,5.1,5,8.3
						C1416.1,257.3,1416,257.4,1415.8,257.4L1415.8,257.4z"/>
				</g>
				<g id="Group_164">
					<path id="Path_410" class="st6" d="M1384.9,242.2c-0.1,0-0.1,0-0.2-0.1c-0.2-0.1-0.3-0.3-0.2-0.5c0.8-2.1,2.8-3.5,5.1-3.4h0.2
						c2.3,0,4.6-0.2,7-0.5c0.2,0,0.4,0.1,0.4,0.3c0.1,0.2-0.1,0.4-0.2,0.4c-2.3,0.3-4.7,0.5-7.1,0.5h-0.2c-2.1-0.1-4,1.1-4.6,3.1
						C1385.1,242.1,1385,242.2,1384.9,242.2C1384.9,242.2,1384.9,242.2,1384.9,242.2L1384.9,242.2z"/>
				</g>
				<g id="Group_165">
					<path id="Path_411" class="st6" d="M1403.4,249.4c-1.1-0.1-2.1-0.4-3-0.9c-2-1-6.6-3.9-5.2-10.1c0.1-0.2,0.3-0.3,0.4-0.2
						c0.2,0,0.3,0.2,0.3,0.4l0,0c-1.2,5.4,2.4,8.1,4.7,9.2c0.7,0.3,2.5,1.2,3.7,0.5c1-0.6,1.2-2.2,0.9-4.8c-0.1-0.2,0.1-0.3,0.3-0.3
						c0.2,0,0.4,0.2,0.4,0.4c0.4,2.9,0.1,4.7-1.1,5.4C1404.4,249.2,1403.9,249.4,1403.4,249.4z"/>
				</g>
				<g id="Group_166">
					<path id="Path_412" class="st6" d="M1403.4,251.3L1403.4,251.3c-1.1-0.1-2.1-0.4-3-0.9c-1.1-0.5-2.1-1.2-3-2
						c-0.1-0.1-0.2-0.3-0.1-0.4c0.1-0.1,0.3-0.2,0.4-0.1c0,0,0.1,0.1,0.1,0.1c0.8,0.8,1.7,1.4,2.7,1.9c0.8,0.5,1.7,0.7,2.7,0.8
						c0.2,0,0.4,0.1,0.4,0.3C1403.7,251.2,1403.6,251.3,1403.4,251.3L1403.4,251.3z"/>
				</g>
				<g id="Group_167">
					<path id="Path_413" class="st6" d="M1410.1,232.1L1410.1,232.1c-0.2,0-0.3-0.1-0.4-0.3c0,0-0.6-1.4-5.4-4.3
						c-1-0.6-1.9-1.4-2.7-2.2c-0.1-0.1-0.2-0.3-0.1-0.4c0.1-0.1,0.3-0.2,0.4-0.1c0,0,0.1,0.1,0.1,0.1c0.8,0.8,1.6,1.5,2.5,2
						c1.9,1,3.6,2.3,5.1,3.8c-0.1-1-0.2-2.7-0.4-4.8c0-0.2,0.1-0.3,0.3-0.3c0.2,0,0.4,0.1,0.4,0.3c0,0,0,0,0,0l0,0
						c0.3,1.9,0.5,3.9,0.5,5.8C1410.4,232,1410.3,232.1,1410.1,232.1z"/>
				</g>
				<g id="Group_168">
					<path id="Path_414" class="st6" d="M1409.3,223.9c-0.2,0-0.3-0.1-0.4-0.3c-1.3-4-5.6-8.3-8.6-9.5c-0.8-0.3-1.8-0.6-2.4-0.2
						c-1.6,1.1-0.8,3.2-0.8,3.2c0.8,2,1.8,3.8,3.1,5.6c0.1,0.2,0.1,0.4-0.1,0.4c-0.2,0.1-0.4,0.1-0.5-0.1V223
						c-1.3-1.8-2.4-3.7-3.2-5.8c0,0-1-2.5,0.9-3.9c0.7-0.5,1.8-0.5,3.1,0.1c3.2,1.3,7.8,5.9,9.2,10.1
						C1409.6,223.8,1409.6,223.9,1409.3,223.9L1409.3,223.9z"/>
				</g>
				<g id="Group_169">
					<path id="Path_415" class="st6" d="M1390.7,222.2h-0.4c-0.1,0-0.2-0.1-0.3-0.2c-0.1-0.1-0.1-0.2-0.1-0.3c0.4-1,0.6-2,0.6-3.1
						v-0.1c-0.1-1.7,0.1-4.8,1.7-6c0.8-0.5,1.7-0.6,2.5-0.3c0.8,0.3,1.5,0.6,2.2,1.1l0.3,0.2c0.2,0.1,0.2,0.3,0.2,0.5
						c-0.1,0.1-0.2,0.2-0.4,0.1l-0.1,0l-0.3-0.2c-0.6-0.4-1.3-0.8-2-1c-0.7-0.3-1.4-0.2-2,0.2c-1.5,1-1.5,4.2-1.5,5.5v0.1
						c0,0.9-0.2,1.9-0.4,2.8c1.5,0,5.4-0.4,5.7-4.4c0-0.2,0.2-0.3,0.4-0.3c0.2,0,0.3,0.2,0.3,0.4
						C1396.8,221.9,1392.2,222.2,1390.7,222.2z"/>
				</g>
				<g id="Group_170">
					<path id="Path_416" class="st6" d="M1409.5,232.6c-0.1,0-0.2-0.1-0.3-0.2c-0.1-0.1-0.2-0.3-0.1-0.4c0,0,0,0,0,0l0.1-0.1
						l0.6-0.5c0.1-0.1,0.3-0.1,0.5,0.1c0.1,0.1,0.2,0.3,0.1,0.4l-0.1,0.1l-0.6,0.5C1409.6,232.6,1409.5,232.6,1409.5,232.6z"/>
				</g>
				<g id="Group_171">
					<path id="Path_417" class="st6" d="M1393.4,218.9c-0.1,0-0.2,0-0.2-0.1c-0.2-0.1-0.2-0.3-0.2-0.5c1.5-3.1,3.3-3.2,3.4-3.2
						c0.2,0,0.4,0.1,0.4,0.3c0.1,0.2-0.1,0.3-0.3,0.4c-0.1,0-1.6,0.2-2.9,2.9C1393.6,218.8,1393.5,218.9,1393.4,218.9z"/>
				</g>
				<g id="Group_172">
					<path id="Path_418" class="st6" d="M1410.1,231.8c-0.2,0-0.4-0.2-0.4-0.3c0-0.1-0.8-2.9-3.7-6.7c-0.1-0.1-0.1-0.4,0-0.5
						c0,0,0,0,0,0l0,0c0.2-0.1,0.4-0.1,0.5,0.1l0,0c1.7,2.1,3,4.4,3.8,7C1410.5,231.6,1410.3,231.8,1410.1,231.8L1410.1,231.8z"/>
				</g>
			</g>
			<g id="Group_174">
				<path id="Path_419" class="st12" d="M1435.9,230.5l1,2.9c0.1,0.4,0.4,0.7,0.7,1l2.3,1.7c0.8,0.6,1.1,1.9,0.5,2.2l-1.6,0.9
					c-0.2,0.2-0.4,0.5-0.3,0.8l0.4,2.8c0.2,1-0.7,1.2-1.4,0.4l-2-2.4c-0.2-0.3-0.5-0.5-0.9-0.5l-2,0.1c-0.7,0-1.5-1.1-1.4-2l0.4-2.3
					c0-0.4-0.1-0.8-0.3-1.1l-1.6-2.7c-0.6-1-0.3-1.9,0.5-1.6l2.3,0.9c0.3,0.1,0.6,0.1,0.7-0.2l1-1.7
					C1434.5,228.9,1435.5,229.5,1435.9,230.5z"/>
				<path id="Path_420" class="st12" d="M1449,238.4l1,2.9c0.1,0.4,0.4,0.8,0.7,1l2.3,1.7c0.8,0.6,1.1,1.9,0.5,2.2l-1.6,0.9
					c-0.2,0.2-0.3,0.5-0.3,0.8l0.4,2.8c0.2,1-0.7,1.2-1.4,0.4l-2-2.4c-0.2-0.3-0.5-0.5-0.9-0.5l-2,0.1c-0.7,0-1.5-1.1-1.4-2l0.4-2.3
					c0-0.4-0.1-0.8-0.3-1.1l-1.6-2.7c-0.6-1-0.3-1.9,0.5-1.6l2.3,0.9c0.3,0.1,0.6,0.1,0.7-0.2l1-1.7
					C1447.6,236.8,1448.7,237.4,1449,238.4z"/>
				<path id="Path_421" class="st12" d="M1462.1,246.3l1,2.9c0.1,0.4,0.4,0.7,0.7,1l2.3,1.7c0.8,0.6,1.1,1.9,0.5,2.2l-1.6,0.9
					c-0.2,0.2-0.4,0.5-0.3,0.8l0.4,2.8c0.2,1-0.7,1.2-1.4,0.4l-2-2.4c-0.2-0.3-0.5-0.5-0.9-0.5l-2,0.1c-0.7,0-1.5-1.1-1.4-2l0.4-2.3
					c0-0.4-0.1-0.8-0.3-1.1l-1.6-2.7c-0.6-1-0.3-1.9,0.5-1.6l2.3,0.9c0.3,0.1,0.6,0.1,0.7-0.2l1-1.7
					C1460.8,244.7,1461.8,245.3,1462.1,246.3z"/>
				<path id="Path_422" class="st12" d="M1475.3,254.2l1,2.9c0.1,0.4,0.4,0.7,0.7,1l2.3,1.7c0.8,0.6,1.1,1.9,0.5,2.2l-1.6,0.9
					c-0.2,0.2-0.4,0.5-0.3,0.8l0.4,2.8c0.2,1-0.7,1.2-1.4,0.4l-2-2.4c-0.2-0.3-0.5-0.5-0.9-0.5l-2,0.1c-0.7,0-1.5-1.1-1.4-2l0.4-2.3
					c0-0.4-0.1-0.8-0.3-1.1l-1.6-2.8c-0.6-1-0.3-1.9,0.5-1.6l2.3,0.9c0.3,0.1,0.6,0.1,0.7-0.2l1-1.7
					C1473.9,252.6,1474.9,253.2,1475.3,254.2z"/>
				<path id="Path_423" class="st12" d="M1488.4,262.2l1,2.9c0.1,0.4,0.4,0.7,0.7,1l2.3,1.7c0.8,0.6,1.1,1.9,0.5,2.2l-1.6,0.9
					c-0.2,0.2-0.4,0.5-0.3,0.8l0.4,2.8c0.2,1-0.7,1.2-1.4,0.4l-2-2.4c-0.2-0.3-0.5-0.5-0.9-0.5l-2,0.1c-0.7,0-1.5-1.1-1.4-2l0.4-2.3
					c0-0.4-0.1-0.8-0.3-1.1l-1.6-2.8c-0.6-1-0.3-1.9,0.5-1.6l2.3,0.9c0.3,0.1,0.6,0.1,0.7-0.2l1-1.7
					C1487,260.6,1488.1,261.2,1488.4,262.2z"/>
			</g>
			<path id="Path_424" class="st12" d="M1430.1,464.2l-3.3-0.9c-0.5-0.1-0.9-0.1-1.4,0.1l-2.9,1.1c-1,0.4-2.4-0.1-2.4-0.9l0.2-2
				c0-0.3-0.3-0.6-0.6-0.8l-2.8-1.3c-1-0.5-0.7-1.3,0.5-1.5l3.4-0.4c0.4,0,0.8-0.2,1-0.5l1.2-1.9c0.4-0.6,2-0.7,2.7-0.1l1.9,1.8
				c0.4,0.3,0.8,0.5,1.3,0.4l3.6,0.2c1.3,0.1,1.9,0.9,1.1,1.5l-2.2,1.5c-0.3,0.1-0.4,0.5-0.3,0.8c0,0,0,0,0,0v0l1,2
				C1432.5,463.9,1431.3,464.5,1430.1,464.2z"/>
			<path id="Path_425" class="st12" d="M1433.6,472.8l2.9,1.8c0.4,0.3,0.9,0.4,1.3,0.4l3.1-0.1c1.1,0,2.3,0.9,1.9,1.6l-0.8,1.9
				c-0.1,0.3,0,0.7,0.3,0.9l2.2,2.2c0.8,0.8,0.2,1.5-1,1.3l-3.3-0.6c-0.4-0.1-0.8-0.1-1.1,0.2l-1.7,1.4c-0.6,0.5-2.1,0.1-2.6-0.8
				l-1.2-2.3c-0.2-0.4-0.6-0.7-1-0.8l-3.3-1.3c-1.2-0.4-1.5-1.5-0.6-1.7l2.6-0.7c0.4-0.1,0.5-0.3,0.5-0.6l-0.3-2.2
				C1431.3,472.4,1432.5,472.2,1433.6,472.8z"/>
			<path id="Path_426" class="st12" d="M1422.8,467.8l3.3,0.9c0.5,0.1,0.9,0.1,1.4-0.1l2.9-1.1c1-0.4,2.4,0.1,2.4,0.9l-0.2,2
				c0,0.3,0.3,0.6,0.6,0.8l2.8,1.3c1,0.5,0.7,1.3-0.5,1.5l-3.4,0.4c-0.4,0-0.8,0.2-1,0.5l-1.2,1.9c-0.4,0.6-2,0.7-2.7,0.1l-1.9-1.8
				c-0.4-0.3-0.8-0.5-1.3-0.4l-3.6-0.2c-1.3-0.1-1.9-0.9-1.1-1.5l2.2-1.5c0.3-0.1,0.4-0.5,0.3-0.8v0l-1-2
				C1420.4,468.1,1421.6,467.6,1422.8,467.8z"/>
			<path id="Path_427" class="st12" d="M1416.2,477.5l3.3,0.9c0.5,0.1,0.9,0.1,1.4-0.1l2.9-1.1c1-0.4,2.4,0.1,2.4,0.9l-0.2,2
				c0,0.3,0.3,0.6,0.6,0.8l2.8,1.3c1,0.5,0.7,1.3-0.5,1.5l-3.4,0.4c-0.4,0-0.8,0.2-1,0.5l-1.2,1.9c-0.4,0.6-2,0.7-2.7,0.1l-1.9-1.8
				c-0.4-0.3-0.8-0.5-1.3-0.4l-3.6-0.2c-1.3-0.1-1.9-0.9-1.1-1.5l2.2-1.5c0.3-0.1,0.4-0.5,0.3-0.8c0,0,0,0,0,0c0,0,0,0,0,0l-1-2
				C1413.9,477.8,1415.1,477.2,1416.2,477.5z"/>
			<path id="Path_428" class="st12" d="M1437.8,465l3.3,0.9c0.5,0.1,0.9,0.1,1.4-0.1l2.9-1.1c1-0.4,2.4,0.1,2.4,0.9l-0.2,2
				c0,0.3,0.3,0.6,0.6,0.8l2.8,1.3c1,0.5,0.7,1.3-0.5,1.5l-3.4,0.4c-0.4,0-0.8,0.2-1,0.5l-1.2,1.9c-0.4,0.6-2,0.7-2.7,0.1l-1.9-1.8
				c-0.3-0.3-0.8-0.4-1.2-0.4l-3.6-0.2c-1.3-0.1-1.9-0.9-1.1-1.5l2.2-1.5c0.3-0.1,0.4-0.5,0.3-0.8c0,0,0,0,0,0v0l-1-2
				C1435.5,465.3,1436.6,464.7,1437.8,465z"/>
			<path id="Path_429" class="st12" d="M1552.5,493.6l3.6,0.9c0.5,0.1,1,0.1,1.5-0.1l3.1-1.1c1.1-0.4,2.6,0.1,2.5,0.9l-0.2,2.2
				c0,0.3,0.2,0.6,0.6,0.8l3,1.5c1.1,0.5,0.8,1.5-0.5,1.6l-3.7,0.4c-0.4,0-0.8,0.2-1.1,0.5l-1.3,2c-0.4,0.7-2.2,0.8-2.9,0.1
				l-2.1-1.9c-0.4-0.3-0.8-0.5-1.3-0.5l-3.8-0.2c-1.3-0.1-2-1-1.2-1.6l2.4-1.6c0.3-0.2,0.4-0.5,0.3-0.9c0,0,0,0,0,0l-1.1-2.2
				C1550,493.9,1551.3,493.3,1552.5,493.6z"/>
			<path id="Path_430" class="st12" d="M1331,412.1l3,0.8c0.4,0.1,0.8,0.1,1.2-0.1l2.6-1c0.9-0.3,2.2,0.1,2.1,0.8l-0.2,1.8
				c0,0.3,0.2,0.5,0.5,0.7l2.5,1.2c0.9,0.4,0.6,1.3-0.5,1.3l-3.1,0.4c-0.4,0-0.7,0.2-0.9,0.5l-1.1,1.7c-0.4,0.6-1.8,0.6-2.4,0.1
				l-1.7-1.6c-0.3-0.2-0.7-0.4-1.1-0.4l-3.2-0.2c-1.1-0.1-1.7-0.8-1-1.3l2-1.3c0.3-0.2,0.4-0.4,0.2-0.7l-0.9-1.8
				C1328.9,412.4,1330,411.8,1331,412.1z"/>
			<path id="Path_431" class="st12" d="M1389.7,335.7l3.3,0.9c0.5,0.1,0.9,0.1,1.4-0.1l2.9-1.1c1-0.4,2.4,0.1,2.4,0.9l-0.2,2
				c0,0.3,0.3,0.6,0.6,0.8l2.8,1.3c1,0.5,0.7,1.3-0.5,1.5l-3.4,0.4c-0.4,0-0.8,0.2-1,0.5l-1.2,1.9c-0.4,0.6-2,0.7-2.7,0.1l-1.9-1.8
				c-0.4-0.3-0.8-0.5-1.3-0.4l-3.6-0.2c-1.3-0.1-1.9-0.9-1.1-1.5l2.2-1.5c0.3-0.1,0.4-0.5,0.3-0.8v0l-1-2
				C1387.4,336.1,1388.5,335.5,1389.7,335.7z"/>
			<path id="Path_432" class="st12" d="M1383,342.5l3.4,0.1c0.5,0,0.9-0.1,1.3-0.4l2.6-1.7c0.9-0.6,2.4-0.4,2.5,0.3l0.3,2
				c0.1,0.3,0.3,0.5,0.8,0.6l3,0.6c1.1,0.2,1,1.2-0.2,1.6l-3.3,1.2c-0.4,0.1-0.7,0.4-0.9,0.8l-0.7,2.1c-0.3,0.8-1.8,1.2-2.6,0.7
				l-2.3-1.3c-0.4-0.2-0.8-0.2-1.3-0.2l-3.5,0.6c-1.3,0.2-2.1-0.4-1.5-1.1l1.8-2c0.2-0.2,0.3-0.6,0.1-0.8l-1.5-1.7
				C1380.8,343.4,1381.8,342.5,1383,342.5z"/>
			<path id="Path_433" class="st12" d="M1414.2,340.1l3.2,1c0.5,0.2,0.9,0.2,1.4,0l3-0.9c1-0.3,2.4,0.3,2.3,1l-0.3,2
				c-0.1,0.3,0.2,0.6,0.5,0.8l2.7,1.5c1,0.5,0.6,1.4-0.6,1.5l-3.5,0.2c-0.4,0-0.8,0.2-1,0.5l-1.3,1.8c-0.4,0.6-2,0.6-2.7-0.1
				l-1.8-1.9c-0.3-0.3-0.7-0.5-1.2-0.5l-3.5-0.4c-1.3-0.1-1.9-1-1.1-1.5l2.3-1.4c0.3-0.1,0.4-0.5,0.3-0.8l-0.9-2
				C1411.8,340.2,1413,339.7,1414.2,340.1z"/>
			<path id="Path_434" class="st12" d="M1396,340.1l3,1.7c0.4,0.2,0.9,0.3,1.3,0.3l3.1-0.2c1.1-0.1,2.3,0.8,2,1.5l-0.7,1.9
				c-0.1,0.3,0.1,0.6,0.4,0.9l2.4,2c0.8,0.7,0.3,1.5-0.9,1.3l-3.4-0.5c-0.4-0.1-0.8,0-1.1,0.2l-1.6,1.5c-0.6,0.5-2.1,0.2-2.6-0.6
				l-1.4-2.2c-0.3-0.4-0.6-0.6-1.1-0.8l-3.3-1.1c-1.2-0.4-1.6-1.4-0.7-1.7l2.5-0.9c0.3-0.1,0.5-0.4,0.5-0.7l0,0l-0.4-2.2
				C1393.7,339.7,1394.9,339.5,1396,340.1z"/>
			<path id="Path_435" class="st12" d="M1607.8,238.5l1,2.9c0.1,0.4,0.4,0.8,0.7,1l2.3,1.7c0.8,0.6,1.1,1.9,0.5,2.2l-1.6,0.9
				c-0.2,0.2-0.3,0.5-0.3,0.8l0.4,2.8c0.2,1-0.7,1.2-1.4,0.4l-2-2.4c-0.2-0.3-0.5-0.5-0.9-0.5l-2,0.1c-0.7,0-1.5-1.1-1.4-2l0.4-2.3
				c0-0.4-0.1-0.8-0.3-1.1l-1.6-2.7c-0.6-1-0.3-1.9,0.5-1.6l2.3,0.9c0.3,0.1,0.6,0.1,0.7-0.2l1-1.7
				C1606.4,236.9,1607.4,237.5,1607.8,238.5z"/>
			<path id="Path_436" class="st12" d="M1620.9,246.4l1,2.9c0.1,0.4,0.4,0.8,0.7,1l2.3,1.7c0.8,0.6,1.1,1.9,0.5,2.2l-1.6,0.9
				c-0.2,0.2-0.4,0.5-0.3,0.8l0.4,2.8c0.2,1-0.7,1.2-1.4,0.4l-2-2.4c-0.2-0.3-0.5-0.5-0.9-0.5l-2,0.1c-0.7,0-1.5-1.1-1.4-2l0.4-2.3
				c0-0.4-0.1-0.8-0.3-1.1l-1.6-2.7c-0.6-1-0.3-1.9,0.5-1.6l2.3,0.9c0.3,0.1,0.6,0.1,0.7-0.2l1-1.7
				C1619.5,244.8,1620.5,245.4,1620.9,246.4z"/>
			<path id="Path_437" class="st12" d="M1634,254.3l1,2.9c0.1,0.4,0.4,0.7,0.7,1l2.3,1.7c0.8,0.6,1.1,1.9,0.5,2.2l-1.6,0.9
				c-0.2,0.2-0.4,0.5-0.3,0.8l0.4,2.8c0.2,1-0.7,1.2-1.4,0.4l-2-2.4c-0.2-0.3-0.5-0.5-0.9-0.5l-2,0.1c-0.7,0-1.5-1.1-1.4-2l0.4-2.3
				c0-0.4-0.1-0.8-0.3-1.1l-1.6-2.7c-0.6-1-0.3-1.9,0.5-1.6l2.3,0.9c0.3,0.1,0.6,0.1,0.7-0.2l1-1.7
				C1632.7,252.7,1633.6,253.3,1634,254.3z"/>
			<path id="Path_438" class="st12" d="M1647.2,262.2l1,2.9c0.1,0.4,0.4,0.7,0.7,1l2.3,1.7c0.8,0.6,1.1,1.9,0.5,2.2l-1.6,0.9
				c-0.2,0.2-0.4,0.5-0.3,0.8l0.4,2.8c0.2,1-0.7,1.2-1.4,0.4l-2-2.4c-0.2-0.3-0.5-0.5-0.9-0.5l-2,0.1c-0.7,0-1.5-1.1-1.4-2l0.4-2.3
				c0-0.4-0.1-0.8-0.3-1.1l-1.6-2.7c-0.6-1-0.3-1.9,0.5-1.6l2.3,0.9c0.3,0.1,0.6,0.1,0.7-0.2l1-1.7
				C1645.7,260.6,1646.8,261.2,1647.2,262.2z"/>
			<path id="Path_439" class="st14" d="M1660.2,270.1l1,2.9c0.1,0.4,0.4,0.7,0.7,1l2.3,1.7c0.8,0.6,1.1,1.9,0.5,2.2l-1.6,0.9
				c-0.2,0.2-0.4,0.5-0.3,0.8l0.4,2.8c0.2,1-0.7,1.2-1.4,0.4l-2-2.4c-0.2-0.3-0.5-0.5-0.9-0.5l-2,0.1c-0.7,0-1.5-1.1-1.4-2l0.4-2.3
				c0-0.4-0.1-0.8-0.3-1.1l-1.6-2.7c-0.6-1-0.3-1.9,0.5-1.6l2.3,0.9c0.3,0.1,0.6,0.1,0.7-0.2l1-1.7
				C1658.9,268.5,1659.9,269.1,1660.2,270.1z"/>
			<g id="Group_175">
				<path id="Path_440" class="st12" d="M1449,89.1l1,2.9c0.1,0.4,0.4,0.7,0.7,1l2.3,1.7c0.8,0.6,1.1,1.9,0.5,2.2l-1.6,0.9
					c-0.2,0.2-0.3,0.5-0.3,0.8l0.4,2.8c0.2,1-0.7,1.2-1.4,0.4l-2-2.4c-0.2-0.3-0.5-0.5-0.9-0.5l-2,0.1c-0.7,0-1.5-1.1-1.4-2l0.4-2.3
					c0-0.4-0.1-0.8-0.3-1.1l-1.6-2.7c-0.6-1-0.3-1.9,0.5-1.6l2.3,0.9c0.3,0.1,0.6,0.1,0.7-0.2l1-1.7
					C1447.6,87.6,1448.7,88.1,1449,89.1z"/>
				<path id="Path_441" class="st12" d="M1462.1,97.1l1,2.9c0.1,0.4,0.4,0.7,0.7,1l2.3,1.7c0.8,0.6,1.1,1.9,0.5,2.2l-1.6,0.9
					c-0.2,0.2-0.3,0.5-0.3,0.8l0.4,2.8c0.2,1-0.7,1.2-1.4,0.4l-2-2.4c-0.2-0.3-0.5-0.5-0.9-0.5l-2,0.1c-0.7,0-1.5-1.1-1.4-2l0.4-2.3
					c0-0.4-0.1-0.8-0.3-1.1l-1.6-2.8c-0.6-1-0.3-1.9,0.5-1.6l2.3,0.9c0.3,0.1,0.6,0.1,0.7-0.2l1-1.7
					C1460.8,95.4,1461.8,96,1462.1,97.1z"/>
				<path id="Path_442" class="st12" d="M1475.3,105l1,2.9c0.1,0.4,0.4,0.7,0.7,1l2.3,1.7c0.8,0.6,1.1,1.9,0.5,2.2l-1.6,0.9
					c-0.2,0.2-0.4,0.5-0.3,0.8l0.4,2.8c0.2,1-0.7,1.2-1.4,0.4l-2-2.4c-0.2-0.3-0.5-0.5-0.9-0.5l-2,0.1c-0.7,0-1.5-1.1-1.4-2l0.4-2.3
					c0-0.4-0.1-0.8-0.3-1.1l-1.6-2.7c-0.6-1-0.3-1.9,0.5-1.6l2.3,0.9c0.3,0.1,0.6,0.1,0.7-0.2l1-1.7
					C1473.9,103.4,1474.9,104,1475.3,105z"/>
				<path id="Path_443" class="st12" d="M1488.4,112.9l1,2.9c0.1,0.4,0.4,0.8,0.7,1l2.3,1.7c0.8,0.6,1.1,1.9,0.5,2.2l-1.6,0.9
					c-0.2,0.2-0.4,0.5-0.3,0.8l0.4,2.8c0.2,1-0.7,1.2-1.4,0.4l-2-2.4c-0.2-0.3-0.5-0.5-0.9-0.5l-2,0.1c-0.7,0-1.5-1.1-1.4-2l0.4-2.3
					c0-0.4-0.1-0.8-0.3-1.1l-1.6-2.7c-0.6-1-0.3-1.9,0.5-1.6l2.3,0.9c0.3,0.1,0.6,0.1,0.7-0.2l1-1.7
					C1487,111.3,1488.1,111.9,1488.4,112.9z"/>
				<path id="Path_444" class="st15" d="M1501.5,120.8l1,2.9c0.1,0.4,0.4,0.7,0.7,1l2.3,1.7c0.8,0.6,1.1,1.9,0.5,2.2l-1.6,0.9
					c-0.2,0.2-0.3,0.5-0.3,0.8l0.4,2.8c0.2,1-0.7,1.2-1.4,0.4l-2-2.4c-0.2-0.3-0.5-0.5-0.9-0.5l-2,0.1c-0.7,0-1.5-1.1-1.4-2l0.4-2.3
					c0-0.4-0.1-0.8-0.3-1.1l-1.6-2.7c-0.6-1-0.3-1.9,0.5-1.6l2.3,0.9c0.3,0.1,0.6,0.1,0.7-0.2l1-1.7
					C1500.2,119.2,1501.2,119.8,1501.5,120.8z"/>
			</g>
			<path id="Path_445" class="st14" d="M1651.1,267.8l-2.3-1.7c-0.3-0.2-0.6-0.6-0.7-1l-1-2.9c-0.1-0.5-0.5-0.9-0.9-1.1v11
				c0.2,0.1,0.3,0.2,0.4,0.4l2,2.4c0.7,0.8,1.5,0.6,1.4-0.4l-0.4-2.8c-0.1-0.3,0-0.6,0.3-0.8l1.6-0.9
				C1652.2,269.7,1651.9,268.4,1651.1,267.8z"/>
			<g id="Group_178">
				<path id="Path_446" class="st14" d="M1389.2,212.7c1-7.1-3.3-15-9.4-17.8c-2.5-1.2-5.4-1.2-7.9-0.1l0,0
					c-0.3,0.2-0.6,0.3-0.9,0.5l-5.3,3.3l2.7-0.5c-0.8,1.4-1.3,3-1.6,4.6c-1,7.1,3.3,15,9.4,17.8c1.2,0.5,2.4,0.8,3.7,0.9l0.5,1.3
					l3.7-2.3c0.2-0.1,0.4-0.2,0.6-0.3l0.1-0.1l0,0C1387.1,218.7,1388.7,216.2,1389.2,212.7z"/>
				<path id="Path_447" class="st7" d="M1384.3,215.7c-1,7.1-6.7,10.6-12.9,7.8s-10.4-10.7-9.4-17.8c1-7.1,6.8-10.6,12.9-7.8
					C1381.1,200.7,1385.3,208.6,1384.3,215.7z"/>
				<g id="Group_177">
					<g id="Group_176">
						<path id="Path_448" class="st1" d="M1363.8,204.9c1.7,4.4,3.5,8.8,5.2,13.1c0.8,2,3.1,2.9,4.9,1.3c2.2-2.1,4.5-4.2,6.7-6.3
							c2.7-2.5-1.4-6.7-4.1-4.1c-2.2,2.1-4.5,4.2-6.7,6.3l4.8,1.3c-1.7-4.4-3.5-8.8-5.2-13.2C1368,199.9,1362.4,201.4,1363.8,204.9
							L1363.8,204.9z"/>
					</g>
				</g>
			</g>
			<path id="Path_449" class="st1" d="M1486.9,298.7l-51.1-29.5c-1.1-0.6-2-2.4-2-3.9l0,0c0-1.5,0.9-2.2,2-1.6l51.1,29.5
				c1.3,0.9,2,2.4,2,3.9l0,0C1488.9,298.7,1488,299.3,1486.9,298.7z"/>
			<path id="Path_450" class="st1" d="M1457.5,271.3l-21.8-12.6c-1.3-0.9-2-2.4-2-3.9l0,0c0-1.5,0.9-2.2,2-1.6l21.8,12.6
				c1.1,0.6,2,2.4,2,3.9l0,0C1459.5,271.3,1458.6,272,1457.5,271.3z"/>
			<path id="Path_451" class="st1" d="M1486.6,288.1l-20-11.6c-1.1-0.6-2-2.4-2-3.9l0,0c0-1.5,0.9-2.2,2-1.6l20,11.6
				c1.1,0.6,2,2.4,2,3.9l0,0C1488.6,288.1,1487.7,288.8,1486.6,288.1z"/>
			<path id="Path_452" class="st1" d="M1655.3,306.8l-51.1-29.5c-1.3-0.9-2-2.4-2-3.9l0,0c0-1.5,0.9-2.2,2-1.6l51.1,29.5
				c1.1,0.6,2,2.4,2,3.9l0,0C1657.4,306.7,1656.5,307.4,1655.3,306.8z"/>
			<path id="Path_453" class="st1" d="M1626,279.4l-21.8-12.6c-1.1-0.6-2-2.4-2-3.9l0,0c0-1.5,0.9-2.2,2-1.6l21.8,12.6
				c1.3,0.9,2,2.4,2,3.9l0,0C1628,279.3,1627.1,280,1626,279.4z"/>
			<path id="Path_454" class="st1" d="M1655.1,296.2l-20-11.6c-1.1-0.6-2-2.4-2-3.9l0,0c0-1.5,0.9-2.2,2-1.6l20,11.6
				c1.3,0.9,2,2.4,2,3.9l0,0C1657.1,296.1,1656.2,296.9,1655.1,296.2z"/>
			<path id="Path_455" class="st1" d="M1495.6,156.7l-51.1-29.5c-1.3-0.9-2-2.4-2-3.9l0,0c0-1.5,0.9-2.2,2-1.6l51.1,29.5
				c1.3,0.9,2,2.4,2,3.9l0,0C1497.7,156.6,1496.7,157.3,1495.6,156.7z"/>
			<path id="Path_456" class="st1" d="M1466.2,129.3l-21.8-12.6c-1.3-0.9-2-2.4-2-3.9l0,0c0-1.5,0.9-2.2,2-1.6l21.8,12.6
				c1.3,0.9,2,2.4,2,3.9l0,0C1468.3,129.3,1467.4,130,1466.2,129.3z"/>
			<path id="Path_457" class="st1" d="M1495.3,146.1l-20-11.6c-1.3-0.9-2-2.4-2-3.9l0,0c0-1.5,0.9-2.2,2-1.6l20,11.6
				c1.3,0.9,2,2.4,2,3.9l0,0C1497.4,146,1496.5,146.7,1495.3,146.1z"/>
			<g id="Group_181">
				<path id="Path_458" class="st13" d="M1488.1,424.2c-1.5,5.4,0.7,11.1,5.4,14.1c0,0,3.6,0.8,3.4-3.6s-0.4-10.6-0.4-10.6
					L1488.1,424.2z"/>
				<g id="Group_180">
					<path id="Path_459" class="st2" d="M1491.2,365.1c4.6,17.5-1.4,33-13.4,34.6s-25.3-11.3-29.9-28.7c-4.6-17.5,1.4-33,13.4-34.6
						S1486.6,347.6,1491.2,365.1z"/>
					<path id="Path_460" class="st19" d="M1513.2,418.1l-4.3,9.2l-20-28.6l4.3-9.2L1513.2,418.1z"/>
					<g id="Group_179">
						<path id="Path_461" class="st14" d="M1506.9,404.3c4.3-0.7,6.5,2,5,6c-1.5,4-6.2,7.9-10.5,8.7s-6.5-2-5-6
							C1497.9,408.9,1502.6,405,1506.9,404.3z"/>
						<path id="Path_462" class="st14" d="M1521.1,451.4l-24.3-33.5l15-11.9l24.5,33.8L1521.1,451.4z"/>
						<path id="Path_463" class="st14" d="M1531.4,438.1c4.3-0.7,6.5,2,5,6c-1.5,4-6.2,7.9-10.5,8.7c-4.3,0.8-6.5-2-5-6
							C1522.5,442.7,1527.1,438.9,1531.4,438.1z"/>
						<path id="Path_464" class="st14" d="M1537.2,473.3l-24.3-33.6l15-11.8l24.5,33.7L1537.2,473.3z"/>
						<path id="Path_465" class="st14" d="M1547.5,460c4.3-0.7,6.5,2,5,6s-6.2,7.9-10.5,8.7c-4.3,0.8-6.5-2-5-6
							C1538.6,464.7,1543.2,460.8,1547.5,460z"/>
					</g>
					<path id="Path_466" class="st1" d="M1469.1,351.3l-6.8,19.8c-0.4,1-1.5,1-2.5,0l0,0c-1-1-1.6-2.6-1.2-3.7l6.8-19.8
						c0.4-1,1.5-1,2.5,0l0,0C1468.9,348.6,1469.4,350.3,1469.1,351.3z"/>
					<path id="Path_467" class="st1" d="M1475.9,359.8l-6.8,19.8c-0.4,1-1.5,1-2.5,0l0,0c-1-1-1.6-2.6-1.2-3.7l6.8-19.8
						c0.4-1,1.5-1,2.5,0l0,0C1475.7,357.1,1476.3,358.8,1475.9,359.8z"/>
					<path id="Path_468" class="st19" d="M1476.5,336.3c-15.1-6.7-27.9,2-28.5,19.6c-0.6,17.5,11.2,37.1,26.3,43.9
						c15.1,6.8,27.9-2,28.5-19.6C1503.4,362.7,1491.6,343,1476.5,336.3z M1498.7,378.3c-0.5,14.9-11.3,22.3-24.2,16.6
						c-12.9-5.7-22.9-22.4-22.4-37.2s11.3-22.3,24.2-16.6C1489.2,346.8,1499.2,363.5,1498.7,378.3z"/>
					<path id="Path_469" class="st18" d="M1503.4,370c-0.1-0.4-0.1-0.8-0.2-1.1c0-0.1,0-0.2-0.1-0.2c-0.1-0.2-0.1-0.4-0.1-0.5
						c-0.1-0.2-0.1-0.4-0.1-0.6c0-0.1-0.1-0.3-0.1-0.4c-0.1-0.2-0.1-0.4-0.1-0.6c-0.1-0.2-0.1-0.3-0.1-0.4c-0.1-0.2-0.1-0.4-0.1-0.5
						c-0.1-0.2-0.1-0.4-0.2-0.6c0-0.1,0-0.2-0.1-0.3c-0.1-0.3-0.2-0.5-0.2-0.8l-0.2-0.5c0-0.1,0-0.1-0.1-0.2
						c-0.1-0.5-0.3-0.9-0.4-1.3l0,0c0,0,0-0.1-0.1-0.1c-0.1-0.4-0.3-0.8-0.4-1.2c0-0.1-0.1-0.1-0.1-0.2s-0.1-0.3-0.2-0.4
						c-0.1-0.1-0.2-0.4-0.2-0.6c-0.1-0.2-0.1-0.3-0.2-0.4c0-0.2-0.1-0.3-0.2-0.5c-0.1-0.1-0.1-0.2-0.2-0.4c-0.1-0.2-0.2-0.5-0.3-0.7
						c-0.1-0.1-0.1-0.3-0.2-0.4c-0.1-0.1-0.1-0.1-0.1-0.2c-0.2-0.4-0.4-0.8-0.6-1.3v-0.1c-0.1-0.1-0.1-0.3-0.2-0.4l-0.5-1
						c0-0.1-0.1-0.1-0.1-0.2c-0.1-0.3-0.3-0.5-0.4-0.8c-0.1-0.2-0.2-0.4-0.3-0.6c0-0.1-0.1-0.1-0.1-0.1l-1.1-1.9
						c-0.1-0.1-0.1-0.1-0.1-0.2l-0.3-0.5l-0.5-0.8c-0.2-0.2-0.3-0.5-0.5-0.7c-0.1-0.3-0.3-0.5-0.5-0.8c-0.1-0.1-0.1-0.2-0.2-0.3
						c-0.2-0.2-0.3-0.4-0.4-0.6c-0.1-0.1-0.2-0.3-0.3-0.4c-0.3-0.4-0.6-0.8-1-1.3l0,0c-0.4-0.5-0.8-0.9-1.1-1.3l-0.1-0.1
						c-0.3-0.3-0.5-0.6-0.9-1c-0.1-0.1-0.1-0.1-0.2-0.2l0,0c-0.3-0.4-0.7-0.8-1-1.1l-0.1-0.1l-0.3-0.3l-0.6-0.6
						c-0.1-0.1-0.1-0.1-0.1-0.1c-0.2-0.2-0.3-0.3-0.5-0.4c-0.2-0.2-0.4-0.3-0.5-0.5c-0.1-0.1-0.1-0.1-0.2-0.2
						c-0.2-0.2-0.3-0.3-0.5-0.4c-0.2-0.2-0.3-0.3-0.4-0.4s-0.2-0.2-0.3-0.2c-0.2-0.2-0.3-0.3-0.5-0.4c-0.1-0.1-0.3-0.2-0.4-0.3
						s-0.2-0.2-0.3-0.2c-0.2-0.2-0.4-0.3-0.5-0.4c-0.2-0.2-0.2-0.2-0.3-0.3s-0.3-0.2-0.4-0.3s-0.4-0.3-0.5-0.4
						c-0.1,0-0.2-0.1-0.3-0.2l-0.5-0.3c-0.2-0.1-0.4-0.2-0.5-0.3c-0.1-0.1-0.1-0.1-0.2-0.1c-0.2-0.1-0.4-0.3-0.6-0.4
						s-0.3-0.2-0.4-0.3c-0.1,0-0.1-0.1-0.1-0.1c-0.4-0.2-0.8-0.4-1.2-0.6l0,0c-0.1,0-0.1-0.1-0.1-0.1l-1.1-0.5
						c-0.1-0.1-0.2-0.1-0.3-0.1c-0.3-0.1-0.6-0.3-0.9-0.4c-0.1-0.1-0.2-0.1-0.3-0.1c-0.1,0-0.3-0.1-0.4-0.2
						c-0.1-0.1-0.2-0.1-0.3-0.1c-0.2-0.1-0.4-0.1-0.5-0.2c-0.1-0.1-0.2-0.1-0.4-0.1c-0.1,0-0.1-0.1-0.2-0.1
						c-0.4-0.1-0.8-0.2-1.1-0.3l0,0c-0.4-0.1-0.8-0.2-1.1-0.3c-0.1,0-0.1,0-0.2-0.1c-0.1,0-0.2-0.1-0.4-0.1
						c-0.2-0.1-0.4-0.1-0.5-0.1c-0.1,0-0.2,0-0.3-0.1c-0.2,0-0.3-0.1-0.5-0.1c-0.2,0-0.3-0.1-0.4-0.1c-0.1,0-0.3,0-0.4-0.1
						c-0.2,0-0.3-0.1-0.5-0.1h-2.7c-0.2,0-0.3,0.1-0.4,0.1c-0.2,0-0.5,0.1-0.7,0.1h-0.2c-0.3,0.1-0.5,0.1-0.8,0.1h-0.1
						c-0.2,0.1-0.4,0.1-0.6,0.1c-0.1,0-0.2,0.1-0.4,0.1c-0.1,0-0.2,0.1-0.3,0.1c-0.3,0.1-0.6,0.2-1,0.3h-0.1
						c-0.1,0.1-0.2,0.1-0.3,0.1l-0.8,0.3l-0.4,0.2c-0.2,0.1-0.3,0.2-0.5,0.2c0,0-0.1,0-0.1,0.1c-0.3,0.1-0.5,0.3-0.8,0.4
						c-0.1,0-0.3,0.1-0.4,0.2c-0.4,0.2-0.7,0.4-1.1,0.7l-5.7,3.9c0.3-0.2,0.7-0.5,1.1-0.7c0.1-0.1,0.3-0.1,0.4-0.2
						c0.2-0.1,0.5-0.3,0.8-0.4c0.2-0.1,0.4-0.2,0.6-0.3c0.1-0.1,0.3-0.1,0.4-0.2l0.8-0.3c0.1-0.1,0.2-0.1,0.3-0.1
						c0.3-0.1,0.6-0.2,1-0.3c0.1,0,0.2-0.1,0.3-0.1c0.3-0.1,0.6-0.2,0.9-0.2h0.1l1-0.2c0.2,0,0.5-0.1,0.7-0.1c0.2,0,0.4-0.1,0.6-0.1
						h1.8c0.2,0,0.5,0,0.7,0.1c0.2,0,0.3,0,0.5,0.1c0.3,0,0.5,0,0.8,0.1c0.2,0,0.3,0.1,0.5,0.1l0.9,0.2c0.1,0,0.3,0.1,0.4,0.1
						c0.4,0.1,0.8,0.2,1.3,0.3l0,0c0.4,0.1,0.9,0.2,1.3,0.4c0.1,0.1,0.2,0.1,0.4,0.1c0.3,0.1,0.6,0.2,0.9,0.3c0.1,0,0.3,0.1,0.4,0.2
						c0.4,0.2,0.8,0.3,1.2,0.5c0.4,0.2,0.9,0.4,1.3,0.6c0,0,0.1,0,0.1,0.1l0,0c0.4,0.2,0.9,0.4,1.3,0.7c0.2,0.1,0.3,0.2,0.4,0.3
						c0.3,0.2,0.6,0.3,0.9,0.5c0.2,0.1,0.4,0.2,0.5,0.3c0.3,0.2,0.5,0.3,0.8,0.5c0.2,0.1,0.4,0.3,0.5,0.4c0.2,0.1,0.5,0.3,0.7,0.5
						c0.2,0.2,0.4,0.3,0.5,0.4c0.2,0.2,0.5,0.4,0.7,0.5c0.2,0.2,0.4,0.3,0.5,0.4c0.2,0.2,0.5,0.4,0.7,0.6c0.2,0.2,0.3,0.3,0.5,0.4
						c0.2,0.2,0.5,0.4,0.7,0.6s0.3,0.3,0.5,0.4l0.8,0.8l0.3,0.3c0.4,0.4,0.7,0.8,1.1,1.2l0.2,0.2c0.3,0.3,0.6,0.7,0.9,1
						c0.4,0.4,0.8,0.9,1.1,1.3l0,0c0.3,0.4,0.6,0.8,1,1.3c0.1,0.1,0.2,0.3,0.3,0.4c0.2,0.3,0.4,0.6,0.6,0.9c0.2,0.3,0.4,0.5,0.5,0.8
						c0.2,0.3,0.3,0.5,0.5,0.7l0.5,0.8c0.2,0.2,0.3,0.4,0.4,0.6l1.1,1.9c0.1,0.2,0.3,0.5,0.4,0.8s0.3,0.5,0.4,0.8
						c0.2,0.4,0.4,0.7,0.5,1.1c0.1,0.1,0.1,0.2,0.2,0.4l0.6,1.5c0.1,0.1,0.1,0.3,0.2,0.4c0.2,0.3,0.3,0.7,0.4,1.1
						c0.1,0.2,0.1,0.3,0.2,0.5c0.2,0.3,0.3,0.7,0.4,1c0,0.1,0.1,0.3,0.2,0.4c0.2,0.5,0.3,0.9,0.5,1.4c0,0.1,0,0.1,0.1,0.1
						c0.2,0.5,0.3,1,0.5,1.5l0.2,0.5c0.1,0.3,0.2,0.7,0.3,1c0.1,0.2,0.1,0.4,0.2,0.6c0.1,0.3,0.2,0.6,0.2,1c0.1,0.2,0.1,0.4,0.1,0.6
						c0,0.3,0.1,0.7,0.2,1c0.1,0.2,0.1,0.4,0.1,0.5c0.1,0.4,0.2,0.9,0.2,1.3c0,0.1,0,0.2,0.1,0.2c0.1,0.5,0.1,1,0.2,1.5
						c0,0.1,0,0.3,0.1,0.4c0,0.4,0.1,0.7,0.1,1.1v0.5c0,0.3,0,0.7,0.1,1v1.9c0,0.5,0,1-0.1,1.5c0,0.1,0,0.3-0.1,0.4
						c-0.1,0.3-0.1,0.7-0.1,1c0,0.2-0.1,0.4-0.1,0.6c-0.1,0.3-0.1,0.6-0.1,0.9c-0.1,0.2-0.1,0.4-0.1,0.6c-0.1,0.3-0.1,0.5-0.2,0.8
						c-0.1,0.2-0.1,0.4-0.2,0.7c-0.1,0.3-0.1,0.4-0.2,0.7c-0.1,0.3-0.2,0.5-0.2,0.8c-0.1,0.3-0.1,0.4-0.2,0.6
						c-0.1,0.3-0.2,0.6-0.3,0.9c-0.1,0.2-0.2,0.4-0.2,0.5c-0.1,0.2-0.1,0.2-0.1,0.3c-0.1,0.3-0.3,0.6-0.4,0.9
						c-0.1,0.1-0.1,0.1-0.1,0.2c-0.2,0.4-0.4,0.8-0.5,1.1l0,0c-0.2,0.4-0.4,0.7-0.6,1c-0.1,0.1-0.1,0.1-0.1,0.2
						c-0.2,0.3-0.3,0.5-0.5,0.8c-0.1,0.1-0.1,0.2-0.2,0.3l-0.5,0.6c-0.1,0.1-0.1,0.2-0.2,0.2c-0.2,0.3-0.5,0.5-0.7,0.8l-0.1,0.1
						l-0.6,0.6c-0.1,0.1-0.2,0.2-0.3,0.2c-0.2,0.2-0.4,0.3-0.6,0.5c-0.1,0.1-0.2,0.2-0.3,0.2c-0.3,0.2-0.5,0.4-0.9,0.6l5.7-3.9
						c0.3-0.2,0.6-0.4,0.9-0.6c0.1-0.1,0.2-0.2,0.3-0.2c0.2-0.2,0.4-0.3,0.6-0.5c0.1-0.1,0.2-0.2,0.3-0.2l0.6-0.6l0.1-0.1
						c0.2-0.3,0.5-0.5,0.7-0.8c0.1-0.1,0.1-0.2,0.2-0.2l0.5-0.6c0.1-0.1,0.1-0.2,0.2-0.3c0.2-0.2,0.3-0.5,0.5-0.8
						c0.1,0,0.1-0.1,0.1-0.2c0,0,0-0.1,0-0.1c0,0,0,0,0,0l0,0c0.2-0.3,0.4-0.6,0.6-1l0,0c0.2-0.3,0.4-0.7,0.5-1c0,0,0-0.1,0.1-0.1
						l0,0c0.1-0.1,0.1-0.1,0.1-0.2c0.2-0.3,0.3-0.6,0.4-0.9c0.1-0.1,0.1-0.2,0.1-0.3c0.1-0.1,0.1-0.2,0.1-0.2
						c0.1-0.1,0.1-0.2,0.1-0.4c0.1-0.3,0.2-0.6,0.3-0.9c0.1-0.1,0.1-0.2,0.1-0.3c0.1-0.1,0.1-0.3,0.1-0.4c0.1-0.3,0.2-0.5,0.2-0.8
						c0.1-0.1,0.1-0.2,0.1-0.3c0.1-0.1,0.1-0.2,0.1-0.4s0.1-0.4,0.2-0.7c0-0.1,0.1-0.2,0.1-0.3c0-0.1,0.1-0.3,0.1-0.4
						c0.1-0.2,0.1-0.4,0.1-0.6s0.1-0.2,0.1-0.3c0-0.2,0.1-0.4,0.1-0.5c0-0.2,0.1-0.4,0.1-0.6c0-0.1,0-0.2,0.1-0.2
						c0-0.3,0.1-0.5,0.1-0.8c0-0.2,0.1-0.3,0.1-0.4v-0.1c0-0.4,0.1-0.9,0.1-1.3v-3.9c0-0.3-0.1-0.5-0.1-0.8c0-0.1,0-0.3-0.1-0.4
						v-0.2l-0.2-1.3v-0.1C1503.4,370.1,1503.4,370.1,1503.4,370z"/>
					<path id="Path_470" class="st20" d="M1472.2,335.9c-7.4-3.3-14.5-3.1-20.1,0.4c-6,3.8-9.5,10.9-9.9,20.1
						c-0.6,17.9,11.5,38,27,44.8c4.5,2,8.9,2.7,13,2.2c2.5-0.3,5-1.2,7.1-2.6c6-3.8,9.5-10.9,9.9-20.1
						C1499.8,362.9,1487.7,342.8,1472.2,335.9z M1492.9,378.9c-0.3,7.1-2.9,12.6-7.4,15.5c-4.2,2.6-9.6,2.7-15.3,0.2
						c-12.4-5.6-22.2-21.8-21.7-36.2c0.3-7.1,2.9-12.6,7.4-15.5c1.6-1,3.4-1.7,5.3-1.9c3.1-0.4,6.5,0.2,10,1.7
						C1483.6,348.2,1493.4,364.4,1492.9,378.9L1492.9,378.9z"/>
				</g>
				<path id="Path_471" class="st21" d="M1500.4,413.7l-5.4,15.4c-0.8,1.2-11.9-4.4-10.9-6.3c0.2-0.3,6.1-18.9,12.5-21.9
					C1501.6,398.5,1503.2,406.7,1500.4,413.7z"/>
				<path id="Path_472" class="st13" d="M1510.6,404.1l-0.4-0.1c-1.5-0.1-2.6-1.4-2.5-2.9l0.5-8.3c0.1-1.5,1.4-2.6,2.9-2.5l0.4,0.1
					c1.5,0.1,2.6,1.4,2.5,2.9l0.6,8.1C1514.6,402.8,1512.1,404.2,1510.6,404.1z"/>
				<path id="Path_473" class="st13" d="M1509.9,393.8c1.7,3.6,4.7,4.2,6.7,1.3c2-2.9,2.2-8.1,0.4-11.7c-1.7-3.6-4.7-4.2-6.7-1.3
					C1508.3,385,1508.2,390.1,1509.9,393.8z"/>
				<path id="Path_474" class="st22" d="M1509.3,383.9c0,0,1.4,7.3-4.3,9.4c0,0-6.8-3.3-2.6-10.8c3.8-6.6,11-2.3,11-2.3
					L1509.3,383.9z"/>
				<path id="Path_475" class="st22" d="M1517.7,385.1c-1.6-1.6-3.9-2.3-6.2-1.9l1.9-3C1513.4,380.1,1516.5,379.4,1517.7,385.1z"/>
				<path id="Path_476" class="st15" d="M1506.6,388.4c1.3-1.9,4.2-2,8.6-0.7c3.9-0.1,4.1-4.6,4.1-4.6c0.4-2.4-1.2-3.4-3.7-3.9
					l-6.4-1.2c-3.6-0.7-6.8,2.5-7.3,5l-0.1,0.4C1501.5,385.9,1504.1,388,1506.6,388.4z"/>
				<path id="Path_477" class="st2" d="M1499.3,519.5c6.5,3.4,17.6,3.6,24.8,0.3c7.2-3.3,7.7-8.8,1.2-12.3
					c-6.5-3.5-17.6-3.6-24.8-0.3S1492.8,516,1499.3,519.5z"/>
				<path id="Path_478" class="st6" d="M1528.6,512.7l-7,5.8c-1.8,1.2-3,0.4-4.5,0.1c-0.6-0.2-1.1-0.7-1.1-1.4v-1.5
					c-0.1-2.1,1.9-3.3,3.2-4l7.2-3.9C1527.8,507.1,1532.2,509.4,1528.6,512.7z"/>
				<path id="Path_479" class="st6" d="M1503.8,503.6l1.9,8.9c0.6,4.7-6.8,5.4-7.2,0.4l-0.2-9.6
					C1498.5,501.7,1502.5,498.8,1503.8,503.6z"/>
				<path id="Path_480" class="st23" d="M1522,513.9c0,2.2-5.2,2.2-5.3,0.1l-0.1-7l5.3-0.1L1522,513.9z"/>
				<path id="Path_481" class="st23" d="M1504.7,509.6c0,2.2-5.3,2.2-5.3,0v-7h5.3V509.6z"/>
				<path id="Path_482" class="st24" d="M1505.4,507.6c-2,1.5-5.5,1.5-6.6-0.3c-1.3-25.8-5.6-43-5.3-64.9l16.3-4.9
					C1506.9,463.9,1506.6,487.1,1505.4,507.6z"/>
				<path id="Path_483" class="st24" d="M1522.6,510c-1.7,2.3-5.4,2.3-6.5,0.6l-11-69.4h19L1522.6,510z"/>
				<path id="Path_484" class="st21" d="M1492.9,440.5c1.5-8.7,1.7-17.5,0.6-26.2c0-14.3,2-14.3,11.5-14.9l2.2-0.2
					c2.7-0.2,5.5,0.4,7.9,1.6c8.5,4.1,12.6,5.1,10.8,15.2l-1.9,25.2C1524.1,454.2,1492.2,455.8,1492.9,440.5z"/>
				<path id="Path_485" class="st25" d="M1518.8,420.4l4.7,19.4l0.6,1.9l0.6-9.4L1518.8,420.4z"/>
				<path id="Path_486" class="st15" d="M1504.5,395.6c1.7,3.6,6,4.3,8,1.4s4.6-8.6,2.9-12.2c-1.7-3.6-11.9-3.4-13.9-0.5
					S1502.8,392,1504.5,395.6z"/>
				<path id="Path_487" class="st13" d="M1526.3,432.1c0,0,1.8,8.8,11.6,9.6c0,0,3.5-1.1,1.2-4.8l-5.6-9L1526.3,432.1z"/>
				<path id="Path_488" class="st21" d="M1518,417.2l5.4,15.4c0.8,1.2,11.9-4.4,10.9-6.3c-0.2-0.3-6.1-18.9-12.4-21.9
					C1516.7,402,1515.1,410.2,1518,417.2z"/>
			</g>
			<g id="Group_182">
				<path id="Path_489" class="st13" d="M1369.5,403.4c7.8,8.7,20.5-10.4,20.5-10.4l-3.7-2.6c0,0-8.1,12.4-11.7,7.4
					C1370.6,392.3,1355.9,388.1,1369.5,403.4z"/>
				<path id="Path_490" class="st12" d="M1410.8,388.6l1.3,3.9c0.2,0.5,0.5,1,1,1.3l3,2.2c1.1,0.8,1.5,2.5,0.7,2.9l-2.2,1.2
					c-0.3,0.3-0.5,0.7-0.4,1.1l0.5,3.7c0.2,1.3-0.9,1.6-1.9,0.5l-2.7-3.2c-0.3-0.4-0.7-0.6-1.2-0.7l-2.7,0.1c-0.9,0-2-1.5-1.9-2.6
					l0.5-3.1c0.1-0.5-0.1-1.1-0.4-1.5l-2.1-3.7c-0.8-1.3-0.3-2.5,0.7-2.1l3,1.3c0.3,0.2,0.8,0.1,1-0.3l1.4-2.3
					C1408.9,386.5,1410.3,387.3,1410.8,388.6z"/>
				<path id="Path_491" class="st2" d="M1358.1,505.6c6.8,3.7,18.5,3.8,26.1,0.3c7.5-3.5,8.1-9.3,1.3-13c-6.8-3.7-18.5-3.8-26.1-0.3
					C1351.9,496.1,1351.3,502,1358.1,505.6z"/>
				<path id="Path_492" class="st6" d="M1358,491.7l4.3-0.5c2.9-1.3,4.3-2.3,5.6-1.6l0.4,0.2c1.3,0.8,1.1,2-0.4,2.9l-6.4,5.1
					c-1.5,0.8-3.4,0.7-4.7-0.4c0,0-0.7-0.6-0.2-3.3C1356.9,492.4,1356.8,492.4,1358,491.7z"/>
				<path id="Path_493" class="st6" d="M1377,501.9l4.3,0.8c3.2-0.4,4.7-0.9,5.8,0.2l0.3,0.3c1,1.1,0.4,2.3-1.3,2.6l-7.6,2.9
					c-1.7,0.3-3.4-0.4-4.3-1.9c0,0-0.5-0.8,0.8-3.2C1375.7,502.3,1375.6,502.2,1377,501.9z"/>
				<path id="Path_494" class="st23" d="M1379.9,503c0,2.2-5.3,2.2-5.3,0v-7h5.3V503z"/>
				<path id="Path_495" class="st24" d="M1380.6,498.5c-1.7,2.5-5.5,2.5-6.6,0.7l-9.2-73.2h19L1380.6,498.5z"/>
				<path id="Path_496" class="st23" d="M1362,492.5c-0.1,1.9-5.4,1.9-5.3,0l0.4-6.4h5.3L1362,492.5z"/>
				<path id="Path_497" class="st24" d="M1363.1,489.7c-2.1,2.2-6.2,1.2-7.1-0.3l2.8-63.5l13.3,2L1363.1,489.7z"/>
				<path id="Path_498" class="st26" d="M1377,378.8c-1.3,4.5-4.7,5.8-7.5,2.9c-2.9-3-4.1-9.1-2.8-13.6c1.3-4.6,4.7-5.8,7.5-2.9
					C1377,368.1,1378.3,374.2,1377,378.8z"/>
				<path id="Path_499" class="st13" d="M1381.8,377.4c-1.3,4.5-6.2,6.2-9.1,3.2c-2.9-3-4.1-9.1-2.8-13.6s4.7-5.8,7.6-2.9
					S1383.1,372.8,1381.8,377.4z"/>
				<path id="Path_500" class="st13" d="M1370.7,390.5l-0.5-0.1c-1.6-0.4-2.7-2-2.3-3.6v0l2-9.3c0.4-1.6,2-2.7,3.6-2.3h0l0.5,0.1
					c1.6,0.4,2.7,2,2.3,3.6c0,0,0,0,0,0v0.1l-0.7,9.2C1375.4,389.7,1372.4,390.8,1370.7,390.5z"/>
				<path id="Path_501" class="st14" d="M1365.2,378.1c0,0,0.5,4.3,6.6,3.4c4.4-0.6,3.1-7.7,7.4-8.4c4.8-0.8,5.7-6.7,3.8-9
					c-1.9-2.3-7.2-3.4-11-1.8C1368.2,364,1362.3,363.8,1365.2,378.1z"/>
				<circle id="Ellipse_11" class="st13" cx="1377.3" cy="375" r="2.1"/>
				<path id="Path_502" class="st17" d="M1358.3,425.1c1.6-8.5-0.1-15.3,0-24.3c0-16.3-0.8-20.3,7.8-17.8l2.4,0.6
					c1.2,0.3,2.3,0.7,3.3,1.3c11.4,5.9,14.4,7.6,13.9,14.4c0.1,11.2-1.6,23.7-1.8,29.2C1381.6,436.3,1360.9,430.7,1358.3,425.1z"/>
				<path id="Path_503" class="st16" d="M1376.2,382.1l-0.5-1.1c0.7,0.6,1.6,0.8,2.5,0.6C1377.7,381.9,1376.9,382.1,1376.2,382.1z"
					/>
				<path id="Path_504" class="st13" d="M1409.2,407.3l0.8-2.1c0.6-1.6,2.4-2.5,4-1.9c0,0,0,0,0,0l0,0c1.6,0.6,2.5,2.4,1.9,4
					c0,0,0,0,0,0l-0.8,2.1c-0.6,1.6-2.4,2.5-4,1.9c0,0,0,0,0,0l0,0C1409.5,410.8,1408.6,409,1409.2,407.3
					C1409.1,407.4,1409.1,407.3,1409.2,407.3z"/>
				<path id="Path_505" class="st13" d="M1376.7,394.4c0,0,2.7,11.9,16.4,27.2c7.8,8.7,20.5-10.4,20.5-10.4l-3.7-2.6
					c0,0-8.1,12.4-11.7,7.4C1394.1,410.4,1388.2,389.3,1376.7,394.4z"/>
				<path id="Path_506" class="st13" d="M1385.6,389.2l0.8-2.1c0.6-1.6,2.3-2.5,4-1.9c0,0,0,0,0,0l0,0c1.6,0.6,2.5,2.3,1.9,4
					c0,0,0,0,0,0l-0.8,2.1c-0.6,1.6-2.4,2.5-4,1.9l0,0C1385.9,392.6,1385.1,390.8,1385.6,389.2L1385.6,389.2z"/>
				<path id="Path_507" class="st17" d="M1379.2,402.6l7,15c1,1.1,11-6.3,9.8-8c-0.2-0.3-9.1-17.7-15.8-19.6
					C1374.7,388.5,1375.3,396.2,1379.2,402.6z"/>
				<path id="Path_508" class="st12" d="M1392,376.4l1.3,3.9c0.2,0.5,0.5,1,1,1.3l3,2.2c1.1,0.8,1.5,2.5,0.7,2.9l-2.2,1.2
					c-0.3,0.3-0.5,0.7-0.4,1.1l0.5,3.7c0.2,1.3-0.9,1.6-1.9,0.5l-2.7-3.2c-0.3-0.4-0.7-0.6-1.2-0.7l-2.7,0.1c-0.9,0-2-1.5-1.9-2.6
					l0.5-3.1c0.1-0.5-0.1-1.1-0.4-1.5l-2.2-3.7c-0.8-1.3-0.3-2.5,0.7-2.1l3,1.3c0.3,0.2,0.8,0.1,1-0.3l1.3-2.3
					C1390.1,374.3,1391.5,375.1,1392,376.4z"/>
			</g>
			<g id="Group_183">
				<path id="Path_509" class="st27" d="M1613.7,438.1c-5.4-3.2-14.3-3.4-19.8-0.3c-5.6,3.1-5.6,8.2-0.2,11.4s14.2,3.4,19.8,0.4
					C1619.7,446.2,1619.1,441.2,1613.7,438.1z"/>
				<path id="Path_510" class="st15" d="M1609.3,437.3c-5.1-3.1-13.6-3.2-18.8-0.3c-5.2,2.9-5.3,7.8-0.2,10.9s13.5,3.2,18.8,0.4
					C1615,445.1,1614.4,440.4,1609.3,437.3z"/>
				<path id="Path_511" class="st17" d="M1609.1,434.2c-5.1-3.1-13.6-3.2-18.8-0.3c-5.2,2.9-5.3,7.8-0.2,10.9
					c5.2,3.1,13.5,3.2,18.8,0.4C1614.8,441.9,1614.2,437.2,1609.1,434.2z"/>
				<path id="Path_512" class="st28" d="M1596.4,436.3l-1.6,5.2l12.4-2.8"/>
			</g>
			<g id="Group_184">
				<path id="Path_513" class="st27" d="M1317,441.8c-5.4-3.2-14.3-3.4-19.8-0.3c-5.6,3.1-5.6,8.2-0.2,11.4s14.2,3.4,19.8,0.4
					C1323,450,1322.4,445.1,1317,441.8z"/>
				<path id="Path_514" class="st15" d="M1312.5,441.1c-5.1-3.1-13.6-3.2-18.8-0.3c-5.2,2.9-5.3,7.8-0.2,10.9
					c5.2,3.1,13.5,3.2,18.8,0.4C1318.2,448.9,1317.6,444.2,1312.5,441.1z"/>
				<path id="Path_515" class="st17" d="M1312.3,437.9c-5.1-3.1-13.6-3.2-18.8-0.3c-5.2,2.9-5.3,7.8-0.2,10.9
					c5.2,3.1,13.5,3.2,18.8,0.4C1318,445.7,1317.5,441,1312.3,437.9z"/>
				<path id="Path_516" class="st28" d="M1299.6,440l-1.5,5.3l12.3-2.8"/>
			</g>
			<g id="Group_185">
				<path id="Path_517" class="st27" d="M1579.3,421.6c-5.6-3.3-14.7-3.5-20.4-0.3c-5.7,3.2-5.8,8.4-0.2,11.8
					c5.6,3.4,14.6,3.5,20.4,0.4C1585.5,430,1584.9,424.9,1579.3,421.6z"/>
				<path id="Path_518" class="st14" d="M1574.7,420.8c-5.3-3.2-14-3.3-19.4-0.3c-5.4,3-5.5,8-0.2,11.2c5.3,3.2,13.9,3.3,19.4,0.4
					C1580.6,428.9,1580,424,1574.7,420.8z"/>
				<path id="Path_519" class="st18" d="M1574.5,417.6c-5.3-3.2-14-3.3-19.4-0.3s-5.5,8-0.2,11.2c5.3,3.2,13.9,3.3,19.4,0.4
					C1580.4,425.6,1579.8,420.7,1574.5,417.6z"/>
				<line id="Line_44" class="st29" x1="1563.1" y1="417.8" x2="1566" y2="427.3"/>
				<line id="Line_45" class="st29" x1="1570" y1="421.2" x2="1559.7" y2="423"/>
			</g>
			<g id="Group_186">
				<path id="Path_520" class="st27" d="M1457,420.3c-5.6-3.3-14.7-3.5-20.4-0.3s-5.8,8.4-0.2,11.8s14.6,3.5,20.4,0.4
					C1463.2,428.7,1462.6,423.7,1457,420.3z"/>
				<path id="Path_521" class="st14" d="M1452.4,419.6c-5.3-3.2-14-3.3-19.4-0.3c-5.4,3-5.5,8-0.2,11.2c5.3,3.2,13.9,3.3,19.4,0.4
					C1458.3,427.6,1457.7,422.7,1452.4,419.6z"/>
				<path id="Path_522" class="st18" d="M1452.2,416.3c-5.3-3.2-14-3.3-19.4-0.3c-5.4,3-5.5,8-0.2,11.2c5.3,3.2,13.9,3.3,19.4,0.4
					C1458.1,424.2,1457.5,419.4,1452.2,416.3z"/>
				<line id="Line_46" class="st29" x1="1440.7" y1="416.5" x2="1443.7" y2="426"/>
				<line id="Line_47" class="st29" x1="1447.7" y1="419.9" x2="1437.4" y2="421.7"/>
			</g>
		</g>
		
			<linearGradient id="градиент_1_" gradientUnits="userSpaceOnUse" x1="554.4868" y1="-126.9345" x2="554.006" y2="-125.6714" gradientTransform="matrix(1920 0 0 1080 -1063126 136637.5)">
			<stop  offset="0" style="stop-color:#E6D7E7;stop-opacity:0.29"/>
			<stop  offset="1" style="stop-color:#DAB2DF"/>
		</linearGradient>
		<path id="градиент" class="st30" d="M0,0h1920v659H0V0z"/>
	</g>
</g>
</svg>
