<?xml version="1.0" encoding="utf-8"?>
<!-- Generator: Adobe Illustrator 22.0.1, SVG Export Plug-In . SVG Version: 6.00 Build 0)  -->
<svg version="1.1" id="Layer_1" xmlns="http://www.w3.org/2000/svg" xmlns:xlink="http://www.w3.org/1999/xlink" x="0px" y="0px"
	 viewBox="0 0 1741.1 827" style="enable-background:new 0 0 1741.1 827;" xml:space="preserve">
<style type="text/css">
	.st0{clip-path:url(#SVGID_2_);}
	.st1{clip-path:url(#SVGID_4_);}
	.st2{fill:#FFFFFF;}
	.st3{opacity:0.4;fill:#A8C4E5;enable-background:new    ;}
	.st4{fill:url(#Path_328_1_);}
	.st5{fill:#D0E1F4;}
	.st6{fill:#E6F0FF;}
	.st7{fill:#2C1F9C;}
	.st8{fill:#7D8AFF;}
	.st9{fill:#4A3EB5;}
	.st10{fill:url(#Path_335_1_);}
	.st11{fill:url(#Path_336_1_);}
	.st12{fill:url(#Path_337_1_);}
	.st13{fill:#FFCE43;}
	.st14{fill:#FFC2B0;}
	.st15{fill:#4432DB;}
	.st16{fill:#E655BE;}
	.st17{fill:#F09A82;}
	.st18{fill:#FF80DB;}
	.st19{fill:#6271F0;}
	.st20{fill:#2A1C9E;}
	.st21{fill:#8D99FC;}
	.st22{fill:#9EBBDE;}
	.st23{fill:#21DED5;}
	.st24{fill:#C6D2F2;}
	.st25{fill:#3B2AD1;}
	.st26{fill:#6F9ED9;}
	.st27{fill:#FBDDD3;}
	.st28{opacity:0.27;fill:#4A70D6;enable-background:new    ;}
	.st29{fill:none;stroke:#FFFFFF;stroke-width:5.1;stroke-linecap:round;stroke-linejoin:round;}
	.st30{fill:none;stroke:#FFFFFF;stroke-width:7.78;stroke-linecap:round;stroke-linejoin:round;}
	.st31{fill:url(#градиент_1_);}
</style>
<title>5</title>
<g>
	<defs>
		<rect id="SVGID_1_" width="1741.1" height="827"/>
	</defs>
	<clipPath id="SVGID_2_">
		<use xlink:href="#SVGID_1_"  style="overflow:visible;"/>
	</clipPath>
	<g class="st0">
		<g>
			<defs>
				<rect id="SVGID_3_" y="-152.3" width="1741.1" height="979.3"/>
			</defs>
			<clipPath id="SVGID_4_">
				<use xlink:href="#SVGID_3_"  style="overflow:visible;"/>
			</clipPath>
			<g class="st1">
				<g id="Слайд_5">
					<rect y="-152.3" class="st2" width="1741.1" height="979.3"/>
					<g id="резидент">
						<g id="Group_114">
							<path id="Path_327" class="st3" d="M1477.5,606.1l79.7-47.9c5-3.1,6.5-9.7,3.4-14.7c-0.9-1.4-2.1-2.6-3.6-3.5l-236.2-140.5
								l-31.1,98.2L1477.5,606.1z"/>
							
								<linearGradient id="Path_328_1_" gradientUnits="userSpaceOnUse" x1="461.9639" y1="-42.5302" x2="462.8707" y2="-42.5302" gradientTransform="matrix(232.67 0 0 578.82 -106204.0391 24967.7012)">
								<stop  offset="0.33" style="stop-color:#D0E1F4"/>
								<stop  offset="0.47" style="stop-color:#CBDEF4"/>
								<stop  offset="0.65" style="stop-color:#BCD6F4"/>
								<stop  offset="0.84" style="stop-color:#A3C9F4"/>
								<stop  offset="0.87" style="stop-color:#9FC7F4"/>
							</linearGradient>
							<path id="Path_328" class="st4" d="M1466,612.8l-166-110.1c-10.4-6-18.8-22.1-18.8-36V104.4c0-13.8,8.5-20.2,18.8-14.2
								l173.3,100c10.4,6,18.8,22.1,18.8,36v360.7c0,9.1-3.4,12.9-9.1,16.2L1466,612.8z"/>
							<path id="Path_329" class="st5" d="M1369.9,272.4c0,0-88.9,207.8-88.9,194l-14.6-366.4l21.8-11.5c3.2-1.5,7.3-1.2,11.6,1.4
								l173.3,100.1c5.1,2.9,9.7,8.3,13.1,14.6L1369.9,272.4z"/>
							<path id="Path_330" class="st6" d="M1455.8,611.6l-172.9-100.1c-10.4-6-18.4-22-18.4-36V113.3c0-13.8,8.2-20.2,18.6-14.2
								l172.8,100.1c10.4,6,18.3,22.1,18.3,36v362.3C1474.2,611.2,1466.2,617.6,1455.8,611.6z"/>
							<path id="Path_331" class="st7" d="M1452.4,612.9l-173-100.1c-10.4-6-18.4-22-18.4-36V114.6c0-13.8,8.2-20.2,18.6-14.2
								l172.8,100.1c10.4,6,18.3,22.1,18.3,36v362.3C1470.7,612.5,1462.7,618.9,1452.4,612.9z"/>
							<path id="Path_332" class="st8" d="M1447.5,551l-168.6-97.3c-1.8-1-2.8-2.9-2.8-4.9v-306c0-3.1,2.6-5.7,5.7-5.7
								c1,0,2,0.3,2.8,0.8l168.6,97.3c1.8,1,2.8,2.9,2.8,4.9v306c0,3.1-2.6,5.7-5.7,5.7C1449.3,551.7,1448.4,551.5,1447.5,551
								L1447.5,551z"/>
							<path id="Path_333" class="st9" d="M1395.3,191l-53.5-30.9c-1.8-1.1-3.4-4-3.4-6.5l0,0c0-2.5,1.5-3.7,3.4-2.6l53.5,30.9
								c1.8,1.1,3.4,4,3.4,6.5l0,0C1398.8,190.9,1397.3,192.1,1395.3,191z"/>
						</g>
						
							<radialGradient id="Path_335_1_" cx="2160.8157" cy="275.6335" r="36.02" gradientTransform="matrix(1.4509 -8.161184e-02 0.127 2.3214 -388.0481 115.8774)" gradientUnits="userSpaceOnUse">
							<stop  offset="0" style="stop-color:#0028A1"/>
							<stop  offset="0.23" style="stop-color:#2041B9"/>
							<stop  offset="0.94" style="stop-color:#7D8AFF"/>
						</radialGradient>
						<path id="Path_335" class="st10" d="M1385.7,250.7c2.5,46.2-18.8,83.7-47.6,83.7c-28.8,0-54.2-37.5-56.7-83.7
							s18.8-83.7,47.6-83.7C1357.8,167,1383.2,204.5,1385.7,250.7z"/>
						
							<radialGradient id="Path_336_1_" cx="2288.0623" cy="391.0939" r="36.75" gradientTransform="matrix(1.333 -9.067982e-02 0.1179 1.7683 -245.1154 283.345)" gradientUnits="userSpaceOnUse">
							<stop  offset="0" style="stop-color:#0028A1"/>
							<stop  offset="0.23" style="stop-color:#2041B9"/>
							<stop  offset="0.94" style="stop-color:#7D8AFF"/>
						</radialGradient>
						<path id="Path_336" class="st11" d="M1455.9,424.1c2.1,35.9-16.4,56.8-41.6,46.6c-25.2-10.1-47.3-47.3-49.6-83.1
							c-2.2-35.8,16.4-56.8,41.6-46.6C1431.5,351.1,1453.7,388.2,1455.9,424.1z"/>
						
							<radialGradient id="Path_337_1_" cx="1719.3796" cy="726.8894" r="42.97" gradientTransform="matrix(1.2151 7.254386e-02 -9.974781e-02 1.6322 138.0145 -136.7651)" gradientUnits="userSpaceOnUse">
							<stop  offset="0" style="stop-color:#0028A1"/>
							<stop  offset="0.23" style="stop-color:#2041B9"/>
							<stop  offset="0.94" style="stop-color:#7D8AFF"/>
						</radialGradient>
						<path id="Path_337" class="st12" d="M1365.3,405.7c-2.4,38.7-27.7,70.1-56.5,70.1c-28.8,0-50.2-31.4-47.9-70.1
							c2.3-38.7,27.7-70.1,56.5-70.1S1367.7,366.9,1365.3,405.7z"/>
						<g id="Group_115">
							<path id="Path_338" class="st13" d="M1112.9,425.4l1.8,5.2c0.3,0.7,0.7,1.3,1.3,1.8l4,3c1.4,1.1,2,3.4,0.9,3.9l-2.9,1.5
								c-0.5,0.3-0.6,0.9-0.5,1.5l0.7,5c0.2,1.8-1.2,2.1-2.5,0.6l-3.6-4.2c-0.4-0.5-1-0.9-1.6-0.9l-3.6,0.1c-1.2,0-2.7-2.1-2.5-3.5
								l0.7-4.2c0.1-0.7-0.1-1.4-0.5-2.1l-2.9-4.9c-1-1.8-0.5-3.4,0.9-2.8l4,1.6c0.5,0.2,1,0.1,1.3-0.3l1.8-3.2
								C1110.4,422.5,1112.2,423.6,1112.9,425.4z"/>
							<path id="Path_339" class="st3" d="M1055.8,598.1c9.4,5.1,25.6,5.2,36,0.4s11.1-12.8,1.7-17.9s-25.6-5.2-36-0.4
								C1047.1,585,1046.4,593,1055.8,598.1z"/>
							<path id="Path_340" class="st7" d="M1056,580.8l5.5-0.7c3.7-1.7,5.4-2.9,7.1-2l0.5,0.3c1.6,0.9,1.5,2.6-0.5,3.8l-8.2,6.4
								c-1.9,1.1-4.3,0.8-6-0.6c0,0-0.9-0.9-0.2-4.3C1054.6,581.8,1054.4,581.8,1056,580.8z"/>
							<path id="Path_341" class="st14" d="M1062.5,581.1c-0.5,3.8-7.5,3.8-7.5,0.9l3.9-88.4l23.4-6.6L1062.5,581.1z"/>
							<path id="Path_342" class="st7" d="M1079.3,589.3l5.4,1c4.1-0.5,6.1-1.2,7.4,0.3l0.4,0.4c1.3,1.4,0.5,2.9-1.6,3.4l-9.8,3.7
								c-2.2,0.4-4.4-0.5-5.5-2.4c0,0-0.6-1.1,1.1-4.1C1077.7,589.8,1077.6,589.7,1079.3,589.3z"/>
							<path id="Path_343" class="st14" d="M1083.9,591.6c-1.2,3.1-6.6,2.4-6.4-0.2c2.5-30.6-3.2-59.5-10.7-87.7l22.4-2.5
								C1090,534.4,1089.7,562.6,1083.9,591.6z"/>
							<path id="Path_344" class="st7" d="M1087.7,493.5l7.8,42.9c0,0-19.4,19.2-41.6,0l2.5-40.3L1087.7,493.5z"/>
							<path id="Path_345" class="st14" d="M1080.3,436.4c-1.7,5.8-6,7.5-9.7,3.7c-3.7-3.8-5.3-11.6-3.6-17.4c1.7-5.8,6-7.5,9.7-3.7
								C1080.3,422.7,1081.9,430.6,1080.3,436.4z"/>
							<path id="Path_346" class="st14" d="M1086.4,434.6c-1.7,5.8-7.9,7.9-11.6,4.1c-3.7-3.8-5.3-11.6-3.6-17.4
								c1.7-5.8,6-7.5,9.7-3.7C1084.5,421.3,1088.1,428.7,1086.4,434.6z"/>
							<path id="Path_347" class="st14" d="M1072.3,451.4l-0.6-0.2c-2.1-0.5-3.4-2.6-3-4.7l2.6-11.9c0.5-2.1,2.6-3.4,4.7-3l0.6,0.2
								c2.1,0.5,3.4,2.6,3,4.7l-0.8,11.8C1078.3,450.4,1074.4,451.8,1072.3,451.4z"/>
							<path id="Path_348" class="st15" d="M1067.3,435.4c0,0-0.7,4.1,6.3,4.5c5.6,0.3,4-9.9,9.5-10.8c6.1-1,7.3-8.6,4.8-11.5
								s-9.2-4.5-14.1-2.3S1058.7,418.9,1067.3,435.4z"/>
							<circle id="Ellipse_9" class="st14" cx="1080.6" cy="431.5" r="2.7"/>
							<path id="Path_349" class="st16" d="M1056.4,495.6c2-10.9-0.2-19.5,0-31.1c0-20.9-1-25.9,10-22.7l3.1,0.8
								c1.5,0.4,2.9,1,4.3,1.7c14.5,7.4,18.4,9.8,17.8,18.4c0.1,14.3-6.6,17.2-3.1,29.7C1085.4,502.4,1059.7,502.7,1056.4,495.6z"/>
							<path id="Path_350" class="st17" d="M1079.3,440.6l-0.6-1.5c0.9,0.8,2.1,1.1,3.3,0.8C1081.2,440.4,1080.3,440.6,1079.3,440.6
								z"/>
							<ellipse id="Ellipse_10" class="st7" cx="1067.9" cy="424" rx="5.1" ry="5.9"/>
							<path id="Path_351" class="st15" d="M1067.7,422.1c0.1-1.7-1.2-3.1-2.9-3.1c-1.1,0-2.1,0.5-2.7,1.4c-0.7,1.1-1.1,2.3-1.4,3.6
								c-2.1,9.1-17.3,7.8-9.8,23.7c0,0-6.8,10.5,5.8,14.9c6.5,2.2,6.3-14.4,6.3-14.4s2.6-7.7,5.1-13.7c1.2-2.8,1.2-6,0-8.8
								C1067.8,424.5,1067.6,423.3,1067.7,422.1z"/>
							<path id="Path_352" class="st7" d="M1069.4,441.2c-0.9-0.2-1.8,0.3-2.1,1.2c-0.1,0.2-0.1,0.5,0,0.8c0.3,1.9,1.7,3.4,3.5,3.8
								c2.9,0.8,6,0.9,9,0.1c0.3,0,0.4-0.3,0.4-0.6c0,0,0,0,0,0c0-0.1-0.1-0.3-0.2-0.3C1077.9,444.9,1073,442,1069.4,441.2z"/>
							<path id="Path_353" class="st16" d="M1078.4,459.7c0,0,14.2,34.6,29.8,18c15.6-16.7,10.1-28.4,10.1-28.4l-2.1-0.5
								c0,0-6.3,21-13.1,18.9s-15.9-15-19.1-15.6C1080.8,451.2,1078.4,459.7,1078.4,459.7z"/>
							<path id="Path_354" class="st14" d="M1118,451.6L1118,451.6c-1.5,0-2.7-1.2-2.7-2.7V446c0-1.5,1.2-2.7,2.7-2.7l0,0l0,0
								c1.5,0,2.7,1.2,2.7,2.7l0,0v2.8C1120.7,450.4,1119.5,451.6,1118,451.6z"/>
						</g>
						<path id="Path_355" class="st16" d="M1270.9,261.3l42.3,57c1.3,1.8,6,0.6,6.7-1.6l9.8-33.7L1270.9,261.3z"/>
						<path id="Path_356" class="st16" d="M1304.4,362.2l32.3-16.3c2.9-1.4,6.3-0.1,7.6,2.7c0.6,1.2,0.7,2.6,0.4,4l-20.1,39.6
							l-5.1-4.5l-9.4-14.5L1304.4,362.2z"/>
						<path id="Path_357" class="st15" d="M1437.2,442.9l-28,23c-2.5,1.9-6.2,1.5-8.1-1.1c-0.8-1.1-1.2-2.4-1.2-3.7l11-43l6.1,3.2
							l12.5,12.1L1437.2,442.9z"/>
						<g id="Group_116">
							<path id="Path_358" class="st16" d="M1344.5,285.5L1195,199.1c-11.8-6.8-21.4-25.1-21.4-41V94c0-15.8,9.6-23.1,21.4-16.2
								l149.5,86.4c11.8,6.8,21.4,25.1,21.4,41v64.3C1365.9,285.1,1356.3,292.3,1344.5,285.5z"/>
							<path id="Path_359" class="st16" d="M1163.1,89.3l17.4-12.4l179.3,208.8l-19,13.4L1163.1,89.3z"/>
							<path id="Path_360" class="st18" d="M1326,298.5l-149.5-86.4c-11.8-6.8-21.4-25.1-21.4-41v-64.2c0-15.8,9.6-23.1,21.4-16.2
								l149.5,86.4c11.8,6.8,21.4,25.1,21.4,41v64.3C1347.5,298,1337.9,305.3,1326,298.5z"/>
						</g>
						<g id="Group_136">
							<g id="Group_117">
								<path id="Path_361" class="st2" d="M1229.9,174.9c-0.1,16.7-14.1,23.4-31.3,15c-17.2-8.4-31-28.7-31-45.3s14.1-23.4,31.3-15
									C1216.2,138,1230,158.3,1229.9,174.9z"/>
							</g>
							<g id="Group_118">
								<path id="Path_362" class="st7" d="M1184.5,166.4c1.5,4.7,2,9.7,1.5,14.7c7,6.8,17,12.2,27.3,12.6c0,0-0.2-10.7,1.7-11.5
									l-0.1-1.1l-4.5-3.6l-2.5,6.8c0,0-1.8,3.5-7.8-0.3c-6-3.8-7.1-5.1-7.5-7.7c-0.4-2.6-2-8.8-2-8.8L1184.5,166.4z"/>
							</g>
							<g id="Group_119">
								<path id="Path_363" class="st7" d="M1204.6,176.6L1204.6,176.6c-0.3-0.1-0.5-0.3-0.6-0.5l-0.5-7.5c0-0.2,0.1-0.4,0.3-0.4
									c0,0,0,0,0,0c0,0,0.1,0,0.1,0c0.3,0,0.5,0.2,0.5,0.5l0.5,7.5C1205,176.4,1204.9,176.5,1204.6,176.6z"/>
							</g>
							<g id="Group_120">
								<path id="Path_364" class="st7" d="M1195.6,172.1h-0.2c-0.3-0.1-0.5-0.3-0.5-0.6l0.5-7c0-0.2,0.2-0.4,0.5-0.3
									c0.3,0.1,0.5,0.3,0.5,0.6l-0.5,7C1195.9,172,1195.8,172.1,1195.6,172.1C1195.6,172.1,1195.6,172.1,1195.6,172.1z"/>
							</g>
							<g id="Group_121">
								<path id="Path_365" class="st7" d="M1190.1,154.6c-0.1,0-0.2,0-0.3-0.1c-0.1-0.1-2.5-1.8-3.5-6.1c-0.4-1.8-0.2-2.8,0.5-3.2
									c0.7-0.4,1.5,0,1.9,0.2c0.3,0.1,0.4,0.4,0.2,0.7c0,0,0,0,0,0c-0.1,0.2-0.4,0.2-0.7,0.1c-0.2-0.1-0.6-0.3-0.8-0.2
									c-0.2,0.2-0.5,0.5-0.1,2.3c0.9,3.8,2.9,5.3,3,5.4c0.2,0.2,0.3,0.4,0.2,0.7C1190.4,154.5,1190.3,154.6,1190.1,154.6z"/>
							</g>
							<g id="Group_122">
								<path id="Path_366" class="st7" d="M1222.2,191.8c-0.2,0-0.5-0.2-0.5-0.5c-0.9-3.8-3.2-7.1-6.9-9.9
									c-8-5.9-10.4-9.4-10.4-9.4c-0.1-0.2-0.1-0.5,0.1-0.6c0.3-0.1,0.5,0,0.7,0.2l0,0c0,0,2.4,3.4,10.1,9.1
									c4.1,3,6.5,6.5,7.4,10.6c0.1,0.2,0,0.4-0.2,0.4C1222.3,191.8,1222.2,191.8,1222.2,191.8L1222.2,191.8z"/>
							</g>
							<g id="Group_123">
								<path id="Path_367" class="st7" d="M1177.7,172h-0.2c-0.3-0.1-0.4-0.3-0.5-0.6c0.5-4.6,3.3-6.3,8.2-5.3
									c7.7,1.8,10,0.8,10,0.8c0.3-0.1,0.5,0,0.7,0.2c0.1,0.2,0.1,0.5-0.1,0.6c-0.1,0.1-2.5,1.2-10.7-0.7c-4.3-1-6.6,0.5-7.1,4.6
									C1178.1,171.8,1177.9,172,1177.7,172C1177.7,172,1177.7,172,1177.7,172L1177.7,172z"/>
							</g>
							<g id="Group_124">
								<path id="Path_368" class="st7" d="M1186.1,180.7L1186.1,180.7c-0.3-0.1-0.5-0.3-0.5-0.5v-6.1c-0.1-2.6-0.7-5.2-1.5-7.6
									c-0.1-0.2,0-0.5,0.3-0.5c0.3,0,0.5,0.1,0.6,0.4c1,2.5,1.5,5.2,1.6,7.9v6.1C1186.6,180.6,1186.3,180.7,1186.1,180.7z"/>
							</g>
							<g id="Group_125">
								<path id="Path_369" class="st7" d="M1213.4,194.1h-0.1c-0.3,0-0.5-0.3-0.5-0.5v-6.1c0-2.3,0.6-4.5,1.7-6.5
									c0.2-0.2,0.5-0.2,0.7-0.1l0,0c0.2,0.2,0.3,0.4,0.2,0.7c-1,1.8-1.5,3.9-1.5,6v6.1C1213.8,193.9,1213.6,194.1,1213.4,194.1z"
									/>
							</g>
							<g id="Group_126">
								<path id="Path_370" class="st7" d="M1205.4,186.4c-1.6,0-3.6-1-5.8-2.1c-5-2.5-7.5-5.6-7.9-9.8c-0.3-2.4-0.8-4.7-1.6-7
									c-0.1-0.2,0-0.5,0.3-0.5c0.3,0,0.5,0.1,0.6,0.4c0.8,2.3,1.4,4.8,1.7,7.3c0.3,3.7,2.7,6.6,7.3,8.8c2.9,1.5,4.8,2.2,6.1,1.8
									c0.8-0.2,1.4-1,1.8-2.3c0.6-2,1.3-3.9,2.1-5.8c0.1-0.2,0.3-0.3,0.5-0.2c0,0,0,0,0,0c0,0,0.1,0,0.1,0
									c0.2,0.1,0.4,0.4,0.3,0.7c0,0-0.9,2.2-2.1,5.8c-0.3,1.2-1.2,2.2-2.3,2.7C1206.1,186.3,1205.8,186.4,1205.4,186.4z"/>
							</g>
							<g id="Group_127">
								<path id="Path_371" class="st7" d="M1213.5,180.4c-0.2,0-0.5-0.2-0.5-0.4c-1.7-4.7-2.7-9.7-2.9-14.7c-0.2,0.5-0.5,1-0.9,1.5
									c-0.6,0.7-1.4,1.2-2.2,1.5c-3.8,1.5-9.6-1.2-13.3-6.5c-1-1.3-1.8-2.7-2.5-4.1c-1.6-3.7-2.6-7.6-2.7-11.6
									c-0.7-4.5,0.6-6.1,3.4-7.8c2.4-1.5,1.1-5.2,1.1-5.2c-0.1-0.2,0-0.4,0.2-0.5l0,0c0.3-0.1,0.5,0.1,0.6,0.3
									c1.5,2.4,3.3,4.6,5.3,6.5c0.4,0.4,0.8,0.8,1.2,1.2c4.2,3.9,11.1,10.4,10.8,18.6c-0.4,7,0.6,14.1,2.8,20.7
									C1213.8,180,1213.7,180.3,1213.5,180.4L1213.5,180.4z M1194.1,135.1c0.2,1.6-0.5,3.1-1.8,4c-2.6,1.5-3.7,3-3.1,7v0.1
									c0.2,3.9,1,7.7,2.6,11.2c0.7,1.4,1.5,2.7,2.4,4c3.4,4.8,8.7,7.4,12.1,6c0.7-0.3,1.4-0.7,1.9-1.3c0.7-1,1.2-2,1.6-3.1
									c0-1.3,0-2.7,0.1-4.2c0.4-7.7-6.3-14-10.4-17.7c-0.4-0.4-0.8-0.8-1.2-1.2C1196.8,138.4,1195.4,136.8,1194.1,135.1z"/>
							</g>
							<g id="Group_128">
								<path id="Path_372" class="st7" d="M1219.2,185.5c-0.2,0-0.5-0.2-0.5-0.4c-0.2-0.6-6.1-14.8-4.8-23.8c0-0.2,0.3-0.4,0.5-0.3
									c0.3,0.1,0.4,0.3,0.4,0.6c-1.3,8.8,4.7,23.2,4.8,23.4C1219.5,185.2,1219.5,185.5,1219.2,185.5
									C1219.2,185.5,1219.2,185.5,1219.2,185.5z"/>
							</g>
							<g id="Group_129">
								<path id="Path_373" class="st7" d="M1214.6,158.7h-0.1c-0.3,0-0.5-0.3-0.5-0.5c0.5-11.5-5.4-20.7-11.7-23.8
									c-6.6-3.4-8.7-1.4-8.8-1.3c-0.3,0.2-0.6,0.1-0.8-0.2c0,0,0,0,0,0c-0.1-0.2-0.1-0.4,0-0.6c0.1-0.1,2.5-2.5,9.8,1.2
									c6.5,3.4,12.8,13,12.3,24.9C1215,158.6,1214.9,158.7,1214.6,158.7z"/>
							</g>
							<g id="Group_130">
								<path id="Path_374" class="st7" d="M1187.5,145.4L1187.5,145.4c-0.2,0-0.5-0.2-0.5-0.5c-2.6-13.5,2.7-13.9,3.3-13.9
									c1.3,0.1,2.5,0.7,3.4,1.6c0.2,0.1,0.2,0.4,0.1,0.6c0,0,0,0,0,0c0,0-0.1,0.1-0.1,0.1c-0.2,0.2-0.5,0.1-0.7-0.1l0,0
									c-0.7-0.7-1.6-1.1-2.5-1.2l0,0c-0.2,0-5,0.2-2.5,12.9C1188,145.3,1187.8,145.4,1187.5,145.4z"/>
							</g>
							<g id="Group_131">
								<path id="Path_375" class="st7" d="M1187.8,167.6c-0.1,0-0.2,0-0.3-0.1c-0.2-0.2-0.3-0.4-0.2-0.7c2.4-4.1,1.8-12.9,1.8-13
									c0-0.2,0.1-0.4,0.3-0.4c0,0,0,0,0,0h0.1c0.3,0,0.5,0.3,0.5,0.5c0,0.4,0.5,9.2-1.9,13.4
									C1188.1,167.5,1187.9,167.6,1187.8,167.6z"/>
							</g>
							<g id="Group_132">
								<path id="Path_376" class="st7" d="M1210.2,155.6c-0.2,0-0.4-0.1-0.5-0.3c-1.5-2.5-3.5-4.8-5.7-6.7
									c-0.2-0.1-0.3-0.4-0.2-0.7c0,0,0,0,0,0l0,0c0.2-0.2,0.5-0.2,0.7,0c2.4,2,4.4,4.4,6,7.1c0.1,0.2,0.1,0.4-0.1,0.6h-0.1
									L1210.2,155.6z"/>
							</g>
							<g id="Group_133">
								<path id="Path_377" class="st7" d="M1202,146.9c-0.1,0-0.3,0-0.3-0.2c-0.5-0.3-0.8-0.6-1.3-0.9c-3.9-2.7-6.4-7-6.8-11.7
									c0-0.2,0.2-0.4,0.4-0.4c0,0,0,0,0,0h0.1c0.3,0.1,0.5,0.3,0.5,0.5c0.4,4.3,2.7,8.3,6.2,10.8c0.5,0.3,0.9,0.7,1.4,1
									c0.2,0.1,0.3,0.4,0.2,0.7c0,0,0,0,0,0l0,0C1202.3,146.8,1202.2,146.9,1202,146.9z"/>
							</g>
							<g id="Group_134">
								<path id="Path_378" class="st7" d="M1179.7,167.6h-0.2c-0.3,0-0.5-0.3-0.5-0.5c0.1-2.2,1.9-3.5,3.5-4.7
									c0.8-0.5,1.6-1.1,2.2-1.8c1.5-1.9,2.1-10,2.1-10.1c0-0.2,0.2-0.4,0.5-0.3c0.3,0.1,0.5,0.3,0.5,0.6c0,0.3-0.6,8.4-2.2,10.5
									c-0.7,0.8-1.5,1.4-2.4,1.9c-1.5,1.1-3.1,2.2-3.2,4.1C1180.1,167.5,1180,167.6,1179.7,167.6
									C1179.8,167.6,1179.8,167.6,1179.7,167.6z"/>
							</g>
							<g id="Group_135">
								<path id="Path_379" class="st7" d="M1205,188.4L1205,188.4c-3.9-0.7-7.4-2.4-10.2-5c-0.2-0.1-0.3-0.4-0.1-0.6
									c0.1-0.2,0.4-0.3,0.6-0.1c0.1,0,0.1,0.1,0.1,0.1c2.7,2.4,6,4,9.5,4.6c0.3,0,0.5,0.3,0.5,0.5
									C1205.4,188.2,1205.3,188.4,1205,188.4z"/>
							</g>
						</g>
						<g id="Group_137">
							<path id="Path_380" class="st15" d="M1564.1,498.9l-149.5-86.4c-11.8-6.8-21.4-25.1-21.4-41v-64.3c0-15.8,9.6-23.1,21.4-16.2
								l149.5,86.4c11.8,6.8,21.4,25.1,21.4,41v64.3C1585.5,498.4,1576,505.6,1564.1,498.9z"/>
							<path id="Path_381" class="st15" d="M1382.7,302.6l17.3-12.4l179.3,208.8l-19,13.4L1382.7,302.6z"/>
							<path id="Path_382" class="st19" d="M1545.7,511.8l-149.5-86.4c-11.8-6.8-21.4-25.1-21.4-41v-64.3c0-15.8,9.6-23.1,21.4-16.2
								l149.5,86.4c11.8,6.8,21.4,25.1,21.4,41v64.3C1567.1,511.4,1557.5,518.6,1545.7,511.8z"/>
						</g>
						<g id="Group_155">
							<g id="Group_138">
								<path id="Path_383" class="st2" d="M1449.7,395c-0.1,16.7-14.1,23.4-31.3,15c-17.2-8.4-31-28.7-31-45.3s14.1-23.4,31.3-15
									C1435.9,358,1449.7,378.3,1449.7,395z"/>
							</g>
							<g id="Group_139">
								<path id="Path_384" class="st7" d="M1406.8,363.6l-1-0.5c0,0-0.4-2.7-0.4-2.8c0-0.1-1.7-11.8,8.5-9.1
									c10.2,2.6,16.1,11.9,16.1,11.9s3.9,6.1,1.2,12.9l-1.3-0.9c0,0,1.4-7.8-4.1-10.8l-3.9-0.4c0,0-4.4-0.8-9.1-5.4
									S1406.6,359,1406.8,363.6z"/>
							</g>
							<g id="Group_140">
								<path id="Path_385" class="st7" d="M1423.2,388.3c-3.6,0-8-2.7-11-6.8c-1-1.3-1.8-2.7-2.5-4.1c-1.5-3.2-2.4-6.6-2.7-10.1
									c0-0.1-0.1-0.8-0.2-1.5c-0.2-1.4-0.2-2-0.2-2.1c0-0.2,0.2-0.4,0.4-0.4c0,0,0,0,0,0h0.1c0.3,0,0.5,0.3,0.5,0.5
									c0,0.2,0.2,1.2,0.2,2.1c0.1,0.8,0.2,1.5,0.2,1.5c0.2,3.4,1.1,6.6,2.5,9.7c0.7,1.4,1.5,2.7,2.4,4c3.4,4.8,8.7,7.4,12.1,6
									c0.7-0.3,1.4-0.7,1.9-1.3c1.4-1.8,2.2-4.6,2.5-8.3c0-0.1,0.1-0.4,0.2-1.2c0.1-0.5,0.2-1.2,0.2-1.3s0.2-0.4,0.5-0.3
									c0.2,0.1,0.4,0.3,0.5,0.5c0,0.1-0.1,0.4-0.2,1.4c-0.1,0.5-0.2,1.1-0.2,1.2c-0.2,3.8-1.1,6.8-2.6,8.7
									C1426.6,387.6,1424.9,388.3,1423.2,388.3L1423.2,388.3z"/>
							</g>
							<g id="Group_141">
								<path id="Path_386" class="st7" d="M1429.8,382.9c-0.2,0-0.3,0-0.5-0.1c-0.3-0.1-0.5-0.3-0.5-0.6c0-0.2,0.2-0.4,0.5-0.3
									c0.1,0,1.6,0.3,2.4-2.5c0.3-0.8,0.3-1.8-0.2-2.5c-0.2-0.4-0.6-0.7-1.1-0.9c-0.3-0.1-0.4-0.3-0.4-0.6
									c0.1-0.2,0.3-0.4,0.5-0.3l0,0c0.8,0.3,1.4,0.8,1.8,1.5c0.5,1,0.6,2.2,0.3,3.3C1432,382.5,1430.5,382.9,1429.8,382.9z"/>
							</g>
							<g id="Group_142">
								<path id="Path_387" class="st7" d="M1408.2,372.5c-0.1,0-0.2,0-0.3-0.1c-1.8-1.5-3.1-3.7-3.5-6.1c-0.4-1.8-0.2-2.8,0.5-3.1
									c0.7-0.4,1.5,0,1.9,0.2c0.2,0.1,0.3,0.4,0.2,0.7c-0.1,0.2-0.4,0.2-0.6,0.1l-0.1,0l0,0c-0.2-0.1-0.6-0.3-0.8-0.2
									c-0.2,0.2-0.5,0.5-0.1,2.3c0.9,3.8,2.9,5.3,3,5.4c0.2,0.2,0.3,0.4,0.2,0.7C1408.5,372.4,1408.4,372.4,1408.2,372.5z"/>
							</g>
							<g id="Group_143">
								<path id="Path_388" class="st7" d="M1422.4,398.1c-1.2-0.1-2.3-0.4-3.3-0.9c-6.6-3.2-6-7.9-6-8l0.5-6.1
									c0-0.2,0.2-0.4,0.5-0.3c0.3,0.1,0.5,0.3,0.5,0.6l-0.5,6.1c0,0.2-0.5,4,5.3,6.8c1.7,0.8,3,1.1,3.7,0.6c1-0.6,0.8-2.3,0.8-2.4
									l-0.5-6.4c0-0.2,0.2-0.4,0.4-0.5c0,0,0,0,0,0l0,0c0.3,0,0.5,0.2,0.5,0.5l0.5,6.5c0,0.1,0.3,2.2-1.1,3.1
									C1423.3,398,1422.8,398.1,1422.4,398.1z"/>
							</g>
							<g id="Group_144">
								<path id="Path_389" class="st7" d="M1414.4,366.5l-3.7-1.8c-0.3-0.2-0.4-0.4-0.5-0.8l0,0c0-0.3,0.2-0.5,0.5-0.3l3.7,1.8
									c0.3,0.2,0.4,0.5,0.5,0.8l0,0C1414.9,366.5,1414.7,366.6,1414.4,366.5z"/>
							</g>
							<g id="Group_145">
								<path id="Path_390" class="st7" d="M1426.7,372.5l-3.7-1.8c-0.3-0.2-0.4-0.5-0.5-0.8l0,0c0-0.3,0.2-0.5,0.5-0.3l3.7,1.8
									c0.3,0.2,0.4,0.4,0.5,0.8l0,0C1427.2,372.5,1426.9,372.6,1426.7,372.5z"/>
							</g>
							<g id="Group_146">
								<path id="Path_391" class="st7" d="M1440.7,412.3c-0.2,0-0.5-0.2-0.5-0.5c-1.1-4.5-3.5-8.5-6.8-11.7
									c-5.1-5-9.5-10.1-9.6-10.1c-0.2-0.2-0.2-0.5,0-0.7c0.2-0.2,0.5-0.1,0.7,0.1c0,0,0,0,0,0l0,0c0.1,0.1,4.5,5.2,9.5,10.1
									c3.5,3.3,6,7.5,7.3,12.2C1441.2,412,1441,412.3,1440.7,412.3L1440.7,412.3z"/>
							</g>
							<g id="Group_147">
								<path id="Path_392" class="st7" d="M1396.7,391c-0.1,0-0.2,0-0.2-0.1c-0.2-0.1-0.4-0.4-0.3-0.6c0.9-3.4,4-5.6,7.5-5.4h0.3
									c3.3,0,6.6-0.3,9.8-0.7c0.3,0,0.5,0.2,0.6,0.4c0.1,0.2-0.1,0.5-0.3,0.5c-3.3,0.4-6.6,0.7-10,0.7h-0.3
									c-3.1-0.2-6,1.9-6.8,4.9C1397,390.9,1396.9,391,1396.7,391C1396.7,391,1396.7,391,1396.7,391L1396.7,391z"/>
							</g>
							<g id="Group_148">
								<path id="Path_393" class="st7" d="M1423.1,400.8L1423.1,400.8c-1.5-0.1-3-0.5-4.3-1.2c-1.6-0.7-3-1.7-4.2-2.9
									c-0.2-0.1-0.3-0.4-0.1-0.6c0.1-0.2,0.4-0.3,0.6-0.1c0,0,0,0,0,0c0.1,0,0.1,0.1,0.1,0.1c1.2,1.1,2.5,2,3.9,2.7
									c1.2,0.7,2.4,1.1,3.8,1.2c0.2,0,0.5,0.2,0.5,0.5C1423.5,400.5,1423.3,400.8,1423.1,400.8z"/>
							</g>
							<g id="Group_149">
								<path id="Path_394" class="st7" d="M1416.6,373.6c-0.3,0-0.5-0.1-0.8-0.2l-3.7-1.8c-0.2-0.1-0.4-0.4-0.3-0.6
									c0.1-0.2,0.3-0.3,0.5-0.2l0.1,0.1l3.7,1.8c0.1,0.1,0.3,0.1,0.5,0.1c0.1-0.1,0.1-0.2,0.1-0.3V370c0-0.6-0.4-1.1-0.9-1.3
									l-6.3-3.1c-0.1-0.1-0.3-0.1-0.5-0.1c-0.1,0.1-0.2,0.2-0.2,0.3v2.5c0,0.6,0.4,1.1,0.9,1.3l0.8,0.4c0.2,0.1,0.4,0.4,0.3,0.6
									c-0.1,0.2-0.3,0.3-0.5,0.2l-0.1,0l-0.8-0.4c-0.9-0.4-1.5-1.3-1.6-2.3v-2.5c0-0.4,0.2-0.8,0.5-1c0.4-0.2,0.9-0.1,1.3,0.1
									l6.3,3.2c0.9,0.4,1.5,1.3,1.6,2.3v2.5c0,0.4-0.2,0.8-0.5,1C1416.9,373.5,1416.7,373.6,1416.6,373.6z"/>
							</g>
							<g id="Group_150">
								<path id="Path_395" class="st7" d="M1429.1,379.7c-0.3,0-0.5-0.1-0.8-0.2l-2.5-1.2c-0.2-0.1-0.4-0.4-0.3-0.6
									c0.1-0.2,0.3-0.3,0.5-0.2c0,0,0,0,0,0h0.1l2.5,1.2c0.1,0.1,0.3,0.1,0.5,0.1c0.1-0.1,0.1-0.2,0.2-0.3V376
									c-0.1-0.6-0.4-1.1-0.9-1.3l-6.3-3.1c-0.1-0.1-0.3-0.1-0.5-0.1c-0.1,0.1-0.2,0.2-0.2,0.3v2.5c0,0.6,0.4,1.1,0.9,1.3l2.1,1
									c0.2,0.1,0.4,0.4,0.3,0.6c-0.1,0.2-0.3,0.3-0.5,0.2c0,0-0.1,0-0.1,0l-2.1-1c-0.9-0.4-1.5-1.3-1.6-2.3v-2.5
									c0-0.4,0.2-0.8,0.5-1c0.4-0.2,0.9-0.1,1.3,0.1l6.3,3.1c0.9,0.4,1.5,1.3,1.6,2.3v2.5c0,0.4-0.2,0.8-0.5,1
									C1429.5,379.6,1429.3,379.7,1429.1,379.7z"/>
							</g>
							<g id="Group_151">
								<path id="Path_396" class="st7" d="M1430.4,375.5h-0.2c-0.3-0.1-0.4-0.3-0.4-0.6c0.3-2.1,0-4.2-0.7-6.1
									c-0.8-2.3-3.3-4.3-5.1-4.2c-0.6,0-1.2,0-1.8-0.2c-0.3,0-0.5-0.3-0.5-0.5c0-0.2,0.2-0.4,0.4-0.4c0,0,0,0,0,0h0.1
									c0.5,0.1,1.1,0.1,1.6,0.2c2.3-0.1,5.2,2.2,6.2,5c0.8,2.1,1.1,4.4,0.8,6.7C1430.7,375.4,1430.5,375.5,1430.4,375.5z"/>
							</g>
							<g id="Group_152">
								<path id="Path_397" class="st7" d="M1407.2,364.2L1407.2,364.2c-0.3,0-0.5-0.2-0.6-0.5c0-0.2-0.6-3.6,0.9-5.9
									c0.5-0.8,1.3-1.2,2.2-1.2h0.1c1.6,0.1,3,0.9,4.1,2.1c1.5,1.5,3.2,2.8,5.1,3.7c0.3,0.2,0.7,0.3,1,0.5
									c0.3,0.1,0.4,0.3,0.4,0.6c-0.1,0.2-0.3,0.3-0.5,0.3l-0.1-0.1c-0.4-0.2-0.7-0.3-1.1-0.5c-2-1-3.9-2.4-5.4-4
									c-0.9-1-2-1.6-3.3-1.7c-0.6-0.1-1.3,0.2-1.6,0.8c-1.3,2.1-0.8,5.4-0.8,5.4C1407.6,364,1407.4,364.2,1407.2,364.2z"/>
							</g>
							<g id="Group_153">
								<path id="Path_398" class="st7" d="M1431.6,376.6c-0.1,0-0.2,0-0.2-0.1c-0.3-0.1-0.4-0.3-0.4-0.6c1.3-5.4,0.7-9.9-2.1-13.9
									c-3.3-4.9-10-9.4-15.5-10.5c-1.9-0.4-4.5-0.5-6.1,1.1c-2.8,2.8-1.1,10.8-1,10.9c0.1,0.2,0,0.4-0.2,0.4c0,0,0,0,0,0
									c-0.1,0-0.1,0-0.2,0c-0.3,0-0.5-0.2-0.6-0.5c-0.1-0.3-1.8-8.5,1.2-11.7c1.5-1.5,3.8-1.9,6.9-1.3c5.9,1.2,12.7,5.8,16.3,11.1
									c2.9,4.3,3.6,9.1,2.2,14.7C1432,376.4,1431.9,376.6,1431.6,376.6L1431.6,376.6z"/>
							</g>
							<g id="Group_154">
								<path id="Path_399" class="st7" d="M1420.9,372.1c-0.2,0-0.3-0.1-0.5-0.2c-1.6-2-2.8-1.5-2.9-1.5c-0.3,0-0.5-0.1-0.7-0.3
									c-0.1-0.2-0.1-0.4,0.1-0.6c0,0,0,0,0,0c0,0,0.1,0,0.1-0.1c0.1,0,1.9-0.8,4.1,1.9c0.2,0.2,0.2,0.5,0,0.7
									C1421.1,372.1,1421,372.1,1420.9,372.1z"/>
							</g>
						</g>
						<g id="Group_156">
							<path id="Path_400" class="st16" d="M1327,486.4l-149.6-86.4c-11.8-6.8-21.4-25.1-21.4-41v-64.3c0-15.8,9.6-23.1,21.4-16.2
								l149.5,86.4c11.8,6.8,21.4,25.1,21.4,41v64.3C1348.3,486,1338.8,493.3,1327,486.4z"/>
							<path id="Path_401" class="st16" d="M1145.6,290.2l17.4-12.4l179.3,208.8l-19,13.4L1145.6,290.2z"/>
							<path id="Path_402" class="st18" d="M1308.5,499.4L1158.9,413c-11.8-6.8-21.4-25.1-21.4-41v-64.3c0-15.8,9.6-23.1,21.4-16.2
								l149.5,86.4c11.8,6.8,21.4,25.1,21.4,41v64.3C1329.9,498.9,1320.4,506.2,1308.5,499.4z"/>
						</g>
						<g id="Group_173">
							<g id="Group_157">
								<path id="Path_403" class="st2" d="M1208.4,378.9c-0.1,16.8-14.2,23.6-31.5,15.1s-31.3-28.9-31.2-45.7
									c0.1-16.8,14.2-23.6,31.5-15.1C1194.5,341.6,1208.5,362.2,1208.4,378.9z"/>
							</g>
							<g id="Group_158">
								<path id="Path_404" class="st13" d="M1165.5,369.6c0,0-8.7-0.8-11,4.2c12.5,19.8,36.1,28.3,44.3,21.9
									c-0.4-1.4-1-2.8-1.7-4.2c-2.2-3.6-4.8-6.9-7.8-9.9l-5.4-5.6c1.4,7.1-0.6,9.9-7.1,6.8c-5.5-2.8-7.8-7.3-7.1-13.6
									L1165.5,369.6z"/>
							</g>
							<g id="Group_159">
								<path id="Path_405" class="st7" d="M1181.3,372.6c-3.6,0-8.1-2.7-11.1-6.9c-1-1.3-1.8-2.7-2.5-4.2
									c-1.5-3.2-2.4-6.6-2.7-10.1c0-0.1-0.1-0.8-0.2-1.7c-0.2-2-0.3-3.4-0.3-3.5c0-0.2,0.2-0.4,0.4-0.4h0.1
									c0.3,0.1,0.5,0.3,0.5,0.5c0,0.2,0.2,2.1,0.3,3.5c0.1,0.8,0.2,1.6,0.2,1.7c0.3,5,2.1,9.8,5.1,13.8c3.4,4.8,8.8,7.5,12.1,6
									c0.7-0.3,1.4-0.7,2-1.3c1.4-1.8,2.2-4.7,2.5-8.4c0-0.1,0.1-0.8,0.2-1.6c0.1-1.1,0.2-2.2,0.2-2.3c0-0.2,0.2-0.4,0.5-0.4
									c0.3,0.1,0.5,0.3,0.5,0.6c0,0.1-0.1,1-0.2,2.4c-0.1,0.8-0.2,1.5-0.2,1.6c-0.2,3.9-1.1,6.8-2.6,8.8c-0.6,0.7-1.4,1.2-2.2,1.5
									C1183,372.4,1182.1,372.6,1181.3,372.6z"/>
							</g>
							<g id="Group_160">
								<path id="Path_406" class="st7" d="M1187.9,367.1c-0.2,0-0.3,0-0.5-0.1c-0.3-0.1-0.5-0.3-0.5-0.6c0-0.2,0.2-0.4,0.5-0.3
									c0.1,0,1.6,0.3,2.5-2.5c0.3-0.8,0.3-1.8-0.2-2.5c-0.2-0.4-0.6-0.7-1.1-0.9c-0.3-0.1-0.4-0.3-0.4-0.6
									c0.1-0.2,0.3-0.4,0.5-0.3l0,0c0.8,0.3,1.4,0.8,1.8,1.5c0.5,1,0.6,2.2,0.3,3.3C1190.1,366.7,1188.6,367.1,1187.9,367.1z"/>
							</g>
							<g id="Group_161">
								<path id="Path_407" class="st7" d="M1166.1,356.6c-0.1,0-0.2,0-0.3-0.1c-0.1-0.1-2.5-1.8-3.5-6.1c-0.4-1.8-0.2-2.8,0.5-3.2
									c0.7-0.4,1.5,0,1.9,0.2c0.3,0.1,0.4,0.4,0.2,0.7c0,0,0,0,0,0c-0.1,0.2-0.4,0.2-0.7,0.1l0,0c-0.2-0.1-0.6-0.3-0.8-0.2
									c-0.2,0.2-0.5,0.5-0.1,2.3c0.4,2.1,1.4,4,3,5.4c0.2,0.2,0.3,0.4,0.2,0.7C1166.4,356.5,1166.3,356.6,1166.1,356.6z"/>
							</g>
							<g id="Group_162">
								<path id="Path_408" class="st7" d="M1180.4,382.4c-1.2-0.1-2.3-0.4-3.3-0.9c-6.7-3.3-6.1-8-6.1-8.1l0.5-6.1
									c0-0.2,0.2-0.4,0.5-0.3c0,0,0.1,0,0.1,0c0.3,0.1,0.5,0.3,0.5,0.6l-0.5,6.1c0,0.1-0.5,4,5.4,6.9c1.8,0.8,3,1.1,3.7,0.6
									c1-0.6,0.8-2.4,0.8-2.4l-0.5-6.5c0-0.2,0.2-0.4,0.4-0.5l0,0c0.3,0,0.5,0.3,0.5,0.5l0.5,6.4c0,0.1,0.3,2.2-1.1,3.2
									C1181.4,382.3,1180.9,382.4,1180.4,382.4z"/>
							</g>
							<g id="Group_163">
								<path id="Path_409" class="st7" d="M1198.8,396.2c-0.2,0-0.5-0.2-0.5-0.5c-1.2-4.3-3.5-8.2-6.8-11.2
									c-5.2-5-9.6-10.1-9.7-10.2c-0.2-0.2-0.2-0.5,0-0.7c0.2-0.1,0.5-0.1,0.7,0.2l0,0c0.1,0.1,4.5,5.2,9.6,10.1
									c3.4,3.2,5.9,7.3,7.1,11.8C1199.2,396,1199.1,396.3,1198.8,396.2L1198.8,396.2z"/>
							</g>
							<g id="Group_164">
								<path id="Path_410" class="st7" d="M1154.7,374.6c-0.1,0-0.2,0-0.2-0.1c-0.2-0.1-0.4-0.4-0.3-0.7c1.1-3,4-5,7.3-4.8h0.3
									c3.3,0,6.6-0.3,9.9-0.7c0.3,0,0.5,0.1,0.6,0.4c0.1,0.2-0.1,0.5-0.3,0.5c-3.3,0.4-6.7,0.7-10.1,0.7h-0.3
									c-2.9-0.2-5.6,1.6-6.6,4.4C1155,374.5,1154.9,374.6,1154.7,374.6C1154.8,374.6,1154.8,374.6,1154.7,374.6L1154.7,374.6z"/>
							</g>
							<g id="Group_165">
								<path id="Path_411" class="st7" d="M1181.2,384.8c-1.5-0.1-3-0.5-4.3-1.2c-2.9-1.4-9.4-5.6-7.5-14.4
									c0.1-0.3,0.4-0.4,0.6-0.3c0.3,0.1,0.4,0.3,0.4,0.6l0,0c-1.7,7.8,3.5,11.5,6.7,13.1c1,0.5,3.6,1.8,5.2,0.8
									c1.4-0.8,1.8-3.1,1.2-6.8c-0.1-0.3,0.2-0.5,0.5-0.5c0.3,0,0.6,0.2,0.6,0.5c0.6,4.1,0.1,6.7-1.5,7.7
									C1182.5,384.6,1181.9,384.8,1181.2,384.8z"/>
							</g>
							<g id="Group_166">
								<path id="Path_412" class="st7" d="M1181.1,387.6L1181.1,387.6c-1.5-0.1-3-0.5-4.3-1.2c-1.6-0.7-3-1.7-4.3-2.9
									c-0.2-0.1-0.3-0.4-0.1-0.6c0.1-0.2,0.4-0.3,0.6-0.1c0.1,0,0.1,0.1,0.1,0.1c1.2,1.1,2.5,2,3.9,2.7c1.2,0.7,2.5,1.1,3.8,1.2
									c0.3,0,0.5,0.2,0.6,0.5C1181.6,387.4,1181.4,387.6,1181.1,387.6L1181.1,387.6z"/>
							</g>
							<g id="Group_167">
								<path id="Path_413" class="st7" d="M1190.7,360.1L1190.7,360.1c-0.2,0-0.5-0.2-0.5-0.4c0,0-0.9-2-7.8-6.1
									c-1.4-0.9-2.7-1.9-3.9-3.1c-0.2-0.1-0.3-0.4-0.1-0.6c0.1-0.2,0.4-0.3,0.6-0.1c0.1,0,0.1,0.1,0.1,0.1
									c1.1,1.1,2.3,2.1,3.6,2.9c2.7,1.5,5.1,3.3,7.3,5.4c-0.1-1.4-0.2-3.9-0.6-6.8c0-0.2,0.2-0.4,0.4-0.5c0.3,0,0.5,0.2,0.5,0.5
									c0,0,0,0,0,0l0,0c0.4,2.7,0.6,5.5,0.7,8.3C1191.1,360,1191,360.1,1190.7,360.1z"/>
							</g>
							<g id="Group_168">
								<path id="Path_414" class="st7" d="M1189.5,348.5c-0.2,0-0.5-0.2-0.5-0.4c-1.8-5.7-8-11.8-12.3-13.6
									c-1.1-0.5-2.5-0.8-3.5-0.2c-2.2,1.6-1.1,4.5-1.1,4.6c1.1,2.8,2.6,5.5,4.5,7.9c0.2,0.2,0.2,0.5-0.1,0.6
									c-0.2,0.1-0.5,0.1-0.7-0.1v-0.1c-1.9-2.5-3.4-5.3-4.6-8.2c0,0-1.5-3.6,1.3-5.6c1-0.7,2.5-0.7,4.4,0.2
									c4.6,1.9,11.1,8.4,13.1,14.4C1190,348.3,1189.9,348.5,1189.5,348.5L1189.5,348.5z"/>
							</g>
							<g id="Group_169">
								<path id="Path_415" class="st7" d="M1163.1,346.1h-0.6c-0.2,0-0.3-0.1-0.5-0.2c-0.1-0.1-0.1-0.3-0.1-0.5
									c0.5-1.4,0.8-2.9,0.8-4.4V341c-0.1-2.5,0.1-6.8,2.4-8.5c1.1-0.7,2.4-0.8,3.6-0.4c1.1,0.4,2.2,0.9,3.1,1.6l0.5,0.3
									c0.3,0.1,0.4,0.4,0.2,0.7c-0.1,0.2-0.3,0.3-0.5,0.2l-0.1-0.1l-0.5-0.3c-0.9-0.6-1.9-1.1-2.9-1.5c-0.9-0.4-2-0.3-2.8,0.2
									c-2.2,1.5-2.2,6-2.1,7.8v0.1c0,1.4-0.2,2.7-0.6,4c2.1,0,7.7-0.6,8.1-6.3c0-0.2,0.2-0.4,0.5-0.4c0.3,0.1,0.5,0.3,0.5,0.6
									C1171.8,345.7,1165.2,346.1,1163.1,346.1z"/>
							</g>
							<g id="Group_170">
								<path id="Path_416" class="st7" d="M1189.8,360.9c-0.2,0-0.3-0.1-0.5-0.2c-0.2-0.1-0.2-0.4-0.1-0.6c0,0,0,0,0,0l0.1-0.1
									l0.9-0.8c0.2-0.1,0.5-0.1,0.7,0.1c0.2,0.1,0.2,0.4,0.1,0.6l-0.1,0.1l-0.9,0.8C1190,360.9,1189.9,360.9,1189.8,360.9z"/>
							</g>
							<g id="Group_171">
								<path id="Path_417" class="st7" d="M1166.8,341.3c-0.1,0-0.2,0-0.3-0.1c-0.2-0.1-0.4-0.4-0.3-0.7c2.1-4.4,4.7-4.6,4.8-4.6
									c0.3,0,0.5,0.2,0.6,0.5c0.1,0.2-0.1,0.5-0.4,0.5c-0.1,0-2.3,0.2-4.2,4.2C1167.1,341.2,1167,341.3,1166.8,341.3z"/>
							</g>
							<g id="Group_172">
								<path id="Path_418" class="st7" d="M1190.7,359.7c-0.2,0-0.5-0.2-0.5-0.5c0-0.1-1.2-4.2-5.2-9.5c-0.2-0.2-0.1-0.5,0.1-0.7
									c0,0,0,0,0,0l0,0c0.2-0.1,0.5-0.1,0.7,0.2l0,0c2.4,3,4.2,6.3,5.4,9.9C1191.2,359.4,1191,359.7,1190.7,359.7L1190.7,359.7z"
									/>
							</g>
						</g>
						<g id="Group_174">
							<path id="Path_419" class="st13" d="M1227.5,358l1.5,4.1c0.2,0.6,0.5,1.1,1,1.5l3.2,2.4c1.2,0.8,1.5,2.7,0.8,3.1l-2.3,1.2
								c-0.4,0.3-0.5,0.7-0.4,1.2l0.5,4c0.2,1.4-1,1.7-2,0.5l-2.8-3.4c-0.3-0.4-0.8-0.7-1.3-0.8l-2.8,0.1c-1,0-2.2-1.6-2-2.8
								l0.5-3.3c0-0.6-0.1-1.1-0.4-1.6l-2.3-3.9c-0.8-1.4-0.4-2.7,0.8-2.2l3.2,1.3c0.5,0.2,0.8,0.1,1-0.2l1.5-2.5
								C1225.5,355.7,1226.9,356.5,1227.5,358z"/>
							<path id="Path_420" class="st13" d="M1246.2,369.2l1.5,4.1c0.2,0.6,0.5,1.1,1,1.5l3.2,2.4c1.2,0.8,1.5,2.7,0.8,3.1l-2.3,1.2
								c-0.3,0.3-0.5,0.7-0.4,1.2l0.5,4c0.2,1.4-1,1.7-2,0.5l-2.8-3.4c-0.3-0.4-0.8-0.7-1.3-0.8l-2.8,0.1c-1,0-2.1-1.6-2-2.8
								l0.5-3.3c0.1-0.6-0.1-1.1-0.4-1.6l-2.3-3.9c-0.8-1.4-0.4-2.7,0.8-2.2l3.2,1.3c0.5,0.1,0.9,0.1,1-0.2l1.5-2.5
								C1244.2,366.9,1245.7,367.7,1246.2,369.2z"/>
							<path id="Path_421" class="st13" d="M1264.9,380.5l1.5,4.2c0.2,0.6,0.5,1.1,1,1.5l3.2,2.4c1.2,0.8,1.5,2.7,0.8,3.1l-2.3,1.2
								c-0.3,0.3-0.5,0.7-0.4,1.2l0.5,4c0.2,1.4-1,1.7-2,0.5l-2.8-3.4c-0.3-0.4-0.8-0.7-1.3-0.8l-2.8,0.1c-1,0-2.1-1.6-2-2.8
								l0.5-3.3c0.1-0.6-0.1-1.1-0.4-1.6l-2.3-3.9c-0.8-1.4-0.4-2.7,0.8-2.2l3.2,1.3c0.5,0.2,0.9,0.1,1-0.2l1.5-2.5
								C1263,378.1,1264.4,379,1264.9,380.5z"/>
							<path id="Path_422" class="st13" d="M1283.6,391.7l1.5,4.2c0.2,0.6,0.5,1.1,1,1.5l3.2,2.4c1.2,0.8,1.5,2.7,0.8,3.2l-2.3,1.2
								c-0.4,0.3-0.5,0.7-0.4,1.2l0.5,4c0.2,1.4-1,1.7-2,0.5l-2.8-3.4c-0.3-0.4-0.8-0.7-1.3-0.8l-2.8,0.1c-1,0-2.2-1.6-2-2.8
								l0.5-3.3c0-0.6-0.1-1.1-0.4-1.6l-2.3-3.9c-0.8-1.4-0.4-2.7,0.8-2.2l3.2,1.3c0.5,0.2,0.8,0.1,1-0.2l1.5-2.5
								C1281.6,389.5,1283.1,390.3,1283.6,391.7z"/>
							<path id="Path_423" class="st13" d="M1302.4,403.1l1.5,4.1c0.2,0.6,0.5,1.1,1,1.5l3.2,2.4c1.2,0.8,1.5,2.7,0.8,3.1l-2.3,1.2
								c-0.4,0.3-0.5,0.7-0.4,1.2l0.5,4c0.2,1.4-1,1.7-2,0.5l-2.8-3.4c-0.3-0.4-0.8-0.7-1.3-0.8l-2.8,0.1c-1,0-2.1-1.6-2-2.8
								l0.5-3.3c0.1-0.6-0.1-1.1-0.4-1.6l-2.3-3.9c-0.8-1.4-0.4-2.7,0.8-2.2l3.2,1.3c0.5,0.2,0.9,0.1,1-0.2l1.5-2.5
								C1300.3,400.8,1301.8,401.6,1302.4,403.1z"/>
						</g>
						<path id="Path_424" class="st13" d="M1219.2,691l-4.7-1.2c-0.7-0.2-1.4-0.1-2,0.1l-4.2,1.5c-1.5,0.5-3.5-0.2-3.4-1.2l0.2-2.9
							c-0.1-0.5-0.4-0.9-0.8-1.1l-4-1.9c-1.4-0.7-1-1.9,0.8-2.1l4.8-0.6c0.6,0,1.1-0.3,1.5-0.8l1.7-2.7c0.6-0.9,2.8-1,3.8-0.2
							l2.7,2.5c0.5,0.4,1.2,0.6,1.8,0.6l5.1,0.2c1.8,0.1,2.7,1.3,1.6,2.1l-3.2,2.1c-0.4,0.2-0.6,0.7-0.4,1.1c0,0,0,0,0,0v0.1
							l1.5,2.8C1222.6,690.6,1220.9,691.4,1219.2,691z"/>
						<path id="Path_425" class="st13" d="M1224.2,703.3l4.1,2.6c0.6,0.4,1.2,0.6,1.9,0.5l4.4-0.1c1.5,0,3.2,1.3,2.7,2.2l-1.2,2.7
							c-0.1,0.5,0.1,1,0.5,1.3l3.1,3.1c1.2,1.1,0.3,2.1-1.4,1.8l-4.8-0.9c-0.5-0.2-1.1-0.1-1.6,0.2l-2.5,2c-0.8,0.7-3,0.1-3.7-1.1
							l-1.8-3.3c-0.3-0.6-0.8-1-1.5-1.2l-4.7-1.8c-1.7-0.6-2.1-2.1-0.8-2.5l3.7-1c0.5-0.2,0.8-0.5,0.7-0.9l-0.5-3.2
							C1220.9,702.7,1222.7,702.4,1224.2,703.3z"/>
						<path id="Path_426" class="st13" d="M1208.8,696.3l4.7,1.2c0.7,0.2,1.4,0.1,2-0.1l4.1-1.5c1.5-0.5,3.5,0.2,3.4,1.2l-0.2,2.9
							c0,0.5,0.4,0.9,0.8,1.1l4,1.9c1.4,0.7,1,1.9-0.8,2.1l-4.8,0.6c-0.6,0-1.1,0.3-1.5,0.8l-1.7,2.7c-0.6,0.9-2.8,1-3.8,0.1
							l-2.7-2.5c-0.5-0.4-1.2-0.6-1.8-0.6l-5.1-0.2c-1.8-0.1-2.7-1.3-1.6-2.1l3.1-2.1c0.4-0.2,0.6-0.7,0.4-1.1v-0.1l-1.5-2.8
							C1205.3,696.6,1207,695.9,1208.8,696.3z"/>
						<path id="Path_427" class="st13" d="M1199.4,710l4.7,1.2c0.7,0.2,1.4,0.1,2-0.1l4.1-1.5c1.5-0.5,3.5,0.2,3.4,1.2l-0.2,2.9
							c0,0.5,0.4,0.9,0.8,1.1l4,1.9c1.4,0.7,1,1.9-0.8,2.1l-4.8,0.6c-0.6,0-1.1,0.3-1.5,0.8l-1.7,2.7c-0.6,0.9-2.8,1-3.8,0.2
							l-2.7-2.5c-0.5-0.4-1.2-0.6-1.8-0.6l-5.1-0.2c-1.8-0.1-2.7-1.3-1.6-2.1l3.1-2.1c0.4-0.2,0.6-0.7,0.4-1.1c0,0,0,0,0,0
							c0,0,0,0,0-0.1l-1.5-2.8C1196.1,710.5,1197.8,709.6,1199.4,710z"/>
						<path id="Path_428" class="st13" d="M1230.2,692.2l4.7,1.2c0.7,0.2,1.4,0.1,2-0.1l4.2-1.5c1.5-0.5,3.5,0.2,3.4,1.2l-0.2,2.9
							c0.1,0.5,0.4,0.9,0.8,1.1l4,1.9c1.4,0.7,1,1.9-0.8,2.1l-4.8,0.6c-0.6,0-1.1,0.3-1.5,0.8l-1.7,2.7c-0.6,0.9-2.8,1-3.8,0.2
							l-2.7-2.5c-0.5-0.4-1.1-0.6-1.8-0.6l-5.1-0.2c-1.8-0.1-2.7-1.3-1.6-2.1l3.2-2.1c0.4-0.2,0.6-0.7,0.4-1.1c0,0,0,0,0,0v-0.1
							l-1.5-2.8C1226.9,692.6,1228.5,691.7,1230.2,692.2z"/>
						<path id="Path_429" class="st13" d="M1393.7,733l5.1,1.3c0.7,0.2,1.5,0.1,2.2-0.1l4.5-1.6c1.5-0.5,3.7,0.2,3.6,1.3l-0.2,3.1
							c0,0.5,0.3,0.9,0.9,1.2l4.3,2.1c1.5,0.7,1.1,2.1-0.8,2.3l-5.2,0.6c-0.6,0-1.2,0.3-1.5,0.8l-1.8,2.9c-0.6,1-3.1,1.1-4.1,0.2
							l-3-2.7c-0.5-0.4-1.2-0.7-1.8-0.7l-5.4-0.2c-1.9-0.1-2.9-1.4-1.8-2.2l3.4-2.3c0.4-0.2,0.6-0.8,0.4-1.2c0,0,0,0,0,0l-1.5-3.1
							C1390.2,733.4,1391.9,732.5,1393.7,733z"/>
						<path id="Path_430" class="st13" d="M1077.9,616.8l4.2,1.1c0.6,0.2,1.2,0.1,1.8-0.1l3.8-1.4c1.3-0.5,3.1,0.2,3,1.1l-0.2,2.6
							c0,0.4,0.2,0.7,0.8,1l3.6,1.7c1.3,0.6,0.9,1.8-0.7,1.9l-4.4,0.5c-0.5,0-1,0.3-1.3,0.7l-1.5,2.5c-0.5,0.8-2.5,0.9-3.5,0.2
							l-2.5-2.3c-0.4-0.3-1-0.5-1.5-0.5l-4.5-0.2c-1.6-0.1-2.5-1.2-1.5-1.8l2.8-1.9c0.4-0.3,0.5-0.6,0.3-1l-1.3-2.5
							C1074.9,617.2,1076.5,616.4,1077.9,616.8z"/>
						<path id="Path_431" class="st13" d="M1161.6,507.9l4.7,1.2c0.7,0.2,1.4,0.1,2-0.1l4.1-1.5c1.5-0.5,3.5,0.2,3.4,1.2l-0.2,2.9
							c0.1,0.5,0.4,0.9,0.8,1.1l4,1.9c1.4,0.7,1,1.9-0.8,2.1l-4.8,0.6c-0.6,0-1.1,0.3-1.5,0.8l-1.7,2.7c-0.6,0.9-2.8,1-3.8,0.2
							l-2.7-2.5c-0.5-0.4-1.2-0.6-1.8-0.6l-5.1-0.2c-1.8-0.1-2.7-1.3-1.6-2.1l3.1-2.1c0.4-0.2,0.6-0.7,0.4-1.1v-0.1l-1.5-2.8
							C1158.3,508.4,1159.9,507.6,1161.6,507.9z"/>
						<path id="Path_432" class="st13" d="M1152.1,517.6l4.8,0.1c0.7,0,1.4-0.2,1.9-0.5l3.7-2.5c1.3-0.8,3.4-0.6,3.5,0.4l0.5,2.9
							c0.1,0.4,0.5,0.7,1.1,0.9l4.3,0.9c1.5,0.3,1.4,1.7-0.2,2.3l-4.6,1.7c-0.5,0.2-1,0.6-1.2,1.1l-1,3c-0.4,1.1-2.5,1.7-3.7,1
							l-3.3-1.8c-0.6-0.2-1.2-0.3-1.8-0.2l-5,0.9c-1.8,0.3-3-0.6-2.1-1.6l2.6-2.8c0.3-0.3,0.4-0.8,0.2-1.2l-2.1-2.5
							C1148.9,518.8,1150.3,517.6,1152.1,517.6z"/>
						<path id="Path_433" class="st13" d="M1196.5,514.1l4.6,1.5c0.6,0.2,1.3,0.2,2,0l4.2-1.3c1.5-0.5,3.5,0.4,3.3,1.4l-0.4,2.9
							c-0.1,0.4,0.2,0.8,0.8,1.2l3.9,2.1c1.4,0.8,0.8,2-0.8,2.1l-4.9,0.3c-0.6,0-1.1,0.3-1.5,0.7l-1.8,2.6c-0.6,0.9-2.9,0.8-3.8-0.1
							l-2.6-2.7c-0.5-0.4-1.1-0.7-1.7-0.7l-5-0.5c-1.8-0.2-2.7-1.5-1.5-2.1l3.3-2c0.4-0.2,0.6-0.7,0.5-1.1l-1.3-2.9
							C1193.1,514.3,1194.8,513.6,1196.5,514.1z"/>
						<path id="Path_434" class="st13" d="M1170.6,514.1l4.2,2.5c0.6,0.3,1.3,0.5,1.9,0.5l4.4-0.3c1.5-0.2,3.3,1.1,2.9,2.1l-1,2.7
							c-0.2,0.4,0.1,0.8,0.5,1.2l3.4,2.9c1.2,1,0.4,2.1-1.3,1.8l-4.8-0.8c-0.6-0.1-1.1,0-1.6,0.3l-2.3,2.1c-0.8,0.8-3,0.2-3.7-0.9
							l-2-3.2c-0.4-0.5-0.9-0.9-1.5-1.1l-4.8-1.6c-1.7-0.5-2.3-2-1-2.5l3.6-1.2c0.4-0.1,0.7-0.5,0.7-1l0,0l-0.6-3.2
							C1167.3,513.6,1169.1,513.2,1170.6,514.1z"/>
						<path id="Path_435" class="st13" d="M1472.5,369.3l1.5,4.1c0.2,0.6,0.5,1.1,1,1.5l3.2,2.4c1.2,0.8,1.5,2.7,0.8,3.2l-2.3,1.2
							c-0.3,0.3-0.5,0.7-0.4,1.2l0.5,4c0.2,1.4-1,1.7-2,0.5l-2.8-3.4c-0.3-0.4-0.8-0.7-1.3-0.8l-2.8,0.1c-1,0-2.1-1.6-2-2.8l0.5-3.3
							c0-0.6-0.1-1.1-0.4-1.6l-2.3-3.9c-0.8-1.4-0.4-2.7,0.8-2.2l3.2,1.3c0.5,0.1,0.8,0.1,1-0.2l1.5-2.5
							C1470.5,367,1472,367.9,1472.5,369.3z"/>
						<path id="Path_436" class="st13" d="M1491.2,380.5l1.5,4.1c0.2,0.6,0.5,1.1,1,1.5l3.2,2.4c1.2,0.8,1.5,2.7,0.8,3.2l-2.3,1.2
							c-0.3,0.3-0.5,0.7-0.4,1.2l0.5,4c0.2,1.4-1,1.7-2,0.5l-2.8-3.4c-0.3-0.4-0.8-0.7-1.3-0.8l-2.8,0.1c-1,0-2.1-1.6-2-2.8l0.5-3.3
							c0-0.6-0.1-1.1-0.4-1.6l-2.3-3.9c-0.8-1.4-0.4-2.7,0.8-2.2l3.2,1.3c0.5,0.2,0.8,0.1,1-0.2l1.5-2.5
							C1489.2,378.2,1490.7,379.1,1491.2,380.5z"/>
						<path id="Path_437" class="st13" d="M1509.9,391.8l1.5,4.2c0.2,0.6,0.5,1.1,1,1.5l3.2,2.4c1.2,0.8,1.5,2.7,0.8,3.1l-2.3,1.2
							c-0.4,0.3-0.5,0.7-0.4,1.2l0.5,4c0.2,1.4-1,1.7-2,0.5l-2.8-3.4c-0.3-0.4-0.8-0.7-1.3-0.8l-2.8,0.1c-1,0-2.2-1.6-2-2.8l0.5-3.3
							c0-0.6-0.1-1.1-0.4-1.6l-2.3-3.9c-0.8-1.4-0.4-2.7,0.8-2.2l3.2,1.3c0.5,0.2,0.8,0.1,1-0.2l1.5-2.5
							C1508,389.5,1509.4,390.4,1509.9,391.8z"/>
						<path id="Path_438" class="st13" d="M1528.7,403.1l1.5,4.2c0.2,0.6,0.5,1.1,1,1.5l3.2,2.4c1.2,0.8,1.5,2.7,0.8,3.2l-2.3,1.2
							c-0.4,0.3-0.5,0.7-0.4,1.2l0.5,4c0.2,1.4-1,1.7-2,0.5l-2.8-3.4c-0.3-0.4-0.8-0.7-1.3-0.8l-2.8,0.1c-1,0-2.1-1.6-2-2.8l0.5-3.3
							c0.1-0.6-0.1-1.1-0.4-1.6l-2.3-3.9c-0.8-1.4-0.4-2.7,0.8-2.2l3.2,1.3c0.5,0.2,0.9,0.1,1-0.2l1.5-2.5
							C1526.6,400.8,1528.1,401.7,1528.7,403.1z"/>
						<path id="Path_439" class="st15" d="M1547.3,414.4l1.5,4.1c0.2,0.6,0.5,1.1,1,1.5l3.2,2.4c1.2,0.8,1.5,2.7,0.8,3.1l-2.3,1.2
							c-0.3,0.3-0.5,0.7-0.4,1.2l0.5,4c0.2,1.4-1,1.7-2,0.5l-2.8-3.4c-0.3-0.4-0.8-0.7-1.3-0.8l-2.8,0.1c-1,0-2.1-1.6-2-2.8l0.5-3.3
							c0.1-0.6-0.1-1.1-0.4-1.6l-2.3-3.9c-0.8-1.4-0.4-2.7,0.8-2.2l3.2,1.3c0.5,0.2,0.8,0.1,1-0.2l1.5-2.5
							C1545.4,412.1,1546.9,413,1547.3,414.4z"/>
						<g id="Group_175">
							<path id="Path_440" class="st13" d="M1246.2,156.4l1.5,4.1c0.2,0.6,0.5,1.1,1,1.5l3.2,2.4c1.2,0.8,1.5,2.7,0.8,3.1l-2.3,1.2
								c-0.3,0.3-0.5,0.7-0.4,1.2l0.5,4c0.2,1.4-1,1.7-2,0.5l-2.8-3.4c-0.3-0.4-0.8-0.7-1.3-0.8l-2.8,0.1c-1,0-2.1-1.6-2-2.8
								l0.5-3.3c0.1-0.6-0.1-1.1-0.4-1.6l-2.3-3.9c-0.8-1.4-0.4-2.7,0.8-2.2l3.2,1.3c0.5,0.2,0.9,0.1,1-0.2l1.5-2.5
								C1244.2,154.2,1245.7,154.9,1246.2,156.4z"/>
							<path id="Path_441" class="st13" d="M1264.9,167.6l1.5,4.2c0.2,0.6,0.5,1.1,1,1.5l3.2,2.4c1.2,0.8,1.5,2.7,0.8,3.2l-2.3,1.2
								c-0.3,0.3-0.5,0.7-0.4,1.2l0.5,4c0.2,1.4-1,1.7-2,0.5l-2.8-3.4c-0.3-0.4-0.8-0.7-1.3-0.8l-2.8,0.1c-1,0-2.1-1.6-2-2.8
								l0.5-3.3c0.1-0.6-0.1-1.1-0.4-1.6l-2.3-3.9c-0.8-1.4-0.4-2.7,0.8-2.2l3.2,1.3c0.5,0.2,0.9,0.1,1-0.2l1.5-2.5
								C1263,165.3,1264.4,166.2,1264.9,167.6z"/>
							<path id="Path_442" class="st13" d="M1283.6,178.9l1.5,4.1c0.2,0.6,0.5,1.1,1,1.5l3.2,2.4c1.2,0.8,1.5,2.7,0.8,3.1l-2.3,1.2
								c-0.4,0.3-0.5,0.7-0.4,1.2l0.5,4c0.2,1.4-1,1.7-2,0.5l-2.8-3.4c-0.3-0.4-0.8-0.7-1.3-0.8l-2.8,0.1c-1,0-2.2-1.6-2-2.8
								l0.5-3.3c0-0.6-0.1-1.1-0.4-1.6l-2.3-3.9c-0.8-1.4-0.4-2.7,0.8-2.2l3.2,1.3c0.5,0.2,0.8,0.1,1-0.2l1.5-2.5
								C1281.6,176.6,1283.1,177.5,1283.6,178.9z"/>
							<path id="Path_443" class="st13" d="M1302.4,190.2l1.5,4.2c0.2,0.6,0.6,1.1,1,1.5l3.2,2.4c1.2,0.9,1.5,2.7,0.8,3.2l-2.3,1.2
								c-0.4,0.3-0.5,0.7-0.4,1.2l0.5,4c0.2,1.4-1,1.7-2,0.5l-2.8-3.4c-0.3-0.4-0.8-0.7-1.3-0.8l-2.8,0.1c-1,0-2.1-1.6-2-2.8
								l0.5-3.3c0.1-0.6-0.1-1.1-0.4-1.6l-2.3-3.9c-0.8-1.4-0.4-2.7,0.8-2.2l3.2,1.3c0.5,0.2,0.9,0.1,1-0.2l1.5-2.5
								C1300.3,187.9,1301.8,188.8,1302.4,190.2z"/>
							<path id="Path_444" class="st16" d="M1321.1,201.5l1.5,4.1c0.2,0.6,0.5,1.1,1,1.5l3.2,2.4c1.2,0.8,1.5,2.7,0.8,3.1l-2.3,1.2
								c-0.3,0.3-0.5,0.7-0.4,1.2l0.5,4c0.2,1.4-1,1.7-2,0.5l-2.8-3.4c-0.3-0.4-0.8-0.7-1.3-0.8l-2.8,0.1c-1,0-2.1-1.6-2-2.8
								l0.5-3.3c0.1-0.6-0.1-1.1-0.4-1.6l-2.3-3.9c-0.8-1.4-0.4-2.7,0.8-2.2l3.2,1.3c0.5,0.2,0.9,0.1,1-0.2l1.5-2.5
								C1319.1,199.2,1320.6,200.1,1321.1,201.5z"/>
						</g>
						<path id="Path_445" class="st15" d="M1534.3,411.1l-3.2-2.4c-0.5-0.3-0.9-0.9-1-1.5l-1.5-4.2c-0.2-0.7-0.6-1.2-1.2-1.6v15.7
							c0.2,0.1,0.4,0.3,0.6,0.5l2.8,3.4c1,1.2,2.1,0.9,2-0.5l-0.5-4c-0.1-0.4,0-0.9,0.4-1.2l2.3-1.2
							C1535.9,413.8,1535.4,412,1534.3,411.1z"/>
						<g id="Group_178">
							<path id="Path_446" class="st15" d="M1160.8,332.5c1.4-10.1-4.7-21.4-13.4-25.4c-3.5-1.7-7.6-1.8-11.2-0.2l0,0
								c-0.4,0.2-0.8,0.5-1.2,0.8l-7.5,4.8l3.8-0.8c-1.2,2-1.9,4.2-2.2,6.5c-1.4,10.1,4.7,21.4,13.4,25.4c1.7,0.7,3.5,1.2,5.3,1.3
								l0.8,1.9l5.3-3.2c0.3-0.2,0.5-0.3,0.8-0.5l0.1-0.1l0,0C1157.9,341.1,1160.2,337.4,1160.8,332.5z"/>
							<path id="Path_447" class="st8" d="M1153.9,336.7c-1.4,10.1-9.6,15.1-18.4,11.1c-8.8-4-14.8-15.3-13.4-25.4
								c1.4-10.1,9.6-15.1,18.4-11.1C1149.3,315.4,1155.3,326.7,1153.9,336.7z"/>
							<g id="Group_177">
								<g id="Group_176">
									<path id="Path_448" class="st2" d="M1124.7,321.4c2.5,6.2,5,12.5,7.5,18.7c1.2,2.8,4.5,4.2,6.9,1.8c3.1-3,6.3-6,9.5-9
										c3.9-3.6-2-9.5-5.8-5.8c-3.1,3-6.3,6-9.5,9l6.9,1.8c-2.5-6.2-5-12.5-7.5-18.8C1130.7,314.3,1122.8,316.4,1124.7,321.4
										L1124.7,321.4z"/>
								</g>
							</g>
						</g>
						<path id="Path_449" class="st2" d="M1300.1,455.1l-72.9-42.1c-1.6-0.9-2.9-3.5-2.9-5.6l0,0c0-2.1,1.3-3.1,2.9-2.2l72.9,42.1
							c1.8,1.3,2.9,3.4,2.9,5.6l0,0C1303.1,455.1,1301.8,456,1300.1,455.1z"/>
						<path id="Path_450" class="st2" d="M1258.3,416.1l-31-17.9c-1.8-1.3-2.9-3.4-2.9-5.6l0,0c0-2.1,1.3-3.1,2.9-2.2l31,17.9
							c1.6,0.9,2.9,3.5,2.9,5.6l0,0C1261.2,416,1259.9,417,1258.3,416.1z"/>
						<path id="Path_451" class="st2" d="M1299.8,440l-28.6-16.5c-1.6-0.9-2.9-3.5-2.9-5.6l0,0c0-2.1,1.3-3.2,2.9-2.2l28.6,16.5
							c1.6,0.9,2.9,3.5,2.9,5.6l0,0C1302.7,440,1301.4,441,1299.8,440z"/>
						<path id="Path_452" class="st2" d="M1540.3,466.6l-72.9-42.1c-1.8-1.3-2.9-3.4-2.9-5.6l0,0c0-2.1,1.3-3.1,2.9-2.2l72.9,42.1
							c1.6,0.9,2.9,3.5,2.9,5.6l0,0C1543.3,466.5,1541.9,467.5,1540.3,466.6z"/>
						<path id="Path_453" class="st2" d="M1498.5,427.6l-31-17.9c-1.6-0.9-2.9-3.5-2.9-5.6l0,0c0-2.2,1.3-3.2,2.9-2.2l31,17.9
							c1.8,1.3,2.9,3.4,2.9,5.6l0,0C1501.4,427.5,1500.1,428.5,1498.5,427.6z"/>
						<path id="Path_454" class="st2" d="M1539.9,451.6l-28.6-16.5c-1.6-0.9-2.9-3.5-2.9-5.6l0,0c0-2.1,1.3-3.2,2.9-2.2l28.6,16.5
							c1.8,1.3,2.9,3.4,2.9,5.6l0,0C1542.9,451.5,1541.6,452.5,1539.9,451.6z"/>
						<path id="Path_455" class="st2" d="M1312.6,252.6l-72.9-42.1c-1.8-1.3-2.9-3.4-2.9-5.6l0,0c0-2.2,1.3-3.2,2.9-2.2l72.9,42.1
							c1.8,1.3,2.9,3.4,2.9,5.6l0,0C1315.5,252.5,1314.2,253.5,1312.6,252.6z"/>
						<path id="Path_456" class="st2" d="M1270.7,213.6l-31-17.9c-1.8-1.3-2.9-3.4-2.9-5.6l0,0c0-2.1,1.3-3.1,2.9-2.2l31,17.9
							c1.8,1.3,2.9,3.4,2.9,5.6l0,0C1273.6,213.6,1272.3,214.6,1270.7,213.6z"/>
						<path id="Path_457" class="st2" d="M1312.2,237.6l-28.6-16.5c-1.8-1.3-2.9-3.4-2.9-5.6l0,0c0-2.1,1.3-3.1,2.9-2.2l28.6,16.5
							c1.8,1.3,2.9,3.4,2.9,5.6l0,0C1315.1,237.5,1313.8,238.5,1312.2,237.6z"/>
						<g id="Group_181">
							<path id="Path_458" class="st14" d="M1301.9,634.1c-2.1,7.6,1,15.8,7.7,20.1c0,0,5.2,1.1,4.8-5.2c-0.3-6.2-0.6-15.1-0.6-15.1
								L1301.9,634.1z"/>
							<g id="Group_180">
								<path id="Path_459" class="st3" d="M1306.3,549.8c6.5,25-2,47-19,49.3s-36.1-16.1-42.6-41c-6.5-24.9,2-47,19-49.3
									C1280.7,506.6,1299.8,524.8,1306.3,549.8z"/>
								<path id="Path_460" class="st20" d="M1337.6,625.3l-6.1,13.1l-28.6-40.7l6.1-13.1L1337.6,625.3z"/>
								<g id="Group_179">
									<path id="Path_461" class="st15" d="M1328.6,605.6c6.1-1,9.3,2.8,7.1,8.6c-2.1,5.8-8.8,11.3-14.9,12.4
										c-6.1,1.1-9.3-2.8-7.1-8.6C1315.9,612.2,1322.6,606.6,1328.6,605.6z"/>
									<path id="Path_462" class="st15" d="M1349,672.7l-34.7-47.8l21.4-16.9l34.9,48.2L1349,672.7z"/>
									<path id="Path_463" class="st15" d="M1363.7,653.8c6.1-1,9.3,2.8,7.1,8.6c-2.1,5.8-8.8,11.3-14.9,12.4s-9.3-2.8-7.1-8.6
										C1350.9,660.5,1357.5,654.9,1363.7,653.8z"/>
									<path id="Path_464" class="st15" d="M1371.9,704l-34.7-47.9l21.4-16.9l34.9,48.1L1371.9,704z"/>
									<path id="Path_465" class="st15" d="M1386.6,685.1c6.1-1,9.3,2.8,7.1,8.6c-2.1,5.8-8.8,11.3-14.9,12.4
										c-6.1,1.1-9.3-2.8-7.1-8.6C1373.8,691.7,1380.4,686.2,1386.6,685.1z"/>
								</g>
								<path id="Path_466" class="st2" d="M1274.8,530.1l-9.8,28.3c-0.5,1.5-2.1,1.5-3.6,0l0,0c-1.5-1.5-2.3-3.8-1.8-5.2l9.8-28.3
									c0.5-1.5,2.1-1.5,3.6,0l0,0C1274.5,526.2,1275.3,528.6,1274.8,530.1z"/>
								<path id="Path_467" class="st2" d="M1284.6,542.2l-9.8,28.3c-0.5,1.5-2.1,1.5-3.6,0l0,0c-1.5-1.5-2.3-3.8-1.8-5.2l9.8-28.3
									c0.5-1.5,2.1-1.5,3.6,0l0,0C1284.2,538.4,1285,540.8,1284.6,542.2z"/>
								<path id="Path_468" class="st20" d="M1285.3,508.7c-21.6-9.6-39.7,2.9-40.7,27.9c-0.9,25,15.9,52.9,37.5,62.6
									s39.7-2.9,40.6-27.9S1306.9,518.2,1285.3,508.7z M1317,568.6c-0.7,21.2-16.1,31.8-34.5,23.7c-18.3-8.1-32.6-31.9-31.9-53.1
									c0.7-21.2,16.1-31.8,34.5-23.7C1303.4,523.7,1317.7,547.4,1317,568.6z"/>
								<path id="Path_469" class="st19" d="M1323.7,556.8c-0.1-0.5-0.2-1.1-0.2-1.6c0-0.1,0-0.2-0.1-0.3c-0.1-0.2-0.1-0.5-0.2-0.8
									c-0.1-0.2-0.1-0.6-0.2-0.9c0-0.2-0.1-0.4-0.1-0.5c-0.1-0.3-0.1-0.6-0.2-0.8c-0.1-0.2-0.1-0.5-0.2-0.6
									c-0.1-0.2-0.1-0.5-0.2-0.8c-0.1-0.3-0.2-0.5-0.2-0.8c0-0.1,0-0.3-0.1-0.4c-0.1-0.4-0.2-0.7-0.3-1.1l-0.2-0.7
									c0-0.1,0-0.2-0.1-0.2c-0.2-0.7-0.4-1.3-0.6-1.9l0,0c0-0.1,0-0.1-0.1-0.2c-0.2-0.6-0.4-1.1-0.6-1.7c0-0.1-0.1-0.2-0.1-0.2
									s-0.1-0.4-0.2-0.6c-0.1-0.2-0.2-0.6-0.3-0.9c-0.1-0.3-0.2-0.4-0.2-0.6c-0.1-0.2-0.2-0.5-0.3-0.7c-0.1-0.2-0.2-0.3-0.2-0.5
									c-0.2-0.3-0.3-0.7-0.5-1c-0.1-0.2-0.2-0.4-0.2-0.5c-0.1-0.2-0.1-0.1-0.1-0.2c-0.3-0.6-0.5-1.2-0.8-1.8v-0.1
									c-0.1-0.2-0.2-0.4-0.2-0.5l-0.7-1.4c0-0.1-0.1-0.2-0.1-0.2c-0.2-0.4-0.4-0.7-0.6-1.1c-0.1-0.3-0.3-0.6-0.5-0.8
									c0-0.1-0.1-0.1-0.1-0.2l-1.6-2.7c-0.1-0.1-0.1-0.2-0.1-0.2l-0.5-0.7l-0.7-1.2c-0.2-0.3-0.5-0.7-0.7-1
									c-0.2-0.4-0.5-0.8-0.8-1.1c-0.1-0.2-0.1-0.2-0.2-0.4c-0.2-0.3-0.4-0.5-0.6-0.8c-0.2-0.2-0.3-0.4-0.4-0.6
									c-0.5-0.6-0.9-1.2-1.4-1.8l0,0c-0.5-0.7-1.1-1.3-1.6-1.9l-0.1-0.1c-0.4-0.5-0.8-0.9-1.2-1.4c-0.1-0.1-0.2-0.2-0.2-0.3l0,0
									c-0.5-0.5-1-1.1-1.5-1.5l-0.1-0.1l-0.5-0.5l-0.9-0.9c-0.1-0.1-0.2-0.1-0.2-0.2c-0.2-0.2-0.5-0.4-0.7-0.6
									c-0.2-0.2-0.5-0.5-0.8-0.7c-0.1-0.1-0.2-0.2-0.3-0.2c-0.2-0.2-0.5-0.4-0.7-0.6c-0.2-0.2-0.4-0.4-0.6-0.5
									c-0.2-0.2-0.2-0.2-0.4-0.3c-0.2-0.2-0.5-0.4-0.8-0.6c-0.2-0.2-0.4-0.3-0.5-0.5c-0.2-0.2-0.3-0.2-0.5-0.3
									c-0.2-0.2-0.5-0.4-0.8-0.6c-0.2-0.2-0.3-0.2-0.5-0.4c-0.2-0.2-0.4-0.2-0.5-0.4c-0.2-0.2-0.5-0.4-0.8-0.5
									c-0.2-0.1-0.3-0.2-0.4-0.3l-0.7-0.5c-0.2-0.2-0.5-0.3-0.8-0.5c-0.1-0.1-0.2-0.1-0.3-0.1c-0.3-0.2-0.6-0.4-0.9-0.5
									s-0.4-0.2-0.6-0.4c-0.1,0-0.1-0.1-0.2-0.1c-0.5-0.3-1.1-0.6-1.7-0.8l0,0c-0.1,0-0.1-0.1-0.2-0.1l-1.5-0.7
									c-0.2-0.1-0.2-0.2-0.4-0.2c-0.4-0.1-0.8-0.4-1.2-0.5c-0.1-0.1-0.3-0.1-0.5-0.2c-0.2-0.1-0.4-0.1-0.6-0.2
									c-0.1-0.1-0.3-0.1-0.5-0.2c-0.2-0.1-0.5-0.2-0.8-0.2c-0.2-0.1-0.4-0.1-0.5-0.2c-0.1,0-0.1-0.1-0.2-0.1
									c-0.5-0.2-1.1-0.3-1.5-0.5l0,0c-0.5-0.2-1.1-0.2-1.6-0.4c-0.1,0-0.2,0-0.2-0.1c-0.2-0.1-0.4-0.1-0.5-0.1
									c-0.2-0.1-0.5-0.1-0.8-0.2c-0.1,0-0.3,0-0.4-0.1c-0.2,0-0.5-0.1-0.7-0.1s-0.4-0.1-0.5-0.1c-0.2,0-0.4,0-0.5-0.1
									c-0.2,0-0.5-0.1-0.7-0.1h-3.8c-0.2,0-0.4,0.1-0.5,0.1c-0.3,0-0.7,0.1-1,0.1h-0.3c-0.4,0.1-0.8,0.1-1.1,0.1h-0.2
									c-0.3,0.1-0.5,0.1-0.8,0.2c-0.2,0.1-0.4,0.1-0.5,0.2c-0.2,0-0.2,0.1-0.4,0.1c-0.5,0.2-0.9,0.2-1.4,0.4h-0.1
									c-0.1,0.1-0.2,0.1-0.4,0.2l-1.2,0.5l-0.5,0.2c-0.2,0.1-0.5,0.2-0.7,0.3c-0.1,0-0.1,0-0.2,0.1c-0.4,0.2-0.7,0.4-1.1,0.5
									c-0.2,0.1-0.4,0.2-0.5,0.3c-0.5,0.3-1,0.6-1.5,1l-8.1,5.6c0.5-0.3,1-0.7,1.5-1c0.2-0.1,0.4-0.2,0.5-0.3
									c0.3-0.2,0.7-0.4,1.1-0.5c0.3-0.2,0.6-0.3,0.9-0.4c0.2-0.1,0.4-0.2,0.5-0.2l1.2-0.5c0.1-0.1,0.2-0.1,0.4-0.2
									c0.5-0.2,0.9-0.3,1.5-0.5c0.2,0,0.2-0.1,0.4-0.1c0.5-0.1,0.9-0.2,1.3-0.3h0.2l1.4-0.2c0.3-0.1,0.7-0.1,1-0.1
									c0.3,0,0.5-0.1,0.8-0.1h2.5c0.3,0,0.7,0,1,0.1c0.2,0,0.5,0,0.7,0.1c0.4,0,0.7,0.1,1.1,0.2c0.2,0,0.5,0.1,0.7,0.1l1.2,0.2
									c0.2,0,0.4,0.1,0.5,0.1c0.6,0.2,1.2,0.2,1.8,0.4l0,0c0.6,0.1,1.2,0.3,1.8,0.5c0.2,0.1,0.3,0.1,0.5,0.2
									c0.5,0.2,0.8,0.3,1.3,0.5c0.2,0.1,0.4,0.1,0.6,0.2c0.5,0.2,1.2,0.5,1.7,0.7c0.5,0.2,1.3,0.6,1.9,0.9c0,0,0.1,0,0.1,0.1l0,0
									c0.6,0.3,1.2,0.6,1.8,1c0.2,0.2,0.4,0.2,0.6,0.4c0.4,0.2,0.8,0.5,1.2,0.7c0.2,0.2,0.5,0.3,0.8,0.5c0.4,0.2,0.7,0.5,1.1,0.7
									c0.2,0.1,0.5,0.4,0.8,0.5s0.7,0.5,1,0.7c0.3,0.2,0.5,0.4,0.8,0.6s0.7,0.5,1,0.8s0.5,0.4,0.8,0.6c0.2,0.2,0.7,0.5,1,0.9
									c0.3,0.3,0.5,0.4,0.7,0.6s0.7,0.6,1,0.9c0.3,0.3,0.5,0.4,0.7,0.6l1.2,1.2l0.5,0.5c0.6,0.5,1.1,1.1,1.5,1.7l0.2,0.2
									c0.5,0.5,0.9,1,1.3,1.5c0.5,0.6,1.1,1.3,1.6,1.9l0,0c0.5,0.6,0.9,1.2,1.4,1.8c0.2,0.2,0.3,0.4,0.4,0.6
									c0.3,0.4,0.6,0.8,0.8,1.2c0.2,0.4,0.5,0.7,0.8,1.1c0.2,0.4,0.5,0.7,0.7,1l0.7,1.2c0.2,0.3,0.4,0.6,0.6,0.9l1.6,2.8
									c0.2,0.3,0.4,0.7,0.5,1.1c0.2,0.4,0.4,0.8,0.6,1.1c0.2,0.5,0.5,1,0.8,1.5c0.1,0.2,0.2,0.4,0.2,0.5l0.9,2.1
									c0.1,0.2,0.2,0.4,0.2,0.5c0.2,0.5,0.4,1,0.6,1.5c0.1,0.2,0.2,0.5,0.3,0.7c0.2,0.5,0.4,1,0.5,1.5c0.1,0.2,0.1,0.4,0.2,0.6
									c0.2,0.7,0.5,1.3,0.7,2c0,0.1,0,0.1,0.1,0.2c0.2,0.7,0.5,1.5,0.7,2.1l0.2,0.7c0.2,0.5,0.3,1,0.4,1.5
									c0.1,0.3,0.2,0.5,0.2,0.8c0.1,0.5,0.2,0.9,0.3,1.4c0.1,0.3,0.1,0.6,0.2,0.8c0.1,0.5,0.2,1,0.3,1.5c0.1,0.2,0.1,0.5,0.2,0.8
									c0.1,0.6,0.2,1.3,0.3,1.9c0,0.1,0,0.2,0.1,0.3c0.1,0.7,0.2,1.5,0.2,2.1c0,0.2,0,0.4,0.1,0.6c0.1,0.5,0.1,1,0.1,1.5v0.8
									c0,0.5,0,1,0.1,1.5v2.7c0,0.7-0.1,1.4-0.2,2.1c0,0.2,0,0.4-0.1,0.6c-0.1,0.5-0.1,1-0.2,1.5c0,0.3-0.1,0.5-0.1,0.8
									c-0.1,0.4-0.1,0.8-0.1,1.2c-0.1,0.3-0.1,0.6-0.2,0.8c-0.1,0.4-0.2,0.8-0.2,1.1c-0.1,0.3-0.2,0.6-0.2,1
									c-0.1,0.4-0.2,0.6-0.2,1c-0.1,0.4-0.2,0.8-0.3,1.2c-0.1,0.4-0.2,0.5-0.2,0.9c-0.2,0.5-0.3,0.8-0.5,1.3
									c-0.1,0.2-0.2,0.5-0.3,0.8c-0.1,0.2-0.1,0.2-0.1,0.4c-0.2,0.5-0.4,0.9-0.6,1.3c-0.1,0.1-0.1,0.2-0.2,0.2
									c-0.2,0.5-0.5,1.1-0.8,1.6l0,0c-0.3,0.5-0.5,1-0.8,1.5c-0.1,0.1-0.2,0.2-0.2,0.3c-0.2,0.4-0.5,0.7-0.7,1.1
									c-0.1,0.1-0.2,0.3-0.3,0.4l-0.7,0.9c-0.1,0.1-0.2,0.2-0.3,0.3c-0.3,0.4-0.7,0.8-1,1.2l-0.2,0.2l-0.9,0.9
									c-0.2,0.1-0.2,0.2-0.4,0.3c-0.3,0.2-0.5,0.5-0.9,0.7c-0.1,0.1-0.2,0.2-0.4,0.3c-0.4,0.3-0.8,0.6-1.2,0.9l8.1-5.6
									c0.4-0.3,0.9-0.6,1.2-0.9c0.2-0.1,0.2-0.2,0.4-0.3c0.3-0.2,0.5-0.5,0.9-0.7c0.2-0.1,0.2-0.2,0.4-0.3l0.9-0.9l0.2-0.2
									c0.4-0.4,0.7-0.8,1-1.2c0.1-0.1,0.2-0.2,0.3-0.3l0.7-0.9c0.1-0.1,0.2-0.3,0.3-0.4c0.2-0.3,0.5-0.7,0.7-1.1
									c0.1-0.1,0.2-0.2,0.2-0.3c0,0,0-0.1,0.1-0.1c0,0,0,0,0,0l0,0c0.3-0.5,0.5-0.9,0.9-1.4l0,0c0.2-0.5,0.5-1,0.8-1.5
									c0,0,0-0.1,0.1-0.1l0,0c0.1-0.1,0.1-0.2,0.2-0.2c0.2-0.5,0.4-0.9,0.6-1.3c0.1-0.2,0.1-0.2,0.2-0.4s0.1-0.2,0.2-0.3
									c0.1-0.2,0.2-0.3,0.2-0.5c0.2-0.5,0.3-0.8,0.5-1.3c0.1-0.2,0.1-0.2,0.2-0.4c0.1-0.2,0.1-0.4,0.2-0.5
									c0.1-0.4,0.2-0.8,0.3-1.2c0.1-0.2,0.1-0.3,0.2-0.5c0.1-0.2,0.1-0.4,0.2-0.5c0-0.2,0.1-0.6,0.2-1c0-0.2,0.1-0.3,0.1-0.5
									c0.1-0.2,0.1-0.4,0.1-0.6c0.1-0.3,0.1-0.6,0.2-0.9c0.1-0.2,0.1-0.3,0.1-0.5c0.1-0.3,0.1-0.5,0.1-0.8c0-0.3,0.1-0.5,0.1-0.8
									c0-0.1,0-0.2,0.1-0.3c0.1-0.4,0.1-0.8,0.1-1.2c0-0.2,0.1-0.4,0.1-0.6v-0.2c0.1-0.6,0.1-1.3,0.1-1.9v-5.5
									c0-0.4-0.1-0.7-0.1-1.1c0-0.2,0-0.4-0.1-0.6v-0.2l-0.2-1.9v-0.1C1323.7,557,1323.7,556.9,1323.7,556.8z"/>
								<path id="Path_470" class="st21" d="M1279.2,508.2c-10.5-4.7-20.7-4.5-28.7,0.5c-8.6,5.4-13.6,15.6-14.1,28.7
									c-0.8,25.5,16.4,54.2,38.4,63.9c6.5,2.8,12.7,3.9,18.5,3.1c3.6-0.5,7.1-1.7,10.1-3.7c8.6-5.4,13.6-15.6,14.1-28.7
									C1318.6,546.7,1301.3,518,1279.2,508.2z M1308.8,569.5c-0.4,10.1-4.2,18-10.6,22.1c-6,3.8-13.7,3.8-21.8,0.3
									c-17.7-7.9-31.6-31-31-51.6c0.4-10.1,4.1-18,10.6-22.1c2.3-1.4,4.9-2.4,7.5-2.7c4.4-0.6,9.2,0.2,14.2,2.4
									C1295.5,525.6,1309.4,548.8,1308.8,569.5L1308.8,569.5z"/>
							</g>
							<path id="Path_471" class="st22" d="M1319.4,619.1l-7.8,21.9c-1.1,1.7-16.9-6.3-15.6-8.9c0.2-0.5,8.7-27,17.8-31.2
								C1321.1,597.4,1323.4,609.1,1319.4,619.1z"/>
							<path id="Path_472" class="st14" d="M1334,605.4l-0.6-0.1c-2.1-0.2-3.7-2-3.6-4.1l0.8-11.8c0.2-2.1,2-3.7,4.1-3.6l0.6,0.1
								c2.1,0.2,3.7,2,3.6,4.1l0.9,11.5C1339.6,603.5,1336.1,605.5,1334,605.4z"/>
							<path id="Path_473" class="st14" d="M1333,590.7c2.5,5.1,6.8,6,9.6,1.8c2.8-4.2,3.1-11.6,0.6-16.7c-2.5-5.2-6.8-6-9.6-1.8
								C1330.8,578.1,1330.5,585.5,1333,590.7z"/>
							<path id="Path_474" class="st23" d="M1332.1,576.6c0,0,2,10.4-6.1,13.4c0,0-9.8-4.7-3.7-15.4c5.4-9.4,15.7-3.3,15.7-3.3
								L1332.1,576.6z"/>
							<path id="Path_475" class="st23" d="M1344.1,578.2c-2.3-2.3-5.6-3.3-8.8-2.7l2.7-4.3C1338,571.2,1342.4,570.2,1344.1,578.2z"
								/>
							<path id="Path_476" class="st16" d="M1328.3,583c1.8-2.7,6-2.9,12.3-1c5.6-0.1,5.9-6.5,5.9-6.5c0.6-3.5-1.8-4.8-5.2-5.5
								l-9.1-1.7c-5.2-1-9.7,3.5-10.4,7.1l-0.2,0.6C1321,579.4,1324.7,582.4,1328.3,583z"/>
							<path id="Path_477" class="st3" d="M1317.9,769.9c9.3,4.9,25.1,5.2,35.4,0.4s11-12.6,1.7-17.6s-25.1-5.2-35.4-0.4
								S1308.6,764.9,1317.9,769.9z"/>
							<path id="Path_478" class="st7" d="M1359.7,760.2l-10,8.3c-2.5,1.7-4.2,0.5-6.3,0.1c-0.9-0.2-1.6-1-1.6-2v-2.1
								c-0.1-3,2.7-4.8,4.6-5.7l10.2-5.6C1358.5,752.3,1364.8,755.5,1359.7,760.2z"/>
							<path id="Path_479" class="st7" d="M1324.3,747.2l2.7,12.7c0.9,6.7-9.7,7.8-10.2,0.5l-0.2-13.8
								C1316.7,744.5,1322.4,740.4,1324.3,747.2z"/>
							<path id="Path_480" class="st24" d="M1350.2,761.9c0,3.1-7.5,3.1-7.5,0.1l-0.1-10l7.5-0.1L1350.2,761.9z"/>
							<path id="Path_481" class="st24" d="M1325.6,755.7c0,3.1-7.5,3.1-7.5,0v-10h7.5V755.7z"/>
							<path id="Path_482" class="st25" d="M1326.6,752.9c-2.9,2.1-7.8,2.1-9.4-0.4c-1.9-36.7-7.9-61.2-7.6-92.6l23.3-6.9
								C1328.7,690.6,1328.3,723.8,1326.6,752.9z"/>
							<path id="Path_483" class="st25" d="M1351.1,756.3c-2.4,3.3-7.8,3.3-9.3,0.9l-15.7-98.9h27L1351.1,756.3z"/>
							<path id="Path_484" class="st22" d="M1308.7,657.3c2.2-12.4,2.5-25,0.8-37.4c0-20.4,2.8-20.4,16.4-21.2l3.2-0.2
								c3.9-0.2,7.8,0.5,11.3,2.2c12.1,5.8,17.9,7.3,15.4,21.7l-2.7,35.9C1353.2,676.8,1307.7,679,1308.7,657.3z"/>
							<path id="Path_485" class="st26" d="M1345.6,628.6l6.7,27.7l0.8,2.7l0.9-13.4L1345.6,628.6z"/>
							<path id="Path_486" class="st16" d="M1325.3,593.2c2.5,5.2,8.6,6.1,11.5,2c2.8-4.2,6.6-12.3,4.1-17.4
								c-2.5-5.2-17-4.8-19.8-0.8C1318.3,581.1,1322.9,588.1,1325.3,593.2z"/>
							<path id="Path_487" class="st14" d="M1356.4,645.3c0,0,2.6,12.6,16.5,13.8c0,0,5-1.5,1.7-6.8l-8-12.8L1356.4,645.3z"/>
							<path id="Path_488" class="st22" d="M1344.5,624.1l7.8,21.9c1.1,1.7,16.9-6.3,15.6-8.9c-0.2-0.5-8.7-27-17.7-31.2
								C1342.7,602.4,1340.4,614.1,1344.5,624.1z"/>
						</g>
						<g id="Group_182">
							<path id="Path_489" class="st14" d="M1132.9,604.4c11.1,12.5,29.2-14.8,29.2-14.8l-5.2-3.7c0,0-11.5,17.7-16.7,10.6
								C1134.3,588.5,1113.4,582.5,1132.9,604.4z"/>
							<path id="Path_490" class="st13" d="M1191.7,583.3l1.9,5.5c0.2,0.8,0.7,1.5,1.4,1.9l4.2,3.1c1.5,1.2,2.1,3.6,1,4.2l-3.1,1.7
								c-0.5,0.4-0.7,1-0.5,1.5l0.7,5.3c0.2,1.8-1.3,2.3-2.7,0.7l-3.8-4.5c-0.4-0.5-1-0.9-1.7-1l-3.8,0.1c-1.3,0-2.9-2.1-2.7-3.8
								l0.7-4.5c0.1-0.8-0.1-1.5-0.5-2.1l-3.1-5.2c-1.1-1.8-0.5-3.6,1-3l4.2,1.8c0.5,0.3,1.1,0.1,1.4-0.4l1.9-3.3
								C1189,580.2,1191,581.4,1191.7,583.3z"/>
							<path id="Path_491" class="st3" d="M1116.6,750.1c9.8,5.2,26.4,5.4,37.2,0.4s11.5-13.3,1.8-18.5s-26.4-5.4-37.2-0.4
								C1107.7,736.6,1106.8,744.9,1116.6,750.1z"/>
							<path id="Path_492" class="st7" d="M1116.4,730.2l6.1-0.8c4.2-1.8,6.1-3.3,7.9-2.2l0.5,0.3c1.8,1.1,1.6,2.9-0.5,4.2l-9.1,7.3
								c-2.1,1.2-4.8,0.9-6.7-0.6c0,0-1-0.9-0.3-4.8C1114.8,731.3,1114.7,731.2,1116.4,730.2z"/>
							<path id="Path_493" class="st7" d="M1143.5,744.8l6.1,1.2c4.5-0.5,6.8-1.2,8.2,0.3l0.4,0.5c1.5,1.5,0.6,3.3-1.8,3.8
								l-10.9,4.1c-2.4,0.5-4.9-0.6-6.1-2.7c0,0-0.7-1.2,1.2-4.6C1141.7,745.4,1141.6,745.2,1143.5,744.8z"/>
							<path id="Path_494" class="st24" d="M1147.7,746.3c0,3.1-7.5,3.1-7.5,0v-10h7.5V746.3z"/>
							<path id="Path_495" class="st25" d="M1148.7,739.9c-2.5,3.5-7.8,3.5-9.4,1l-13.1-104.3h27.1L1148.7,739.9z"/>
							<path id="Path_496" class="st24" d="M1122.2,731.4c-0.2,2.7-7.7,2.7-7.5,0l0.5-9.1h7.5L1122.2,731.4z"/>
							<path id="Path_497" class="st25" d="M1123.7,727.5c-3,3.1-8.9,1.8-10.1-0.5l4-90.5l18.9,2.8L1123.7,727.5z"/>
							<path id="Path_498" class="st27" d="M1143.5,569.3c-1.8,6.5-6.7,8.3-10.8,4.1c-4.1-4.2-5.9-12.9-4-19.4
								c1.9-6.5,6.7-8.3,10.8-4.1C1143.6,554.1,1145.3,562.8,1143.5,569.3z"/>
							<path id="Path_499" class="st14" d="M1150.3,567.3c-1.8,6.4-8.8,8.8-12.9,4.6c-4.1-4.2-5.9-12.9-4-19.4
								c1.9-6.5,6.7-8.3,10.8-4.1S1152.2,560.8,1150.3,567.3z"/>
							<path id="Path_500" class="st14" d="M1134.6,586l-0.7-0.2c-2.3-0.5-3.8-2.8-3.3-5.2v-0.1l2.9-13.2c0.5-2.3,2.8-3.8,5.2-3.3
								h0.1l0.7,0.2c2.3,0.5,3.8,2.8,3.3,5.2c0,0,0,0,0,0v0.1l-1,13.1C1141.3,584.9,1137,586.5,1134.6,586z"/>
							<path id="Path_501" class="st15" d="M1126.7,568.3c0,0,0.7,6.1,9.4,4.9c6.2-0.8,4.4-11,10.6-12c6.8-1.2,8.1-9.6,5.4-12.8
								c-2.7-3.2-10.2-4.9-15.7-2.5C1131,548.2,1122.5,548,1126.7,568.3z"/>
							<circle id="Ellipse_11" class="st14" cx="1143.9" cy="563.8" r="3"/>
							<path id="Path_502" class="st18" d="M1116.8,635.3c2.2-12.1-0.2-21.8,0-34.7c0-23.2-1.2-28.9,11.1-25.4l3.5,0.9
								c1.6,0.4,3.2,1,4.8,1.8c16.2,8.4,20.5,10.9,19.8,20.6c0.1,15.9-2.3,33.8-2.6,41.6C1150.1,651.3,1120.5,643.2,1116.8,635.3z"
								/>
							<path id="Path_503" class="st17" d="M1142.4,574l-0.7-1.6c1,0.8,2.3,1.2,3.6,0.9C1144.4,573.8,1143.4,574,1142.4,574z"/>
							<path id="Path_504" class="st14" d="M1189.4,610l1.1-3c0.8-2.3,3.4-3.5,5.7-2.7c0,0,0,0,0,0l0,0c2.3,0.8,3.5,3.4,2.7,5.7
								c0,0,0,0,0,0l-1.1,3c-0.8,2.3-3.4,3.5-5.7,2.7c0,0,0,0,0,0l0,0c-2.3-0.8-3.5-3.3-2.7-5.6C1189.3,610.1,1189.3,610,1189.4,610
								z"/>
							<path id="Path_505" class="st14" d="M1143,591.5c0,0,3.8,16.9,23.4,38.8c11.1,12.5,29.2-14.8,29.2-14.8l-5.2-3.7
								c0,0-11.5,17.7-16.7,10.6C1167.8,614.4,1159.5,584.2,1143,591.5z"/>
							<path id="Path_506" class="st14" d="M1155.8,584.1l1.1-3c0.8-2.3,3.3-3.5,5.6-2.7c0,0,0,0,0,0l0,0c2.3,0.8,3.5,3.3,2.7,5.7
								c0,0,0,0,0,0l-1.1,3c-0.8,2.3-3.4,3.5-5.7,2.7l0,0c-2.3-0.8-3.5-3.3-2.7-5.6L1155.8,584.1z"/>
							<path id="Path_507" class="st18" d="M1146.7,603.3l10,21.4c1.4,1.5,15.7-9,13.9-11.4c-0.3-0.4-12.9-25.2-22.6-27.9
								C1140.3,583.2,1141.1,594.1,1146.7,603.3z"/>
							<path id="Path_508" class="st13" d="M1164.8,565.9l1.9,5.5c0.2,0.8,0.7,1.5,1.4,1.9l4.2,3.2c1.5,1.2,2.1,3.6,1,4.1l-3.1,1.7
								c-0.5,0.4-0.7,1-0.5,1.5l0.7,5.3c0.2,1.8-1.3,2.3-2.7,0.7l-3.8-4.5c-0.4-0.5-1-0.9-1.7-1l-3.8,0.1c-1.3,0-2.9-2.1-2.7-3.8
								l0.7-4.5c0.1-0.8-0.1-1.5-0.5-2.1l-3.1-5.2c-1.1-1.8-0.5-3.6,1-3l4.2,1.8c0.5,0.3,1.1,0.1,1.4-0.4l1.9-3.3
								C1162.2,562.9,1164.2,564,1164.8,565.9z"/>
						</g>
						<g id="Group_183">
							<path id="Path_509" class="st28" d="M1481,653.8c-7.8-4.6-20.4-4.8-28.3-0.5c-7.9,4.4-8,11.7-0.3,16.3s20.2,4.8,28.3,0.5
								C1489.5,665.4,1488.7,658.3,1481,653.8z"/>
							<path id="Path_510" class="st16" d="M1474.6,652.8c-7.3-4.4-19.4-4.6-26.8-0.5c-7.5,4.1-7.6,11.1-0.2,15.5
								c7.4,4.5,19.2,4.6,26.8,0.5C1482.8,663.8,1481.9,657.1,1474.6,652.8z"/>
							<path id="Path_511" class="st18" d="M1474.5,648.2c-7.3-4.4-19.4-4.6-26.8-0.5c-7.5,4.1-7.6,11.1-0.2,15.5
								c7.4,4.5,19.2,4.6,26.8,0.5C1482.5,659.3,1481.7,652.6,1474.5,648.2z"/>
							<path id="Path_512" class="st29" d="M1456.3,651.2l-2.2,7.5l17.6-4"/>
						</g>
						<g id="Group_184">
							<path id="Path_513" class="st28" d="M1058,659.1c-7.8-4.6-20.4-4.8-28.3-0.5c-7.9,4.4-8,11.7-0.3,16.3
								c7.7,4.6,20.2,4.8,28.3,0.5C1066.5,670.8,1065.7,663.8,1058,659.1z"/>
							<path id="Path_514" class="st16" d="M1051.6,658.1c-7.3-4.4-19.4-4.6-26.8-0.5c-7.5,4.1-7.6,11.1-0.2,15.5
								c7.4,4.5,19.2,4.6,26.8,0.5C1059.7,669.2,1058.9,662.5,1051.6,658.1z"/>
							<path id="Path_515" class="st18" d="M1051.3,653.5c-7.3-4.4-19.4-4.6-26.8-0.5c-7.5,4.2-7.6,11.1-0.2,15.5
								c7.4,4.5,19.2,4.6,26.8,0.5C1059.4,664.7,1058.7,657.9,1051.3,653.5z"/>
							<path id="Path_516" class="st29" d="M1033.2,656.5l-2.1,7.5l17.6-4"/>
						</g>
						<g id="Group_185">
							<path id="Path_517" class="st28" d="M1431.9,630.3c-8-4.8-21-5-29.1-0.5c-8.1,4.5-8.2,12-0.3,16.8c7.9,4.8,20.9,5,29.1,0.6
								C1440.8,642.3,1439.9,635.1,1431.9,630.3z"/>
							<path id="Path_518" class="st15" d="M1425.4,629.3c-7.5-4.5-19.9-4.8-27.7-0.5c-7.7,4.3-7.8,11.5-0.2,16s19.8,4.8,27.7,0.5
								C1433.8,640.7,1432.9,633.8,1425.4,629.3z"/>
							<path id="Path_519" class="st19" d="M1425.1,624.6c-7.5-4.5-19.9-4.8-27.7-0.5c-7.8,4.3-7.8,11.5-0.2,16
								c7.6,4.5,19.8,4.8,27.7,0.5C1433.5,636,1432.7,629.1,1425.1,624.6z"/>
							<line id="Line_44" class="st30" x1="1408.8" y1="624.9" x2="1413" y2="638.4"/>
							<line id="Line_45" class="st30" x1="1418.6" y1="629.7" x2="1404" y2="632.3"/>
						</g>
						<g id="Group_186">
							<path id="Path_520" class="st28" d="M1257.6,628.4c-8-4.8-21-5-29.1-0.5c-8.1,4.5-8.2,12-0.3,16.8c7.9,4.8,20.9,5,29.1,0.6
								C1266.4,640.5,1265.5,633.3,1257.6,628.4z"/>
							<path id="Path_521" class="st15" d="M1251.1,627.4c-7.5-4.5-19.9-4.8-27.7-0.5s-7.8,11.5-0.2,16s19.8,4.8,27.7,0.5
								C1259.4,638.9,1258.6,631.9,1251.1,627.4z"/>
							<path id="Path_522" class="st19" d="M1250.7,622.7c-7.5-4.5-19.9-4.8-27.7-0.5c-7.7,4.3-7.8,11.5-0.2,16s19.8,4.8,27.7,0.5
								C1259.1,634.1,1258.3,627.3,1250.7,622.7z"/>
							<line id="Line_46" class="st30" x1="1234.4" y1="623" x2="1238.6" y2="636.6"/>
							<line id="Line_47" class="st30" x1="1244.3" y1="627.9" x2="1229.6" y2="630.5"/>
						</g>
					</g>
					
						<linearGradient id="градиент_1_" gradientUnits="userSpaceOnUse" x1="465.0857" y1="-43.1957" x2="464.4782" y2="-41.5997" gradientTransform="matrix(1920 0 0 1080 -891426 46001.5)">
						<stop  offset="0" style="stop-color:#E6D7E7;stop-opacity:0.29"/>
						<stop  offset="1" style="stop-color:#DAB2DF"/>
					</linearGradient>
					<path id="градиент" class="st31" d="M0-152.3h1741.1V827H0V-152.3z"/>
					
						<image style="overflow:visible;opacity:0.15;enable-background:new    ;" width="3000" height="3191" id="графика1" xlink:href="2F737381.png"  transform="matrix(8.204327e-02 -0.4643 0.4643 8.204327e-02 1150.3643 1413.3176)">
					</image>
					
						<image style="overflow:visible;opacity:0.12;enable-background:new    ;" width="1431" height="1431" id="графика2" xlink:href="2F737383.png"  transform="matrix(0.2902 1.813596e-02 -1.813596e-02 0.2902 636.9442 117.385)">
					</image>
				</g>
			</g>
		</g>
	</g>
</g>
</svg>
